<svg width="37" height="25" viewBox="0 0 37 25" fill="none" xmlns="http://www.w3.org/2000/svg">
<path d="M8.52834 11.1104H3.24361C1.70584 11.1104 0.459229 12.3431 0.459229 13.8638V19.2303H6.77907V14.8089C6.77907 13.323 7.45918 11.9943 8.52834 11.1104Z" fill="#8A939D"/>
<path d="M30.3364 19.2302H36.656V13.8637C36.656 12.3431 35.4094 11.1103 33.8717 11.1103H28.587C29.6563 11.9942 30.3364 13.323 30.3364 14.8089V19.2302Z" fill="#8A939D"/>
<path d="M22.6091 14.1205H25.4637C25.8482 14.1205 26.1598 14.4287 26.1598 14.8089V19.2302H22.6091V14.1205Z" fill="#8A939D"/>
<path d="M14.5061 14.1205V19.2303H10.9556V14.8089C10.9556 14.4287 11.2673 14.1205 11.6517 14.1205H14.5061Z" fill="#8A939D"/>
<path d="M29.6326 9.60506C31.5049 9.60506 33.0227 8.10414 33.0227 6.25266C33.0227 4.40118 31.5049 2.90026 29.6326 2.90026C27.7603 2.90026 26.2425 4.40118 26.2425 6.25266C26.2425 8.10414 27.7603 9.60506 29.6326 9.60506Z" fill="#8A939D"/>
<path d="M7.48271 9.60512C9.35502 9.60512 10.8728 8.1042 10.8728 6.25273C10.8728 4.40125 9.35502 2.90033 7.48271 2.90033C5.6104 2.90033 4.0926 4.40125 4.0926 6.25273C4.0926 8.1042 5.6104 9.60512 7.48271 9.60512Z" fill="#8A939D"/>
<path d="M18.5579 9.97873C21.1411 9.97873 23.2353 7.90789 23.2353 5.35338C23.2353 2.79887 21.1411 0.728027 18.5579 0.728027C15.9746 0.728027 13.8805 2.79887 13.8805 5.35338C13.8805 7.90789 15.9746 9.97873 18.5579 9.97873Z" fill="#8A939D"/>
<path d="M11.6518 12.0555C10.114 12.0555 8.86739 13.2883 8.86739 14.8089V24.728H28.2481V14.8089C28.2481 13.2883 27.0015 12.0555 25.4638 12.0555H11.6518Z" fill="#8A939D"/>
</svg>
