<svg width="31" height="31" viewBox="0 0 31 31" fill="none" xmlns="http://www.w3.org/2000/svg">
<path d="M8.28894 6.83004L7.29382 4.19883L5.08845 2.75488L2.93066 4.91267L4.3846 7.10805L6.8568 8.13621L12.9678 14.2471C12.9827 14.2621 12.9981 14.2765 13.0138 14.2903L10.4236 16.8804C8.53639 16.4241 6.46262 16.9324 4.98858 18.4065C3.25633 20.1387 2.85768 22.6989 3.79134 24.8122L3.92311 25.1105L7.64988 21.3837L10.1614 23.8953L6.43466 27.622L6.73292 27.7538C8.84621 28.6875 11.4064 28.2888 13.1387 26.5566C14.6128 25.0825 15.1211 23.0087 14.6647 21.1215L20.9467 14.8395C22.8338 15.2958 24.9076 14.7874 26.3816 13.3134C28.1138 11.5812 28.5125 9.02095 27.5788 6.90766L27.4471 6.6094L23.7203 10.3362L21.2087 7.82461L24.9355 4.09784L24.6372 3.96607C22.524 3.03241 19.9637 3.43106 18.2315 5.16331C16.7574 6.63741 16.2491 8.71127 16.7055 10.5985L14.3801 12.924C14.3663 12.9083 14.3519 12.8929 14.3369 12.878L8.28894 6.83004Z" fill="#8A939D"/>
<path d="M21.6898 17.0283L27.5767 22.718L22.9544 27.1849L17.1704 21.5982L21.6898 17.0283Z" fill="#8A939D"/>
</svg>
