<svg width="31" height="31" viewBox="0 0 31 31" fill="none" xmlns="http://www.w3.org/2000/svg">
<path d="M15.3528 2.20654L19.0297 11.078L28.6032 11.8336L21.3022 18.072L23.542 27.4105L15.3528 22.3946L7.16351 27.4105L9.40329 18.072L2.10228 11.8336L11.6758 11.078L15.3528 2.20654Z" fill="#8A939D"/>
<path d="M9.81577 6.03674L7.51974 3.3672L6.05489 4.62708L8.35092 7.29663L9.81577 6.03674Z" fill="#8A939D"/>
<path d="M23.6224 3.3672L21.3264 6.03674L22.7912 7.29663L25.0872 4.62708L23.6224 3.3672Z" fill="#8A939D"/>
<path d="M2.87857 21.1433L6.08714 19.5871L5.24397 17.8487L2.0354 19.4049L2.87857 21.1433Z" fill="#8A939D"/>
<path d="M24.9128 19.5871L28.1214 21.1433L28.9646 19.4049L25.756 17.8487L24.9128 19.5871Z" fill="#8A939D"/>
<path d="M16.2539 28.7934V25.3124H14.3217V28.7934H16.2539Z" fill="#8A939D"/>
</svg>
