<svg width="18" height="18" viewBox="0 0 18 18" fill="none" xmlns="http://www.w3.org/2000/svg">
<path d="M9 0.875C4.52 0.875 0.875 4.52 0.875 9C0.875 13.48 4.52 17.125 9 17.125C13.48 17.125 17.125 13.48 17.125 9C17.125 4.52 13.48 0.875 9 0.875ZM9 2.125C9.21125 2.125 9.41875 2.1375 9.625 2.15625V2.75H10.875V2.39125C12.3938 2.82495 13.7177 3.76708 14.625 5.06V7.125L15.25 8.375V9H15.875C15.875 9.22875 15.8625 9.45563 15.8406 9.67875C15.835 9.73875 15.8225 9.79625 15.8156 9.85563C15.7944 10.02 15.7731 10.1831 15.7406 10.3438C15.7288 10.4037 15.7131 10.4625 15.6994 10.5225C15.6631 10.6813 15.6244 10.8387 15.5769 10.9931C15.5606 11.0462 15.5419 11.0981 15.5244 11.1506C15.4729 11.3093 15.4155 11.4661 15.3525 11.6206C15.3337 11.6656 15.3131 11.7094 15.2937 11.7537C15.2238 11.9131 15.15 12.07 15.0687 12.2225C15.05 12.26 15.0288 12.2956 15.0081 12.3313C14.8134 12.6819 14.5883 13.0148 14.3356 13.3263L14.2794 13.3956C14.1581 13.5413 14.0294 13.6806 13.8975 13.8156C13.8781 13.835 13.86 13.8563 13.84 13.8756C13.7042 14.01 13.5628 14.1387 13.4163 14.2612C13.3956 14.2787 13.3781 14.2969 13.3569 14.3138C13.2106 14.4338 13.0569 14.545 12.9013 14.6531C12.8769 14.67 12.855 14.6894 12.8306 14.7056C12.6806 14.8056 12.5256 14.8975 12.3681 14.9869C11.6201 15.408 10.7992 15.684 9.94875 15.8006L12.4556 13.9106L13.1431 13.2231L14 11.5V10.875L12.75 10.25H12.125L10.875 9H9.625L9 9.625V10.25L8.375 10.875V12.125L9.625 13.125L8.38937 15.8444C4.88375 15.5331 2.125 12.5844 2.125 9C2.125 6.87 3.09938 4.96312 4.625 3.70062V4L4 4.625V6L4.625 8.375L7.75 9.625H8.375V9L6.5 8.375V7.125H8.375L9 5.5625L10.25 4.625V4L8.375 2.75L7.47625 2.30063C7.97603 2.18543 8.48712 2.12652 9 2.125ZM8.375 7.75V8.375H9.625V7.75H8.375Z" fill="white"/>
</svg>
