<svg width="31" height="31" viewBox="0 0 31 31" fill="none" xmlns="http://www.w3.org/2000/svg">
<path d="M3.4113 3.64551L2.4446 5.34992L6.34519 7.56224L7.31189 5.85783L3.4113 3.64551Z" fill="#8A939D"/>
<path d="M27.5886 3.64551L23.688 5.85783L24.6547 7.56224L28.5553 5.34992L27.5886 3.64551Z" fill="#8A939D"/>
<path d="M6.52741 13.2171C6.52741 8.12747 10.6534 4.00149 15.7431 4.00149C20.8327 4.00149 24.9587 8.12747 24.9587 13.2171C24.9587 15.5004 24.128 17.5894 22.7539 19.1985H16.6889V14.7117H18.7206V12.7523H12.6973V14.7117L14.7294 14.7117V19.1985H8.73224C7.35812 17.5894 6.52741 15.5004 6.52741 13.2171Z" fill="#8A939D"/>
<path d="M10.4011 21.158V27.3545H21.0849V21.158H10.4011Z" fill="#8A939D"/>
<path d="M26.1185 14.0891V12.1297H30.2741V14.0891H26.1185Z" fill="#8A939D"/>
<path d="M24.6546 18.8424L28.5552 21.0547L27.5885 22.7592L23.6879 20.5468L24.6546 18.8424Z" fill="#8A939D"/>
<path d="M4.88134 14.0891H0.72583V12.1297H4.88134V14.0891Z" fill="#8A939D"/>
<path d="M6.34525 18.8424L7.31195 20.5468L3.41135 22.7592L2.44465 21.0547L6.34525 18.8424Z" fill="#8A939D"/>
</svg>
