<svg width="20" height="20" viewBox="0 0 20 20" fill="none" xmlns="http://www.w3.org/2000/svg">
<path d="M10.2021 8.18179V12.0545H15.6928C15.4517 13.3 14.7282 14.3546 13.643 15.0636L16.9541 17.5818C18.8832 15.8365 19.9962 13.2728 19.9962 10.2273C19.9962 9.51827 19.9313 8.83639 19.8107 8.1819L10.2021 8.18179Z" fill="#4285F4"/>
<path d="M4.48435 11.9034L3.73758 12.4637L1.09424 14.4818C2.77296 17.7454 6.21363 20 10.2017 20C12.9563 20 15.2656 19.1091 16.9537 17.5819L13.6426 15.0636C12.7337 15.6636 11.5743 16.0273 10.2017 16.0273C7.54917 16.0273 5.29548 14.2728 4.48852 11.9091L4.48435 11.9034Z" fill="#34A853"/>
<path d="M1.09434 5.51818C0.398772 6.86358 0 8.38179 0 9.99994C0 11.6181 0.398772 13.1363 1.09434 14.4817C1.09434 14.4907 4.48895 11.8999 4.48895 11.8999C4.2849 11.2999 4.1643 10.6636 4.1643 9.99984C4.1643 9.33612 4.2849 8.69979 4.48895 8.09979L1.09434 5.51818Z" fill="#FBBC05"/>
<path d="M10.2019 3.98182C11.7045 3.98182 13.04 4.49089 14.1066 5.47272L17.0281 2.60912C15.2566 0.990971 12.9566 0 10.2019 0C6.21384 0 2.77296 2.24545 1.09424 5.51819L4.48874 8.10001C5.2956 5.73635 7.54938 3.98182 10.2019 3.98182Z" fill="#EA4335"/>
</svg>
