<svg width="18" height="17" viewBox="0 0 18 17" fill="none" xmlns="http://www.w3.org/2000/svg">
<path fill-rule="evenodd" clip-rule="evenodd" d="M2.33613 1.91852C1.98237 1.91852 1.63737 2.0667 1.37869 2.33991C1.11917 2.61402 0.969055 2.99119 0.969055 3.38964V8.60471C0.969055 9.00317 1.11917 9.38033 1.37869 9.65444C1.63737 9.92765 1.98237 10.0758 2.33613 10.0758H3.18492C3.45251 10.0758 3.66944 10.2928 3.66944 10.5604V11.9131L6.24255 10.1599C6.32298 10.1051 6.41805 10.0758 6.51538 10.0758H9.74255C10.0963 10.0758 10.4413 9.92765 10.7 9.65444C10.9595 9.38033 11.1096 9.00317 11.1096 8.60471V3.38964C11.1096 2.99119 10.9595 2.61402 10.7 2.33991C10.4413 2.0667 10.0963 1.91852 9.74255 1.91852H2.33613ZM0.675006 1.67366C1.11082 1.21336 1.70774 0.949463 2.33613 0.949463H9.74255C10.3709 0.949463 10.9679 1.21336 11.4037 1.67366C11.8386 2.13306 12.0787 2.75075 12.0787 3.38964V4.73943H14.955C15.538 4.73943 16.0914 4.98428 16.4951 5.41068C16.898 5.83617 17.12 6.40787 17.12 6.99881V11.7318C17.12 12.3227 16.898 12.8944 16.4951 13.3199C16.0914 13.7463 15.538 13.9911 14.955 13.9911H14.6692V15.566C14.6692 15.7456 14.5699 15.9105 14.4112 15.9944C14.2524 16.0783 14.0603 16.0676 13.9119 15.9665L11.0128 13.9911H8.2333C7.65031 13.9911 7.09692 13.7463 6.69321 13.3199C6.29036 12.8944 6.06835 12.3227 6.06835 11.7318V11.4513L3.45774 13.23C3.30934 13.3311 3.1172 13.3419 2.95845 13.2579C2.7997 13.174 2.70039 13.0091 2.70039 12.8296V11.0449H2.33613C1.70774 11.0449 1.11082 10.781 0.675006 10.3207C0.240047 9.86129 0 9.2436 0 8.60471V3.38964C0 2.75075 0.240047 2.13306 0.675006 1.67366ZM7.0374 11.0449H9.74255C10.3709 11.0449 10.9679 10.781 11.4037 10.3207C11.8386 9.86129 12.0787 9.2436 12.0787 8.60471V5.70849H14.955C15.2634 5.70849 15.5648 5.83762 15.7914 6.07693C16.0188 6.31713 16.1509 6.64831 16.1509 6.99881V11.7318C16.1509 12.0823 16.0188 12.4134 15.7914 12.6537C15.5648 12.893 15.2634 13.0221 14.955 13.0221H14.1847C13.9171 13.0221 13.7002 13.239 13.7002 13.5066V14.6496L11.435 13.1062C11.3545 13.0514 11.2595 13.0221 11.1621 13.0221H8.2333C7.92494 13.0221 7.62348 12.893 7.3969 12.6537C7.16948 12.4134 7.0374 12.0823 7.0374 11.7318V11.0449Z" fill="#848D97"/>
</svg>
