<svg width="121" height="30" viewBox="0 0 121 30" fill="none" xmlns="http://www.w3.org/2000/svg">
<g filter="url(#filter0_i_3419_58816)">
<g clip-path="url(#clip0_3419_58816)">
<rect width="30" height="30" rx="4.88788" fill="url(#paint0_linear_3419_58816)"/>
<path fill-rule="evenodd" clip-rule="evenodd" d="M12.9496 9.8057C13.1615 8.62806 14.1988 7.73413 15.4464 7.73413C19.1342 7.73413 22.1403 10.7601 22.1403 14.4379C22.1403 18.1837 19.0786 21.2659 15.3222 21.2659H10.1041C9.14049 21.2659 8.22858 20.8303 7.62305 20.0808C7.62305 21.693 8.93004 23 10.5423 23H15.3222C20.0621 23 23.8878 19.1231 23.8878 14.4379C23.8878 9.82069 20.1177 6 15.4464 6C13.0805 6 11.1624 7.90331 11.1624 10.2512V17.5367H10.1523C9.72057 17.5367 9.37056 17.1894 9.37056 16.7609V9.86102V9.78765C9.37056 8.2983 10.1423 6.91531 11.4097 6.13322H11.3509C9.29204 6.13322 7.62305 7.80221 7.62305 9.86102V16.7609C7.62305 18.1471 8.75545 19.2708 10.1523 19.2708H15.6509C18.2848 19.2708 20.42 17.152 20.42 14.5383C20.42 11.9245 18.2848 9.8057 15.6509 9.8057H12.9496ZM15.615 17.4984H12.8741V11.5016H15.615C17.2838 11.5016 18.6366 12.844 18.6366 14.5C18.6366 16.156 17.2838 17.4984 15.615 17.4984Z" fill="white"/>
<g opacity="0.5" filter="url(#filter1_f_3419_58816)">
<path d="M29.1769 18L-0.150391 10.7027V0H29.1769V18Z" fill="url(#paint1_linear_3419_58816)"/>
</g>
</g>
<rect x="0.366591" y="0.366591" width="29.2668" height="29.2668" rx="4.52129" stroke="#5200FF" stroke-width="0.733182"/>
</g>
<path d="M39.296 21.5V8.756H43.508C47.612 8.756 51.05 10.502 51.05 15.164C51.05 19.286 47.684 21.5 43.886 21.5H39.296ZM42.104 11.348V18.908H43.562C46.172 18.908 48.134 17.918 48.134 15.02C48.134 12.518 46.136 11.348 43.76 11.348H42.104ZM52.2882 17.126C52.2882 14.336 54.4482 12.536 57.1482 12.536C59.8482 12.536 62.0082 14.336 62.0082 17.126C62.0082 19.916 59.8482 21.716 57.1482 21.716C54.4482 21.716 52.2882 19.916 52.2882 17.126ZM54.9882 17.126C54.9882 18.44 55.7982 19.34 57.1482 19.34C58.4982 19.34 59.3082 18.44 59.3082 17.126C59.3082 15.812 58.4982 14.912 57.1482 14.912C55.7982 14.912 54.9882 15.812 54.9882 17.126ZM63.8505 25.604V12.752H66.3345V13.904H66.3705C66.7845 13.274 67.8285 12.536 69.0525 12.536C71.6445 12.536 73.3545 14.408 73.3545 17.054C73.3545 19.484 71.8425 21.716 69.3585 21.716C68.2425 21.716 67.1985 21.41 66.5865 20.564H66.5505V25.604H63.8505ZM66.3345 17.126C66.3345 18.44 67.1445 19.34 68.4945 19.34C69.8445 19.34 70.6545 18.44 70.6545 17.126C70.6545 15.812 69.8445 14.912 68.4945 14.912C67.1445 14.912 66.3345 15.812 66.3345 17.126ZM75.1884 25.604V12.752H77.6724V13.904H77.7084C78.1224 13.274 79.1664 12.536 80.3904 12.536C82.9824 12.536 84.6924 14.408 84.6924 17.054C84.6924 19.484 83.1804 21.716 80.6964 21.716C79.5804 21.716 78.5364 21.41 77.9244 20.564H77.8884V25.604H75.1884ZM77.6724 17.126C77.6724 18.44 78.4824 19.34 79.8324 19.34C81.1824 19.34 81.9924 18.44 81.9924 17.126C81.9924 15.812 81.1824 14.912 79.8324 14.912C78.4824 14.912 77.6724 15.812 77.6724 17.126ZM86.3103 21.5V7.892H89.0103V21.5H86.3103ZM97.3401 18.602L99.2301 19.988C98.3661 21.086 96.9441 21.716 95.5401 21.716C92.8401 21.716 90.6801 19.916 90.6801 17.126C90.6801 14.336 92.8401 12.536 95.5401 12.536C98.0601 12.536 99.6441 14.336 99.6441 17.126V17.972H93.3801C93.5961 18.998 94.3701 19.664 95.4141 19.664C96.2961 19.664 96.8901 19.214 97.3401 18.602ZM93.3801 16.136H96.9441C96.9621 15.236 96.2601 14.48 95.2881 14.48C94.1001 14.48 93.4521 15.29 93.3801 16.136ZM101.34 19.952C101.34 19.034 102.078 18.296 102.996 18.296C103.914 18.296 104.652 19.034 104.652 19.952C104.652 20.87 103.914 21.608 102.996 21.608C102.078 21.608 101.34 20.87 101.34 19.952ZM112.102 21.5V20.402H112.066C111.472 21.338 110.392 21.716 109.294 21.716C107.656 21.716 106.18 20.78 106.18 19.016C106.18 15.992 109.852 15.938 112.102 15.938C112.102 14.984 111.31 14.372 110.374 14.372C109.492 14.372 108.754 14.768 108.178 15.416L106.738 13.94C107.728 13.004 109.168 12.536 110.59 12.536C113.74 12.536 114.586 14.138 114.586 17.054V21.5H112.102ZM112.102 17.666H111.436C110.608 17.666 108.772 17.738 108.772 18.926C108.772 19.574 109.456 19.88 110.05 19.88C111.112 19.88 112.102 19.322 112.102 18.242V17.666ZM116.316 21.5V12.752H119.016V21.5H116.316ZM116.1 9.998C116.1 9.134 116.802 8.432 117.666 8.432C118.53 8.432 119.232 9.134 119.232 9.998C119.232 10.862 118.53 11.564 117.666 11.564C116.802 11.564 116.1 10.862 116.1 9.998Z" fill="white"/>
<defs>
<filter id="filter0_i_3419_58816" x="0" y="0" width="30" height="31.9552" filterUnits="userSpaceOnUse" color-interpolation-filters="sRGB">
<feFlood flood-opacity="0" result="BackgroundImageFix"/>
<feBlend mode="normal" in="SourceGraphic" in2="BackgroundImageFix" result="shape"/>
<feColorMatrix in="SourceAlpha" type="matrix" values="0 0 0 0 0 0 0 0 0 0 0 0 0 0 0 0 0 0 127 0" result="hardAlpha"/>
<feOffset dy="1.95515"/>
<feGaussianBlur stdDeviation="0.977576"/>
<feComposite in2="hardAlpha" operator="arithmetic" k2="-1" k3="1"/>
<feColorMatrix type="matrix" values="0 0 0 0 1 0 0 0 0 1 0 0 0 0 1 0 0 0 0.25 0"/>
<feBlend mode="normal" in2="shape" result="effect1_innerShadow_3419_58816"/>
</filter>
<filter id="filter1_f_3419_58816" x="-1.12797" y="-0.977576" width="31.2833" height="19.9552" filterUnits="userSpaceOnUse" color-interpolation-filters="sRGB">
<feFlood flood-opacity="0" result="BackgroundImageFix"/>
<feBlend mode="normal" in="SourceGraphic" in2="BackgroundImageFix" result="shape"/>
<feGaussianBlur stdDeviation="0.488788" result="effect1_foregroundBlur_3419_58816"/>
</filter>
<linearGradient id="paint0_linear_3419_58816" x1="0" y1="30" x2="30" y2="0" gradientUnits="userSpaceOnUse">
<stop stop-color="#5200FF"/>
<stop offset="1" stop-color="#5200FF"/>
</linearGradient>
<linearGradient id="paint1_linear_3419_58816" x1="3.75991" y1="-2.67567" x2="12.3528" y2="24.3174" gradientUnits="userSpaceOnUse">
<stop stop-color="white"/>
<stop offset="1" stop-color="white" stop-opacity="0"/>
</linearGradient>
<clipPath id="clip0_3419_58816">
<rect width="30" height="30" rx="4.88788" fill="white"/>
</clipPath>
</defs>
</svg>
