<svg width="207" height="30" viewBox="0 0 207 30" fill="none" xmlns="http://www.w3.org/2000/svg">
<path d="M36.0072 23.825V6.41157H41.7625C47.3702 6.41157 52.0678 8.7973 52.0678 15.1674C52.0678 20.7997 47.4685 23.825 42.279 23.825H36.0072ZM39.844 9.95327V20.2832H41.8362C45.4025 20.2832 48.0834 18.9305 48.0834 14.9707C48.0834 11.552 45.3533 9.95327 42.1068 9.95327H39.844ZM53.7597 17.8483C53.7597 14.0361 56.7111 11.5766 60.4004 11.5766C64.0897 11.5766 67.0411 14.0361 67.0411 17.8483C67.0411 21.6606 64.0897 24.1201 60.4004 24.1201C56.7111 24.1201 53.7597 21.6606 53.7597 17.8483ZM57.449 17.8483C57.449 19.6438 58.5558 20.8735 60.4004 20.8735C62.245 20.8735 63.3518 19.6438 63.3518 17.8483C63.3518 16.0529 62.245 14.8231 60.4004 14.8231C58.5558 14.8231 57.449 16.0529 57.449 17.8483ZM69.5585 29.4327V11.8717H72.9526V13.4458H73.0018C73.5675 12.585 74.994 11.5766 76.6665 11.5766C80.2082 11.5766 82.5447 14.1345 82.5447 17.7499C82.5447 21.0703 80.4787 24.1201 77.0846 24.1201C75.5597 24.1201 74.1332 23.702 73.2969 22.546H73.2477V29.4327H69.5585ZM72.9526 17.8483C72.9526 19.6438 74.0594 20.8735 75.904 20.8735C77.7487 20.8735 78.8554 19.6438 78.8554 17.8483C78.8554 16.0529 77.7487 14.8231 75.904 14.8231C74.0594 14.8231 72.9526 16.0529 72.9526 17.8483ZM85.0505 29.4327V11.8717H88.4447V13.4458H88.4939C89.0596 12.585 90.4861 11.5766 92.1585 11.5766C95.7003 11.5766 98.0368 14.1345 98.0368 17.7499C98.0368 21.0703 95.9708 24.1201 92.5767 24.1201C91.0518 24.1201 89.6252 23.702 88.789 22.546H88.7398V29.4327H85.0505ZM88.4447 17.8483C88.4447 19.6438 89.5515 20.8735 91.3961 20.8735C93.2407 20.8735 94.3475 19.6438 94.3475 17.8483C94.3475 16.0529 93.2407 14.8231 91.3961 14.8231C89.5515 14.8231 88.4447 16.0529 88.4447 17.8483ZM100.247 23.825V5.231H103.937V23.825H100.247ZM115.319 19.8651L117.901 21.759C116.72 23.2593 114.777 24.1201 112.859 24.1201C109.17 24.1201 106.218 21.6606 106.218 17.8483C106.218 14.0361 109.17 11.5766 112.859 11.5766C116.302 11.5766 118.467 14.0361 118.467 17.8483V19.0043H109.908C110.203 20.4062 111.26 21.3162 112.687 21.3162C113.892 21.3162 114.704 20.7014 115.319 19.8651ZM109.908 16.4956H114.777C114.802 15.2658 113.843 14.2328 112.515 14.2328C110.891 14.2328 110.006 15.3396 109.908 16.4956ZM120.784 21.7098C120.784 20.4554 121.792 19.447 123.047 19.447C124.301 19.447 125.31 20.4554 125.31 21.7098C125.31 22.9641 124.301 23.9725 123.047 23.9725C121.792 23.9725 120.784 22.9641 120.784 21.7098ZM135.489 23.825V22.3246H135.44C134.629 23.6036 133.153 24.1201 131.653 24.1201C129.414 24.1201 127.398 22.8411 127.398 20.4308C127.398 16.2988 132.415 16.225 135.489 16.225C135.489 14.9215 134.407 14.0853 133.128 14.0853C131.923 14.0853 130.915 14.6264 130.128 15.5118L128.16 13.495C129.513 12.216 131.48 11.5766 133.423 11.5766C137.728 11.5766 138.884 13.7655 138.884 17.7499V23.825H135.489ZM135.489 18.5862H134.579C133.448 18.5862 130.939 18.6846 130.939 20.3078C130.939 21.1933 131.874 21.6114 132.686 21.6114C134.137 21.6114 135.489 20.8489 135.489 19.3732V18.5862ZM141.247 23.825V11.8717H144.937V23.825H141.247ZM140.952 8.10863C140.952 6.92806 141.912 5.96885 143.092 5.96885C144.273 5.96885 145.232 6.92806 145.232 8.10863C145.232 9.2892 144.273 10.2484 143.092 10.2484C141.912 10.2484 140.952 9.2892 140.952 8.10863Z" fill="white"/>
<path fill-rule="evenodd" clip-rule="evenodd" d="M9.19862 6.62299C9.56462 4.57356 11.3559 3.01787 13.5106 3.01787C19.8791 3.01787 25.0706 8.28389 25.0706 14.6843C25.0706 21.2031 19.7831 26.5669 13.2961 26.5669H4.29689C2.62588 26.5669 1.04523 25.8082 0 24.5045C0 27.3102 2.27453 29.5848 5.0803 29.5848H13.2961C21.4815 29.5848 28.0885 22.8379 28.0885 14.6843C28.0885 6.64908 21.5776 0 13.5106 0C9.42466 0 6.11237 3.3123 6.11237 7.39823V20.0771H4.36796C3.62232 20.0771 3.01786 19.4726 3.01786 18.727V6.71926V6.56847C3.01786 3.98963 4.34945 1.5936 6.53943 0.231836C2.95652 0.231836 0 3.13635 0 6.71926V18.727C0 21.1394 1.95561 23.095 4.36796 23.095H13.8637C18.4123 23.095 22.0996 19.4076 22.0996 14.859C22.0996 10.3104 18.4123 6.62299 13.8637 6.62299H9.19862ZM13.8636 20.0771H9.13016V9.64086H13.8636C16.7455 9.64086 19.0817 11.9771 19.0817 14.859C19.0817 17.7409 16.7455 20.0771 13.8636 20.0771Z" fill="white"/>
<path fill-rule="evenodd" clip-rule="evenodd" d="M159 3.85718C156.791 3.85718 155 5.64804 155 7.85718V22.1429C155 24.352 156.791 26.1429 159 26.1429H203C205.209 26.1429 207 24.352 207 22.1429V7.85718C207 5.64804 205.209 3.85718 203 3.85718H159ZM163 10.0001V20.0001H167.295C169.161 20.0001 171.235 19.308 171.235 17.2176C171.235 15.9181 170.316 14.9436 168.939 14.7741V14.7458C170.02 14.421 170.746 13.6583 170.746 12.5424C170.746 10.3673 168.746 10.0001 166.91 10.0001H163ZM165.31 13.9972V11.8645H166.88C167.606 11.8645 168.435 12.0763 168.435 12.9097C168.435 13.7148 167.695 13.9972 166.984 13.9972H165.31ZM165.31 18.1357V15.8616H167.058C167.813 15.8616 168.924 16.017 168.924 16.9633C168.924 17.839 168.11 18.1357 167.384 18.1357H165.31ZM172.692 10.0001V20.0001H180.083V17.9662H175.003V15.9323H179.55V13.8984H175.003V12.034H179.816V10.0001H172.692ZM183.961 20.0001V11.9492H180.97V10.0001H189.263V11.9492H186.272V20.0001H183.961ZM192.528 10.0001L187.996 20.0001H190.543L191.417 17.8814H195.49L196.393 20.0001H199L194.438 10.0001H192.528ZM193.417 12.9097L194.705 16.017H192.143L193.417 12.9097Z" fill="white"/>
</svg>
