<svg width="40" height="40" viewBox="0 0 40 40" fill="none" xmlns="http://www.w3.org/2000/svg">
<g filter="url(#filter0_i_158_1250)">
<g clip-path="url(#clip0_158_1250)">
<rect width="40" height="40" rx="6.66667" fill="url(#paint0_linear_158_1250)"/>
<path fill-rule="evenodd" clip-rule="evenodd" d="M16.9864 13.0743C17.2644 11.5041 18.6249 10.3122 20.2614 10.3122C25.0983 10.3122 29.0412 14.3468 29.0412 19.2505C29.0412 24.245 25.0254 28.3545 20.0984 28.3545H13.2742C11.999 28.3545 10.7934 27.7727 10 26.7743C10 28.924 11.7427 30.6667 13.8923 30.6667H20.0984C26.3153 30.6667 31.3333 25.4975 31.3333 19.2505C31.3333 13.0943 26.3883 8 20.2614 8C17.1581 8 14.6424 10.5378 14.6424 13.6682V23.3823H13.3175C12.7512 23.3823 12.2921 22.9192 12.2921 22.3479V13.148V13.0126C12.2921 11.048 13.3025 9.22156 14.9667 8.17762C12.2237 8.17762 10 10.405 10 13.148V22.3479C10 24.1961 11.4853 25.6944 13.3175 25.6944H20.5295C23.9842 25.6944 26.7848 22.8693 26.7848 19.3844C26.7848 15.8994 23.9842 13.0743 20.5295 13.0743H16.9864ZM20.4827 23.3312H16.8876V15.3354H20.4827C22.6715 15.3354 24.4459 17.1253 24.4459 19.3333C24.4459 21.5413 22.6715 23.3312 20.4827 23.3312Z" fill="#111112"/>
<g opacity="0.5" filter="url(#filter1_f_158_1250)">
<path d="M40.6668 24L0.666748 14.2703V0H40.6668V24Z" fill="url(#paint1_linear_158_1250)"/>
</g>
</g>
<rect x="0.5" y="0.5" width="39" height="39" rx="6.16667" stroke="#111112"/>
</g>
<defs>
<filter id="filter0_i_158_1250" x="0" y="0" width="40" height="42.6667" filterUnits="userSpaceOnUse" color-interpolation-filters="sRGB">
<feFlood flood-opacity="0" result="BackgroundImageFix"/>
<feBlend mode="normal" in="SourceGraphic" in2="BackgroundImageFix" result="shape"/>
<feColorMatrix in="SourceAlpha" type="matrix" values="0 0 0 0 0 0 0 0 0 0 0 0 0 0 0 0 0 0 127 0" result="hardAlpha"/>
<feOffset dy="2.66667"/>
<feGaussianBlur stdDeviation="1.33333"/>
<feComposite in2="hardAlpha" operator="arithmetic" k2="-1" k3="1"/>
<feColorMatrix type="matrix" values="0 0 0 0 1 0 0 0 0 1 0 0 0 0 1 0 0 0 0.25 0"/>
<feBlend mode="normal" in2="shape" result="effect1_innerShadow_158_1250"/>
</filter>
<filter id="filter1_f_158_1250" x="-0.666585" y="-1.33333" width="42.6667" height="26.6667" filterUnits="userSpaceOnUse" color-interpolation-filters="sRGB">
<feFlood flood-opacity="0" result="BackgroundImageFix"/>
<feBlend mode="normal" in="SourceGraphic" in2="BackgroundImageFix" result="shape"/>
<feGaussianBlur stdDeviation="0.666667" result="effect1_foregroundBlur_158_1250"/>
</filter>
<linearGradient id="paint0_linear_158_1250" x1="0" y1="40" x2="40" y2="0" gradientUnits="userSpaceOnUse">
<stop stop-color="#F2F2F2"/>
<stop offset="1" stop-color="white"/>
</linearGradient>
<linearGradient id="paint1_linear_158_1250" x1="6.00008" y1="-3.56757" x2="17.2463" y2="32.5707" gradientUnits="userSpaceOnUse">
<stop stop-color="white"/>
<stop offset="1" stop-color="white" stop-opacity="0"/>
</linearGradient>
<clipPath id="clip0_158_1250">
<rect width="40" height="40" rx="6.66667" fill="white"/>
</clipPath>
</defs>
</svg>
