<svg width="123" height="34" viewBox="0 0 123 34" fill="none" xmlns="http://www.w3.org/2000/svg">
<g filter="url(#filter0_i_2636_21065)">
<g clip-path="url(#clip0_2636_21065)">
<rect x="0.00927734" y="0.0022583" width="33.7618" height="33.7618" rx="5.72008" fill="url(#paint0_linear_2636_21065)"/>
<path fill-rule="evenodd" clip-rule="evenodd" d="M15.3411 11.0375C15.5796 9.71218 16.7469 8.70615 18.1511 8.70615C22.3012 8.70615 25.6843 12.1115 25.6843 16.2505C25.6843 20.4661 22.2386 23.9347 18.0113 23.9347H12.1388C11.0544 23.9347 10.0281 23.4445 9.34668 22.601C9.34668 24.4154 10.8176 25.8863 12.632 25.8863H18.0113C23.3454 25.8863 27.6509 21.5232 27.6509 16.2505C27.6509 11.0544 23.408 6.75458 18.1511 6.75458C15.4884 6.75458 13.3299 8.89655 13.3299 11.5388V19.7379H12.1931C11.7072 19.7379 11.3133 19.347 11.3133 18.8648V11.0997V11.0172C11.3133 9.34107 12.1818 7.78466 13.6082 6.9045H13.5419C11.225 6.9045 9.34668 8.78277 9.34668 11.0997V18.8648C9.34668 20.4248 10.6211 21.6895 12.1931 21.6895H18.3811C21.3453 21.6895 23.7482 19.3049 23.7482 16.3635C23.7482 13.422 21.3453 11.0375 18.3811 11.0375H15.3411ZM18.3409 19.6949H15.2563V12.946H18.3409C20.2189 12.946 21.7413 14.4568 21.7413 16.3205C21.7413 18.1841 20.2189 19.6949 18.3409 19.6949Z" fill="#23252B"/>
<g opacity="0.5" filter="url(#filter1_f_2636_21065)">
<path d="M35.6594 20.2593L1.33887 12.047V0.0022583H35.6594V20.2593Z" fill="url(#paint1_linear_2636_21065)"/>
</g>
</g>
<rect x="0.438284" y="0.431264" width="32.9038" height="32.9038" rx="5.29108" stroke="white" stroke-width="0.858012"/>
</g>
<path d="M42.0261 22.064V9.45823H46.1924C50.2519 9.45823 53.6526 11.1853 53.6526 15.7967C53.6526 19.874 50.3231 22.064 46.5663 22.064H42.0261ZM44.8036 12.0221V19.5001H46.2458C48.8275 19.5001 50.7682 18.5209 50.7682 15.6543C50.7682 13.1794 48.7919 12.0221 46.4417 12.0221H44.8036ZM54.8774 17.7375C54.8774 14.9777 57.014 13.1972 59.6847 13.1972C62.3554 13.1972 64.492 14.9777 64.492 17.7375C64.492 20.4972 62.3554 22.2777 59.6847 22.2777C57.014 22.2777 54.8774 20.4972 54.8774 17.7375ZM57.5481 17.7375C57.5481 19.0372 58.3493 19.9274 59.6847 19.9274C61.0201 19.9274 61.8213 19.0372 61.8213 17.7375C61.8213 16.4377 61.0201 15.5475 59.6847 15.5475C58.3493 15.5475 57.5481 16.4377 57.5481 17.7375ZM66.3143 26.1235V13.4109H68.7714V14.5504H68.807C69.2165 13.9272 70.2492 13.1972 71.4599 13.1972C74.0238 13.1972 75.7153 15.0489 75.7153 17.6662C75.7153 20.0699 74.2197 22.2777 71.7626 22.2777C70.6587 22.2777 69.626 21.975 69.0207 21.1382H68.9851V26.1235H66.3143ZM68.7714 17.7375C68.7714 19.0372 69.5726 19.9274 70.908 19.9274C72.2433 19.9274 73.0446 19.0372 73.0446 17.7375C73.0446 16.4377 72.2433 15.5475 70.908 15.5475C69.5726 15.5475 68.7714 16.4377 68.7714 17.7375ZM77.5293 26.1235V13.4109H79.9863V14.5504H80.0219C80.4315 13.9272 81.4641 13.1972 82.6749 13.1972C85.2388 13.1972 86.9302 15.0489 86.9302 17.6662C86.9302 20.0699 85.4346 22.2777 82.9775 22.2777C81.8736 22.2777 80.841 21.975 80.2356 21.1382H80.2V26.1235H77.5293ZM79.9863 17.7375C79.9863 19.0372 80.7876 19.9274 82.1229 19.9274C83.4583 19.9274 84.2595 19.0372 84.2595 17.7375C84.2595 16.4377 83.4583 15.5475 82.1229 15.5475C80.7876 15.5475 79.9863 16.4377 79.9863 17.7375ZM88.5306 22.064V8.6036H91.2013V22.064H88.5306ZM99.4407 19.1975L101.31 20.5684C100.456 21.6545 99.049 22.2777 97.6602 22.2777C94.9895 22.2777 92.8529 20.4972 92.8529 17.7375C92.8529 14.9777 94.9895 13.1972 97.6602 13.1972C100.153 13.1972 101.72 14.9777 101.72 17.7375V18.5743H95.5237C95.7373 19.5892 96.5029 20.2479 97.5356 20.2479C98.408 20.2479 98.9956 19.8028 99.4407 19.1975ZM95.5237 16.7582H99.049C99.0668 15.868 98.3724 15.1202 97.411 15.1202C96.2359 15.1202 95.5949 15.9214 95.5237 16.7582ZM103.397 20.5328C103.397 19.6248 104.127 18.8948 105.035 18.8948C105.943 18.8948 106.673 19.6248 106.673 20.5328C106.673 21.4409 105.943 22.1709 105.035 22.1709C104.127 22.1709 103.397 21.4409 103.397 20.5328ZM114.043 22.064V20.9779H114.007C113.42 21.9038 112.351 22.2777 111.265 22.2777C109.645 22.2777 108.185 21.3518 108.185 19.607C108.185 16.6158 111.817 16.5623 114.043 16.5623C114.043 15.6187 113.259 15.0133 112.333 15.0133C111.461 15.0133 110.731 15.405 110.161 16.046L108.737 14.586C109.716 13.6602 111.141 13.1972 112.547 13.1972C115.663 13.1972 116.5 14.7819 116.5 17.6662V22.064H114.043ZM114.043 18.2716H113.384C112.565 18.2716 110.749 18.3428 110.749 19.5179C110.749 20.1589 111.425 20.4616 112.013 20.4616C113.063 20.4616 114.043 19.9096 114.043 18.8414V18.2716ZM118.211 22.064V13.4109H120.882V22.064H118.211ZM117.997 10.6868C117.997 9.83213 118.692 9.13774 119.546 9.13774C120.401 9.13774 121.095 9.83213 121.095 10.6868C121.095 11.5414 120.401 12.2358 119.546 12.2358C118.692 12.2358 117.997 11.5414 117.997 10.6868Z" fill="white"/>
<defs>
<filter id="filter0_i_2636_21065" x="0.00927734" y="0.0022583" width="33.7617" height="36.0498" filterUnits="userSpaceOnUse" color-interpolation-filters="sRGB">
<feFlood flood-opacity="0" result="BackgroundImageFix"/>
<feBlend mode="normal" in="SourceGraphic" in2="BackgroundImageFix" result="shape"/>
<feColorMatrix in="SourceAlpha" type="matrix" values="0 0 0 0 0 0 0 0 0 0 0 0 0 0 0 0 0 0 127 0" result="hardAlpha"/>
<feOffset dy="2.28803"/>
<feGaussianBlur stdDeviation="1.14402"/>
<feComposite in2="hardAlpha" operator="arithmetic" k2="-1" k3="1"/>
<feColorMatrix type="matrix" values="0 0 0 0 1 0 0 0 0 1 0 0 0 0 1 0 0 0 0.25 0"/>
<feBlend mode="normal" in2="shape" result="effect1_innerShadow_2636_21065"/>
</filter>
<filter id="filter1_f_2636_21065" x="0.194851" y="-1.14176" width="36.6083" height="22.5451" filterUnits="userSpaceOnUse" color-interpolation-filters="sRGB">
<feFlood flood-opacity="0" result="BackgroundImageFix"/>
<feBlend mode="normal" in="SourceGraphic" in2="BackgroundImageFix" result="shape"/>
<feGaussianBlur stdDeviation="0.572008" result="effect1_foregroundBlur_2636_21065"/>
</filter>
<linearGradient id="paint0_linear_2636_21065" x1="0.00927734" y1="33.764" x2="33.7711" y2="0.0022583" gradientUnits="userSpaceOnUse">
<stop stop-color="#F2F2F2"/>
<stop offset="1" stop-color="white"/>
</linearGradient>
<linearGradient id="paint1_linear_2636_21065" x1="5.91493" y1="-3.00893" x2="15.2794" y2="27.5806" gradientUnits="userSpaceOnUse">
<stop stop-color="white"/>
<stop offset="1" stop-color="white" stop-opacity="0"/>
</linearGradient>
<clipPath id="clip0_2636_21065">
<rect x="0.00927734" y="0.0022583" width="33.7618" height="33.7618" rx="5.72008" fill="white"/>
</clipPath>
</defs>
</svg>
