<svg width="122" height="31" viewBox="0 0 122 31" fill="none" xmlns="http://www.w3.org/2000/svg">
<g filter="url(#filter0_i_2971_8153)">
<g clip-path="url(#clip0_2971_8153)">
<rect x="0.0253906" y="0.533203" width="30" height="30" rx="4.88788" fill="#048DFF"/>
<path fill-rule="evenodd" clip-rule="evenodd" d="M12.9759 10.3389C13.1879 9.16126 14.2251 8.26733 15.4728 8.26733C19.1605 8.26733 22.1667 11.2933 22.1667 14.9711C22.1667 18.7169 19.1049 21.7991 15.3486 21.7991H10.1304C9.16686 21.7991 8.25495 21.3635 7.64941 20.614C7.64941 22.2262 8.9564 23.5332 10.5687 23.5332H15.3486C20.0884 23.5332 23.9142 19.6563 23.9142 14.9711C23.9142 10.3539 20.144 6.5332 15.4728 6.5332C13.1068 6.5332 11.1888 8.43652 11.1888 10.7844V18.0699H10.1787C9.74694 18.0699 9.39693 17.7226 9.39693 17.2941V10.3942V10.3209C9.39693 8.83151 10.1686 7.44852 11.4361 6.66642H11.3772C9.31841 6.66642 7.64941 8.33541 7.64941 10.3942V17.2941C7.64941 18.6803 8.78182 19.804 10.1787 19.804H15.6772C18.3111 19.804 20.4463 17.6852 20.4463 15.0715C20.4463 12.4577 18.3111 10.3389 15.6772 10.3389H12.9759ZM15.6414 18.0316H12.9005V12.0348H15.6414C17.3102 12.0348 18.663 13.3772 18.663 15.0332C18.663 16.6892 17.3102 18.0316 15.6414 18.0316Z" fill="#EDEDF0"/>
<g opacity="0.5" filter="url(#filter1_f_2971_8153)">
<path d="M29.2023 18.5332L-0.125 11.2359V0.533203H29.2023V18.5332Z" fill="url(#paint0_linear_2971_8153)"/>
</g>
</g>
<rect x="0.391982" y="0.899794" width="29.2668" height="29.2668" rx="4.52129" stroke="#048DFF" stroke-width="0.733182"/>
</g>
<path d="M39.3214 22.0332V9.2892H43.5334C47.6374 9.2892 51.0754 11.0352 51.0754 15.6972C51.0754 19.8192 47.7094 22.0332 43.9114 22.0332H39.3214ZM42.1294 11.8812V19.4412H43.5874C46.1974 19.4412 48.1594 18.4512 48.1594 15.5532C48.1594 13.0512 46.1614 11.8812 43.7854 11.8812H42.1294ZM52.3136 17.6592C52.3136 14.8692 54.4736 13.0692 57.1736 13.0692C59.8736 13.0692 62.0336 14.8692 62.0336 17.6592C62.0336 20.4492 59.8736 22.2492 57.1736 22.2492C54.4736 22.2492 52.3136 20.4492 52.3136 17.6592ZM55.0136 17.6592C55.0136 18.9732 55.8236 19.8732 57.1736 19.8732C58.5236 19.8732 59.3336 18.9732 59.3336 17.6592C59.3336 16.3452 58.5236 15.4452 57.1736 15.4452C55.8236 15.4452 55.0136 16.3452 55.0136 17.6592ZM63.8759 26.1372V13.2852H66.3599V14.4372H66.3959C66.8099 13.8072 67.8539 13.0692 69.0779 13.0692C71.6699 13.0692 73.3799 14.9412 73.3799 17.5872C73.3799 20.0172 71.8679 22.2492 69.3839 22.2492C68.2679 22.2492 67.2239 21.9432 66.6119 21.0972H66.5759V26.1372H63.8759ZM66.3599 17.6592C66.3599 18.9732 67.1699 19.8732 68.5199 19.8732C69.8699 19.8732 70.6799 18.9732 70.6799 17.6592C70.6799 16.3452 69.8699 15.4452 68.5199 15.4452C67.1699 15.4452 66.3599 16.3452 66.3599 17.6592ZM75.2138 26.1372V13.2852H77.6978V14.4372H77.7338C78.1478 13.8072 79.1918 13.0692 80.4158 13.0692C83.0078 13.0692 84.7178 14.9412 84.7178 17.5872C84.7178 20.0172 83.2058 22.2492 80.7218 22.2492C79.6058 22.2492 78.5618 21.9432 77.9498 21.0972H77.9138V26.1372H75.2138ZM77.6978 17.6592C77.6978 18.9732 78.5078 19.8732 79.8578 19.8732C81.2078 19.8732 82.0178 18.9732 82.0178 17.6592C82.0178 16.3452 81.2078 15.4452 79.8578 15.4452C78.5078 15.4452 77.6978 16.3452 77.6978 17.6592ZM86.3357 22.0332V8.4252H89.0357V22.0332H86.3357ZM97.3655 19.1352L99.2555 20.5212C98.3915 21.6192 96.9695 22.2492 95.5655 22.2492C92.8655 22.2492 90.7055 20.4492 90.7055 17.6592C90.7055 14.8692 92.8655 13.0692 95.5655 13.0692C98.0855 13.0692 99.6695 14.8692 99.6695 17.6592V18.5052H93.4055C93.6215 19.5312 94.3955 20.1972 95.4395 20.1972C96.3215 20.1972 96.9155 19.7472 97.3655 19.1352ZM93.4055 16.6692H96.9695C96.9875 15.7692 96.2855 15.0132 95.3135 15.0132C94.1255 15.0132 93.4775 15.8232 93.4055 16.6692ZM101.365 20.4852C101.365 19.5672 102.103 18.8292 103.021 18.8292C103.939 18.8292 104.677 19.5672 104.677 20.4852C104.677 21.4032 103.939 22.1412 103.021 22.1412C102.103 22.1412 101.365 21.4032 101.365 20.4852ZM112.128 22.0332V20.9352H112.092C111.498 21.8712 110.418 22.2492 109.32 22.2492C107.682 22.2492 106.206 21.3132 106.206 19.5492C106.206 16.5252 109.878 16.4712 112.128 16.4712C112.128 15.5172 111.336 14.9052 110.4 14.9052C109.518 14.9052 108.78 15.3012 108.204 15.9492L106.764 14.4732C107.754 13.5372 109.194 13.0692 110.616 13.0692C113.766 13.0692 114.612 14.6712 114.612 17.5872V22.0332H112.128ZM112.128 18.1992H111.462C110.634 18.1992 108.798 18.2712 108.798 19.4592C108.798 20.1072 109.482 20.4132 110.076 20.4132C111.138 20.4132 112.128 19.8552 112.128 18.7752V18.1992ZM116.342 22.0332V13.2852H119.042V22.0332H116.342ZM116.126 10.5312C116.126 9.6672 116.828 8.9652 117.692 8.9652C118.556 8.9652 119.258 9.6672 119.258 10.5312C119.258 11.3952 118.556 12.0972 117.692 12.0972C116.828 12.0972 116.126 11.3952 116.126 10.5312Z" fill="#181923"/>
<defs>
<filter id="filter0_i_2971_8153" x="0.0253906" y="0.533203" width="30" height="31.9552" filterUnits="userSpaceOnUse" color-interpolation-filters="sRGB">
<feFlood flood-opacity="0" result="BackgroundImageFix"/>
<feBlend mode="normal" in="SourceGraphic" in2="BackgroundImageFix" result="shape"/>
<feColorMatrix in="SourceAlpha" type="matrix" values="0 0 0 0 0 0 0 0 0 0 0 0 0 0 0 0 0 0 127 0" result="hardAlpha"/>
<feOffset dy="1.95515"/>
<feGaussianBlur stdDeviation="0.977576"/>
<feComposite in2="hardAlpha" operator="arithmetic" k2="-1" k3="1"/>
<feColorMatrix type="matrix" values="0 0 0 0 1 0 0 0 0 1 0 0 0 0 1 0 0 0 0.25 0"/>
<feBlend mode="normal" in2="shape" result="effect1_innerShadow_2971_8153"/>
</filter>
<filter id="filter1_f_2971_8153" x="-1.10258" y="-0.444373" width="31.2823" height="19.9552" filterUnits="userSpaceOnUse" color-interpolation-filters="sRGB">
<feFlood flood-opacity="0" result="BackgroundImageFix"/>
<feBlend mode="normal" in="SourceGraphic" in2="BackgroundImageFix" result="shape"/>
<feGaussianBlur stdDeviation="0.488788" result="effect1_foregroundBlur_2971_8153"/>
</filter>
<linearGradient id="paint0_linear_2971_8153" x1="3.7853" y1="-2.14247" x2="12.3782" y2="24.8506" gradientUnits="userSpaceOnUse">
<stop stop-color="white"/>
<stop offset="1" stop-color="white" stop-opacity="0"/>
</linearGradient>
<clipPath id="clip0_2971_8153">
<rect x="0.0253906" y="0.533203" width="30" height="30" rx="4.88788" fill="white"/>
</clipPath>
</defs>
</svg>
