<svg width="15" height="14" viewBox="0 0 15 14" fill="none" xmlns="http://www.w3.org/2000/svg">
<path fill-rule="evenodd" clip-rule="evenodd" d="M2.23126 1.68213C2.00367 1.68213 1.77755 1.77729 1.60493 1.9596C1.43114 2.14316 1.32761 2.39949 1.32761 2.67386V7.08862C1.32761 7.363 1.43114 7.61933 1.60493 7.80288C1.77755 7.9852 2.00367 8.08036 2.23126 8.08036H2.94979C3.3164 8.08036 3.61359 8.37755 3.61359 8.74416V9.40961L5.39538 8.19559C5.50557 8.12051 5.63582 8.08036 5.76915 8.08036H8.50109C8.72868 8.08036 8.9548 7.9852 9.12742 7.80288C9.3012 7.61933 9.40474 7.363 9.40474 7.08862V2.67386C9.40474 2.39949 9.3012 2.14316 9.12742 1.9596C8.9548 1.77729 8.72868 1.68213 8.50109 1.68213H2.23126ZM0.640874 1.04684C1.05617 0.608212 1.62742 0.354523 2.23126 0.354523H8.50109C9.10493 0.354523 9.67618 0.608211 10.0915 1.04684C10.5056 1.48424 10.7323 2.07009 10.7323 2.67386V3.56287H12.9136C13.4791 3.56287 14.0135 3.80043 14.4016 4.21036C14.7885 4.61905 15 5.16598 15 5.72916V9.73578C15 10.299 14.7885 10.8459 14.4016 11.2546C14.0161 11.6617 13.4864 11.8988 12.9253 11.902V12.9817C12.9253 13.2277 12.7893 13.4535 12.5718 13.5685C12.3543 13.6835 12.0911 13.6687 11.8878 13.5302L9.49817 11.9021H7.22345C6.65804 11.9021 6.12364 11.6645 5.73553 11.2546C5.40245 10.9028 5.19939 10.4486 5.1493 9.96974L3.32356 11.2137C3.12025 11.3522 2.85701 11.367 2.63953 11.252C2.42204 11.137 2.28598 10.9111 2.28598 10.6651V9.40796H2.23126C1.62742 9.40796 1.05617 9.15428 0.640874 8.71565C0.226748 8.27825 0 7.6924 0 7.08862V2.67386C0 2.07009 0.226749 1.48424 0.640874 1.04684ZM6.4647 9.40796H8.50109C9.10493 9.40796 9.67618 9.15428 10.0915 8.71565C10.5056 8.27825 10.7323 7.6924 10.7323 7.08862V4.89048H12.9136C13.1028 4.89048 13.2921 4.96951 13.4375 5.12312C13.5841 5.27797 13.6724 5.49537 13.6724 5.72916V9.73578C13.6724 9.96957 13.5841 10.187 13.4375 10.3418C13.2921 10.4954 13.1028 10.5745 12.9136 10.5745H12.2615C11.8949 10.5745 11.5977 10.8717 11.5977 11.2383V11.7261L10.0766 10.6897C9.9664 10.6146 9.83616 10.5745 9.70282 10.5745H7.22345C7.03429 10.5745 6.84502 10.4954 6.69958 10.3418C6.55297 10.187 6.4647 9.96957 6.4647 9.73578V9.40796Z" fill="white"/>
</svg>
