<svg width="120" height="119" viewBox="0 0 120 119" fill="none" xmlns="http://www.w3.org/2000/svg">
<mask id="mask0_3419_92577" style="mask-type:alpha" maskUnits="userSpaceOnUse" x="0" y="0" width="120" height="119">
<rect x="0.5" width="119" height="119" fill="#D9D9D9"/>
</mask>
<g mask="url(#mask0_3419_92577)">
<rect x="0.5" width="119" height="119" fill="url(#paint0_linear_3419_92577)"/>
<path opacity="0.5" d="M20.1077 41.4667C3.96806 38.2012 -0.889712 23.7285 -1.30115 16.9004V12.0766L125.785 11.2603V34.3233C124.247 39.8748 119.892 41.3987 117.907 41.4667C115.985 48.1339 107.915 61.1826 91.0071 60.0396C74.0988 58.8967 67.3099 42.4192 66.0289 34.3233C60.0342 34.9764 54.1803 31.602 52.0027 29.8332C48.0959 35.0717 36.2473 44.7323 20.1077 41.4667Z" fill="#F7D8E2"/>
<path d="M67.6301 95.5938C66.0396 100.698 53.5549 103.339 50.1136 95.5938" stroke="#370415" stroke-width="2.31826" stroke-linecap="round"/>
<path d="M51.6246 92.5605C51.227 94.0959 49.5891 97.1185 46.2189 96.926" stroke="#370415" stroke-width="2.31826" stroke-linecap="round"/>
<path d="M42.6273 68.7564C41.8846 66.5148 38.4662 62.0315 30.7351 62.0315C23.0039 62.0315 19.3757 66.5148 18.528 68.7564" stroke="#370415" stroke-width="2.31826" stroke-linecap="round"/>
<path d="M19.2216 58.2666C21.8255 59.7022 26.4577 60.9541 28.4483 61.4006L21.5193 63.3514C20.2983 62.2333 19.4787 59.4956 19.2216 58.2666Z" fill="#370415"/>
<path d="M14.5557 62.3005C17.6679 63.0138 22.8198 62.9386 25.0067 62.8118L18.4292 66.8717C16.8385 66.0778 15.184 63.4935 14.5557 62.3005Z" fill="#370415"/>
<path d="M74.8662 68.7564C75.609 66.5148 79.0273 62.0315 86.7585 62.0315C94.4897 62.0315 98.1179 66.5148 98.9656 68.7564" stroke="#370415" stroke-width="2.31826" stroke-linecap="round"/>
<path d="M98.2715 58.2666C95.6675 59.7022 91.0353 60.9541 89.0448 61.4006L95.9737 63.3514C97.1948 62.2333 98.0143 59.4956 98.2715 58.2666Z" fill="#370415"/>
<path d="M102.987 62.3005C99.8743 63.0138 94.7224 62.9386 92.5355 62.8118L99.113 66.8717C100.704 66.0778 102.358 63.4935 102.987 62.3005Z" fill="#370415"/>
<ellipse cx="26.1463" cy="82.5801" rx="11.9292" ry="6.16387" fill="#F7D8E2"/>
<ellipse cx="91.0574" cy="82.5801" rx="11.9292" ry="6.16387" fill="#F7D8E2"/>
<ellipse cx="64.7457" cy="84.9989" rx="1.3244" ry="2.41196" transform="rotate(11.8604 64.7457 84.9989)" fill="#370415"/>
<ellipse cx="1.3244" cy="2.41196" rx="1.3244" ry="2.41196" transform="matrix(-0.978651 0.205528 0.205528 0.978651 56.2729 82.3662)" fill="#370415"/>
<path d="M104.421 26.9976C85.3396 25.8739 76.8503 11.2868 76.7488 3.96784C76.6993 0.389858 77.3464 -7.91047 86.3623 -11.3581C97.6322 -15.6676 105.378 -4.02684 112.323 -2.00679C120.785 0.454051 126.934 -4.5525 126.842 -12.3326C142.09 3.28671 128.273 28.4022 104.421 26.9976Z" fill="#45C2F1"/>
<path d="M87.1462 43.3103C69.4603 36.059 66.1607 19.5071 68.4384 12.5508C69.5519 9.15018 72.8559 1.50835 82.5026 1.17108C94.561 0.749488 98.1128 14.2731 104.028 18.4365C111.234 23.5084 118.675 20.7669 121.111 13.3774C130.469 33.0975 109.253 52.3745 87.1462 43.3103Z" fill="#EB3D7C"/>
<path d="M71.84 40.9251C61.0141 25.4374 66.8799 11.0431 72.3676 7.06543C75.0504 5.12087 81.7404 1.20445 89.8724 6.40305C100.037 12.9013 95.9508 25.1459 98.6698 31.6415C101.982 39.5544 109.542 41.6862 115.385 37.47C112.873 57.6875 85.3723 60.2848 71.84 40.9251Z" fill="url(#paint1_linear_3419_92577)"/>
<path opacity="0.5" fill-rule="evenodd" clip-rule="evenodd" d="M66.1018 27.2802C66.7778 31.5475 68.5276 36.1842 71.8402 40.9232C84.9256 59.6435 111.072 57.8332 115.056 39.4134C113.329 44.0014 108.729 50.1856 99.3373 50.569C85.2118 51.1455 81.0586 42.6889 79.8245 35.9048C78.7933 30.2364 79.3963 27.0942 80.0699 23.5847C80.5433 21.1177 81.0516 18.4693 81.0516 14.6343L66.1018 27.2802Z" fill="#22A3D5"/>
<path d="M27.8804 20.5131C50.4898 13.7179 54.6213 -1.49735 51.6644 -7.86263C50.2189 -10.9744 45.9437 -17.9606 33.5869 -18.1933C18.1409 -18.484 13.6692 -6.0457 6.11733 -2.17796C-3.08235 2.53373 -12.6281 0.0773056 -15.79 -6.6843C-27.6624 11.4865 -0.381407 29.0072 27.8804 20.5131Z" fill="#3ABAEB"/>
<path d="M50.5942 27.0385C69.0268 12.2872 72.1472 -6.19719 67.026 -10.9966C64.5225 -13.3428 52.973 -15.3978 41.4243 -10.9966C29.875 -6.59506 31.1779 2.43216 23.966 14.6392C18.722 23.5154 3.02234 21.236 1.57428 14.6393C-1.6533 34.0052 28.7482 44.5215 50.5942 27.0385Z" fill="url(#paint2_linear_3419_92577)"/>
<path opacity="0.5" fill-rule="evenodd" clip-rule="evenodd" d="M68.8151 -0.0502097C67.3275 7.7587 61.7807 18.0861 50.5941 27.0385C31.57 42.2632 6.05793 36.2548 1.91589 21.6597C9.0017 33.397 29.8033 34.0539 42.2223 21.6345C53.9051 9.95144 64.7405 1.57679 68.6978 -1.15015L68.8151 -0.0502097Z" fill="url(#paint3_linear_3419_92577)"/>
<mask id="mask1_3419_92577" style="mask-type:alpha" maskUnits="userSpaceOnUse" x="51" y="-26" width="61" height="59">
<path d="M57.568 5.85097L102.264 -25.2236C103.262 -25.9172 104.626 -25.7228 105.39 -24.7781L111.848 -16.7949L77.4769 26.9572C72.7489 32.9757 64.1884 34.3478 57.8162 30.1084C49.1982 24.3749 49.0691 11.7597 57.568 5.85097Z" fill="#FFD21B"/>
</mask>
<g mask="url(#mask1_3419_92577)">
<path d="M57.568 5.85097L102.264 -25.2236C103.262 -25.9172 104.626 -25.7228 105.39 -24.7781L111.848 -16.7949L77.4769 26.9572C72.7489 32.9757 64.1884 34.3478 57.8162 30.1084C49.1982 24.3749 49.0691 11.7597 57.568 5.85097Z" fill="url(#paint4_linear_3419_92577)"/>
<path opacity="0.5" d="M60.7551 23.4247C52.5389 19.8432 51.4312 10.3108 51.9043 5.9923L45.3495 16.051L51.9043 36.1969L60.7551 43.1756L84.588 24.3464L107.367 -7.65014L95.3852 -9.23022C95.4905 -4.70068 92.8834 0.733019 91.5666 2.88367L84.588 4.33209C87.2214 14.3392 78.7505 18.1577 74.1858 18.8161C73.1324 21.8446 68.9714 27.0062 60.7551 23.4247Z" fill="url(#paint5_linear_3419_92577)"/>
<path d="M54.067 7.59961C55.4807 10.7417 60.88 17.2762 71.1678 18.2779C81.4556 19.2796 89.0058 16.0433 91.495 14.3" stroke="#A26518" stroke-width="2.31826"/>
<path d="M64.0822 -7.229C65.4958 -4.08696 70.8951 2.44756 81.1829 3.44928C91.4707 4.45101 99.021 1.21473 101.51 -0.528618" stroke="#A26518" stroke-width="2.31826"/>
</g>
</g>
<defs>
<linearGradient id="paint0_linear_3419_92577" x1="60" y1="9.12871e-08" x2="56.9369" y2="119" gradientUnits="userSpaceOnUse">
<stop stop-color="#FFE3EC"/>
<stop offset="1" stop-color="white" stop-opacity="0.99"/>
</linearGradient>
<linearGradient id="paint1_linear_3419_92577" x1="100.673" y1="13.7952" x2="77.6097" y2="47.4435" gradientUnits="userSpaceOnUse">
<stop stop-color="#50CAF8"/>
<stop offset="1" stop-color="#28AEE1"/>
</linearGradient>
<linearGradient id="paint2_linear_3419_92577" x1="29.9231" y1="-6.28853" x2="45.2418" y2="31.0659" gradientUnits="userSpaceOnUse">
<stop stop-color="#F7528E"/>
<stop offset="1" stop-color="#DF2A6C"/>
</linearGradient>
<linearGradient id="paint3_linear_3419_92577" x1="35.3655" y1="-1.15015" x2="21.2888" y2="60.8001" gradientUnits="userSpaceOnUse">
<stop stop-color="#C20E4F"/>
<stop offset="1" stop-color="#C20E4F" stop-opacity="0"/>
</linearGradient>
<linearGradient id="paint4_linear_3419_92577" x1="79.1372" y1="-29.1905" x2="71.7626" y2="37.9095" gradientUnits="userSpaceOnUse">
<stop stop-color="#FFD21B"/>
<stop offset="1" stop-color="#E4AD08"/>
</linearGradient>
<linearGradient id="paint5_linear_3419_92577" x1="63.5293" y1="34.2563" x2="94.7732" y2="12.7029" gradientUnits="userSpaceOnUse">
<stop stop-color="#CE9210"/>
<stop offset="1" stop-color="#CE9210" stop-opacity="0"/>
</linearGradient>
</defs>
</svg>
