<svg width="120" height="119" viewBox="0 0 120 119" fill="none" xmlns="http://www.w3.org/2000/svg">
<mask id="mask0_3419_92346" style="mask-type:alpha" maskUnits="userSpaceOnUse" x="0" y="0" width="120" height="119">
<rect x="0.499878" y="0.000244141" width="118.853" height="118.853" fill="#F3B286"/>
</mask>
<g mask="url(#mask0_3419_92346)">
<rect x="0.499878" y="0.000244141" width="118.853" height="118.853" fill="#6C6C7D"/>
<path d="M125.948 115.968V20.572L59.9264 30.9913L-6.09558 20.572V115.968H125.948Z" fill="#454555"/>
<path d="M125.948 122.914V27.5176L59.9264 37.9368L-6.09558 27.5176V122.914H125.948Z" fill="url(#paint0_linear_3419_92346)"/>
<path d="M59.0642 48.9845L7.14978 40.4365L12.9263 46.6311V60.2405L59.0642 71.9782L106.283 59.4319V44.8998L112.702 38.907L59.0642 48.9845Z" fill="#454555"/>
<path d="M59.0642 45.3608L7.14978 40.4365L12.9263 46.6311V55.4089L59.0642 67.1466L106.283 54.6003V44.8998L112.702 38.907L59.0642 45.3608Z" fill="#0F0E12"/>
<path d="M39.7916 49.954L26.7843 46.7664L27.5127 50.1435C27.8787 51.8407 29.1634 53.1906 30.8404 53.6401L44.2392 57.2317L43.1593 53.2418C42.7189 51.6146 41.429 50.3553 39.7916 49.954Z" fill="#29AADC"/>
<path d="M78.3403 49.954L91.3477 46.7664L90.6193 50.1435C90.2532 51.8407 88.9686 53.1906 87.2915 53.6401L73.8927 57.2317L74.9726 53.2418C75.4131 51.6146 76.703 50.3553 78.3403 49.954Z" fill="#29AADC"/>
<path fill-rule="evenodd" clip-rule="evenodd" d="M84.597 123.158V84.8972L90.8949 82.9936V123.158H84.597ZM96.7264 123.158H102.85V79.38L96.7264 81.231V123.158ZM108.682 77.6174V123.158H114.037V75.9989L108.682 77.6174Z" fill="#41414D"/>
<path fill-rule="evenodd" clip-rule="evenodd" d="M35.8571 123.158V84.8972L29.5587 82.9935V123.158H35.8571ZM23.7272 123.158H17.6031V79.3798L23.7272 81.2309V123.158ZM11.7716 77.6172V123.158H6.41755V75.9989L11.7716 77.6172Z" fill="#41414D"/>
<path d="M-7.86047 63.488L44.2527 78.5347V126.366H75.2945V78.5347L121.857 63.488" stroke="url(#paint1_linear_3419_92346)" stroke-width="2.31539"/>
</g>
<defs>
<linearGradient id="paint0_linear_3419_92346" x1="59.9264" y1="-11.4104" x2="59.9264" y2="128.795" gradientUnits="userSpaceOnUse">
<stop stop-color="#5B5B6B"/>
<stop offset="1" stop-color="#A1A1A1"/>
</linearGradient>
<linearGradient id="paint1_linear_3419_92346" x1="56.9981" y1="54.132" x2="56.9981" y2="126.366" gradientUnits="userSpaceOnUse">
<stop stop-color="#5C5B6A"/>
<stop offset="1" stop-color="#5C5B6A" stop-opacity="0"/>
</linearGradient>
</defs>
</svg>
