<svg width="120" height="119" viewBox="0 0 120 119" fill="none" xmlns="http://www.w3.org/2000/svg">
<mask id="mask0_3419_92369" style="mask-type:alpha" maskUnits="userSpaceOnUse" x="0" y="0" width="120" height="120">
<rect x="0.352539" y="0.000244141" width="119" height="119" fill="#F3B286"/>
</mask>
<g mask="url(#mask0_3419_92369)">
<rect x="0.352539" y="0.000244141" width="119" height="119" fill="#FFDFBA"/>
<path fill-rule="evenodd" clip-rule="evenodd" d="M-3.28003 62.1887C1.16351 63.1399 12.1067 67.8963 20.3311 79.3124C21.9103 78.0026 26.0317 75.4229 29.8837 75.5828C29.4235 76.3822 28.3948 78.8604 27.9613 82.3777C35.2991 75.5954 40.5754 75.4203 47.1244 75.2031C52.3272 75.0305 58.3332 74.8312 66.8143 71.2713L66.8143 71.2712C66.8143 71.2712 66.8143 71.2713 66.8144 71.2713C66.8144 71.2712 66.8145 71.2712 66.8145 71.2712L66.8145 71.2713C75.5305 74.8313 81.5497 75.0305 86.7639 75.2031C93.3272 75.4204 98.615 75.5954 106.4 82.3778C105.735 78.8604 104.543 76.3822 104.03 75.5828C107.871 75.423 112.163 78.0026 113.828 79.3124C121.299 67.8964 131.929 63.14 136.309 62.1888L138.207 119.702H68.4124L-1.38218 119.702L-3.28003 62.1887Z" fill="url(#paint0_linear_3419_92369)"/>
<path d="M58.1369 94.9307C53.3949 96.8929 47.2819 96.0819 43.9951 95.2337C43.4145 95.0838 42.8227 95.4095 42.6834 95.9826C42.556 96.507 42.8465 97.0813 43.3586 97.2833C45.0064 97.9331 48.7015 99.1227 54.2038 98.6519C61.2602 98.0481 63.2459 95.4607 67.2534 93.9944C71.261 92.5282 71.9997 93.9944 77.6802 96.1507C83.3606 98.3069 88.1912 95.6332 89.0485 95.4607C89.9058 95.2882 92.5734 92.4419 85.7209 93.9944C78.8684 95.5469 71.2799 87.8706 68.4321 87.8706C65.5843 87.8706 64.7774 92.1831 58.1369 94.9307Z" fill="#371F09"/>
<path d="M67.8812 77.9488C60.7873 77.9488 56.0931 74.8368 54.6327 73.2808L66.6404 70.8954L79.7891 72.3717C78.7756 74.2307 74.9751 77.9488 67.8812 77.9488Z" fill="#FFDFBA"/>
<path d="M132.707 -25.1267H-7.44409L-5.96829 19.5962L64.4224 3.56347L134.183 19.5962L132.707 -25.1267Z" fill="#504AAE"/>
<path d="M68.0928 20.3036C39.5426 19.399 10.6917 25.5944 -0.164955 28.8052L-0.188617 10.7688C10.3534 6.48648 32.1418 -2.05583 68.065 -0.917594C97.3671 0.0108532 120.515 11.1683 128.426 16.631L128.448 32.8804C120.225 29.0651 96.6431 21.2082 68.0928 20.3036Z" fill="url(#paint1_linear_3419_92369)"/>
<path fill-rule="evenodd" clip-rule="evenodd" d="M131.194 5.45068C111.282 16.6128 55.302 38.4066 -7.66947 35.3358L-7.77985 42.2785C0.846536 42.6992 9.34253 42.666 17.6384 42.2651C18.8873 62.57 32.1265 66.9398 48.1145 63.5277C60.5048 60.8834 62.6429 46.0785 61.0687 36.8319C95.0091 30.0391 121.885 18.7512 134.75 11.5395L131.194 5.45068Z" fill="url(#paint2_linear_3419_92369)"/>
<path d="M68.1654 17.247C39.6008 17.247 10.9727 24.7197 0.229182 28.456L-0.396369 9.4992C9.99688 4.64709 31.4881 -5.05713 67.4293 -5.05713C96.7461 -5.05713 120.254 5.89923 128.343 11.3774L128.906 28.456C120.561 24.7197 96.7299 17.247 68.1654 17.247Z" fill="url(#paint3_linear_3419_92369)"/>
<path opacity="0.5" d="M78.6181 4.81092C47.2417 0.542385 11.0386 10.9997 -3.14083 16.7619L-2.96065 22.2219C3.6633 19.2016 10.7782 16.6662 17.9911 14.5484C41.8956 7.52965 66.8753 5.09855 78.6181 4.81092Z" fill="#CC1B26"/>
<path d="M74.6316 46.2568C70.3317 44.9366 71.3804 40.5111 72.4423 38.4634C81.6213 38.4634 81.1122 34.1548 94.1633 32.1378C104.604 30.5242 108.994 37.7304 110.892 41.4894C97.9727 33.6047 80.0065 47.9071 74.6316 46.2568Z" fill="#603813"/>
<path d="M107.626 48.4258C98.55 39.2855 80.081 46.0184 76.2803 50.0824C78.5433 53.6277 85.3745 60.3705 94.5949 58.9791C103.815 57.5877 107.124 51.3638 107.626 48.4258Z" fill="black"/>
<mask id="mask1_3419_92369" style="mask-type:alpha" maskUnits="userSpaceOnUse" x="76" y="45" width="32" height="15">
<path d="M107.626 48.4272C96.3972 42.2827 82.0505 46.9713 76.2807 50.0837C78.5437 53.629 85.3749 60.3718 94.5952 58.9804C103.815 57.589 107.124 51.3651 107.626 48.4272Z" fill="white"/>
</mask>
<g mask="url(#mask1_3419_92369)">
<path d="M107.626 48.4272C96.3972 42.2827 82.0505 46.9713 76.2807 50.0837C78.5437 53.629 85.3749 60.3718 94.5952 58.9804C103.815 57.589 107.124 51.3651 107.626 48.4272Z" fill="white"/>
<ellipse cx="6.53885" cy="6.53885" rx="6.53885" ry="6.53885" transform="matrix(1 0 0.0329808 0.999456 85.197 42.7117)" fill="black"/>
</g>
</g>
<defs>
<linearGradient id="paint0_linear_3419_92369" x1="66.5146" y1="62.1887" x2="66.5146" y2="119.702" gradientUnits="userSpaceOnUse">
<stop stop-color="#603813"/>
<stop offset="1" stop-color="#76471C"/>
</linearGradient>
<linearGradient id="paint1_linear_3419_92369" x1="64.0995" y1="-1.04324" x2="72.6017" y2="51.5931" gradientUnits="userSpaceOnUse">
<stop stop-color="#FBC689"/>
<stop offset="1" stop-color="#FBC689" stop-opacity="0"/>
</linearGradient>
<linearGradient id="paint2_linear_3419_92369" x1="41.1748" y1="16.3613" x2="37.971" y2="71.2025" gradientUnits="userSpaceOnUse">
<stop/>
<stop offset="1" stop-color="#393939"/>
</linearGradient>
<linearGradient id="paint3_linear_3419_92369" x1="63.4619" y1="-5.05713" x2="63.4619" y2="28.456" gradientUnits="userSpaceOnUse">
<stop stop-color="#EA313C"/>
<stop offset="1" stop-color="#EA3C47"/>
</linearGradient>
</defs>
</svg>
