<svg width="120" height="119" viewBox="0 0 120 119" fill="none" xmlns="http://www.w3.org/2000/svg">
<mask id="mask0_3419_92395" style="mask-type:alpha" maskUnits="userSpaceOnUse" x="0" y="0" width="120" height="119">
<rect x="0.573608" y="0.000244141" width="118.853" height="118.853" fill="#F3B286"/>
</mask>
<g mask="url(#mask0_3419_92395)">
<rect x="0.573608" y="0.000244141" width="118.853" height="118.853" fill="url(#paint0_linear_3419_92395)"/>
<rect x="30.1599" y="29.6863" width="59.6807" height="23.4277" rx="4.80675" fill="#969C9C"/>
<path d="M67.3937 29.686H79.3927L68.5349 53.1137H56.5359L67.3937 29.686Z" fill="url(#paint1_linear_3419_92395)"/>
<path d="M52.2107 29.686H58.7808L47.923 53.1137H41.3529L52.2107 29.686Z" fill="url(#paint2_linear_3419_92395)"/>
<path d="M102.556 61.1964C71.7385 63.3317 38.5933 62.3667 18.0947 61.1279C11.7643 60.7453 6.28245 65.8233 8.05022 71.9139C10.7273 81.1375 16.1012 88.9125 20.8262 94.1171C23.7765 97.3669 28.5545 97.7189 32.5096 95.8155C41.0813 91.6901 53.2894 86.7937 61.2722 86.7937C69.0772 86.7937 80.6945 91.4743 89.0332 95.5385C93.1945 97.5667 98.3086 97.1302 101.299 93.5967C107.664 86.0772 110.97 77.946 112.508 71.2651C113.87 65.3451 108.616 60.7765 102.556 61.1964Z" fill="#0A2027"/>
<path d="M102.556 61.1964C71.7385 63.3317 38.5933 62.3667 18.0947 61.1279C11.7643 60.7453 6.28245 65.8233 8.05022 71.9139C10.7273 81.1375 16.1012 88.9125 20.8262 94.1171C23.7765 97.3669 28.5545 97.7189 32.5096 95.8155C41.0813 91.6901 53.2894 86.7937 61.2722 86.7937C69.0772 86.7937 80.6945 91.4743 89.0332 95.5385C93.1945 97.5667 98.3086 97.1302 101.299 93.5967C107.664 86.0772 110.97 77.946 112.508 71.2651C113.87 65.3451 108.616 60.7765 102.556 61.1964Z" fill="#0A2027"/>
<path d="M102.556 61.1964C71.7385 63.3317 38.5933 62.3667 18.0947 61.1279C11.7643 60.7453 6.28245 65.8233 8.05022 71.9139C10.7273 81.1375 16.1012 88.9125 20.8262 94.1171C23.7765 97.3669 28.5545 97.7189 32.5096 95.8155C41.0813 91.6901 53.2894 86.7937 61.2722 86.7937C69.0772 86.7937 80.6945 91.4743 89.0332 95.5385C93.1945 97.5667 98.3086 97.1302 101.299 93.5967C107.664 86.0772 110.97 77.946 112.508 71.2651C113.87 65.3451 108.616 60.7765 102.556 61.1964Z" fill="#0A2027"/>
<path d="M102.556 61.1964C71.7385 63.3317 38.5933 62.3667 18.0947 61.1279C11.7643 60.7453 6.28245 65.8233 8.05022 71.9139C10.7273 81.1375 16.1012 88.9125 20.8262 94.1171C23.7765 97.3669 28.5545 97.7189 32.5096 95.8155C41.0813 91.6901 53.2894 86.7937 61.2722 86.7937C69.0772 86.7937 80.6945 91.4743 89.0332 95.5385C93.1945 97.5667 98.3086 97.1302 101.299 93.5967C107.664 86.0772 110.97 77.946 112.508 71.2651C113.87 65.3451 108.616 60.7765 102.556 61.1964Z" fill="#0A2027"/>
<path d="M102.556 63.4663C71.7385 65.6016 38.5933 64.6366 18.0947 63.3978C11.7643 63.0152 6.28245 68.0932 8.05022 74.1838C10.7273 83.4074 16.1012 91.1824 20.8262 96.387C23.7765 99.6368 28.5545 99.9888 32.5096 98.0854C41.0813 93.96 53.2894 89.0636 61.2722 89.0636C69.0772 89.0636 80.6945 93.7442 89.0332 97.8084C93.1945 99.8366 98.3086 99.4001 101.299 95.8666C107.664 88.3471 110.97 80.2159 112.508 73.535C113.87 67.615 108.616 63.0464 102.556 63.4663Z" fill="url(#paint3_linear_3419_92395)"/>
<path fill-rule="evenodd" clip-rule="evenodd" d="M69.9223 90.3843L61.9376 77.9998V89.0742C64.3384 89.1516 67.0635 89.6358 69.9223 90.3843Z" fill="#8B5727"/>
<path d="M92.8908 75.0978L94.3845 68.6862L70.6337 75.4736L69.2232 79.7051L90.8553 76.9364C91.8513 76.8089 92.663 76.0757 92.8908 75.0978Z" fill="black"/>
<ellipse cx="6.30757" cy="6.30757" rx="6.30757" ry="6.30757" transform="matrix(-1 0 0 1 85.765 74.6306)" fill="black"/>
<ellipse cx="1.86725" cy="1.86725" rx="1.86725" ry="1.86725" transform="matrix(-1 0 0 1 79.9619 79.0717)" fill="white"/>
<path d="M25.1922 75.098L23.6985 68.6864L47.4493 75.4738L48.8598 79.7053L27.2277 76.9367C26.2318 76.8092 25.42 76.0759 25.1922 75.098Z" fill="black"/>
<ellipse cx="38.6254" cy="80.9383" rx="6.30757" ry="6.30757" fill="black"/>
<ellipse cx="39.988" cy="80.939" rx="1.86725" ry="1.86725" fill="white"/>
</g>
<defs>
<linearGradient id="paint0_linear_3419_92395" x1="60" y1="0.000244141" x2="60" y2="118.853" gradientUnits="userSpaceOnUse">
<stop stop-color="#0F323E"/>
<stop offset="1" stop-color="#2B505A"/>
</linearGradient>
<linearGradient id="paint1_linear_3419_92395" x1="67.9643" y1="29.686" x2="67.9643" y2="53.1137" gradientUnits="userSpaceOnUse">
<stop stop-color="#CFD1D0"/>
<stop offset="1" stop-color="#CFD1D0" stop-opacity="0"/>
</linearGradient>
<linearGradient id="paint2_linear_3419_92395" x1="50.0668" y1="29.686" x2="50.0668" y2="53.1137" gradientUnits="userSpaceOnUse">
<stop stop-color="#CFD1D0"/>
<stop offset="1" stop-color="#CFD1D0" stop-opacity="0"/>
</linearGradient>
<linearGradient id="paint3_linear_3419_92395" x1="60.0002" y1="62.5519" x2="60.0002" y2="101.398" gradientUnits="userSpaceOnUse">
<stop stop-color="#9A632F"/>
<stop offset="1" stop-color="#AD7541"/>
</linearGradient>
</defs>
</svg>
