<svg width="120" height="119" viewBox="0 0 120 119" fill="none" xmlns="http://www.w3.org/2000/svg">
<mask id="mask0_3419_92421" style="mask-type:alpha" maskUnits="userSpaceOnUse" x="0" y="0" width="120" height="120">
<rect x="0.42627" y="0.000244141" width="119" height="119" fill="#F3B286"/>
</mask>
<g mask="url(#mask0_3419_92421)">
<rect x="0.42627" y="0.000244141" width="119" height="119" fill="url(#paint0_linear_3419_92421)"/>
<path d="M46.3191 5.07042C53.1547 1.72546 52.3274 -6.19774 51.0593 -9.74121H-6.98792V26.6331C-0.738444 33.3928 4.74526 28.8013 12.1426 26.6331C19.5399 24.465 24.004 25.7404 29.8709 16.5575C35.7377 7.37456 37.7747 9.25162 46.3191 5.07042Z" fill="#EAECEB"/>
<path d="M13.0933 19.2858C-1.40673 23.2215 -4.34044 14.1936 -3.99478 9.18771V-6.34766H41.5752C38.1229 0.556974 27.5934 15.3501 13.0933 19.2858Z" fill="url(#paint1_linear_3419_92421)"/>
<path opacity="0.5" d="M72.0634 93.1899C68.0737 93.1146 64.3013 95.4633 62.9138 96.6471C62.4907 100.104 69.1295 95.8255 73.3694 97.33C77.6093 98.8344 80.6259 98.4591 80.2496 97.33C79.8732 96.2009 77.0504 93.284 72.0634 93.1899Z" fill="#037263"/>
<ellipse cx="97.9566" cy="8.59832" rx="4.49955" ry="8.52566" transform="rotate(-48.5401 97.9566 8.59832)" fill="#048481"/>
<ellipse cx="96.2825" cy="18.587" rx="2.15535" ry="4.08392" transform="rotate(-48.5401 96.2825 18.587)" fill="#048481"/>
<ellipse cx="25.1242" cy="32.6949" rx="4.11021" ry="7.78795" transform="rotate(48.0179 25.1242 32.6949)" fill="#048481"/>
<path opacity="0.5" d="M60.411 53.3264C60.411 61.5712 52.6971 68.0657 42.1832 68.0657C31.6693 68.0657 23.8422 63.7245 23.8422 55.4797C23.8422 47.235 33.0733 39.4296 42.1833 38.7678C52.6972 38.7678 60.411 45.0817 60.411 53.3264Z" fill="#048481"/>
<path d="M60.411 51.3715C60.411 58.5091 52.6971 64.1315 42.1832 64.1315C31.6693 64.1315 23.8422 60.3733 23.8422 53.2356C23.8422 46.098 33.0733 39.3407 42.1833 38.7678C52.6972 38.7678 60.411 44.2338 60.411 51.3715Z" fill="#FCE788"/>
<ellipse cx="42.8655" cy="51.6349" rx="1.66979" ry="1.66979" fill="#1A191E"/>
<path d="M68.1774 63.5038C70.0361 59.1369 71.386 58.0194 71.8286 58.0065C73.9697 58.5484 74.6235 65.5362 78.1905 68.9642C81.4017 72.0502 81.907 76.1649 78.1905 77.5005C75.2174 78.569 72.3968 75.4874 71.3321 73.5517C70.5384 74.7519 68.9442 77.365 66.2779 77.7747C63.0595 78.2693 61.1197 75.5925 61.814 73.5517C62.7688 70.7447 65.8541 68.9624 68.1774 63.5038Z" fill="#10413F"/>
<ellipse opacity="0.5" cx="96.778" cy="51.4113" rx="16.9491" ry="18.7554" transform="rotate(-31.8591 96.778 51.4113)" fill="#048481"/>
<ellipse cx="96.7207" cy="48.6684" rx="16.1617" ry="17.3796" transform="rotate(-31.8591 96.7207 48.6684)" fill="#FCE788"/>
<ellipse cx="97.2682" cy="48.5653" rx="1.66979" ry="1.66979" fill="#1A191E"/>
<mask id="mask1_3419_92421" style="mask-type:alpha" maskUnits="userSpaceOnUse" x="39" y="81" width="61" height="19">
<path d="M58.0189 83.7999C64.2548 85.3769 70.2035 85.8081 72.7138 85.861C75.9432 85.861 81.5245 84.9185 86.1544 82.7252C91.2617 80.3058 95.9212 80.5749 98.3404 86.5783C100.76 92.5818 99.5053 99.0326 95.5627 99.0326C91.6202 99.0326 81.047 90.9683 72.1762 90.9683C63.3054 90.9683 56.4057 96.7029 48.7894 99.0326C41.1731 101.362 37.0522 96.0756 40.3676 89.7138C43.6829 83.3519 50.224 81.8286 58.0189 83.7999Z" fill="black"/>
</mask>
<g mask="url(#mask1_3419_92421)">
<path d="M58.0189 83.7999C64.2548 85.3769 70.2035 85.8081 72.7138 85.861C75.9432 85.861 81.5245 84.9185 86.1544 82.7252C91.2617 80.3058 95.9212 80.5749 98.3404 86.5783C100.76 92.5818 99.5053 99.0326 95.5627 99.0326C91.6202 99.0326 81.047 90.9683 72.1762 90.9683C63.3054 90.9683 56.4057 96.7029 48.7894 99.0326C41.1731 101.362 37.0522 96.0756 40.3676 89.7138C43.6829 83.3519 50.224 81.8286 58.0189 83.7999Z" fill="#10413F"/>
<path d="M84.6034 87.7558C84.3981 86.3363 84.2722 84.6378 84.205 83.315C84.1628 82.4855 84.6779 81.7355 85.4594 81.454L88.5377 80.3453C89.2404 80.0922 90.0354 80.2637 90.4677 80.8727C91.5105 82.3418 92.4595 84.473 93.0761 86.0851C93.3834 86.8887 93.0635 87.7824 92.2502 88.063C90.6355 88.62 88.3065 88.9864 86.5011 89.1867C85.5759 89.2894 84.7366 88.6771 84.6034 87.7558Z" fill="#DBCEAE"/>
<path d="M72.9101 84.5786H70.4672C69.5271 84.5786 68.7239 85.2592 68.698 86.1988C68.6796 86.8659 68.6979 87.5457 68.7306 88.1383C68.7749 88.9397 69.361 89.5798 70.1628 89.6145C71.094 89.6547 72.2648 89.6299 73.3218 89.5837C74.4013 89.5364 75.197 88.5828 75.0201 87.5168C74.9371 87.016 74.8467 86.5245 74.7597 86.079C74.5877 85.198 73.8078 84.5786 72.9101 84.5786Z" fill="#DBCEAE"/>
<path d="M54.8801 88.101C54.7846 86.8044 54.8166 85.4428 54.8891 84.3315C54.9548 83.3241 55.8396 82.5983 56.8473 82.6606L60.6018 82.8926C61.4536 82.9453 62.1743 83.5512 62.3268 84.3909C62.5136 85.4201 62.6424 86.3958 62.7246 87.167C62.8068 87.9378 62.3832 88.6745 61.6442 88.9081C59.9854 89.4324 58.0365 89.6061 56.5669 89.6298C55.6811 89.644 54.9452 88.9846 54.8801 88.101Z" fill="#DBCEAE"/>
<path d="M42.453 91.33C42.1489 89.7175 41.9401 87.7681 41.8195 86.28C41.7507 85.4309 42.2703 84.6515 43.0721 84.3636L45.5103 83.4882C46.4131 83.1642 47.4157 83.5543 47.7786 84.4422C48.3946 85.9495 48.9912 87.7923 49.4206 89.2397C49.6887 90.1435 49.2366 91.1005 48.3539 91.4315C47.0169 91.933 45.646 92.3379 44.547 92.624C43.5908 92.8729 42.6361 92.3009 42.453 91.33Z" fill="#DBCEAE"/>
<path d="M50.0965 94.9584C50.3586 95.865 50.6868 96.8088 51.0013 97.6433C51.4128 98.7355 52.7147 99.1432 53.7094 98.5327L55.9375 97.1652C56.5211 96.807 56.875 96.166 56.8405 95.4822C56.8002 94.6823 56.7387 93.9923 56.6729 93.4291C56.5672 92.5238 55.7714 91.8985 54.8693 92.0294C53.5535 92.2203 52.2385 92.5669 51.2072 92.8938C50.3306 93.1717 49.841 94.075 50.0965 94.9584Z" fill="#DBCEAE"/>
<path d="M87.2492 92.867C87.1994 93.9435 87.2311 95.0392 87.2855 95.9081C87.3327 96.6637 87.8551 97.2948 88.5763 97.5252L90.4798 98.1332C91.3355 98.4066 92.2759 98.0553 92.6344 97.2317C93.1654 96.0115 93.541 94.7093 93.7794 93.6673C93.977 92.8033 93.4809 91.9456 92.6181 91.7429C91.3743 91.4507 90.0401 91.3281 88.9634 91.2919C88.0483 91.2611 87.2915 91.9524 87.2492 92.867Z" fill="#DBCEAE"/>
</g>
</g>
<defs>
<linearGradient id="paint0_linear_3419_92421" x1="59.9263" y1="0.000244141" x2="59.9263" y2="119" gradientUnits="userSpaceOnUse">
<stop stop-color="#05A4A0"/>
<stop offset="1" stop-color="#02B8B4"/>
</linearGradient>
<linearGradient id="paint1_linear_3419_92421" x1="18.7773" y1="6.95241" x2="-32.0181" y2="20.2525" gradientUnits="userSpaceOnUse">
<stop stop-color="white"/>
<stop offset="1" stop-color="white" stop-opacity="0"/>
</linearGradient>
</defs>
</svg>
