<svg width="120" height="119" viewBox="0 0 120 119" fill="none" xmlns="http://www.w3.org/2000/svg">
<mask id="mask0_3419_92447" style="mask-type:alpha" maskUnits="userSpaceOnUse" x="0" y="0" width="120" height="120">
<rect x="0.42627" y="0.000244141" width="119" height="119" fill="#F3B286"/>
</mask>
<g mask="url(#mask0_3419_92447)">
<rect x="0.42627" y="0.000244141" width="119" height="119" fill="url(#paint0_linear_3419_92447)"/>
<path d="M82.6012 24.6794H40.7123C28.2619 24.6794 17.5196 33.4146 14.9805 45.6032L12.0987 59.4369C9.71854 70.8622 18.4403 81.5882 30.1109 81.5882H91.8616C102.81 81.5882 111.336 72.0856 110.153 61.2014L108.732 48.124C107.282 34.7852 96.0185 24.6794 82.6012 24.6794Z" fill="black"/>
<mask id="mask1_3419_92447" style="mask-type:alpha" maskUnits="userSpaceOnUse" x="12" y="27" width="98" height="52">
<path d="M82.9236 27.8963H40.1652C27.9641 27.8963 17.3671 36.2926 14.5773 48.1705L12.7939 55.7632C10.0816 67.3106 18.8438 78.3693 30.7054 78.3693H91.5773C102.626 78.3693 111.184 68.6996 109.84 57.7326L109.013 50.9839C107.398 37.8023 96.2038 27.8963 82.9236 27.8963Z" fill="url(#paint1_linear_3419_92447)"/>
</mask>
<g mask="url(#mask1_3419_92447)">
<path d="M82.9236 27.8963H40.1652C27.9641 27.8963 17.3671 36.2926 14.5773 48.1705L12.7939 55.7632C10.0816 67.3106 18.8438 78.3693 30.7054 78.3693H91.5773C102.626 78.3693 111.184 68.6996 109.84 57.7326L109.013 50.9839C107.398 37.8023 96.2038 27.8963 82.9236 27.8963Z" fill="url(#paint2_linear_3419_92447)"/>
<path d="M82.9251 27.8963H40.1666C27.9655 27.8963 17.3686 36.2926 14.5787 48.1705L12.7953 55.7632C10.0831 67.3106 18.8452 78.3693 30.7069 78.3693H91.5788C102.628 78.3693 111.185 68.6996 109.841 57.7326L109.014 50.9839C107.399 37.8023 96.2052 27.8963 82.9251 27.8963Z" fill="url(#paint3_linear_3419_92447)"/>
<path fill-rule="evenodd" clip-rule="evenodd" d="M39.8748 25.9199V17.2716H41.034V25.9199L54.7258 25.9199V17.2716H55.8849V25.9199H69.5746V17.2716H70.7337V25.9199L84.4242 25.9199V17.2716H85.5833V25.9199H99.2753V17.2716H100.434V25.9199L119.429 25.9199V27.079L100.434 27.079V40.153H119.429V41.3121H100.434V54.3888H119.429V55.5479H100.434V68.6242H119.429V69.7833H100.434V82.8574H119.429V84.0165H100.434V94.6792H99.2753V84.0165H85.5833V94.6792H84.4242V84.0165H70.7337V94.6792H69.5746V84.0165H55.8849V94.6792H54.7258V84.0165H41.034V94.6792H39.8748V84.0165H26.1834V94.6792H25.0242V84.0165H6.02612L6.02612 82.8574H25.0242V69.7833H6.02612L6.02612 68.6242H25.0242V55.5479H6.02612L6.02612 54.3888H25.0242V41.3121H6.02612L6.02612 40.1529H25.0242V27.079L6.02612 27.079L6.02612 25.9199L25.0242 25.9199V17.2717H26.1834V25.9199H39.8748ZM39.8748 27.079H26.1834V40.1529L39.8748 40.1529V27.079ZM39.8748 41.3121L26.1834 41.3121V54.3888H39.8748V41.3121ZM41.034 54.3888V41.3121H54.7258V54.3888H41.034ZM39.8748 55.5479H26.1834V68.6242H39.8748V55.5479ZM41.034 68.6242V55.5479H54.7258V68.6242H41.034ZM39.8748 69.7833H26.1834V82.8574H39.8748V69.7833ZM41.034 82.8574V69.7833H54.7258V82.8574H41.034ZM55.8849 82.8574H69.5746V69.7833H55.8849V82.8574ZM55.8849 68.6242L69.5746 68.6242V55.5479L55.8849 55.5479V68.6242ZM55.8849 54.3888L69.5746 54.3888V41.3121H55.8849V54.3888ZM55.8849 40.1529H69.5746V27.079L55.8849 27.079V40.1529ZM54.7258 27.079H41.034V40.1529H54.7258V27.079ZM70.7337 27.079V40.1529H84.4242V27.079H70.7337ZM85.5833 27.079V40.1529L99.2753 40.153V27.079H85.5833ZM99.2753 41.3121L85.5833 41.3121V54.3888H99.2753V41.3121ZM99.2753 55.5479H85.5833V68.6242H99.2753V55.5479ZM99.2753 69.7833H85.5833V82.8574H99.2753V69.7833ZM84.4242 82.8574V69.7833H70.7337V82.8574H84.4242ZM70.7337 68.6242H84.4242V55.5479H70.7337V68.6242ZM70.7337 54.3888H84.4242V41.3121H70.7337V54.3888ZM6.02612 97.0931H119.429V98.2523L6.02612 98.2522L6.02612 97.0931Z" fill="url(#paint4_linear_3419_92447)"/>
</g>
<path d="M77.4642 55.9972C65.0574 57.4166 55.947 57.4156 43.5381 55.9955C38.5689 55.4269 34.1316 59.2398 34.1316 64.2414C34.1316 68.3301 37.1448 71.8118 41.2041 72.3021C55.6615 74.0485 65.3625 74.0789 79.8228 72.3146C83.8777 71.8198 86.8822 68.3378 86.8822 64.2529C86.8822 59.2453 82.4394 55.4281 77.4642 55.9972Z" fill="#56E9FB"/>
<rect x="40.5815" y="34.7443" width="10.7006" height="13.4237" rx="5.35029" fill="#56E9FB"/>
<rect x="69.7319" y="34.7443" width="10.7006" height="13.4237" rx="5.35029" fill="#56E9FB"/>
<ellipse cx="59.9262" cy="-20.864" rx="34.4875" ry="35.7632" fill="url(#paint5_linear_3419_92447)" stroke="#D9D9DA" stroke-width="1.50687"/>
<path d="M74.7945 94.8475H47.3884C43.2836 94.8475 39.8254 97.9131 39.333 101.988L35.5305 133.463C34.9467 138.295 38.7187 142.55 43.5858 142.55H76.7782C81.4602 142.55 85.1706 138.598 84.8761 133.926L82.8924 102.451C82.623 98.1765 79.0776 94.8475 74.7945 94.8475Z" fill="url(#paint6_linear_3419_92447)" stroke="#D9D9DA" stroke-width="1.50687"/>
</g>
<defs>
<linearGradient id="paint0_linear_3419_92447" x1="59.9263" y1="0.000244141" x2="59.9263" y2="119" gradientUnits="userSpaceOnUse">
<stop stop-color="#E8EEF3"/>
<stop offset="1" stop-color="white"/>
</linearGradient>
<linearGradient id="paint1_linear_3419_92447" x1="59.9262" y1="27.8964" x2="59.9262" y2="78.3693" gradientUnits="userSpaceOnUse">
<stop stop-color="#215056"/>
<stop offset="1" stop-color="#293E41" stop-opacity="0"/>
</linearGradient>
<linearGradient id="paint2_linear_3419_92447" x1="59.9262" y1="27.8964" x2="59.9262" y2="78.3693" gradientUnits="userSpaceOnUse">
<stop stop-color="#215056"/>
<stop offset="1" stop-color="#293E41" stop-opacity="0"/>
</linearGradient>
<linearGradient id="paint3_linear_3419_92447" x1="59.9277" y1="27.8964" x2="59.9277" y2="78.3693" gradientUnits="userSpaceOnUse">
<stop stop-color="#215056"/>
<stop offset="1" stop-color="#293E41" stop-opacity="0"/>
</linearGradient>
<linearGradient id="paint4_linear_3419_92447" x1="64.1745" y1="-31.4181" x2="62.8422" y2="98.2536" gradientUnits="userSpaceOnUse">
<stop stop-color="#56E9FB"/>
<stop offset="1" stop-color="#56E9FB" stop-opacity="0"/>
</linearGradient>
<linearGradient id="paint5_linear_3419_92447" x1="59.9262" y1="-56.6272" x2="59.9262" y2="14.8993" gradientUnits="userSpaceOnUse">
<stop stop-color="white" stop-opacity="0"/>
<stop offset="0.703125" stop-color="white"/>
</linearGradient>
<linearGradient id="paint6_linear_3419_92447" x1="59.9261" y1="94.8475" x2="59.9261" y2="142.55" gradientUnits="userSpaceOnUse">
<stop stop-color="white"/>
<stop offset="1" stop-color="white" stop-opacity="0"/>
</linearGradient>
</defs>
</svg>
