<svg width="120" height="119" viewBox="0 0 120 119" fill="none" xmlns="http://www.w3.org/2000/svg">
<mask id="mask0_3419_92477" style="mask-type:alpha" maskUnits="userSpaceOnUse" x="0" y="0" width="120" height="120">
<rect x="0.5" y="0.000244141" width="119" height="119" fill="#F3B286"/>
</mask>
<g mask="url(#mask0_3419_92477)">
<rect x="0.5" y="0.000244141" width="119" height="119" fill="url(#paint0_linear_3419_92477)"/>
<ellipse cx="16.5789" cy="13.6388" rx="10.9011" ry="5.07949" transform="rotate(-30.4568 16.5789 13.6388)" stroke="#BCC4E8" stroke-width="1.15913"/>
<ellipse cx="16.5761" cy="13.6402" rx="8.31273" ry="3.46953" transform="rotate(-30.4568 16.5761 13.6402)" fill="#BCC4E8"/>
<path fill-rule="evenodd" clip-rule="evenodd" d="M23.9118 10.7103C23.5788 12.4459 21.4256 14.8107 18.3355 16.6278C15.2371 18.4497 12.1154 19.1808 10.4399 18.6197C10.773 16.884 12.9262 14.5192 16.0163 12.7022C19.1147 10.8802 22.2364 10.1491 23.9118 10.7103Z" fill="#9FAADC"/>
<ellipse cx="10.9011" cy="5.07949" rx="10.9011" ry="5.07949" transform="matrix(-0.862012 -0.506888 -0.506888 0.862012 114.029 14.7858)" stroke="#BCC4E8" stroke-width="1.15913"/>
<ellipse cx="8.31273" cy="3.46953" rx="8.31273" ry="3.46953" transform="matrix(-0.862012 -0.506888 -0.506888 0.862012 110.984 14.863)" fill="#BCC4E8"/>
<path fill-rule="evenodd" clip-rule="evenodd" d="M94.7243 10.7105C95.0574 12.4462 97.2106 14.8109 100.301 16.6279C103.399 18.45 106.521 19.1811 108.197 18.6197C107.864 16.884 105.71 14.5193 102.62 12.7023C99.5217 10.8802 96.3996 10.1491 94.7243 10.7105Z" fill="#9FAADC"/>
<path d="M39.6607 10.116L41.4005 -8.13261C41.6273 -10.512 43.6258 -12.3291 46.0161 -12.3291H73.9824C76.3726 -12.3291 78.3712 -10.512 78.598 -8.13261L80.3377 10.116C80.5973 12.8382 78.4567 15.1925 75.7222 15.1925H44.2763C41.5418 15.1925 39.4012 12.8382 39.6607 10.116Z" fill="#BCC4E8"/>
<ellipse cx="29.086" cy="105.941" rx="7.67923" ry="7.67924" fill="#BCC4E8"/>
<mask id="mask1_3419_92477" style="mask-type:alpha" maskUnits="userSpaceOnUse" x="-15" y="83" width="49" height="30">
<path fill-rule="evenodd" clip-rule="evenodd" d="M-10.3803 84.1639C-7.02907 82.9773 -3.35038 84.732 -2.16374 88.0833C-1.47963 90.0153 5.02917 99.5615 26.5859 99.5615C30.1411 99.5615 33.0231 102.444 33.0231 105.999C33.0231 109.554 30.1411 112.436 26.5859 112.436C1.36692 112.436 -11.262 100.96 -14.2997 92.3805C-15.4864 89.0292 -13.7316 85.3505 -10.3803 84.1639Z" fill="#FF8601"/>
</mask>
<g mask="url(#mask1_3419_92477)">
<path fill-rule="evenodd" clip-rule="evenodd" d="M-10.3803 84.1639C-7.02907 82.9773 -3.35038 84.732 -2.16374 88.0833C-1.47963 90.0153 5.02917 99.5615 26.5859 99.5615C30.1411 99.5615 33.0231 102.444 33.0231 105.999C33.0231 109.554 30.1411 112.436 26.5859 112.436C1.36692 112.436 -11.262 100.96 -14.2997 92.3805C-15.4864 89.0292 -13.7316 85.3505 -10.3803 84.1639Z" fill="#FF8601"/>
<path d="M37.4902 104.782C11.7575 112.664 -10.3239 99.5657 -18.1481 92.0314C-16.9889 110.577 15.9497 115.021 32.2741 114.924L37.4902 104.782Z" fill="url(#paint1_linear_3419_92477)"/>
<path d="M18.2979 98.5266C22.1167 99.0462 24.7912 102.563 24.2715 106.382C23.7518 110.201 20.2348 112.875 16.416 112.356" stroke="#C96A01" stroke-width="1.15913"/>
<path d="M11.3853 96.6651C13.6625 97.5611 14.3648 101.195 12.9537 104.781C11.5427 108.368 8.55272 110.549 6.27546 109.653" stroke="#C96A01" stroke-width="1.15913"/>
<path d="M2.91945 93.4788C4.27186 94.3833 3.63131 97.7136 1.48873 100.917C-0.653845 104.121 -3.4871 105.984 -4.83951 105.08" stroke="#C96A01" stroke-width="1.15913"/>
</g>
<ellipse cx="7.67923" cy="7.67924" rx="7.67923" ry="7.67924" transform="matrix(-1 0 0 1 101.533 98.2615)" fill="#BCC4E8"/>
<mask id="mask2_3419_92477" style="mask-type:alpha" maskUnits="userSpaceOnUse" x="89" y="83" width="49" height="30">
<path fill-rule="evenodd" clip-rule="evenodd" d="M133.32 84.1639C129.969 82.9773 126.29 84.732 125.103 88.0833C124.419 90.0153 117.91 99.5615 96.3536 99.5615C92.7985 99.5615 89.9165 102.444 89.9165 105.999C89.9165 109.554 92.7985 112.436 96.3536 112.436C121.573 112.436 134.202 100.96 137.239 92.3805C138.426 89.0292 136.671 85.3505 133.32 84.1639Z" fill="#FF8601"/>
</mask>
<g mask="url(#mask2_3419_92477)">
<path fill-rule="evenodd" clip-rule="evenodd" d="M133.32 84.1639C129.969 82.9773 126.29 84.732 125.103 88.0833C124.419 90.0153 117.91 99.5615 96.3536 99.5615C92.7985 99.5615 89.9165 102.444 89.9165 105.999C89.9165 109.554 92.7985 112.436 96.3536 112.436C121.573 112.436 134.202 100.96 137.239 92.3805C138.426 89.0292 136.671 85.3505 133.32 84.1639Z" fill="#FF8601"/>
<path d="M85.4495 104.782C111.182 112.664 133.264 99.5657 141.088 92.0314C139.929 110.577 106.99 115.021 90.6656 114.924L85.4495 104.782Z" fill="url(#paint2_linear_3419_92477)"/>
<path d="M104.642 98.5266C100.823 99.0462 98.149 102.563 98.6687 106.382C99.1883 110.201 102.705 112.875 106.524 112.356" stroke="#C96A01" stroke-width="1.15913"/>
<path d="M111.555 96.6651C109.278 97.5611 108.575 101.195 109.986 104.781C111.398 108.368 114.387 110.549 116.665 109.653" stroke="#C96A01" stroke-width="1.15913"/>
<path d="M120.02 93.4788C118.668 94.3833 119.309 97.7136 121.451 100.917C123.594 104.121 126.427 105.984 127.779 105.08" stroke="#C96A01" stroke-width="1.15913"/>
</g>
<path d="M112.877 60.403C112.877 84.9454 89.3664 100.462 60.3646 100.462C31.3628 100.462 7.85217 84.3192 7.85217 60.403C7.85217 30.1524 31.3628 20.3436 60.3646 20.3436C89.3664 20.3436 112.877 30.7786 112.877 60.403Z" stroke="#BCC4E8" stroke-width="1.15913"/>
<mask id="mask3_3419_92477" style="mask-type:alpha" maskUnits="userSpaceOnUse" x="11" y="24" width="98" height="71">
<path fill-rule="evenodd" clip-rule="evenodd" d="M74.819 94.4249C94.5044 90.3944 108.792 78.0296 108.792 60.4028C108.792 34.1922 87.1101 24.9597 60.3645 24.9597C33.6189 24.9597 11.9374 33.6382 11.9374 60.4028C11.9374 77.644 26.3315 90.3195 46.1309 94.4233L48.9943 88.9255C49.9924 87.0091 51.9738 85.807 54.1346 85.807H66.9624C69.1683 85.807 71.1829 87.0592 72.1593 89.0372L74.819 94.4249Z" fill="#284452"/>
</mask>
<g mask="url(#mask3_3419_92477)">
<path fill-rule="evenodd" clip-rule="evenodd" d="M74.819 94.4249C94.5044 90.3944 108.792 78.0296 108.792 60.4028C108.792 34.1922 87.1101 24.9597 60.3645 24.9597C33.6189 24.9597 11.9374 33.6382 11.9374 60.4028C11.9374 77.644 26.3315 90.3195 46.1309 94.4233L48.9943 88.9255C49.9924 87.0091 51.9738 85.807 54.1346 85.807H66.9624C69.1683 85.807 71.1829 87.0592 72.1593 89.0372L74.819 94.4249Z" fill="url(#paint3_linear_3419_92477)"/>
<path d="M18.168 69.7122C20.6282 53.6885 30.9209 48.5834 38.0152 45.1325C41.0241 43.6689 42.4091 40.0426 40.7723 37.1244C39.4891 34.8367 36.731 33.7476 34.3556 34.8599C16.7279 43.114 14.917 60.7007 18.168 69.7122Z" fill="url(#paint4_linear_3419_92477)"/>
<path d="M39.5034 40.0941L41.0578 45.2621L46.2258 46.8164L41.0578 48.3708L39.5034 53.5387L37.9491 48.3708L32.7811 46.8164L37.9491 45.2621L39.5034 40.0941Z" fill="#FDFCFF"/>
<path d="M33.4062 54.3522L34.4131 57.6999L37.7608 58.7068L34.4131 59.7137L33.4062 63.0614L32.3993 59.7137L29.0516 58.7068L32.3993 57.6999L33.4062 54.3522Z" fill="#FDFCFF"/>
<path fill-rule="evenodd" clip-rule="evenodd" d="M93.3345 28.216C93.2861 28.102 93.186 27.8665 93.1417 27.6442L95.9836 27.0776C95.9712 27.0156 95.9574 26.9743 95.9577 26.9742C95.9579 26.9742 95.97 27.0084 96.0057 27.0925C96.0583 27.2166 96.1351 27.3874 96.2399 27.6182C96.2693 27.6829 96.3005 27.7514 96.3334 27.8236C96.5306 28.2567 96.7885 28.8231 97.085 29.5043C97.7785 31.0975 98.6872 33.3275 99.5903 36.0925C101.395 41.6193 103.181 49.294 103.181 58.3151C103.181 72.658 99.5205 84.665 97.6388 88.9746L94.9831 87.815C96.7157 83.8469 100.284 72.2332 100.284 58.3151C100.284 49.6732 98.5719 42.308 96.8357 36.9921C95.9681 34.3358 95.0952 32.1937 94.428 30.6608C94.1419 30.0036 93.8945 29.4601 93.6973 29.0271C93.664 28.9539 93.6321 28.8838 93.6017 28.817C93.4986 28.59 93.4071 28.3872 93.3382 28.2247C93.337 28.2219 93.3358 28.219 93.3345 28.216Z" fill="url(#paint5_linear_3419_92477)"/>
<path d="M78.3496 61.3162C77.4223 40.4518 66.7583 24.4172 61.5422 19.0079H82.9861C104.778 48.218 94.7706 85.6579 87.0431 100.727H67.9174C71.7812 96.2833 79.2769 82.1805 78.3496 61.3162Z" fill="url(#paint6_linear_3419_92477)"/>
</g>
<path d="M55.5717 88.7323H64.09" stroke="#BCC4E8" stroke-width="1.15913" stroke-linecap="round"/>
<path d="M53.6349 91.671H66.0278" stroke="#BCC4E8" stroke-width="1.15913" stroke-linecap="round"/>
<path d="M51.8729 94.6118H67.789" stroke="#BCC4E8" stroke-width="1.15913" stroke-linecap="round"/>
</g>
<defs>
<linearGradient id="paint0_linear_3419_92477" x1="60" y1="0.000244141" x2="60" y2="119" gradientUnits="userSpaceOnUse">
<stop stop-color="#F4EFFF"/>
<stop offset="1" stop-color="white"/>
</linearGradient>
<linearGradient id="paint1_linear_3419_92477" x1="26.7682" y1="118.402" x2="11.9893" y2="86.8153" gradientUnits="userSpaceOnUse">
<stop stop-color="#E17601"/>
<stop offset="1" stop-color="#E17601" stop-opacity="0"/>
</linearGradient>
<linearGradient id="paint2_linear_3419_92477" x1="96.1715" y1="118.402" x2="110.95" y2="86.8153" gradientUnits="userSpaceOnUse">
<stop stop-color="#E17601"/>
<stop offset="1" stop-color="#E17601" stop-opacity="0"/>
</linearGradient>
<linearGradient id="paint3_linear_3419_92477" x1="60.3645" y1="24.9597" x2="60.3645" y2="94.4249" gradientUnits="userSpaceOnUse">
<stop stop-color="#050809"/>
<stop offset="1" stop-color="#274452"/>
</linearGradient>
<linearGradient id="paint4_linear_3419_92477" x1="29.1573" y1="34.4207" x2="29.1573" y2="63.4548" gradientUnits="userSpaceOnUse">
<stop stop-color="#40606F"/>
<stop offset="1" stop-color="#40606F" stop-opacity="0"/>
</linearGradient>
<linearGradient id="paint5_linear_3419_92477" x1="98.1616" y1="26.9742" x2="98.1616" y2="77.9816" gradientUnits="userSpaceOnUse">
<stop stop-color="#40606F"/>
<stop offset="1" stop-color="#40606F" stop-opacity="0"/>
</linearGradient>
<linearGradient id="paint6_linear_3419_92477" x1="78.8675" y1="19.0079" x2="78.8675" y2="86.2375" gradientUnits="userSpaceOnUse">
<stop stop-color="#40606F"/>
<stop offset="1" stop-color="#40606F" stop-opacity="0"/>
</linearGradient>
</defs>
</svg>
