<svg width="120" height="119" viewBox="0 0 120 119" fill="none" xmlns="http://www.w3.org/2000/svg">
<mask id="mask0_3715_96711" style="mask-type:alpha" maskUnits="userSpaceOnUse" x="0" y="0" width="120" height="120">
<rect x="0.5" y="0.000244141" width="119" height="119" fill="#F3B286"/>
</mask>
<g mask="url(#mask0_3715_96711)">
<rect x="0.5" y="0.000244141" width="119" height="119" fill="url(#paint0_linear_3715_96711)"/>
<path d="M34.0953 52.1189C2.23743 42.6393 -5.79806 77.7853 -5.27476 94.1593V124.669H122.386L124.341 66.3846C122.428 51.082 110.236 51.6696 94.3594 55.3582C73.0012 60.3204 65.6994 61.523 34.0953 52.1189Z" fill="url(#paint1_linear_3715_96711)"/>
<path d="M82.2653 57.2067C85.3348 60.3631 81.128 72.4268 70.025 72.4268C59.7727 72.4268 54.0619 61.8765 56.7445 57.8553C60.3946 52.384 64.4139 57.8552 70.025 57.8552C76.3829 57.8552 78.1822 53.0081 82.2653 57.2067Z" fill="#B16B6B"/>
<path d="M62.1763 60.0585C63.0768 61.7646 66.1102 65.177 71.0402 65.177C75.9701 65.177 78.1013 61.7646 78.5506 60.0585" stroke="#400217" stroke-width="1.57872" stroke-linecap="round"/>
<path d="M10.809 86.8375C9.49119 85.0111 12.4205 79.5642 14.1919 76.8393C14.2817 76.7011 14.4634 76.6581 14.6068 76.7394C14.7546 76.8232 14.809 77.009 14.7311 77.16C13.3712 79.7943 11.6667 84.0408 12.5701 84.9864C13.485 85.944 18.0467 85.0734 20.6669 84.0456C20.7696 84.0054 20.8857 84.0333 20.9584 84.1162C21.0669 84.2399 21.0337 84.4322 20.8892 84.5109C17.9042 86.1356 12.125 88.6613 10.809 86.8375Z" fill="#894343"/>
<path d="M25.8827 118.962C23.9182 116.938 24.8238 111.821 26.4195 108.25C26.5037 108.062 26.7216 107.975 26.9142 108.05C27.1127 108.127 27.2134 108.347 27.1472 108.55C26.0288 111.966 25.9795 116.11 27.2707 117.118C28.5786 118.139 32.7491 117.694 35.754 116.008C35.8745 115.94 36.0246 115.953 36.1298 116.043C36.2868 116.176 36.2806 116.421 36.1144 116.543C32.8164 118.963 27.8444 120.983 25.8827 118.962Z" fill="#894343"/>
<path d="M116.234 118.744C118.093 117.238 117.848 112.837 116.865 109.668C116.813 109.501 116.638 109.406 116.468 109.449C116.293 109.494 116.186 109.67 116.222 109.847C116.818 112.837 116.441 116.333 115.252 117.051C114.047 117.778 110.58 116.982 108.219 115.258C108.125 115.189 107.997 115.185 107.899 115.25C107.754 115.346 107.734 115.553 107.862 115.673C110.395 118.044 114.378 120.248 116.234 118.744Z" fill="#894343"/>
<path d="M67.4747 107.131C65.6107 107.029 63.6713 102.303 62.8626 99.7419C62.8215 99.6118 62.889 99.473 63.016 99.4232C63.1483 99.3713 63.2975 99.4342 63.3532 99.5649C64.3288 101.851 66.2552 105.702 67.3368 105.613C68.4328 105.522 70.1719 101.57 70.8916 99.3224C70.9192 99.2362 70.9972 99.1772 71.0876 99.1736C71.2245 99.1682 71.3312 99.291 71.3052 99.4255C70.7693 102.196 69.3358 107.234 67.4747 107.131Z" fill="#894343"/>
<path d="M111.219 86.0823C109.503 87.4387 104.093 84.8272 101.373 83.2238C101.235 83.1425 101.186 82.9679 101.259 82.8254C101.334 82.6783 101.511 82.6177 101.662 82.6861C104.291 83.8822 108.705 85.1812 109.584 84.2643C110.475 83.3358 109.21 79.1257 108.092 76.6343C108.048 76.5366 108.07 76.4226 108.148 76.3485C108.263 76.238 108.451 76.262 108.534 76.3989C110.237 79.2267 112.933 84.7279 111.219 86.0823Z" fill="#894343"/>
<circle cx="33.7671" cy="76.5819" r="4.15506" fill="#E3B3B3"/>
<circle cx="11.7785" cy="111.801" r="2.0231" fill="#E3B3B3"/>
<circle cx="57.9225" cy="92.7866" r="2.07752" fill="#E3B3B3"/>
<circle cx="90.3783" cy="72.427" r="2.07752" fill="#E3B3B3"/>
<circle cx="81.1625" cy="111.68" r="2.07752" fill="#E3B3B3"/>
<circle cx="110.212" cy="94.0643" r="3.31013" fill="#E3B3B3"/>
<circle cx="112.637" cy="65.1771" r="1.25154" fill="#E3B3B3"/>
<circle cx="31.945" cy="6.93216" r="4.15506" fill="#D38152"/>
<circle cx="9.95633" cy="42.1512" r="2.0231" fill="#D38152"/>
<circle cx="56.1003" cy="23.1367" r="2.07752" fill="#D38152"/>
<circle cx="88.5562" cy="2.77723" r="2.07752" fill="#D38152"/>
<circle cx="79.3403" cy="42.0304" r="2.07752" fill="#D38152"/>
<circle cx="108.39" cy="24.4145" r="3.31013" fill="#D38152"/>
<ellipse cx="38.3977" cy="45.7496" rx="17.8365" ry="19.0369" transform="rotate(-6.91569 38.3977 45.7496)" fill="#400217"/>
<ellipse cx="39.6058" cy="45.6031" rx="16.6195" ry="17.6265" fill="white"/>
<ellipse cx="43.2301" cy="48.2624" rx="10.5961" ry="11.2381" fill="#400217"/>
<ellipse cx="36.6031" cy="40.068" rx="4.66428" ry="4.94689" fill="white"/>
<ellipse cx="14.4132" cy="16.2069" rx="14.4132" ry="16.2069" transform="matrix(-0.991909 -0.12695 -0.114195 0.993458 112.431 31.4784)" fill="#400217"/>
<ellipse cx="13.4187" cy="15.0172" rx="13.4187" ry="15.0172" transform="matrix(-1 0 0 1 108.727 30.6077)" fill="white"/>
<ellipse cx="100.185" cy="47.8904" rx="8.55536" ry="9.57452" fill="#400217"/>
<ellipse cx="94.8348" cy="40.9091" rx="3.76598" ry="4.21461" fill="white"/>
</g>
<defs>
<linearGradient id="paint0_linear_3715_96711" x1="60" y1="0.000244141" x2="60" y2="119" gradientUnits="userSpaceOnUse">
<stop stop-color="#ECBB7C"/>
<stop offset="1" stop-color="#D2984D"/>
</linearGradient>
<linearGradient id="paint1_linear_3715_96711" x1="59.5213" y1="50.5225" x2="59.5213" y2="124.669" gradientUnits="userSpaceOnUse">
<stop stop-color="white"/>
<stop offset="1" stop-color="#FEF3E5"/>
</linearGradient>
</defs>
</svg>
