<svg width="120" height="119" viewBox="0 0 120 119" fill="none" xmlns="http://www.w3.org/2000/svg">
<mask id="mask0_3715_96790" style="mask-type:alpha" maskUnits="userSpaceOnUse" x="0" y="0" width="120" height="119">
<rect x="0.5" width="119" height="119" fill="#F3B286"/>
</mask>
<g mask="url(#mask0_3715_96790)">
<rect x="0.5" width="119" height="119" fill="url(#paint0_linear_3715_96790)"/>
<path d="M18.0101 94.756C22.987 81.4055 3.16801 46.256 -7.3636 30.35L-13.0684 99.4734C-4.78261 103.464 13.0333 108.107 18.0101 94.756Z" fill="url(#paint1_linear_3715_96790)"/>
<path d="M44.3713 85.761C48.6795 84.5492 51.5567 89.4258 53.1216 94.069C53.988 96.6395 56.3274 98.5674 59.0374 98.4477C61.9244 98.3201 64.1994 95.9424 64.1994 93.0526V91.5411L65.5168 94.904C66.5399 97.5156 69.3132 98.9926 72.0513 98.3841C74.796 97.7742 76.6842 95.2514 76.4956 92.446L76.1719 87.6316L78.806 92.851C79.8495 94.9187 82.1397 96.0415 84.4134 95.6C87.0015 95.0975 88.7983 92.7299 88.5859 90.1021L88.3073 86.6542L89.8975 89.8346C91.0117 92.0629 93.535 93.2054 95.9445 92.5726C98.259 91.9648 99.8156 89.8622 100.137 87.491C100.44 85.262 101.043 83.2357 102.153 83.315C104.434 83.4779 107.276 101.624 104.588 101.624C103.221 101.624 102.081 99.8078 101.18 97.8641C100.338 96.0451 98.482 94.907 96.4958 95.1779C94.3243 95.474 92.7054 97.3286 92.7054 99.5202V102.862L91.4546 100.393C90.3579 98.2289 87.9799 97.0304 85.5877 97.4366C82.9253 97.8888 80.9772 100.196 80.9772 102.896V104.898L79.8994 103.179C78.4827 100.919 75.8387 99.7419 73.2114 100.202C70.0728 100.751 67.783 103.476 67.783 106.663V106.934L66.7557 105.42C65.4624 103.515 63.3089 102.373 61.0057 102.373C57.4992 102.373 54.9321 105.067 53.9933 108.446C53.428 110.48 52.3883 111.694 50.1092 110.762C45.51 108.882 37.0674 87.8153 44.3713 85.761Z" fill="url(#paint2_linear_3715_96790)"/>
<path d="M81.1974 61.603C79.8681 60.7522 78.6451 60.6725 78.5122 60.6726L74.0015 74.0176V80.894C77.5247 81.2031 78.9906 77.432 79.2832 75.5078L84.5473 79.0172C88.6682 77.9537 87.1262 72.8491 83.8827 68.8877C81.2878 65.7186 81.0113 62.7108 81.1974 61.603Z" fill="#BCC4E8"/>
<path d="M74.3478 64.0938C75.7256 60.5757 77.8843 60.4131 78.7914 60.7715C76.6428 63.7855 88.952 73.7415 85.4218 78.2268C83.2358 81.0043 79.7808 77.5206 78.6929 75.1772C78.0795 77.2797 76.1632 81.3572 73.4057 80.8475C69.9588 80.2104 72.6256 68.4913 74.3478 64.0938Z" fill="url(#paint3_linear_3715_96790)"/>
<path d="M57.5472 47.2799C59.7679 59.1833 50.9575 70.6182 39.7518 72.7087C28.546 74.7993 19.1883 66.7539 16.9676 54.8504C14.7469 42.9469 20.5566 32.1501 31.7624 30.0595C44.5648 26.7325 55.3265 35.3764 57.5472 47.2799Z" fill="#BCC4E8"/>
<path d="M104.24 43.163C105.901 52.0697 102.066 60.0127 93.9094 60.356C89.0324 61.2658 83.7318 54.7831 82.0702 45.8763C80.4085 36.9696 83.0151 29.0117 87.8921 28.1018C99.2339 25.9859 102.578 34.2563 104.24 43.163Z" fill="#BCC4E8"/>
<ellipse cx="34.3865" cy="51.6027" rx="17.7191" ry="21.631" transform="rotate(-10.5676 34.3865 51.6027)" fill="url(#paint4_linear_3715_96790)"/>
<ellipse cx="3.68326" cy="5.68589" rx="3.68326" ry="5.68589" transform="matrix(0.983039 -0.183395 -0.183395 -0.983039 29.1201 58.0583)" fill="#EB333E"/>
<ellipse cx="90.9008" cy="44.2289" rx="8.98297" ry="16.4053" transform="rotate(-10.5676 90.9008 44.2289)" fill="url(#paint5_linear_3715_96790)"/>
<ellipse cx="2.58566" cy="3.99151" rx="2.58566" ry="3.99151" transform="matrix(0.983039 -0.183395 -0.183395 -0.983039 85.6038 49.8801)" fill="#EB333E"/>
</g>
<defs>
<linearGradient id="paint0_linear_3715_96790" x1="60" y1="0" x2="60" y2="119" gradientUnits="userSpaceOnUse">
<stop stop-color="#F4EFFF"/>
<stop offset="1" stop-color="white"/>
</linearGradient>
<linearGradient id="paint1_linear_3715_96790" x1="-2.7026" y1="29.9453" x2="3.7025" y2="103.707" gradientUnits="userSpaceOnUse">
<stop stop-color="#BCC4E8"/>
<stop offset="1" stop-color="#BCC4E8" stop-opacity="0"/>
</linearGradient>
<linearGradient id="paint2_linear_3715_96790" x1="73.5946" y1="83.3127" x2="73.5946" y2="111.081" gradientUnits="userSpaceOnUse">
<stop stop-color="#0C0D0A"/>
<stop offset="1" stop-color="#333530"/>
</linearGradient>
<linearGradient id="paint3_linear_3715_96790" x1="80.835" y1="60.981" x2="78.192" y2="81.4689" gradientUnits="userSpaceOnUse">
<stop stop-color="#0C0D0A"/>
<stop offset="1" stop-color="#555950"/>
</linearGradient>
<linearGradient id="paint4_linear_3715_96790" x1="34.3865" y1="29.9717" x2="34.3865" y2="73.2337" gradientUnits="userSpaceOnUse">
<stop stop-color="#0C0D0A"/>
<stop offset="1" stop-color="#333530"/>
</linearGradient>
<linearGradient id="paint5_linear_3715_96790" x1="90.9008" y1="27.8236" x2="90.9008" y2="60.6342" gradientUnits="userSpaceOnUse">
<stop stop-color="#0C0D0A"/>
<stop offset="1" stop-color="#333530"/>
</linearGradient>
</defs>
</svg>
