<svg width="120" height="119" viewBox="0 0 120 119" fill="none" xmlns="http://www.w3.org/2000/svg">
<mask id="mask0_3419_92127" style="mask-type:alpha" maskUnits="userSpaceOnUse" x="0" y="0" width="120" height="119">
<rect x="0.5" width="119" height="119" fill="#F3B286"/>
</mask>
<g mask="url(#mask0_3419_92127)">
<rect x="0.5" width="119" height="119" fill="url(#paint0_linear_3419_92127)"/>
<ellipse cx="5.19622" cy="37.2779" rx="13.5105" ry="6.00004" transform="rotate(-5.09108 5.19622 37.2779)" fill="#67585D"/>
<ellipse cx="13.5105" cy="6.00004" rx="13.5105" ry="6.00004" transform="matrix(-0.996055 -0.0887391 -0.0887391 0.996055 139.003 33.1758)" fill="#67585D"/>
<ellipse cx="5.19482" cy="23.6268" rx="6.32161" ry="3.61195" transform="rotate(-5.09108 5.19482 23.6268)" fill="#67585D"/>
<ellipse cx="6.32161" cy="3.61195" rx="6.32161" ry="3.61195" transform="matrix(-0.996055 -0.0887391 -0.0887391 0.996055 119.5 20.5901)" fill="#67585D"/>
<path fill-rule="evenodd" clip-rule="evenodd" d="M67.9519 -1.98498C68.8709 -1.96236 69.4999 -0.9254 69.104 -0.132152C66.2897 5.50615 62.7933 16.5908 65.2049 28.1991C65.3993 29.1346 66.5858 29.4939 67.2358 28.8652C68.5845 27.5608 70.4546 25.9852 72.4449 24.8434C73.2698 24.3702 74.2352 25.2275 74.0318 26.1721C72.337 34.0391 71.4273 49.6883 78.4439 64.6421C84.7884 78.1636 95.6413 83.0382 102.986 86.3372C106.945 88.1154 109.885 89.4359 110.55 91.406C111.698 94.8076 109.404 98.6027 107.161 101.13C106.488 101.888 107.043 103.135 108.081 103.012C109.711 102.82 111.76 102.404 113.949 101.601C114.802 101.288 115.763 102.025 115.547 102.913C114.873 105.681 113.334 109.513 110.429 112.375C109.718 113.076 110.121 114.389 111.164 114.436C114.775 114.598 120.282 114.088 125.855 111.499C126.629 111.139 127.612 111.725 127.663 112.605L128.717 130.71C128.754 131.349 128.265 131.854 127.625 131.839L66.1689 130.326C66.1684 130.326 66.168 130.327 66.168 130.327C66.168 130.328 66.1676 130.328 66.1671 130.328L-1.36453 128.666C-2.0045 128.65 -2.55345 128.12 -2.59063 127.48L-3.64413 109.376C-3.69537 108.495 -2.77737 107.952 -1.95313 108.336C4.48703 111.334 12.181 112.119 16.5917 112.1C17.632 112.096 17.8838 110.818 17.0885 110.08C13.842 107.067 11.8522 103.147 10.8537 100.338C10.5333 99.437 11.4109 98.7451 12.3035 99.1012C14.5922 100.014 16.6955 100.533 18.3524 100.806C19.4077 100.98 19.8185 99.7568 19.0559 98.9639C16.5118 96.3186 13.769 92.3996 14.5239 89.0448C14.9611 87.1018 17.7554 85.9225 21.5186 84.3343C28.5 81.3879 38.8158 77.0342 43.6027 63.7866C48.8966 49.1358 46.1604 33.3969 43.544 25.4237C43.2298 24.4665 44.0981 23.6542 44.9806 24.1695C47.1096 25.4126 49.1687 27.085 50.6733 28.4595C51.3985 29.1221 52.5465 28.8203 52.6324 27.8917C53.698 16.369 48.8998 5.08017 45.4202 -0.713027C44.9307 -1.52807 45.4407 -2.537 46.3597 -2.51438L55.8553 -2.28069C55.8559 -2.28068 55.8563 -2.28111 55.8563 -2.28166C55.8563 -2.28221 55.8567 -2.28264 55.8572 -2.28263L67.9519 -1.98498Z" fill="url(#paint1_linear_3419_92127)"/>
<ellipse cx="60.5831" cy="78.2435" rx="22.7762" ry="16.6402" fill="url(#paint2_linear_3419_92127)"/>
<path d="M62.2027 65.9732L62.9246 80.7052M62.9246 80.7052C60.7877 86.8074 43.2469 89.0057 39.0587 77.493M62.9246 80.7052C63.6536 82.9645 67.0103 86.3731 73.0737 85.4053C78.452 84.5468 81.1511 80.4493 80.9389 77.7618" stroke="#070002" stroke-width="1.73869" stroke-linecap="round"/>
<path d="M62.4291 71.5947L62.4291 71.5956C62.4157 71.5964 62.4018 71.5971 62.3876 71.5976C62.3734 71.5985 62.3595 71.5991 62.346 71.5997L62.346 71.5988C61.7521 71.6095 60.5885 71.3845 59.6201 69.9756C58.304 68.061 57.2543 67.6172 54.5438 66.6818C52.4494 65.959 52.2552 62.2362 61.8631 61.744C61.8769 61.7433 61.8908 61.7425 61.9046 61.7419C61.9184 61.7412 61.9323 61.7405 61.9462 61.7398C71.5561 61.2903 71.7269 65.0144 69.7132 65.9385C67.1071 67.1344 66.1058 67.6787 64.9832 69.7128C64.1572 71.2097 63.0211 71.5473 62.4291 71.5947Z" fill="#98473C"/>
<path fill-rule="evenodd" clip-rule="evenodd" d="M69.892 65.8453C69.8347 65.8786 69.7751 65.9095 69.7135 65.9378C67.1537 67.1125 66.1422 67.6585 65.0433 69.6051C64.9327 68.7082 64.9756 67.284 65.784 66.5538C66.7041 65.7227 68.8496 65.7307 69.892 65.8453ZM59.5915 69.9331C58.2889 68.0538 57.2347 67.6097 54.5441 66.6811C54.4836 66.6603 54.4246 66.6369 54.3674 66.6111C55.3802 66.393 57.5502 66.1624 58.5578 66.9075C59.4538 67.57 59.6237 69.0335 59.5915 69.9331Z" fill="#4F201C"/>
<path d="M29.2128 40.2467C21.2676 40.9795 15.2717 48.99 9.28613 53.4365C13.3828 53.9047 16.7756 54.4218 22.6169 56.8588C28.5203 59.3218 33.5985 61.2801 38.1736 59.1103C41.1493 57.6991 44.2778 55.5876 45.4853 54.0041C45.4853 47.2559 39.6851 39.2808 29.2128 40.2467Z" fill="#513939"/>
<mask id="mask1_3419_92127" style="mask-type:alpha" maskUnits="userSpaceOnUse" x="14" y="42" width="32" height="19">
<path d="M30.475 42.0403C23.1207 42.332 16.4485 50.1827 14.0317 54.0717C17.5841 55.0213 18.8495 56.7006 24.2379 58.9236C29.6835 61.1702 34.5207 61.2264 38.7411 59.2472C41.486 57.9599 44.3805 55.516 45.4943 54.0717C44.847 49.089 39.6679 41.6757 30.475 42.0403Z" fill="white"/>
</mask>
<g mask="url(#mask1_3419_92127)">
<path d="M30.475 42.0403C23.1207 42.332 16.4485 50.1827 14.0317 54.0717C17.5841 55.0213 18.8495 56.7006 24.2379 58.9236C29.6835 61.1702 34.5207 61.2264 38.7411 59.2472C41.486 57.9599 44.3805 55.516 45.4943 54.0717C44.847 49.089 39.6679 41.6757 30.475 42.0403Z" fill="#EDD67C"/>
<path d="M30.615 62.2591C31.5804 63.4021 33.3054 63.4021 34.2707 62.2591C36.1245 60.0643 37.2801 56.9637 37.2801 53.5269C37.2801 50.0902 36.1244 46.9895 34.2707 44.7947C33.3054 43.6518 31.5804 43.6518 30.615 44.7947C28.7613 46.9895 27.6057 50.0902 27.6057 53.5269C27.6057 56.9637 28.7613 60.0643 30.615 62.2591Z" fill="#070002"/>
</g>
<path d="M93.7197 39.3129C101.79 40.0573 107.88 48.1937 113.96 52.7101C109.799 53.1856 106.352 53.7109 100.419 56.1863C94.4231 58.6879 89.265 60.677 84.618 58.4731C81.5955 57.0398 78.4179 54.895 77.1914 53.2867C77.1914 46.4323 83.0827 38.3318 93.7197 39.3129Z" fill="#513939"/>
<mask id="mask2_3419_92127" style="mask-type:alpha" maskUnits="userSpaceOnUse" x="77" y="41" width="33" height="20">
<path d="M92.438 41.135C99.908 41.4312 106.685 49.4055 109.14 53.3555C105.532 54.3201 104.246 56.0258 98.7733 58.2838C93.242 60.5657 88.3288 60.6228 84.042 58.6125C81.2539 57.305 78.3139 54.8226 77.1826 53.3555C77.8401 48.2946 83.1006 40.7647 92.438 41.135Z" fill="white"/>
</mask>
<g mask="url(#mask2_3419_92127)">
<path d="M92.438 41.135C99.908 41.4312 106.685 49.4055 109.14 53.3555C105.532 54.3201 104.246 56.0258 98.7733 58.2838C93.242 60.5657 88.3288 60.6228 84.042 58.6125C81.2539 57.305 78.3139 54.8226 77.1826 53.3555C77.8401 48.2946 83.1006 40.7647 92.438 41.135Z" fill="#EDD67C"/>
<path d="M92.3699 61.9557C91.4171 63.1092 89.6875 63.1092 88.7348 61.9557C87.0107 59.8683 85.9396 56.9489 85.9396 53.7179C85.9396 50.487 87.0107 47.5676 88.7348 45.4802C89.6875 44.3267 91.4171 44.3267 92.3699 45.4802C94.094 47.5675 95.165 50.487 95.165 53.7179C95.165 56.9489 94.094 59.8683 92.3699 61.9557Z" fill="#070002"/>
</g>
</g>
<defs>
<linearGradient id="paint0_linear_3419_92127" x1="60" y1="0" x2="60" y2="119" gradientUnits="userSpaceOnUse">
<stop stop-color="#7B7174"/>
<stop offset="1" stop-color="#9A8F92"/>
</linearGradient>
<linearGradient id="paint1_linear_3419_92127" x1="55.4176" y1="-2.29344" x2="52.1623" y2="129.983" gradientUnits="userSpaceOnUse">
<stop stop-color="#DCD1CB"/>
<stop offset="1" stop-color="#FFF9F5"/>
</linearGradient>
<linearGradient id="paint2_linear_3419_92127" x1="60.5831" y1="61.6033" x2="60.5831" y2="90.7565" gradientUnits="userSpaceOnUse">
<stop stop-color="#BFB9B6"/>
<stop offset="1" stop-color="#E7D3B2" stop-opacity="0"/>
</linearGradient>
</defs>
</svg>
