<svg width="120" height="119" viewBox="0 0 120 119" fill="none" xmlns="http://www.w3.org/2000/svg">
<mask id="mask0_3419_92160" style="mask-type:alpha" maskUnits="userSpaceOnUse" x="0" y="0" width="120" height="119">
<rect x="0.5" width="119" height="119" fill="#F3B286"/>
</mask>
<g mask="url(#mask0_3419_92160)">
<rect x="0.5" width="119" height="119" fill="url(#paint0_linear_3419_92160)"/>
<path d="M22.4171 62.2966L116.265 56.0672C112.612 55.0642 99.0696 54.1315 70.2701 56.0672C38.4103 58.2087 29.5815 60.8637 22.4171 62.2966Z" fill="#A71216"/>
<ellipse cx="27.1248" cy="16.6052" rx="11.2769" ry="7.47251" transform="rotate(18.2654 27.1248 16.6052)" fill="#AB090D"/>
<ellipse cx="50.4508" cy="29.6185" rx="6.66991" ry="5.46526" transform="rotate(18.2654 50.4508 29.6185)" fill="#AB090D"/>
<ellipse cx="85.5737" cy="23.9226" rx="6.31393" ry="5.17357" transform="rotate(41.513 85.5737 23.9226)" fill="#AB090D"/>
<ellipse cx="72.0274" cy="7.52302" rx="4.33794" ry="3.55446" transform="rotate(55.3596 72.0274 7.52302)" fill="#AB090D"/>
<path d="M55.3778 16.9245C50.2467 18.6308 46.1504 14.0572 45.2857 10.2269C45.0339 9.11188 45.4703 7.98911 46.1998 7.10913C49.0069 3.72317 52.655 0.924339 55.9875 -0.873095C57.3385 -1.6018 58.9219 -0.711365 59.089 0.814516C59.7862 7.17934 59.5943 15.5223 55.3778 16.9245Z" fill="#F1BB42"/>
<path fill-rule="evenodd" clip-rule="evenodd" d="M47.3344 14.2777C48.8976 14.3364 50.6085 14.1413 52.4376 13.6128C56.3808 12.4735 58.4333 9.00794 59.3823 5.03353C59.5249 10.3974 58.7024 15.8183 55.3777 16.9239C52.0707 18.0236 49.1936 16.5149 47.3344 14.2777Z" fill="url(#paint1_linear_3419_92160)"/>
<path d="M70.8132 34.5978C65.4387 35.1933 62.3895 29.8642 62.3449 25.9377C62.3319 24.7948 62.9934 23.7881 63.8908 23.0801C67.3439 20.356 71.4967 18.382 75.1313 17.3212C76.6049 16.8912 77.967 18.093 77.8113 19.6201C77.1621 25.99 75.2297 34.1084 70.8132 34.5978Z" fill="#F1BB42"/>
<path fill-rule="evenodd" clip-rule="evenodd" d="M63.5023 30.3276C65.0186 30.7118 66.7324 30.8788 68.6315 30.7445C72.7266 30.4549 75.4587 27.4941 77.2178 23.8049C76.2357 29.0811 74.2977 34.212 70.8147 34.5979C67.3506 34.9817 64.8525 32.9043 63.5023 30.3276Z" fill="url(#paint2_linear_3419_92160)"/>
<path d="M61.0613 59.7941L23.0944 62.0991C25.3849 72.4957 32.4755 80.8786 46.2176 79.1526C57.2113 77.7717 61.4936 66.9149 61.0613 59.7941Z" fill="#AB090D"/>
<mask id="mask1_3419_92160" style="mask-type:alpha" maskUnits="userSpaceOnUse" x="23" y="59" width="39" height="18">
<path d="M61.0613 59.7941L23.0944 62.0991C25.2973 71.0543 32.3148 78.2314 46.0643 76.6274C57.0639 75.3441 61.4342 65.9371 61.0613 59.7941Z" fill="white"/>
</mask>
<g mask="url(#mask1_3419_92160)">
<path d="M61.0613 59.7941L23.0944 62.0991C25.2973 71.0543 32.3148 78.2314 46.0643 76.6274C57.0639 75.3441 61.4342 65.9371 61.0613 59.7941Z" fill="white"/>
</g>
<path d="M114.06 55.664L83.1171 57.7795C84.9662 66.9946 90.5869 73.568 101.788 72.0115C110.749 70.7664 114.4 61.9777 114.06 55.664Z" fill="#AB090D"/>
<mask id="mask2_3419_92160" style="mask-type:alpha" maskUnits="userSpaceOnUse" x="83" y="55" width="32" height="16">
<path d="M114.06 55.664L83.1171 57.7795C84.9125 65.9983 90.4932 71.8297 101.699 70.3576C110.663 69.1798 114.364 61.3019 114.06 55.664Z" fill="white"/>
</mask>
<g mask="url(#mask2_3419_92160)">
<path d="M114.06 55.664L83.1171 57.7795C84.9125 65.9983 90.4932 71.8297 101.699 70.3576C110.663 69.1798 114.364 61.3019 114.06 55.664Z" fill="white"/>
</g>
<path d="M42.0657 111.274L37.0695 101.406H47.6415L44.2816 111.123C43.9335 112.13 42.5468 112.224 42.0657 111.274Z" fill="white"/>
<path d="M106.611 91.4424C78.2546 98.5314 42.9868 100.196 28.8973 100.143C28.8973 103.405 41.0874 103.556 60.8352 101.111C80.5831 98.6665 100.895 95.2811 103.904 94.1527C106.312 93.2499 106.712 91.9697 106.611 91.4424Z" fill="black"/>
<ellipse cx="69.1581" cy="82.5657" rx="4.37392" ry="2.67134" transform="rotate(31.1469 69.1581 82.5657)" fill="#570D11"/>
<ellipse cx="82.9536" cy="81.4827" rx="3.53379" ry="2.15824" transform="rotate(121.323 82.9536 81.4827)" fill="#570D11"/>
</g>
<defs>
<linearGradient id="paint0_linear_3419_92160" x1="60" y1="0" x2="60" y2="119" gradientUnits="userSpaceOnUse">
<stop stop-color="#DA1818"/>
<stop offset="1" stop-color="#F23F4F"/>
</linearGradient>
<linearGradient id="paint1_linear_3419_92160" x1="52.6766" y1="6.46756" x2="55.5111" y2="19.721" gradientUnits="userSpaceOnUse">
<stop stop-color="#D69C1C"/>
<stop offset="1" stop-color="#D69C1C" stop-opacity="0"/>
</linearGradient>
<linearGradient id="paint2_linear_3419_92160" x1="70.3601" y1="23.8049" x2="70.3603" y2="37.362" gradientUnits="userSpaceOnUse">
<stop stop-color="#D69C1C"/>
<stop offset="1" stop-color="#D69C1C" stop-opacity="0"/>
</linearGradient>
</defs>
</svg>
