<svg width="120" height="119" viewBox="0 0 120 119" fill="none" xmlns="http://www.w3.org/2000/svg">
<mask id="mask0_3419_92191" style="mask-type:alpha" maskUnits="userSpaceOnUse" x="0" y="0" width="120" height="119">
<rect x="0.5" width="119" height="119" fill="#F3B286"/>
</mask>
<g mask="url(#mask0_3419_92191)">
<rect x="0.5" width="119" height="119" fill="url(#paint0_linear_3419_92191)"/>
<path d="M19.6036 53.0047C3.37626 53.0047 -6.31628 54.9542 -9.20435 57.1202V124.071H129.203V53.0047C117.507 48.8892 103.919 53.0047 87.8324 51.272C70.5967 49.4155 70.7617 29.9697 58.7253 29.9697C43.3084 29.9697 49.3859 53.0047 19.6036 53.0047Z" fill="url(#paint1_linear_3419_92191)"/>
<ellipse cx="30.2963" cy="34.8954" rx="7.52771" ry="10.0985" fill="#CF8533"/>
<ellipse cx="30.2963" cy="33.5989" rx="7.52771" ry="8.80202" fill="black"/>
<ellipse cx="33.4292" cy="33.5995" rx="2.35691" ry="3.15667" fill="#F3F3F3"/>
<ellipse cx="84.198" cy="34.8954" rx="7.52771" ry="10.0985" fill="#CF8533"/>
<ellipse cx="84.1996" cy="33.5989" rx="7.52771" ry="8.80202" fill="black"/>
<ellipse cx="82.1498" cy="33.5995" rx="2.40501" ry="3.15667" fill="#F3F3F3"/>
<ellipse cx="29.0279" cy="13.7006" rx="12.2846" ry="5.97173" transform="rotate(7.52551 29.0279 13.7006)" fill="white"/>
<ellipse cx="12.2846" cy="5.97173" rx="12.2846" ry="5.97173" transform="matrix(-0.991387 0.130968 0.130968 0.991387 97.9666 6.17139)" fill="white"/>
<path d="M59.0168 58.5066V76.3634" stroke="#581E0F" stroke-width="1.15913"/>
<path d="M59.1781 61.0166L59.1781 61.018C59.1577 61.0182 59.1368 61.0182 59.1154 61.018C59.0939 61.0183 59.073 61.0183 59.0526 61.0182L59.0526 61.0168C58.1571 60.9905 56.42 60.5682 55.0618 58.376C53.2161 55.3971 53.8248 54.6532 49.808 53.0497C46.7042 51.8107 44.5198 46.1876 59.0309 46.1343C59.0519 46.1342 59.0728 46.1341 59.0937 46.1341C59.1146 46.134 59.1355 46.134 59.1564 46.1339C73.6677 46.145 71.4996 51.7683 68.3994 53.0163C64.3873 54.6315 64.9982 55.3799 63.1612 58.3642C61.8094 60.5603 60.0735 60.9877 59.1781 61.0166Z" fill="url(#paint2_linear_3419_92191)"/>
<path fill-rule="evenodd" clip-rule="evenodd" d="M68.7467 52.8548C68.6328 52.9141 68.5166 52.9677 68.3992 53.0149C65.532 54.1692 65.0258 54.8808 64.2999 56.2821C64.1943 55.06 64.2404 52.8492 65.1788 52.3315C66.063 51.8437 67.7575 52.403 68.7467 52.8548ZM53.7115 55.9165C53.0682 54.7623 52.4045 54.0849 49.8078 53.0483C49.6436 52.9827 49.4819 52.9049 49.3252 52.8163C50.324 52.3722 51.9484 51.8575 52.8076 52.3315C53.6585 52.8009 53.7758 54.6623 53.7115 55.9165Z" fill="#210A04"/>
<path d="M69.1039 65.608C61.0803 67.5069 53.8276 65.1255 49.6865 63.8817C49.1182 63.711 48.561 64.1568 48.561 64.7718V79.1196C48.561 84.9027 53.0706 89.5909 58.6335 89.5909C63.6999 89.5909 67.9779 85.6785 68.6237 80.4544L70.3211 66.7244C70.4083 66.0195 69.7705 65.4502 69.1039 65.608Z" fill="url(#paint3_linear_3419_92191)"/>
<path d="M67.0074 84.9391C64.8312 82.5173 61.0669 80.45 56.5641 79.4842C53.6998 78.8698 50.9402 78.7876 48.5593 79.1512C48.5751 84.9203 53.0786 89.592 58.6317 89.592C62.0946 89.592 65.1892 87.7642 67.0074 84.9391Z" fill="#FFA0A3"/>
<ellipse cx="78.37" cy="56.151" rx="1.84416" ry="1.84416" fill="#CC9D61"/>
<ellipse cx="88.4512" cy="57.2377" rx="1.84416" ry="1.84416" fill="#CC9D61"/>
<ellipse cx="81.9696" cy="65.0493" rx="2.38842" ry="2.38842" fill="#CC9D61"/>
<ellipse cx="30.2084" cy="57.6765" rx="1.84416" ry="1.84416" transform="rotate(-2.55154 30.2084 57.6765)" fill="#CC9D61"/>
<ellipse cx="40.3285" cy="57.0178" rx="1.84416" ry="1.84416" transform="rotate(-2.55154 40.3285 57.0178)" fill="#CC9D61"/>
<ellipse cx="34.2019" cy="65.1081" rx="2.38842" ry="2.38842" transform="rotate(-2.55154 34.2019 65.1081)" fill="#CC9D61"/>
</g>
<defs>
<linearGradient id="paint0_linear_3419_92191" x1="60" y1="0" x2="60" y2="119" gradientUnits="userSpaceOnUse">
<stop stop-color="#FC9D36"/>
<stop offset="0.515625" stop-color="#FBBA73"/>
</linearGradient>
<linearGradient id="paint1_linear_3419_92191" x1="59.9993" y1="39.1424" x2="59.9993" y2="122.034" gradientUnits="userSpaceOnUse">
<stop stop-color="#FFE4C2"/>
<stop offset="1" stop-color="#FFFAF3"/>
</linearGradient>
<linearGradient id="paint2_linear_3419_92191" x1="59.0937" y1="46.134" x2="59.1154" y2="61.0182" gradientUnits="userSpaceOnUse">
<stop stop-color="#884332"/>
<stop offset="1" stop-color="#662616"/>
</linearGradient>
<linearGradient id="paint3_linear_3419_92191" x1="59.5332" y1="63.5539" x2="59.5332" y2="89.5909" gradientUnits="userSpaceOnUse">
<stop stop-color="#E2252B"/>
<stop offset="1" stop-color="#DD353B"/>
</linearGradient>
</defs>
</svg>
