<svg width="120" height="119" viewBox="0 0 120 119" fill="none" xmlns="http://www.w3.org/2000/svg">
<mask id="mask0_3419_92226" style="mask-type:alpha" maskUnits="userSpaceOnUse" x="0" y="0" width="120" height="119">
<rect x="0.5" width="119" height="119" fill="#F3B286"/>
</mask>
<g mask="url(#mask0_3419_92226)">
<rect x="0.5" width="119" height="119" fill="#694281"/>
<rect x="0.5" width="119" height="119" fill="#694281"/>
<path d="M23.6326 33.2127C29.9017 30.5422 44.3367 29.5204 53.4909 41.6373C47.0018 45.7101 29.7188 51.3738 23.6326 33.2127Z" fill="#4A295F"/>
<path d="M103.366 33.298C97.1757 30.4506 82.7755 29.0193 73.281 40.8714C79.6517 45.1268 96.767 51.279 103.366 33.298Z" fill="#4A295F"/>
<path d="M23.6416 33.0624C30.1075 31.2656 45.0734 30.3499 53.2099 41.0621C46.4106 44.0116 30.9779 46.541 23.6416 33.0624Z" fill="#FEFAFB"/>
<path d="M102.836 33.0624C96.3703 31.2656 81.4044 30.3499 73.2679 41.0621C80.0672 44.0116 95.4998 46.541 102.836 33.0624Z" fill="#FEFAFB"/>
<path opacity="0.3" d="M68.3128 10.499C66.131 3.08001 58.6238 -0.448868 48.7634 -0.448868L81.9175 -6.56543C84.1596 -5.16449 85.8507 -0.177784 84.608 7.09497C82.8855 17.1764 87.4176 18.0705 92.0083 16.9519C85.5203 26.1783 72.45 24.567 68.3128 10.499Z" fill="#4A295F"/>
<path d="M72.1961 9.70774C70.021 2.73949 64.095 -0.732481 55.8506 -0.732481L83.5712 -6.56543C85.4458 -5.22945 86.8598 -0.473968 85.8208 6.46156C84.3805 16.0755 88.1699 18.0336 92.0082 16.9668C83.5712 24.1229 75.6687 20.8324 72.1961 9.70774Z" fill="#FBB64F"/>
<path d="M78.9709 7.82414C80.1373 0.913911 78.4849 -3.20676 77.5129 -4.40332L84.9214 -2.83041C85.4352 0.508749 83.9796 4.10476 82.3529 10.0981C81.0515 14.8928 84.1509 17.2331 85.8633 17.8039C83.8084 17.8895 77.5129 16.4619 78.9709 7.82414Z" fill="#E4A13C"/>
<path d="M63.96 25.5417V44.5701V51.3659L75.1653 52.725L63.96 25.5417Z" fill="#4A295F"/>
<path d="M15.1748 57.1035L19.8113 129.173H104.113L107.591 57.1035C88.4257 57.1035 71.0994 47.3455 63.7018 42.4666C50.7062 54.3792 26.3499 57.1881 15.1748 57.1035Z" fill="#FBBA94"/>
<path d="M68.8453 84.7678C63.5546 85.7597 57.1807 85.1811 54.655 84.7678C55.2063 85.7597 57.5211 87.7436 62.3706 87.7436C67.22 87.7436 68.7077 85.7597 68.8453 84.7678Z" fill="#E09C75"/>
<path opacity="0.5" fill-rule="evenodd" clip-rule="evenodd" d="M107.321 62.6976C81.1243 60.4635 67.6991 49.3178 63.364 42.7723C63.4775 42.6712 63.5902 42.5693 63.702 42.4668C71.0996 47.3458 88.426 57.1037 107.591 57.1037L107.321 62.6976Z" fill="#E09C75"/>
<path d="M55.5333 78.1787C52.5468 77.4891 42.3343 78.8215 37.6013 79.5739C41.6962 78.7058 51.3336 75.5742 55.0667 75.5742C59.733 75.5742 60.7996 77.4407 62.1329 77.4407C63.4661 77.4407 67.3992 75.1742 71.7323 75.5742C75.0449 75.88 81.3813 77.3088 84.5162 78.0762C84.6742 78.1087 84.8133 78.1428 84.9314 78.1787C84.8003 78.1461 84.6617 78.1119 84.5162 78.0762C81.4638 77.4496 71.3592 77.4503 69.3292 77.6361C67.404 77.8122 66.1326 79.5739 62.7995 79.9739C59.4664 80.3738 59.2664 79.0406 55.5333 78.1787Z" fill="#3A1F4B"/>
</g>
</svg>
