<svg width="120" height="119" viewBox="0 0 120 119" fill="none" xmlns="http://www.w3.org/2000/svg">
<mask id="mask0_3419_92245" style="mask-type:alpha" maskUnits="userSpaceOnUse" x="0" y="0" width="120" height="119">
<rect x="0.5" width="119" height="119" fill="#F3B286"/>
</mask>
<g mask="url(#mask0_3419_92245)">
<rect x="0.5" width="119" height="119" fill="url(#paint0_linear_3419_92245)"/>
<path opacity="0.5" d="M38.3309 110.458C40.5408 108.71 48.2278 111.27 53.6422 113.536C55.6288 114.367 57.6767 116.258 56.2708 117.89C54.6288 119.795 50.6316 121.065 47.226 119.824C42.1605 117.977 34.9948 113.096 38.3309 110.458Z" fill="#F2A577"/>
<path d="M37.7326 43.0585C24.104 42.8014 5.48612 30.7792 -2.11926 24.8003L56.2947 11.4238H69.8252L114.722 34.7947L120.872 48.9402C98.0752 50.2522 77.3421 38.5531 69.8252 32.5396L76.5904 40.5349C65.6021 38.5159 62.3083 28.3499 62.0349 23.5193C59.6127 30.1395 51.3612 43.3157 37.7326 43.0585Z" fill="#F7AD82"/>
<path d="M70.3345 97.3003C60.073 96.7386 47.6841 95.5796 40.4317 94.8254C38.9022 94.6664 37.5771 95.9004 37.8861 97.4068C38.9699 102.692 42.8971 109.815 54.8172 110.442C64.2635 110.938 69.55 105.277 72.3219 100.803C73.2673 99.2767 72.1271 97.3984 70.3345 97.3003Z" fill="#E12C31"/>
<path fill-rule="evenodd" clip-rule="evenodd" d="M65.6774 107.744C63.0039 104.738 58.5233 102.376 53.2111 101.54C48.2897 100.766 43.6455 101.458 40.2317 103.186C42.6274 106.831 47.0063 110.031 54.8177 110.442C59.3252 110.679 62.8855 109.513 65.6774 107.744Z" fill="#FE5F85"/>
<path d="M51.0003 60.4564C37.76 57.2594 25.1732 56.1588 11.5802 57.01C9.74976 57.1246 8.20074 58.4436 7.98799 60.2652C6.58184 72.3047 12.3735 87.7865 33.0018 87.1085C48.953 86.5842 53.4977 73.1288 53.9669 64.2589C54.0632 62.4368 52.774 60.8847 51.0003 60.4564Z" fill="url(#paint1_linear_3419_92245)"/>
<path fill-rule="evenodd" clip-rule="evenodd" d="M29.6228 57.0706L40.0264 85.862C37.9761 86.5794 35.6459 87.0214 33.0024 87.1083C31.5608 87.1557 30.1918 87.1242 28.8925 87.0204L17.7032 56.7577C21.7301 56.6805 25.688 56.7834 29.6228 57.0706Z" fill="url(#paint2_linear_3419_92245)"/>
<path d="M105.123 66.0138C91.8832 62.8169 79.2964 61.7163 65.7033 62.5674C63.8729 62.682 62.3239 64.0011 62.1112 65.8227C60.705 77.8621 66.4967 93.3439 87.125 92.6659C103.076 92.1416 107.621 78.6862 108.09 69.8164C108.186 67.9943 106.897 66.4421 105.123 66.0138Z" fill="url(#paint3_linear_3419_92245)"/>
<path fill-rule="evenodd" clip-rule="evenodd" d="M84.7502 62.7059L95.009 91.0963C92.7567 92.0039 90.1453 92.5668 87.1249 92.6661C86.0475 92.7015 85.0104 92.6929 84.0128 92.6429L72.7941 62.3005C76.8298 62.2519 80.7997 62.3857 84.7502 62.7059Z" fill="url(#paint4_linear_3419_92245)"/>
<path d="M50.886 65.9791C55.7761 63.6192 61.2394 63.9537 64.5919 67.6086" stroke="black" stroke-width="3.78187"/>
<path d="M35.4756 38.9012C19.7295 37.8475 3.44165 29.9646 -3.33207 26.1548L-3.33207 -1.23055L123.338 -1.23056L123.338 49.0503C89.896 50.5694 71.6196 28.7562 67.517 17.6597C68.6419 30.5321 76.623 38.6341 82.2732 41.3848L79.8227 42.7751C65.7687 38.188 62.5261 22.3665 62.3489 14.9925C59.764 23.3752 51.2216 39.9548 35.4756 38.9012Z" fill="#504AAE"/>
<path fill-rule="evenodd" clip-rule="evenodd" d="M106.939 47.8405C83.9429 43.1737 70.9981 26.9198 67.5595 17.7739C67.4932 16.545 67.521 13.5006 68.1609 11.0999C73.2168 20.2741 87.2478 38.6169 106.939 47.8405Z" fill="#433DA3"/>
<path d="M23.8489 48.5651C26.8562 46.4877 34.8878 43.5794 42.9552 48.5651" stroke="black" stroke-width="4.41218" stroke-linecap="round"/>
<path d="M79.4244 48.912C81.8937 47.6311 88.2361 46.2032 93.8507 50.7392" stroke="black" stroke-width="4.41218" stroke-linecap="round"/>
</g>
<defs>
<linearGradient id="paint0_linear_3419_92245" x1="60" y1="0" x2="60" y2="119" gradientUnits="userSpaceOnUse">
<stop stop-color="#FBBA94"/>
<stop offset="1" stop-color="#FFC6A5"/>
</linearGradient>
<linearGradient id="paint1_linear_3419_92245" x1="31.4213" y1="57.215" x2="28.8182" y2="87.015" gradientUnits="userSpaceOnUse">
<stop/>
<stop offset="1" stop-color="#464242"/>
</linearGradient>
<linearGradient id="paint2_linear_3419_92245" x1="28.8648" y1="56.7329" x2="28.8648" y2="87.1298" gradientUnits="userSpaceOnUse">
<stop stop-color="#625656"/>
<stop offset="1" stop-color="#615353" stop-opacity="0"/>
</linearGradient>
<linearGradient id="paint3_linear_3419_92245" x1="85.5445" y1="62.7724" x2="82.9413" y2="92.5724" gradientUnits="userSpaceOnUse">
<stop/>
<stop offset="1" stop-color="#464242"/>
</linearGradient>
<linearGradient id="paint4_linear_3419_92245" x1="83.9015" y1="62.2908" x2="83.9015" y2="92.6876" gradientUnits="userSpaceOnUse">
<stop stop-color="#625656"/>
<stop offset="1" stop-color="#615353" stop-opacity="0"/>
</linearGradient>
</defs>
</svg>
