<svg width="120" height="119" viewBox="0 0 120 119" fill="none" xmlns="http://www.w3.org/2000/svg">
<mask id="mask0_3419_92271" style="mask-type:alpha" maskUnits="userSpaceOnUse" x="0" y="0" width="120" height="119">
<rect x="0.5" width="119" height="119" fill="#F3B286"/>
</mask>
<g mask="url(#mask0_3419_92271)">
<rect x="0.5" width="119" height="119" fill="#FFDFBA"/>
<path opacity="0.3" d="M40.9661 24.02C37.8625 45.0891 18.577 57.706 9.32213 61.3808L6.05566 55.4603L17.8968 44.4358L38.7209 13.6079L106.91 32.5946L108.543 73.4261C99.3966 63.9532 98.7433 47.8384 99.5599 40.9651C72.9377 42.435 49.4048 30.2808 40.9661 24.02Z" fill="#E09C75"/>
<path d="M59.4269 76.7332C56.8387 76.3413 53.2795 73.9738 51.8235 72.839C54.3327 73.2189 63.019 73.3387 67.0484 73.3512C65.5863 74.6418 62.015 77.125 59.4269 76.7332Z" fill="#E09C75"/>
<path fill-rule="evenodd" clip-rule="evenodd" d="M39.4114 18.113C57.8102 34.1631 87.2388 36.0316 101.713 34.8676C99.3239 44.6123 96.9354 58.4888 96.1359 73.9561C95.1602 92.8318 96.5393 114.282 103.325 133.554L108.792 131.629C102.347 113.326 100.97 92.7045 101.924 74.2553C102.283 67.3041 102.972 60.6904 103.834 54.6616C104.396 81.0731 107.826 104.694 110.877 119.864C111.851 124.704 112.785 128.683 113.576 131.619H124.143V-5.63989H-3.98816V131.619H8.4118C13.8828 110.717 13.3188 81.5518 12.0454 65.2339C14.1644 75.1947 16.2052 88.4563 16.205 101.35L20.8415 101.35C20.8418 84.8346 17.6109 67.8301 14.9969 57.4219C30.3719 47.3907 37.6453 27.4243 39.4114 18.113Z" fill="url(#paint0_linear_3419_92271)"/>
<path d="M59.7493 83.0109C56.6683 78.6399 49.022 82.8943 46.8518 84.8458C49.0982 87.1278 53.3776 91.3877 59.4061 91.3877C66.8179 91.3877 70.934 86.5632 72.2008 84.8458C71.7426 84.2342 70.1494 83.2478 66.5915 81.64C63.0337 80.0321 60.4767 81.671 59.7493 83.0109Z" fill="#C20357"/>
<path fill-rule="evenodd" clip-rule="evenodd" d="M72.1793 84.8741C63.8972 86.4056 52.0961 85.5289 46.9168 84.8618L46.9039 84.8991C49.1641 87.1935 53.4239 91.3876 59.4057 91.3876C66.777 91.3876 70.8885 86.6156 72.1793 84.8741Z" fill="#A8074E"/>
<path opacity="0.4" fill-rule="evenodd" clip-rule="evenodd" d="M81.4144 34.4181C62.0179 28.9119 45.6487 18.2906 39.693 13.4832C39.9026 15.1839 39.6461 17.1724 39.4558 18.1515C51.2095 28.3804 67.4473 32.8365 81.4144 34.4181Z" fill="#A70844"/>
<path d="M82.579 54.3709C75.8759 55.0311 70.2107 57.8892 68.2159 59.2358L71.9873 59.6953C79.8479 58.7429 95.7415 56.1572 96.6192 55.5668C97.3915 55.0472 97.7438 54.1344 97.7438 53.4998C96.2635 54.1713 94.5904 54.3927 93.6175 54.5771C94.7468 53.9819 95.1473 53.1514 95.1473 52.53C93.7509 52.8686 89.2821 53.7107 82.579 54.3709Z" fill="black"/>
<mask id="mask1_3419_92271" style="mask-type:alpha" maskUnits="userSpaceOnUse" x="68" y="55" width="29" height="13">
<path d="M96.8311 55.3944C82.4293 54.7736 71.7531 57.7331 68.2152 59.2904C69.0965 62.1369 72.8605 67.6525 80.8664 66.9423C88.8724 66.2321 94.8454 58.9478 96.8311 55.3944Z" fill="white"/>
</mask>
<g mask="url(#mask1_3419_92271)">
<path d="M96.8311 55.3944C82.4293 54.7736 71.7531 57.7331 68.2152 59.2904C69.0965 62.1369 72.8605 67.6525 80.8664 66.9423C88.8724 66.2321 94.8454 58.9478 96.8311 55.3944Z" fill="white"/>
<ellipse cx="81.3027" cy="59.4265" rx="5.28028" ry="5.28028" fill="#070002"/>
</g>
<path d="M36.6809 54.3709C43.384 55.0311 49.0492 57.8892 51.0439 59.2358L47.2726 59.6953C39.412 58.7429 23.5184 56.1572 22.6407 55.5668C21.8684 55.0472 21.5161 54.1344 21.5161 53.4998C22.9964 54.1713 24.6695 54.3927 25.6424 54.5771C24.5131 53.9819 24.1125 53.1514 24.1125 52.53C25.509 52.8686 29.9778 53.7107 36.6809 54.3709Z" fill="black"/>
<mask id="mask2_3419_92271" style="mask-type:alpha" maskUnits="userSpaceOnUse" x="22" y="55" width="30" height="13">
<path d="M22.4295 55.3944C36.8313 54.7736 47.5075 57.7331 51.0454 59.2904C50.1642 62.1369 46.4001 67.6525 38.3942 66.9423C30.3882 66.2321 24.4153 58.9478 22.4295 55.3944Z" fill="white"/>
</mask>
<g mask="url(#mask2_3419_92271)">
<path d="M22.4295 55.3944C36.8313 54.7736 47.5075 57.7331 51.0454 59.2904C50.1642 62.1369 46.4001 67.6525 38.3942 66.9423C30.3882 66.2321 24.4153 58.9478 22.4295 55.3944Z" fill="white"/>
<ellipse cx="5.28028" cy="5.28028" rx="5.28028" ry="5.28028" transform="matrix(-1 0 0 1 43.2377 54.1462)" fill="#070002"/>
</g>
<path d="M85.3451 42.7092C80.056 42.9647 74.4832 46.6187 71.0065 49.563C69.67 50.6948 67.6618 50.7379 66.3982 49.5252C64.9713 48.1558 65.1367 45.8359 66.8306 44.8151C71.7959 41.8227 79.4847 38.2453 85.4899 38.8471C93.0132 39.601 98.3674 43.8964 100.104 45.9499C97.9864 44.7343 92.0699 42.3843 85.3451 42.7092Z" fill="black"/>
<path d="M32.5223 43.9178C37.8153 43.7619 43.6549 46.9723 47.3497 49.6377C48.7701 50.6624 50.7756 50.5495 51.9412 49.2423C53.2575 47.7663 52.9124 45.4662 51.1444 44.5799C45.9618 41.982 38.0185 39.0124 32.0781 40.0786C24.636 41.4143 19.6315 46.1124 18.0595 48.2945C20.0764 46.9182 25.7926 44.116 32.5223 43.9178Z" fill="black"/>
</g>
<defs>
<linearGradient id="paint0_linear_3419_92271" x1="60.0773" y1="-5.63989" x2="60.0773" y2="133.361" gradientUnits="userSpaceOnUse">
<stop stop-color="#CD004D"/>
<stop offset="1" stop-color="#FF76A9"/>
</linearGradient>
</defs>
</svg>
