<svg width="120" height="119" viewBox="0 0 120 119" fill="none" xmlns="http://www.w3.org/2000/svg">
<mask id="mask0_3419_92305" style="mask-type:alpha" maskUnits="userSpaceOnUse" x="0" y="0" width="120" height="119">
<rect x="0.5" width="119" height="119" fill="#F3B286"/>
</mask>
<g mask="url(#mask0_3419_92305)">
<rect x="0.5" width="119" height="119" fill="url(#paint0_linear_3419_92305)"/>
<path opacity="0.5" d="M81.6968 112.337C85.057 110.195 87.2363 107.6 87.9938 106.393C87.9938 109.615 85.2661 113.046 83.3477 114.911C82.8711 115.374 82.1383 115.41 81.5871 115.038C80.6369 114.398 80.7308 112.952 81.6968 112.337Z" fill="#395313"/>
<path opacity="0.5" d="M103.423 74.6876C99.1187 83.2895 92.0016 88.1666 86.7264 90.6117C83.8028 91.9667 80.3539 91.0281 78.8373 88.2342C75.7554 82.5565 73.9798 73.9685 75.3928 65.6328C77.8129 51.3563 85.895 43.9768 95.4129 45.0997C104.931 46.2226 110.807 59.9295 103.423 74.6876Z" fill="#5F822B"/>
<path d="M101.746 72.992C97.6302 81.4063 90.8248 86.1769 85.7805 88.5687C82.985 89.8941 79.687 88.976 78.2369 86.2431C75.2899 80.6892 73.592 72.2886 74.9432 64.1347C77.2573 50.1696 84.9856 42.951 94.0867 44.0494C103.188 45.1479 108.807 58.5558 101.746 72.992Z" fill="#272729"/>
<ellipse cx="1.34998" cy="2.2985" rx="1.34998" ry="2.2985" transform="matrix(-0.850172 -0.526504 -0.526504 0.850173 102.874 64.4646)" fill="white"/>
<ellipse cx="3.20377" cy="4.80438" rx="3.20377" ry="4.80438" transform="matrix(-0.995771 0.0918699 0.0918698 0.995771 101.992 52.4414)" fill="white"/>
<path opacity="0.5" d="M28.0029 91.4228C35.4464 97.5 43.5422 98.7014 49.0156 98.4845C52.049 98.3643 54.4841 95.8207 54.4816 92.4484C54.4766 85.595 52.0774 76.6137 47.1497 69.4012C38.7099 57.0485 28.6865 53.9414 21.3053 59.5716C13.9242 65.2018 15.2323 80.9964 28.0029 91.4228Z" fill="#5F822B"/>
<path d="M27.5487 88.1702C34.825 94.0689 43.0065 95.53 48.5889 95.5751C51.6827 95.6 54.2873 93.3784 54.4517 90.289C54.7858 84.0105 52.7881 75.6761 48.1288 68.8495C40.1489 57.1576 30.0995 53.8649 22.3073 58.6938C14.5151 63.5227 15.065 78.05 27.5487 88.1702Z" fill="#272729"/>
<ellipse cx="46.7423" cy="75.7917" rx="1.34998" ry="2.2985" transform="rotate(-77.9005 46.7423 75.7917)" fill="white"/>
<ellipse cx="41.7236" cy="69.1981" rx="3.20377" ry="4.80438" transform="rotate(-40.8598 41.7236 69.1981)" fill="white"/>
<ellipse cx="1.68282" cy="2.52401" rx="1.68282" ry="2.52401" transform="matrix(-1 0 0 1 66.5649 96.9727)" fill="#395313"/>
<ellipse cx="1.68282" cy="2.52401" rx="1.68282" ry="2.52401" transform="matrix(-0.804572 0.593856 0.593855 0.804572 72.8879 95.1729)" fill="#395313"/>
<path d="M87.0373 101.048C83.7308 102.412 78.0092 107.286 74.389 110.632C73.5099 111.445 73.7344 112.875 74.8085 113.404C75.6625 113.824 76.7057 113.48 77.2909 112.729C80.4092 108.73 88.3774 102.886 91.0154 102.048C92.8365 101.47 94.5824 101.701 95.6737 102.024C96.1205 102.157 96.6284 101.962 96.8058 101.532C96.9268 101.238 96.8663 100.894 96.5968 100.726C95.1481 99.8191 91.4386 99.2332 87.0373 101.048Z" fill="#272729"/>
<path d="M86.4031 38.1406C89.9841 33.9545 97.4391 29.2957 106.295 39.7515C100.122 36.7332 93.4279 34.8943 86.4031 38.1406Z" fill="#5F822B"/>
<path d="M12.4269 58.9035C12.5735 53.5624 15.1299 45.7902 27.0418 49.7528C21.1083 50.5146 15.4705 52.5236 12.4269 58.9035Z" fill="#5F822B"/>
<path fill-rule="evenodd" clip-rule="evenodd" d="M76.8714 17.8925C72.8317 5.79503 64.4559 -12.3735 54.6303 -13.0968C44.9243 -13.8112 38.8852 -0.272787 36.3413 9.16669C33.7893 9.15051 31.3356 11.1918 30.5406 14.1999C29.6236 17.6691 31.2603 21.1105 34.1961 21.8865C37.1319 22.6624 40.2551 20.479 41.1721 17.0098C41.9525 14.0569 40.883 11.1243 38.7371 9.83816C41.1245 2.40148 46.0761 -7.59414 52.944 -6.71683C59.3721 -5.8957 63.5856 8.54196 65.6911 20.0673C66.4016 23.9567 70.6802 26.2041 74.1803 24.3655C76.5342 23.129 77.7135 20.4145 76.8714 17.8925Z" fill="url(#paint1_linear_3419_92305)"/>
<path fill-rule="evenodd" clip-rule="evenodd" d="M23.489 25.2824C17.5678 16.2582 6.78615 3.20446 -1.40925 4.73745C-9.50502 6.2518 -11.5184 18.6348 -11.5583 26.908C-13.6501 27.4464 -15.2166 29.6473 -15.2166 32.2805C-15.2166 35.3172 -13.1333 37.779 -10.5636 37.779C-7.99379 37.779 -5.91058 35.3172 -5.91058 32.2805C-5.91058 29.6961 -7.41949 27.5281 -9.45307 26.9396C-9.10803 20.3389 -7.21828 11.0893 -1.40925 10.322C4.02752 9.60376 10.597 20.505 14.8119 29.4794C16.2343 32.5079 20.2208 33.4215 22.6869 31.1603C24.3454 29.6397 24.7233 27.1637 23.489 25.2824Z" fill="url(#paint2_linear_3419_92305)"/>
</g>
<defs>
<linearGradient id="paint0_linear_3419_92305" x1="60" y1="0" x2="60" y2="119" gradientUnits="userSpaceOnUse">
<stop stop-color="#85B144"/>
<stop offset="1" stop-color="#A8CB59"/>
</linearGradient>
<linearGradient id="paint1_linear_3419_92305" x1="35.4953" y1="11.9435" x2="89.5036" y2="25.8314" gradientUnits="userSpaceOnUse">
<stop stop-color="#4E750F"/>
<stop offset="1" stop-color="#78A82B"/>
</linearGradient>
<linearGradient id="paint2_linear_3419_92305" x1="-11.6507" y1="29.3629" x2="35.5409" y2="29.0465" gradientUnits="userSpaceOnUse">
<stop stop-color="#4E750F"/>
<stop offset="1" stop-color="#78A82B"/>
</linearGradient>
</defs>
</svg>
