<svg width="120" height="119" viewBox="0 0 120 119" fill="none" xmlns="http://www.w3.org/2000/svg">
<mask id="mask0_3419_92332" style="mask-type:alpha" maskUnits="userSpaceOnUse" x="0" y="0" width="120" height="119">
<rect x="0.647217" y="0.000244141" width="118.853" height="118.853" fill="#F3B286"/>
</mask>
<g mask="url(#mask0_3419_92332)">
<rect x="0.647217" y="0.000244141" width="118.853" height="118.853" fill="url(#paint0_linear_3419_92332)"/>
<path opacity="0.8" d="M13.0133 89.041C3.69455 69.5157 0.255575 39.8581 -0.299072 27.47V125.096H25.2164C25.0315 121.213 22.332 108.566 13.0133 89.041Z" fill="url(#paint1_linear_3419_92332)"/>
<path opacity="0.8" d="M94.0201 78.4291C93.8078 90.3354 88.5208 115.653 85.9038 126.824H99.6008C100.451 110.048 96.2347 87.5706 94.0201 78.4291Z" fill="url(#paint2_linear_3419_92332)"/>
<path opacity="0.8" d="M46.2961 138.294C41.4727 126.235 30.9683 96.9725 27.5381 76.3922C24.8085 89.8011 24.7387 120.954 46.2961 138.294Z" fill="url(#paint3_linear_3419_92332)"/>
<path d="M37.9477 76.7352C37.9716 79.8726 38.9764 80.6162 39.4757 80.5959C42.0264 81.3766 47.5752 68.0422 49.7053 67.7219C51.8353 67.4017 53.3389 81.1358 56.4713 81.0663C59.6036 80.9968 62.5481 65.4284 65.1167 65.2894C67.6852 65.1504 71.82 79.1906 73.5115 79.1906C75.203 79.1906 77.333 63.2052 79.3377 63.3442C81.3425 63.4832 90.1758 86.6273 88.2338 86.7663C86.2917 86.9053 82.5954 80.5959 80.4028 80.5959C78.2101 80.5959 79.2751 95.454 76.3933 95.6625C73.5115 95.871 68.8129 82.2487 65.6805 82.2487C62.5481 82.2487 64.4275 103.725 60.0422 104.003C55.6568 104.281 51.71 84.4727 49.7053 84.8897C47.7005 85.3068 44.4428 97.3306 42.5634 96.3576C40.684 95.3845 40.3707 85.0982 38.6792 84.8897C36.9877 84.6812 35.1185 90.4281 34.1464 90.4934C33.1743 90.5588 32.1442 86.0816 33.1163 80.5959C34.0884 75.1103 35.9442 68.0422 37.2993 68.0422C38.6543 68.0422 37.9179 72.8135 37.9477 76.7352Z" fill="#E5E9FC"/>
<path d="M37.9477 75.4146C37.9716 78.2425 38.9764 78.9129 39.4757 78.8946C42.0264 79.5982 47.5752 67.5788 49.7053 67.2901C51.8353 67.0014 53.3389 79.3812 56.4713 79.3185C59.6036 79.2559 62.5481 65.2227 65.1167 65.0974C67.6852 64.9722 71.82 77.6279 73.5115 77.6279C75.203 77.6279 77.333 63.2188 79.3377 63.3441C81.3425 63.4694 90.1758 84.3311 88.2338 84.4564C86.2917 84.5817 82.5954 78.8946 80.4028 78.8946C78.2101 78.8946 79.2751 92.2874 76.3933 92.4754C73.5115 92.6633 68.8129 80.3843 65.6805 80.3843C62.5481 80.3843 64.4275 99.7425 60.0422 99.9931C55.6568 100.244 51.71 82.3891 49.7053 82.7649C47.7005 83.1408 44.4428 93.9789 42.5634 93.1019C40.684 92.2248 40.3707 82.9529 38.6792 82.7649C36.9877 82.577 35.1185 87.7571 34.1464 87.816C33.1743 87.8749 32.1442 83.8393 33.1163 78.8946C34.0884 73.9499 35.9442 67.5788 37.2993 67.5788C38.6543 67.5788 37.9179 71.8796 37.9477 75.4146Z" fill="#1D2453"/>
<path opacity="0.8" d="M73.413 14.2448C68.7769 14.393 66.4193 17.865 65.7419 20.3005C66.843 19.1278 69.9826 16.6877 73.5072 17.1906C77.608 17.7757 84.1929 23.4302 87.3164 26.7121C84.611 22.4331 79.2321 14.0588 73.413 14.2448Z" fill="url(#paint4_linear_3419_92332)"/>
<path opacity="0.8" d="M52.3986 12.3624C56.8483 13.6721 58.2567 17.6255 58.2996 20.1531C57.5289 18.741 55.1042 15.5897 51.5663 15.1897C47.4503 14.7244 39.6547 18.5406 35.806 20.9312C39.5009 17.4704 46.8135 10.7185 52.3986 12.3624Z" fill="url(#paint5_linear_3419_92332)"/>
<path d="M46.7636 46.1477C39.8356 57.399 31.6595 56.878 28.4374 55.2111C25.1092 53.346 21.7124 47.2877 26.0994 39.3256C30.4864 31.3636 40.4527 22.0226 47.4894 20.6648C54.5261 19.307 55.4236 32.0835 46.7636 46.1477Z" fill="#1D2453"/>
<path d="M71.7246 48.7222C77.8351 61.1107 86.0411 60.9498 89.3804 59.3208C92.84 57.4845 96.6704 51.1601 92.8614 42.4184C89.0525 33.6766 79.7688 23.1868 72.8365 21.3906C65.9042 19.5944 64.0865 33.2366 71.7246 48.7222Z" fill="#1D2453"/>
</g>
<defs>
<linearGradient id="paint0_linear_3419_92332" x1="60.0736" y1="0.000244141" x2="60.0736" y2="118.853" gradientUnits="userSpaceOnUse">
<stop stop-color="#F4EFFF"/>
<stop offset="1" stop-color="white"/>
</linearGradient>
<linearGradient id="paint1_linear_3419_92332" x1="-0.299073" y1="5.83686" x2="72.7136" y2="54.8791" gradientUnits="userSpaceOnUse">
<stop stop-color="#ADBCF6"/>
<stop offset="1" stop-color="#ADBCF6" stop-opacity="0"/>
</linearGradient>
<linearGradient id="paint2_linear_3419_92332" x1="89.4313" y1="42.7483" x2="131.816" y2="74.1152" gradientUnits="userSpaceOnUse">
<stop stop-color="#ADBCF6"/>
<stop offset="1" stop-color="#ADBCF6" stop-opacity="0"/>
</linearGradient>
<linearGradient id="paint3_linear_3419_92332" x1="31.3942" y1="30.7529" x2="87.2159" y2="77.5655" gradientUnits="userSpaceOnUse">
<stop stop-color="#ADBCF6"/>
<stop offset="1" stop-color="#ADBCF6" stop-opacity="0"/>
</linearGradient>
<linearGradient id="paint4_linear_3419_92332" x1="70.7054" y1="4.81152" x2="76.6426" y2="27.0535" gradientUnits="userSpaceOnUse">
<stop stop-color="#ADBCF6"/>
<stop offset="1" stop-color="#ADBCF6" stop-opacity="0"/>
</linearGradient>
<linearGradient id="paint5_linear_3419_92332" x1="57.3922" y1="3.91359" x2="46.0507" y2="23.9467" gradientUnits="userSpaceOnUse">
<stop stop-color="#ADBCF6"/>
<stop offset="1" stop-color="#ADBCF6" stop-opacity="0"/>
</linearGradient>
</defs>
</svg>
