<svg width="50" height="50" viewBox="0 0 50 50" fill="none" xmlns="http://www.w3.org/2000/svg">
<path fill-rule="evenodd" clip-rule="evenodd" d="M13.889 11.1112C13.889 8.16432 15.0596 5.33814 17.1434 3.25439C19.2271 1.17064 22.0533 0 25.0002 0C27.947 0 30.7732 1.17064 32.857 3.25439C34.9407 5.33814 36.1114 8.16432 36.1114 11.1112C36.1114 14.0581 34.9407 16.8842 32.857 18.968C30.7732 21.0517 27.947 22.2224 25.0002 22.2224C22.0533 22.2224 19.2271 21.0517 17.1434 18.968C15.0596 16.8842 13.889 14.0581 13.889 11.1112ZM13.889 27.778C10.2054 27.778 6.67268 29.2413 4.06799 31.846C1.4633 34.4506 0 37.9834 0 41.667C0 43.8771 0.87798 45.9967 2.44079 47.5595C4.00361 49.1224 6.12324 50.0003 8.33339 50.0003H41.667C43.8771 50.0003 45.9967 49.1224 47.5595 47.5595C49.1224 45.9967 50.0003 43.8771 50.0003 41.667C50.0003 37.9834 48.537 34.4506 45.9324 31.846C43.3277 29.2413 39.7949 27.778 36.1114 27.778H13.889Z" fill="#2F3239"/>
</svg>
