<svg width="22" height="22" viewBox="0 0 22 22" fill="none" xmlns="http://www.w3.org/2000/svg">
<path d="M7.66667 7.66667V4.55556C7.66667 3.31111 7.66667 2.68889 7.90889 2.21333C8.12222 1.79444 8.46111 1.45556 8.88 1.24222C9.35556 1 9.97778 1 11.2222 1H17.4444C18.6889 1 19.3111 1 19.7867 1.24222C20.2048 1.45527 20.5447 1.79521 20.7578 2.21333C21 2.68889 21 3.31111 21 4.55556V10.7778C21 12.0222 21 12.6444 20.7578 13.12C20.5446 13.538 20.2047 13.8779 19.7867 14.0911C19.3111 14.3333 18.6889 14.3333 17.4478 14.3333H14.3333M7.66667 7.66667H4.55556C3.31111 7.66667 2.68889 7.66667 2.21333 7.90889C1.79517 8.12188 1.45521 8.46184 1.24222 8.88C1 9.35556 1 9.97778 1 11.2222V17.4444C1 18.6889 1 19.3111 1.24222 19.7867C1.45527 20.2048 1.79521 20.5447 2.21333 20.7578C2.68778 21 3.31 21 4.55222 21H10.7822C12.0233 21 12.6444 21 13.12 20.7578C13.5381 20.5447 13.8781 20.2048 14.0911 19.7867C14.3333 19.3111 14.3333 18.69 14.3333 17.4478V14.3333M7.66667 7.66667H10.7778C12.0222 7.66667 12.6444 7.66667 13.12 7.90889C13.5381 8.12194 13.8781 8.46188 14.0911 8.88C14.3333 9.35444 14.3333 9.97667 14.3333 11.2189V14.3333" stroke="url(#paint0_linear_330_6882)" stroke-width="2" stroke-linecap="round" stroke-linejoin="round"/>
<defs>
<linearGradient id="paint0_linear_330_6882" x1="0.999999" y1="21" x2="21.6178" y2="1.65854" gradientUnits="userSpaceOnUse">
<stop stop-color="#FF59D9"/>
<stop offset="1" stop-color="#4DB4F5"/>
</linearGradient>
</defs>
</svg>
