<svg width="16" height="15" viewBox="0 0 16 15" fill="none" xmlns="http://www.w3.org/2000/svg">
<path d="M14.5933 14.9824L12.5183 12.9074C11.9556 13.2825 11.349 13.5698 10.6986 13.7691C10.0482 13.9684 9.35933 14.068 8.63202 14.068C7.65898 14.068 6.74456 13.8833 5.88876 13.5137C5.03296 13.1442 4.28852 12.6432 3.65546 12.0106C3.0224 11.3775 2.52135 10.6331 2.1523 9.77727C1.78325 8.92146 1.59849 8.00704 1.59802 7.03401C1.59802 6.30716 1.69767 5.6183 1.89697 4.96742C2.09626 4.31654 2.38348 3.7102 2.75863 3.14842L0.666016 1.0551L1.66836 0.0527551L15.5957 13.9801L14.5933 14.9824ZM7.92862 12.626V11.2544C7.54175 11.2544 7.21045 11.1168 6.93471 10.8415C6.65898 10.5663 6.52135 10.2349 6.52182 9.84761V9.14421L3.1455 5.76789C3.11033 5.97891 3.07797 6.18993 3.04843 6.40095C3.01889 6.61197 3.00435 6.82299 3.00482 7.03401C3.00482 8.45253 3.47094 9.69521 4.40318 10.762C5.33542 11.8289 6.51056 12.4502 7.92862 12.626ZM14.5054 10.8851L13.4855 9.86519C13.7317 9.43143 13.9223 8.97727 14.0573 8.50271C14.1924 8.02815 14.2597 7.53858 14.2592 7.03401C14.2592 5.88512 13.9396 4.83588 13.3005 3.88629C12.6613 2.9367 11.8086 2.25088 10.7422 1.82884V2.1102C10.7422 2.49707 10.6044 2.82837 10.3286 3.10411C10.0529 3.37984 9.72182 3.51747 9.33542 3.517H7.92862V4.30833L4.7809 1.16061C5.34362 0.797188 5.94738 0.513014 6.59216 0.308089C7.23694 0.103165 7.91689 0.000468934 8.63202 0C9.60505 0 10.5195 0.18476 11.3753 0.55428C12.2311 0.9238 12.9755 1.42486 13.6086 2.05745C14.2416 2.69051 14.7429 3.43494 15.1124 4.29074C15.482 5.14655 15.6665 6.06097 15.666 7.03401C15.666 7.74913 15.5633 8.42908 15.3579 9.07387C15.1525 9.71865 14.8684 10.3224 14.5054 10.8851Z" fill="white"/>
</svg>
