<svg width="16" height="15" viewBox="0 0 16 15" fill="none" xmlns="http://www.w3.org/2000/svg">
<path d="M12.591 11.5425C12.396 10.9425 11.8335 10.5 11.166 10.5H10.416V8.25C10.416 8.05108 10.337 7.86032 10.1963 7.71967C10.0557 7.57901 9.86493 7.5 9.66602 7.5H5.16602V6H6.66602C6.86493 6 7.05569 5.92098 7.19635 5.78033C7.337 5.63968 7.41602 5.44891 7.41602 5.25V3.75H8.91602C9.31384 3.75 9.69537 3.59196 9.97668 3.31066C10.258 3.02935 10.416 2.64782 10.416 2.25V1.9425C11.3134 2.30427 12.1097 2.8781 12.7368 3.61487C13.364 4.35164 13.8032 5.22941 14.017 6.17303C14.2308 7.11665 14.2128 8.09803 13.9644 9.03315C13.7161 9.96827 13.2448 10.8293 12.591 11.5425ZM7.41602 13.4475C4.45352 13.08 2.16602 10.56 2.16602 7.5C2.16602 7.035 2.22602 6.585 2.32352 6.1575L5.91602 9.75V10.5C5.91602 10.8978 6.07405 11.2794 6.35536 11.5607C6.63666 11.842 7.01819 12 7.41602 12M8.16602 0C7.1811 0 6.20583 0.193993 5.29589 0.570903C4.38595 0.947813 3.55915 1.50026 2.86271 2.1967C1.45619 3.60322 0.666016 5.51087 0.666016 7.5C0.666016 9.48912 1.45619 11.3968 2.86271 12.8033C3.55915 13.4997 4.38595 14.0522 5.29589 14.4291C6.20583 14.806 7.1811 15 8.16602 15C10.1551 15 12.0628 14.2098 13.4693 12.8033C14.8758 11.3968 15.666 9.48912 15.666 7.5C15.666 6.51508 15.472 5.53981 15.0951 4.62987C14.7182 3.71993 14.1658 2.89314 13.4693 2.1967C12.7729 1.50026 11.9461 0.947813 11.0361 0.570903C10.1262 0.193993 9.15093 0 8.16602 0Z" fill="white"/>
</svg>
