<svg width="20" height="20" viewBox="0 0 20 20" fill="none" xmlns="http://www.w3.org/2000/svg">
<path d="M12.1853 15.5481L6.80665 12.6146C6.29036 13.1271 5.63389 13.4752 4.92002 13.6152C4.20614 13.7551 3.46681 13.6806 2.79524 13.4009C2.12367 13.1213 1.54991 12.6491 1.14632 12.0439C0.742719 11.4386 0.527344 10.7275 0.527344 10C0.527344 9.27254 0.742719 8.56136 1.14632 7.95612C1.54991 7.35089 2.12367 6.87869 2.79524 6.59906C3.46681 6.31943 4.20614 6.24489 4.92002 6.38483C5.63389 6.52477 6.29036 6.87294 6.80665 7.38543L12.1853 4.45193C12.0008 3.58644 12.134 2.68347 12.5606 1.90815C12.9872 1.13282 13.6786 0.536945 14.5084 0.229493C15.3382 -0.0779591 16.2509 -0.0764448 17.0797 0.233759C17.9085 0.543963 18.5979 1.14213 19.0219 1.91886C19.4459 2.6956 19.5761 3.59901 19.3888 4.46388C19.2014 5.32875 18.709 6.09729 18.0016 6.62895C17.2942 7.16061 16.4191 7.41987 15.5362 7.35932C14.6534 7.29877 13.8218 6.92245 13.1936 6.29918L7.815 9.23268C7.92215 9.73826 7.92215 10.2607 7.815 10.7663L13.1936 13.7008C13.8218 13.0776 14.6534 12.7012 15.5362 12.6407C16.4191 12.5801 17.2942 12.8394 18.0016 13.3711C18.709 13.9027 19.2014 14.6713 19.3888 15.5361C19.5761 16.401 19.4459 17.3044 19.0219 18.0811C18.5979 18.8579 17.9085 19.456 17.0797 19.7662C16.2509 20.0764 15.3382 20.078 14.5084 19.7705C13.6786 19.4631 12.9872 18.8672 12.5606 18.0919C12.134 17.3165 12.0008 16.4136 12.1853 15.5481Z" fill="url(#paint0_linear_298_5693)"/>
<defs>
<linearGradient id="paint0_linear_298_5693" x1="0.527343" y1="20" x2="21.044" y2="1.76873" gradientUnits="userSpaceOnUse">
<stop stop-color="#FF59D9"/>
<stop offset="1" stop-color="#4DB4F5"/>
</linearGradient>
</defs>
</svg>
