<svg width="21" height="20" viewBox="0 0 21 20" fill="none" xmlns="http://www.w3.org/2000/svg">
<path fill-rule="evenodd" clip-rule="evenodd" d="M16.2175 16.9423C18.2181 15.2928 19.4934 12.7953 19.4934 10C19.4934 5.03315 15.467 1.00671 10.5001 1.00671C5.53327 1.00671 1.50684 5.03315 1.50684 10C1.50684 12.7924 2.77948 15.2875 4.7764 16.9371V16.0398V16.0017V16.0016C4.77639 15.2841 4.77637 14.6905 4.82815 14.2126C4.88223 13.7134 4.99934 13.2597 5.28965 12.8602C5.4554 12.632 5.65604 12.4314 5.88418 12.2656C6.28375 11.9753 6.73747 11.8582 7.23665 11.8041C7.71452 11.7523 8.30816 11.7524 9.02568 11.7524H9.06378H11.9302H11.9683C12.6858 11.7524 13.2794 11.7523 13.7573 11.8041C14.2565 11.8582 14.7102 11.9753 15.1098 12.2656C15.3379 12.4314 15.5385 12.632 15.7043 12.8602C15.9946 13.2597 16.1117 13.7134 16.1658 14.2126C16.2176 14.6905 16.2176 15.2841 16.2175 16.0017V16.0398V16.9423ZM14.8428 17.8772V16.0398C14.8428 15.2745 14.8418 14.7558 14.799 14.3607C14.7576 13.9785 14.6838 13.7944 14.5921 13.6682C14.5111 13.5568 14.4131 13.4588 14.3017 13.3778C14.1755 13.2862 13.9914 13.2123 13.6092 13.1709C13.2142 13.1281 12.6954 13.1271 11.9302 13.1271H9.06378C8.29852 13.1271 7.7798 13.1281 7.38473 13.1709C7.00252 13.2123 6.8184 13.2862 6.69224 13.3778C6.58081 13.4588 6.48281 13.5568 6.40185 13.6682C6.31019 13.7944 6.23632 13.9785 6.19491 14.3607C6.15211 14.7558 6.15116 15.2745 6.15116 16.0398V17.8737C7.44005 18.5871 8.92266 18.9933 10.5001 18.9933C12.075 18.9933 13.5554 18.5885 14.8428 17.8772ZM10.497 6.32858C9.55772 6.32858 8.7963 7.09 8.7963 8.02926C8.7963 8.96852 9.55772 9.72994 10.497 9.72994C11.4362 9.72994 12.1977 8.96852 12.1977 8.02926C12.1977 7.09 11.4362 6.32858 10.497 6.32858ZM7.4963 8.02926C7.4963 6.37203 8.83975 5.02857 10.497 5.02857C12.1542 5.02857 13.4977 6.37203 13.4977 8.02926C13.4977 9.68649 12.1542 11.0299 10.497 11.0299C8.83975 11.0299 7.4963 9.68649 7.4963 8.02926Z" fill="white"/>
</svg>
