<svg width="21" height="21" viewBox="0 0 21 21" fill="none" xmlns="http://www.w3.org/2000/svg">
<g clip-path="url(#clip0_3900_36075)">
<g clip-path="url(#clip1_3900_36075)">
<path fill-rule="evenodd" clip-rule="evenodd" d="M17.4715 6.91735C17.9447 6.91735 18.3283 6.53374 18.3283 6.06053C18.3283 5.58732 17.9447 5.20371 17.4715 5.20371C16.9983 5.20371 16.6147 5.58732 16.6147 6.06053C16.6147 6.53374 16.9983 6.91735 17.4715 6.91735ZM3.37953 6.91739C3.85274 6.91739 4.23635 6.53378 4.23635 6.06057C4.23635 5.58736 3.85274 5.20375 3.37953 5.20375C2.90632 5.20375 2.52271 5.58736 2.52271 6.06057C2.52271 6.53378 2.90632 6.91739 3.37953 6.91739ZM10.4257 7.43114C11.3512 7.43114 12.1015 6.68086 12.1015 5.75534C12.1015 4.82982 11.3512 4.07954 10.4257 4.07954C9.50015 4.07954 8.74987 4.82982 8.74987 5.75534C8.74987 6.68086 9.50015 7.43114 10.4257 7.43114ZM6.03192 11.3673C5.77155 11.3673 5.56047 11.5784 5.56047 11.8387V16.9203H15.2907V11.8387C15.2907 11.5784 15.0796 11.3673 14.8192 11.3673H6.03192ZM10.4257 8.73114C12.0692 8.73114 13.4015 7.39883 13.4015 5.75534C13.4015 4.11185 12.0692 2.77954 10.4257 2.77954C8.78218 2.77954 7.44987 4.11185 7.44987 5.75534C7.44987 7.39883 8.78218 8.73114 10.4257 8.73114ZM19.6283 6.06053C19.6283 7.25171 18.6627 8.21735 17.4715 8.21735C16.2803 8.21735 15.3147 7.25171 15.3147 6.06053C15.3147 4.86935 16.2803 3.90371 17.4715 3.90371C18.6627 3.90371 19.6283 4.86935 19.6283 6.06053ZM5.53635 6.06057C5.53635 7.25175 4.57071 8.21739 3.37953 8.21739C2.18835 8.21739 1.22271 7.25175 1.22271 6.06057C1.22271 4.86939 2.18835 3.90375 3.37953 3.90375C4.57071 3.90375 5.53635 4.86939 5.53635 6.06057ZM4.26047 11.8387C4.26047 10.8604 5.05358 10.0673 6.03192 10.0673H14.8192C15.7976 10.0673 16.5907 10.8604 16.5907 11.8387V16.9203V18.2203H15.2907H5.56047H4.26047V16.9203V11.8387ZM17.8962 10.1091H16.754V8.80912H17.8962C19.2335 8.80912 20.3176 9.89324 20.3176 11.2306V14.6832V15.3332H19.6676H17.9189V14.0332H19.0176V11.2306C19.0176 10.6112 18.5156 10.1091 17.8962 10.1091ZM1.98164 11.2306C1.98164 10.6112 2.48373 10.1091 3.10309 10.1091H4.13477V8.80912H3.10309C1.76576 8.80912 0.681641 9.89324 0.681641 11.2306V14.6832V15.3332H1.33164H3.08048V14.0332H1.98164V11.2306Z" fill="#DD57AF"/>
</g>
</g>
<defs>
<clipPath id="clip0_3900_36075">
<rect width="20" height="20" fill="white" transform="translate(0.5 0.5)"/>
</clipPath>
<clipPath id="clip1_3900_36075">
<rect width="20" height="20" fill="white" transform="translate(0.5 0.5)"/>
</clipPath>
</defs>
</svg>
