<svg width="21" height="20" viewBox="0 0 21 20" fill="none" xmlns="http://www.w3.org/2000/svg">
<g clip-path="url(#clip0_3900_43990)">
<g clip-path="url(#clip1_3900_43990)">
<path d="M4.36628 8.99953H2.24586C1.30538 8.99953 0.542969 9.76194 0.542969 10.7024V14.0214H3.29645V11.2869C3.29645 10.368 3.71239 9.54619 4.36628 8.99953Z" fill="white"/>
<path d="M17.7038 14.0214H20.4572V10.7024C20.4572 9.7619 19.6948 8.99949 18.7543 8.99949H16.634C17.2879 9.54615 17.7038 10.368 17.7038 11.2869V14.0214Z" fill="white"/>
<path d="M12.9779 10.8612H14.7238C14.9589 10.8612 15.1495 11.0518 15.1495 11.2869V14.0214H12.9779V10.8612Z" fill="white"/>
<path d="M8.02224 10.8612V14.0214H5.85079V11.2869C5.85079 11.0518 6.04139 10.8612 6.27651 10.8612H8.02224Z" fill="white"/>
<path d="M17.2734 8.06853C18.4185 8.06853 19.3468 7.14026 19.3468 5.99518C19.3468 4.8501 18.4185 3.92183 17.2734 3.92183C16.1283 3.92183 15.2001 4.8501 15.2001 5.99518C15.2001 7.14026 16.1283 8.06853 17.2734 8.06853Z" fill="white"/>
<path d="M3.72679 8.06858C4.87187 8.06858 5.80014 7.1403 5.80014 5.99522C5.80014 4.85014 4.87187 3.92187 3.72679 3.92187C2.5817 3.92187 1.65343 4.85014 1.65343 5.99522C1.65343 7.1403 2.5817 8.06858 3.72679 8.06858Z" fill="white"/>
<path d="M10.5002 8.29964C12.0801 8.29964 13.3609 7.01889 13.3609 5.43901C13.3609 3.85912 12.0801 2.57837 10.5002 2.57837C8.92035 2.57837 7.6396 3.85912 7.6396 5.43901C7.6396 7.01889 8.92035 8.29964 10.5002 8.29964Z" fill="white"/>
<path d="M6.27653 9.58409C5.33605 9.58409 4.57364 10.3465 4.57364 11.287V17.4216H16.4267V11.287C16.4267 10.3465 15.6643 9.58409 14.7238 9.58409H6.27653Z" fill="white"/>
</g>
</g>
<defs>
<clipPath id="clip0_3900_43990">
<rect width="20" height="20" fill="white" transform="translate(0.5)"/>
</clipPath>
<clipPath id="clip1_3900_43990">
<rect width="20" height="20" fill="white" transform="translate(0.5)"/>
</clipPath>
</defs>
</svg>
