<svg width="21" height="20" viewBox="0 0 21 20" fill="none" xmlns="http://www.w3.org/2000/svg">
<g clip-path="url(#clip0_3900_30566)">
<path fill-rule="evenodd" clip-rule="evenodd" d="M2.64502 3.02783H3.29502H17.9558H18.6058V3.67783V14.8695V15.5195H17.9558H8.73405L8.24895 15.9136L5.46243 18.1777L4.40254 19.0389V17.6733V15.5195H3.29502H2.64502V14.8695V3.67783V3.02783ZM3.94502 4.32783V14.2195H5.05254H5.70254V14.8695V16.3076L7.42917 14.9047L8.09337 14.365L8.27248 14.2195H8.50326H17.3058V4.32783H3.94502ZM14.1649 8.19143H7.08585V6.89143H14.1649V8.19143ZM7.08585 11.3256H12.4972V10.0256H7.08585V11.3256Z" fill="white"/>
<circle cx="16.5" cy="4" r="4" fill="#BF0000"/>
</g>
<defs>
<clipPath id="clip0_3900_30566">
<rect width="20" height="20" fill="white" transform="translate(0.5)"/>
</clipPath>
</defs>
</svg>
