<svg width="20" height="21" viewBox="0 0 20 21" fill="none" xmlns="http://www.w3.org/2000/svg">
<path d="M15.6814 3.07197L15.4362 3.69387L15.6814 3.07197ZM10.8324 7.39164L11.3051 7.86434C11.4736 7.6958 11.5397 7.45027 11.4784 7.21992L10.8324 7.39164ZM6.59175 11.6322L6.42003 12.2783C6.65039 12.3395 6.89591 12.2735 7.06445 12.1049L6.59175 11.6322ZM2.27207 16.4813L2.89397 16.236L2.89396 16.236L2.27207 16.4813ZM2.43154 16.5127L1.95884 16.04L2.43154 16.5127ZM4.30231 14.642L4.77501 15.1147L4.30231 14.642ZM4.3187 18.5279L4.56393 17.906H4.56393L4.3187 18.5279ZM8.22517 17.7163L8.69787 18.189L8.22517 17.7163ZM9.16775 14.2083L8.69505 13.7356C8.52651 13.9041 8.46046 14.1497 8.52168 14.38L9.16775 14.2083ZM13.4084 9.96765L13.5801 9.32157C13.3498 9.26035 13.1042 9.32641 12.9357 9.49494L13.4084 9.96765ZM17.728 5.11861L17.1061 5.36383L17.1061 5.36383L17.728 5.11861ZM15.4362 3.69387C15.0339 3.53526 14.9647 3.03422 15.2402 2.75875L16.1856 3.70415C16.5604 3.32929 16.4596 2.66024 15.9266 2.45007L15.4362 3.69387ZM12.2476 4.35625C13.1088 3.49507 14.3688 3.27297 15.4362 3.69387L15.9266 2.45007C14.3817 1.84087 12.5533 2.15982 11.3022 3.41085L12.2476 4.35625ZM11.4784 7.21992C11.215 6.22897 11.4725 5.13136 12.2476 4.35625L11.3022 3.41085C10.1764 4.53667 9.80549 6.13065 10.1863 7.56335L11.4784 7.21992ZM7.06445 12.1049L11.3051 7.86434L10.3597 6.91894L6.11905 11.1595L7.06445 12.1049ZM3.55635 13.0475C4.33146 12.2724 5.42908 12.0149 6.42003 12.2783L6.76347 10.9862C5.33077 10.6054 3.73678 10.9763 2.61095 12.1021L3.55635 13.0475ZM2.89396 16.236C2.47307 15.1686 2.69517 13.9087 3.55635 13.0475L2.61095 12.1021C1.35992 13.3531 1.04097 15.1816 1.65017 16.7265L2.89396 16.236ZM1.95884 16.04C2.23432 15.7646 2.73536 15.8338 2.89397 16.236L1.65017 16.7265C1.86033 17.2595 2.52939 17.3603 2.90425 16.9854L1.95884 16.04ZM3.8296 14.1693L1.95884 16.04L2.90425 16.9854L4.77501 15.1147L3.8296 14.1693ZM5.62353 14.1693C5.12815 13.6739 4.32499 13.6739 3.8296 14.1693L4.77501 15.1147C4.74825 15.1414 4.70488 15.1414 4.67813 15.1147L5.62353 14.1693ZM6.63069 15.1764L5.62353 14.1693L4.67813 15.1147L5.68529 16.1218L6.63069 15.1764ZM6.63069 16.9704C7.12607 16.475 7.12607 15.6718 6.63069 15.1764L5.68529 16.1218C5.65854 16.0951 5.65854 16.0517 5.68529 16.025L6.63069 16.9704ZM4.75993 18.8411L6.63069 16.9704L5.68529 16.025L3.81453 17.8957L4.75993 18.8411ZM4.56393 17.906C4.96616 18.0646 5.0354 18.5657 4.75993 18.8411L3.81453 17.8957C3.43968 18.2706 3.5405 18.9396 4.07348 19.1498L4.56393 17.906ZM7.75247 17.2436C6.89129 18.1048 5.63133 18.3269 4.56393 17.906L4.07347 19.1498C5.6184 19.759 7.44684 19.4401 8.69787 18.189L7.75247 17.2436ZM8.52168 14.38C8.78504 15.3709 8.52756 16.4685 7.75247 17.2436L8.69787 18.189C9.82368 17.0632 10.1946 15.4693 9.81382 14.0366L8.52168 14.38ZM12.9357 9.49494L8.69505 13.7356L9.64045 14.681L13.8811 10.4403L12.9357 9.49494ZM16.4437 8.55237C15.6686 9.32747 14.5711 9.58494 13.5801 9.32157L13.2367 10.6137C14.6694 10.9945 16.2633 10.6236 17.3891 9.49777L16.4437 8.55237ZM17.1061 5.36383C17.527 6.43123 17.3049 7.6912 16.4437 8.55237L17.3891 9.49777C18.6402 8.24674 18.9591 6.4183 18.3499 4.87338L17.1061 5.36383ZM18.0412 5.55983C17.7658 5.83531 17.2647 5.76605 17.1061 5.36383L18.3499 4.87338C18.1398 4.34041 17.4707 4.23957 17.0958 4.61443L18.0412 5.55983ZM16.1705 7.43059L18.0412 5.55983L17.0958 4.61443L15.2251 6.48519L16.1705 7.43059ZM14.3766 7.43059C14.8719 7.92597 15.6751 7.92597 16.1705 7.43059L15.2251 6.48519C15.2518 6.45844 15.2952 6.45844 15.322 6.48519L14.3766 7.43059ZM13.3694 6.42344L14.3766 7.43059L15.322 6.48519L14.3148 5.47803L13.3694 6.42344ZM13.3694 4.62951C12.874 5.12489 12.874 5.92806 13.3694 6.42344L14.3148 5.47803C14.3416 5.50479 14.3416 5.54816 14.3148 5.57491L13.3694 4.62951ZM15.2402 2.75875L13.3694 4.62951L14.3148 5.57491L16.1856 3.70415L15.2402 2.75875Z" fill="white"/>
<path d="M12.9196 10.8L16.5589 14.4394C17.1056 14.9861 17.1056 15.8726 16.5589 16.4193L15.9355 17.0427C15.3887 17.5894 14.5023 17.5895 13.9556 17.0427L10.3838 13.4709" stroke="white" stroke-width="1.37476" stroke-linecap="round" stroke-linejoin="round"/>
<path d="M8.66549 9.2919L4.13184 4.7583" stroke="white" stroke-width="1.37476" stroke-linecap="round" stroke-linejoin="round"/>
<path d="M4.52675 5.59273L4.9907 5.12003C5.09992 5.00876 5.13452 4.84417 5.07937 4.69834L4.6078 3.45145C4.53295 3.25355 4.39725 3.08448 4.22023 2.96857L3.31728 2.37737C3.15881 2.27361 2.94928 2.29524 2.81533 2.42918L1.86026 3.38426C1.72576 3.51876 1.70458 3.72937 1.80961 3.88796L2.41502 4.8021C2.52473 4.96776 2.6813 5.09698 2.86475 5.17327L4.08767 5.68187C4.2385 5.7446 4.41232 5.70931 4.52675 5.59273Z" fill="white"/>
</svg>
