<svg width="20" height="21" viewBox="0 0 20 21" fill="none" xmlns="http://www.w3.org/2000/svg">
<path d="M15.7128 3.06142C15.7625 3.01173 15.7467 2.92772 15.6813 2.90195C14.3752 2.38689 12.831 2.65742 11.7749 3.71353C10.8244 4.66399 10.5102 6.00979 10.8323 7.22161L6.59169 11.4622C5.37986 11.1401 4.03405 11.4543 3.08358 12.4048C2.02748 13.4609 1.75695 15.0051 2.272 16.3112C2.29778 16.3766 2.38179 16.3924 2.43148 16.3427L4.30224 14.472C4.53655 14.2376 4.91645 14.2376 5.15077 14.472L6.15792 15.4791C6.39224 15.7134 6.39224 16.0933 6.15792 16.3276L4.28716 18.1984C4.23747 18.2481 4.25326 18.3321 4.31864 18.3579C5.6248 18.8729 7.169 18.6024 8.2251 17.5463C9.17555 16.5958 9.48974 15.2501 9.16768 14.0383L13.4083 9.79762C14.6201 10.1197 15.9659 9.8055 16.9164 8.85505C17.9725 7.79894 18.243 6.25474 17.728 4.94858C17.7022 4.88321 17.6182 4.86742 17.5685 4.91711L15.6977 6.78787C15.4634 7.02218 15.0835 7.02218 14.8492 6.78787L13.842 5.78071C13.6077 5.54639 13.6077 5.1665 13.842 4.93218L15.7128 3.06142Z" fill="white"/>
<path d="M16.5617 14.2692L13.5227 11.2212L10.8822 13.7517L13.9554 16.861C14.5012 17.4131 15.3921 17.4157 15.9411 16.8667L16.5602 16.2476C17.1064 15.7015 17.107 14.8162 16.5617 14.2692Z" fill="white"/>
<path d="M8.66592 9.12174L4.13226 4.58813" stroke="white" stroke-width="1.37476" stroke-linecap="round" stroke-linejoin="round"/>
<path d="M4.52687 5.42256L4.99083 4.94986C5.10004 4.83859 5.13464 4.67401 5.07949 4.52817L4.60792 3.28129C4.53307 3.08338 4.39738 2.91431 4.22035 2.79841L3.31741 2.20721C3.15893 2.10345 2.9494 2.12507 2.81545 2.25902L1.86038 3.21409C1.72588 3.34859 1.7047 3.55921 1.80973 3.7178L2.41514 4.63194C2.52485 4.79759 2.68142 4.92681 2.86487 5.00311L4.0878 5.51171C4.23863 5.57444 4.41244 5.53915 4.52687 5.42256Z" fill="white"/>
</svg>
