<svg width="20" height="21" viewBox="0 0 20 21" fill="none" xmlns="http://www.w3.org/2000/svg">
<g clip-path="url(#clip0_2636_15000)">
<path d="M8.33714 5.12895C8.95986 3.6265 9.27122 2.87528 9.76657 2.75638C9.91999 2.71955 10.08 2.71955 10.2334 2.75638C10.7287 2.87528 11.0401 3.6265 11.6628 5.12895L12.5662 7.30864L14.9184 7.49428C16.5397 7.62224 17.3504 7.68622 17.6166 8.12058C17.699 8.25512 17.7484 8.40725 17.7608 8.56454C17.8008 9.07238 17.1826 9.60064 15.9461 10.6572L14.1523 12.1899L14.7026 14.4843C15.0819 16.0659 15.2715 16.8567 14.9407 17.244C14.8382 17.364 14.7088 17.458 14.563 17.5184C14.0924 17.7133 13.3989 17.2886 12.012 16.4391L9.99997 15.2067L7.98791 16.4391C6.60099 17.2886 5.90754 17.7133 5.43691 17.5184C5.29114 17.458 5.16173 17.364 5.05926 17.244C4.7284 16.8567 4.91806 16.0659 5.29739 14.4844L5.84769 12.1899L4.05386 10.6572C2.81738 9.60065 2.19914 9.07238 2.23913 8.56454C2.25151 8.40725 2.30094 8.25512 2.38338 8.12058C2.64953 7.68622 3.4602 7.62224 5.08155 7.49428L7.43372 7.30864L8.33714 5.12895Z" fill="white"/>
<path d="M4.66078 3.5459L5.35793 4.35646" stroke="white" stroke-width="1.37476" stroke-linecap="round" stroke-linejoin="round"/>
<path d="M15.6331 3.5459L14.936 4.35646" stroke="white" stroke-width="1.37476" stroke-linecap="round" stroke-linejoin="round"/>
<path d="M2.89728 13.2412L1.90812 13.721" stroke="white" stroke-width="1.37476" stroke-linecap="round" stroke-linejoin="round"/>
<path d="M17.3009 13.2412L18.2901 13.721" stroke="white" stroke-width="1.37476" stroke-linecap="round" stroke-linejoin="round"/>
<path d="M9.95636 18.0439L9.95636 19.086" stroke="white" stroke-width="1.37476" stroke-linecap="round" stroke-linejoin="round"/>
</g>
<defs>
<clipPath id="clip0_2636_15000">
<rect width="20" height="20" fill="white" transform="translate(0 0.629883)"/>
</clipPath>
</defs>
</svg>
