<svg width="20" height="21" viewBox="0 0 20 21" fill="none" xmlns="http://www.w3.org/2000/svg">
<path fill-rule="evenodd" clip-rule="evenodd" d="M2.91428 4.86448C4.69615 3.08261 7.58513 3.08261 9.367 4.86448L9.99984 5.49731L10.6327 4.8645C12.4145 3.08263 15.3035 3.08263 17.0854 4.8645C18.8672 6.64637 18.8672 9.53535 17.0854 11.3172L11.1456 17.257C10.5128 17.8898 9.48686 17.8898 8.85407 17.257L2.91428 11.3172C1.13241 9.53533 1.13241 6.64635 2.91428 4.86448ZM14.1361 7.13586C14.1973 7.13132 14.4878 7.21669 14.67 7.5912C14.8217 7.90294 14.8905 8.44587 14.4186 9.20138C14.2175 9.52336 14.3155 9.94741 14.6375 10.1485C14.9595 10.3496 15.3835 10.2516 15.5846 9.92966C16.2693 8.83349 16.2946 7.78808 15.9063 6.98979C15.5484 6.25426 14.8025 5.70789 14.0344 5.76487C13.6558 5.79295 13.3716 6.12263 13.3997 6.50121C13.4278 6.8798 13.7575 7.16395 14.1361 7.13586Z" fill="white"/>
</svg>
