<svg width="20" height="21" viewBox="0 0 20 21" fill="none" xmlns="http://www.w3.org/2000/svg">
<path d="M10.7905 2.68846C10.3086 2.4017 9.69165 2.4017 9.20968 2.68846C7.60662 3.64225 5.37146 4.21835 3.43794 4.39173C2.7824 4.45052 2.24805 4.98102 2.24805 5.63919V9.77465C2.24805 12.3713 3.50152 14.8082 5.61386 16.3182L8.26747 18.2152C9.30377 18.9561 10.6964 18.9561 11.7327 18.2152L14.3863 16.3182C16.4987 14.8082 17.7522 12.3713 17.7522 9.77465V5.63919C17.7522 4.98102 17.2178 4.45052 16.5623 4.39173C14.6287 4.21835 12.3936 3.64225 10.7905 2.68846Z" stroke="white" stroke-width="1.37476" stroke-linecap="round" stroke-linejoin="round"/>
<path d="M10.001 7.01733V13.1278" stroke="white" stroke-width="1.37476" stroke-linecap="round" stroke-linejoin="round"/>
<path d="M13.0557 10.0725L6.94523 10.0725" stroke="white" stroke-width="1.37476" stroke-linecap="round" stroke-linejoin="round"/>
</svg>
