<svg width="20" height="21" viewBox="0 0 20 21" fill="none" xmlns="http://www.w3.org/2000/svg">
<path fill-rule="evenodd" clip-rule="evenodd" d="M13.1053 14.5964H7.31718V16.0201C7.31718 17.1247 8.21261 18.0201 9.31718 18.0201H11.1053C12.2099 18.0201 13.1053 17.1247 13.1053 16.0201V14.5964ZM6.41595 13.2216C5.38705 12.228 4.74719 10.8341 4.74719 9.29074C4.74719 6.27301 7.19354 3.82666 10.2113 3.82666C13.229 3.82666 15.6754 6.27301 15.6754 9.29074C15.6754 10.8341 15.0355 12.228 14.0066 13.2216H10.8761V10.3199H11.5366C11.9163 10.3199 12.224 10.0122 12.224 9.63256C12.224 9.25293 11.9163 8.94518 11.5366 8.94518H10.1887H8.84053C8.4609 8.94518 8.15315 9.25293 8.15315 9.63255C8.15315 10.0122 8.4609 10.3199 8.84053 10.3199H9.50134V13.2216H6.41595Z" fill="white"/>
<path d="M17.8254 3.82665L16.3683 4.65306" stroke="white" stroke-width="1.37476" stroke-linecap="round" stroke-linejoin="round"/>
<path d="M19.2017 9.21945L17.7448 9.21945" stroke="white" stroke-width="1.37476" stroke-linecap="round" stroke-linejoin="round"/>
<path d="M16.3683 13.9089L17.8253 14.7353" stroke="white" stroke-width="1.37476" stroke-linecap="round" stroke-linejoin="round"/>
<path d="M2.2745 3.82665L3.73156 4.65306" stroke="white" stroke-width="1.37476" stroke-linecap="round" stroke-linejoin="round"/>
<path d="M0.898118 9.21945L2.35508 9.21945" stroke="white" stroke-width="1.37476" stroke-linecap="round" stroke-linejoin="round"/>
<path d="M3.7316 13.9089L2.27455 14.7353" stroke="white" stroke-width="1.37476" stroke-linecap="round" stroke-linejoin="round"/>
</svg>
