<svg width="20" height="21" viewBox="0 0 20 21" fill="none" xmlns="http://www.w3.org/2000/svg">
<path d="M13.1052 14.0965C14.6487 13.1309 15.6752 11.4158 15.6752 9.46091C15.6752 6.44318 13.2289 3.99683 10.2112 3.99683C7.19342 3.99683 4.74707 6.44318 4.74707 9.46091C4.74707 11.4157 5.77362 13.1308 7.31706 14.0965V16.1903C7.31706 17.2949 8.21249 18.1903 9.31706 18.1903H11.1052C12.2098 18.1903 13.1052 17.2949 13.1052 16.1903V14.0965Z" stroke="white" stroke-width="1.3"/>
<path d="M7.18848 14.0791H13.2333" stroke="white" stroke-width="1.37476" stroke-linecap="round" stroke-linejoin="round"/>
<path d="M10.1885 13.9968V9.80273" stroke="white" stroke-width="1.37476" stroke-linecap="round" stroke-linejoin="round"/>
<path d="M8.84004 9.80273L11.5361 9.80273" stroke="white" stroke-width="1.37476" stroke-linecap="round" stroke-linejoin="round"/>
<path d="M17.8253 3.99682L16.3682 4.82322" stroke="white" stroke-width="1.37476" stroke-linecap="round" stroke-linejoin="round"/>
<path d="M19.2022 9.38962L17.7453 9.38962" stroke="white" stroke-width="1.37476" stroke-linecap="round" stroke-linejoin="round"/>
<path d="M16.369 14.0791L17.8261 14.9055" stroke="white" stroke-width="1.37476" stroke-linecap="round" stroke-linejoin="round"/>
<path d="M2.2753 3.99682L3.73235 4.82322" stroke="white" stroke-width="1.37476" stroke-linecap="round" stroke-linejoin="round"/>
<path d="M0.898362 9.38962L2.35532 9.38962" stroke="white" stroke-width="1.37476" stroke-linecap="round" stroke-linejoin="round"/>
<path d="M3.73154 14.0791L2.27449 14.9055" stroke="white" stroke-width="1.37476" stroke-linecap="round" stroke-linejoin="round"/>
</svg>
