<svg width="137" height="107" viewBox="0 0 137 107" fill="none" xmlns="http://www.w3.org/2000/svg">
<path d="M129.457 9.80652C119.767 5.23522 109.275 1.91734 98.3465 0.000339148C98.2506 -0.00276199 98.1553 0.0154354 98.0672 0.053652C97.9791 0.0918687 97.9003 0.149177 97.8364 0.221533C96.525 2.65465 94.9949 5.82506 93.9749 8.25818C82.383 6.48864 70.5944 6.48864 59.0025 8.25818C57.9825 5.75133 56.4525 2.65465 55.0681 0.221533C54.9953 0.0740714 54.7767 0.000339148 54.5581 0.000339148C43.6292 1.91734 33.2104 5.23522 23.4473 9.80652C23.3744 9.80652 23.3016 9.88025 23.2287 9.95398C3.41101 39.9624 -2.05343 69.1597 0.642356 98.0622C0.642356 98.2096 0.715215 98.3571 0.860933 98.4308C13.9756 108.163 26.5802 114.062 39.0391 117.969C39.2577 118.043 39.4763 117.969 39.5491 117.822C42.4635 113.767 45.0864 109.49 47.3451 104.993C47.4908 104.698 47.3451 104.403 47.0536 104.329C42.9007 102.707 38.9663 100.79 35.1047 98.5783C34.8133 98.4308 34.8133 97.9884 35.0319 97.7673C35.8333 97.1774 36.6348 96.5138 37.4362 95.924C37.5819 95.7765 37.8005 95.7765 37.9462 95.8503C63.0098 107.426 90.0405 107.426 114.813 95.8503C114.958 95.7765 115.177 95.7765 115.323 95.924C116.124 96.5876 116.926 97.1774 117.727 97.841C118.018 98.0622 118.018 98.5046 117.654 98.652C113.865 100.938 109.858 102.781 105.705 104.403C105.414 104.477 105.341 104.845 105.414 105.067C107.745 109.564 110.368 113.841 113.21 117.896C113.428 117.969 113.647 118.043 113.865 117.969C126.397 114.062 139.002 108.163 152.117 98.4308C152.262 98.3571 152.335 98.2096 152.335 98.0622C155.541 64.6622 147.016 35.686 129.749 9.95398C129.676 9.88025 129.603 9.80652 129.457 9.80652ZM51.1337 80.4405C43.6293 80.4405 37.3634 73.4361 37.3634 64.8096C37.3634 56.1831 43.4835 49.1787 51.1337 49.1787C58.8568 49.1787 64.977 56.2569 64.9041 64.8096C64.9041 73.4361 58.784 80.4405 51.1337 80.4405ZM101.917 80.4405C94.4121 80.4405 88.1462 73.4361 88.1462 64.8096C88.1462 56.1831 94.2663 49.1787 101.917 49.1787C109.64 49.1787 115.76 56.2569 115.687 64.8096C115.687 73.4361 109.64 80.4405 101.917 80.4405Z" fill="white" fill-opacity="0.05"/>
</svg>
