<svg width="133" height="110" viewBox="0 0 133 110" fill="none" xmlns="http://www.w3.org/2000/svg">
<path d="M90.9811 0.0101504C97.0011 -0.0129506 103.021 0.0475538 109.039 0.191645L110.64 0.249393C112.488 0.31539 114.311 0.397887 116.514 0.496884C125.291 0.90937 131.28 2.29532 136.535 4.333C141.98 6.42843 146.567 9.26634 151.154 13.8532C155.347 17.9748 158.593 22.9604 160.665 28.4634C162.703 33.7185 164.089 39.716 164.501 48.4938C164.6 50.6882 164.683 52.5196 164.749 54.3676L164.798 55.968C164.945 61.9836 165.008 68.001 164.988 74.0184L164.996 80.1727V90.9798C165.017 96.9999 164.953 103.02 164.807 109.038L164.757 110.639C164.691 112.487 164.609 114.31 164.51 116.513C164.097 125.29 162.695 131.28 160.665 136.535C158.6 142.044 155.353 147.033 151.154 151.153C147.028 155.347 142.04 158.592 136.535 160.665C131.28 162.703 125.291 164.089 116.514 164.501C114.311 164.6 112.488 164.683 110.64 164.749L109.039 164.798C103.021 164.945 97.0011 165.008 90.9811 164.988L84.8269 164.996H74.0282C68.0082 165.017 61.9882 164.953 55.9699 164.807L54.3695 164.757C52.4111 164.686 50.4532 164.604 48.4958 164.51C39.7182 164.097 33.729 162.695 28.4658 160.665C22.9607 158.597 17.9743 155.351 13.8558 151.153C9.65714 147.031 6.40828 142.042 4.33579 136.535C2.29814 131.28 0.912213 125.29 0.499734 116.513C0.407858 114.555 0.325361 112.597 0.252247 110.639L0.211 109.038C0.0589076 103.02 -0.00984626 97 0.00476001 90.9798V74.0184C-0.0182643 68.001 0.0422391 61.9837 0.186251 55.968L0.243998 54.3676C0.309995 52.5196 0.39249 50.6882 0.491485 48.4938C0.903964 39.7078 2.28989 33.7268 4.32754 28.4634C6.40126 22.9577 9.65647 17.9735 13.864 13.8614C17.9797 9.66028 22.963 6.40841 28.4658 4.333C33.729 2.29532 39.71 0.90937 48.4958 0.496884L54.3695 0.249393L55.9699 0.208145C61.9853 0.0561259 68.0026 -0.0126291 74.02 0.0019013L90.9811 0.0101504ZM82.5005 41.2587C77.0352 41.1814 71.6091 42.1912 66.5374 44.2292C61.4657 46.2672 56.8497 49.293 52.9575 53.1305C49.0653 56.9681 45.9747 61.541 43.8652 66.5834C41.7556 71.6259 40.6693 77.0373 40.6693 82.5032C40.6693 87.9692 41.7556 93.3806 43.8652 98.423C45.9747 103.465 49.0653 108.038 52.9575 111.876C56.8497 115.713 61.4657 118.739 66.5374 120.777C71.6091 122.815 77.0352 123.825 82.5005 123.748C93.4401 123.748 103.932 119.402 111.667 111.666C119.403 103.931 123.748 93.4389 123.748 82.4991C123.748 71.5593 119.403 61.0675 111.667 53.3319C103.932 45.5963 93.4401 41.2587 82.5005 41.2587ZM82.5005 57.7582C85.788 57.6976 89.0547 58.2927 92.1096 59.5088C95.1645 60.7249 97.9465 62.5376 100.293 64.8409C102.64 67.1443 104.504 69.8921 105.776 72.924C107.049 75.9558 107.705 79.2109 107.705 82.499C107.706 85.7871 107.051 89.0424 105.779 92.0747C104.508 95.107 102.645 97.8555 100.299 100.16C97.9532 102.464 95.1718 104.277 92.1172 105.494C89.0627 106.712 85.7963 107.308 82.5088 107.248C75.945 107.248 69.6501 104.641 65.0088 99.9994C60.3675 95.358 57.76 89.063 57.76 82.4991C57.76 75.9352 60.3675 69.6402 65.0088 64.9988C69.6501 60.3574 75.945 57.7499 82.5088 57.7499L82.5005 57.7582ZM125.811 28.8842C123.149 28.9907 120.632 30.1229 118.787 32.0436C116.942 33.9643 115.911 36.5245 115.911 39.1881C115.911 41.8516 116.942 44.4119 118.787 46.3326C120.632 48.2533 123.149 49.3854 125.811 49.492C128.546 49.492 131.169 48.4055 133.102 46.4716C135.036 44.5377 136.123 41.9148 136.123 39.1798C136.123 36.4449 135.036 33.8219 133.102 31.888C131.169 29.9541 128.546 28.8677 125.811 28.8677V28.8842Z" fill="white" fill-opacity="0.05"/>
</svg>
