<svg width="141" height="130" viewBox="0 0 141 130" fill="none" xmlns="http://www.w3.org/2000/svg">
<path d="M177 66.4896V66.6983C177 70.4769 175.914 74.0049 174.041 76.9901L174.09 76.9066C172.216 79.9452 169.536 82.4046 166.348 84.0114L166.236 84.0601C166.988 86.8644 167.42 90.0793 167.42 93.4055V93.5308C167.369 103.946 163.624 113.999 156.851 121.915L156.9 121.852C149.335 130.893 139.641 137.914 128.689 142.283L128.209 142.45C116.826 147.224 103.598 150 89.7149 150L88.6497 149.993H88.7054L87.6889 150C73.8272 150 60.6199 147.224 48.5823 142.199L49.2507 142.45C38.1748 138.105 28.3604 131.063 20.6987 121.964L20.6082 121.852C13.8654 113.953 10.1408 103.921 10.0953 93.5377V93.489C10.0953 90.2185 10.4851 87.0314 11.2162 83.9836L11.1605 84.2619C7.8707 82.6591 5.08612 80.1817 3.11218 77.1015L3.06345 77.0249C1.05271 73.8845 -0.0107742 70.2319 8.22966e-05 66.5035C8.22966e-05 61.0966 2.18621 56.1978 5.72997 52.6489C7.48879 50.8203 9.59935 49.3661 11.9348 48.3735C14.2703 47.381 16.7824 46.8707 19.3202 46.8732H19.6683H19.6474H19.9189C25.4817 46.8732 30.4945 49.26 33.9756 53.0594L33.9895 53.0733C48.9597 42.8249 66.6415 37.2586 84.7857 37.0824H84.8414L96.3012 -14.3418C96.5004 -15.195 97.0282 -15.9351 97.7702 -16.4016L97.7841 -16.4085C98.156 -16.6699 98.5793 -16.8491 99.0259 -16.9343C99.4724 -17.0195 99.932 -17.0087 100.374 -16.9026L100.353 -16.9095L136.793 -8.91408C138.005 -11.3705 139.822 -13.3606 142.064 -14.7454L142.126 -14.7802C144.347 -16.1719 147.049 -17 149.945 -17C154.018 -17 157.715 -15.3647 160.395 -12.7065C163.076 -10.1388 164.74 -6.52727 164.74 -2.52606V-2.27555V-2.28947V-2.08071C164.74 1.94137 163.076 5.57378 160.395 8.16238L160.388 8.16934C159.017 9.54903 157.385 10.6432 155.588 11.3885C153.79 12.1338 151.863 12.5155 149.917 12.5115C146.011 12.515 142.264 10.9711 139.495 8.21805C138.133 6.89784 137.051 5.31747 136.313 3.57094C135.576 1.82441 135.197 -0.0526104 135.199 -1.9485V-2.21292V-2.19901L102.212 -9.50556L91.9428 37.0755C111.068 37.2146 128.794 43.0947 143.512 53.0803L143.185 52.8715C145.012 50.9655 147.208 49.4494 149.638 48.4149C152.068 47.3803 154.683 46.8488 157.325 46.8523C162.755 46.8523 167.671 49.0582 171.228 52.628C174.772 56.0795 176.972 60.9018 176.972 66.2321V66.5035V66.4896H177ZM41.3138 86.1268V86.3495C41.3138 90.3577 42.9568 93.9831 45.6094 96.5856C46.9249 97.9606 48.5059 99.0545 50.2567 99.8009C52.0075 100.547 53.8917 100.931 55.7951 100.928H56.0458H56.0318C59.96 100.924 63.7263 99.3628 66.5039 96.5866C69.2816 93.8103 70.8437 90.046 70.8474 86.1199V85.8833C70.8474 81.882 69.1834 78.2705 66.503 75.7097L66.496 75.7028C65.1614 74.341 63.5679 73.2597 61.8091 72.5223C60.0504 71.785 58.1618 71.4066 56.2546 71.4093H56.0179H56.0318C52.1397 71.442 48.4161 73.0014 45.6632 75.7516C42.9103 78.5018 41.3483 82.2227 41.3138 86.1129V86.1268ZM121.302 121.17C121.647 120.837 121.922 120.439 122.109 119.997C122.296 119.556 122.393 119.082 122.393 118.603C122.393 118.123 122.296 117.649 122.109 117.208C121.922 116.767 121.647 116.368 121.302 116.035C120.993 115.72 120.623 115.471 120.215 115.301C119.807 115.132 119.37 115.045 118.928 115.047H118.831H118.782C117.849 115.046 116.951 115.399 116.269 116.035C112.969 119.107 108.89 121.215 104.475 122.131L104.315 122.159C93.7923 124.825 82.7666 124.791 72.2607 122.061L72.7063 122.159C68.221 121.26 64.0731 119.136 60.7244 116.021L60.7383 116.035C60.0571 115.398 59.1581 115.044 58.2249 115.047H58.0926C57.6511 115.046 57.2138 115.133 56.8062 115.302C56.3986 115.472 56.0289 115.721 55.7185 116.035C55.369 116.34 55.0888 116.717 54.8966 117.139C54.7045 117.562 54.6049 118.02 54.6046 118.484V118.582C54.6046 119.598 55.0293 120.516 55.7185 121.17C58.9837 124.245 62.915 126.524 67.2062 127.83L67.415 127.885C71.2325 129.271 75.1894 130.237 79.216 130.766L79.5153 130.801C82.6065 131.098 85.6003 131.247 88.4966 131.247C91.3928 131.247 94.3866 131.098 97.4778 130.801C101.745 130.251 105.939 129.231 109.982 127.76L109.578 127.892C113.959 126.595 117.976 124.294 121.309 121.17L121.295 121.184L121.302 121.17ZM121.01 100.935H121.247C125.25 100.935 128.863 99.2716 131.425 96.5926L131.432 96.5856C134.085 93.9831 135.728 90.3577 135.728 86.3495V86.1129V86.1268C135.695 82.2366 134.135 78.515 131.384 75.7635C128.632 73.012 124.909 71.4508 121.017 71.4163H120.787C116.777 71.4163 113.15 73.0585 110.546 75.7097C109.17 77.0245 108.076 78.6047 107.329 80.3546C106.582 82.1045 106.199 83.9878 106.201 85.8902V86.1407V86.1268C106.205 90.053 107.767 93.8173 110.545 96.5935C113.323 99.3698 117.089 100.931 121.017 100.935H121.01Z" fill="white" fill-opacity="0.05"/>
</svg>
