<svg width="144" height="110" viewBox="0 0 144 110" fill="none" xmlns="http://www.w3.org/2000/svg">
<path d="M182 16.7382C175.186 19.6104 167.961 21.4972 160.562 22.3362C168.358 17.8879 174.19 10.8913 176.973 2.64969C169.652 6.80139 161.625 9.71098 153.268 11.2849C147.648 5.5557 140.2 1.75608 132.08 0.47672C123.96 -0.802636 115.624 0.509953 108.368 4.21043C101.112 7.9109 95.3427 13.7919 91.9564 20.9392C88.57 28.0865 87.7567 36.0996 89.6429 43.7328C74.7941 43.0249 60.2676 39.3491 47.0066 32.944C33.7457 26.539 22.0468 17.5479 12.6696 6.55467C9.3508 11.9863 7.60674 18.1609 7.61607 24.4461C7.61607 36.7821 14.2143 47.6803 24.2232 54.061C18.2948 53.8828 12.4968 52.3573 7.3125 49.6115V50.0454C7.31223 58.2627 10.2949 66.227 15.7547 72.5877C21.2145 78.9484 28.8153 83.3138 37.2679 84.9435C31.7647 86.3661 25.9937 86.5756 20.3929 85.5561C22.7761 92.6292 27.4215 98.8149 33.6785 103.247C39.9355 107.679 47.4907 110.134 55.2857 110.271C47.5389 116.068 38.6686 120.354 29.1822 122.882C19.6958 125.41 9.77936 126.132 0 125.006C17.0689 135.465 36.9384 141.018 57.2321 141C125.929 141 163.482 86.7812 163.482 39.7598C163.482 38.2284 163.446 36.68 163.375 35.1572C170.682 30.1237 176.989 23.8809 182 16.7382Z" fill="white" fill-opacity="0.05"/>
</svg>
