<svg width="11" height="6" viewBox="0 0 11 6" fill="none" xmlns="http://www.w3.org/2000/svg">
<path d="M10.1139 0.229439C9.97289 0.0825296 9.7817 4.82802e-08 9.58235 6.57071e-08C9.383 8.3134e-08 9.19181 0.0825296 9.05083 0.229439L5.32945 4.10846L1.60806 0.22944C1.46627 0.0866936 1.27636 0.00770743 1.07925 0.00949273C0.882128 0.0112785 0.693569 0.0936927 0.55418 0.238986C0.414791 0.384279 0.335726 0.580826 0.334013 0.786294C0.332301 0.991763 0.408078 1.18971 0.545023 1.33751L4.79793 5.77056C4.93891 5.91747 5.1301 6 5.32945 6C5.5288 6 5.71998 5.91747 5.86097 5.77056L10.1139 1.33751C10.2548 1.19055 10.334 0.991266 10.334 0.783473C10.334 0.57568 10.2548 0.376394 10.1139 0.229439Z" fill="#6A7179"/>
</svg>
