<svg width="15" height="15" viewBox="0 0 15 15" fill="none" xmlns="http://www.w3.org/2000/svg">
<path d="M4.79878 6.81818H10.201V4.77273C10.201 4.01989 9.93727 3.37713 9.4097 2.84446C8.88214 2.31179 8.24554 2.04545 7.49992 2.04545C6.75429 2.04545 6.11769 2.31179 5.59013 2.84446C5.06256 3.37713 4.79878 4.01989 4.79878 4.77273V6.81818ZM13.5775 7.84091V13.9773C13.5775 14.2614 13.479 14.5028 13.282 14.7017C13.0851 14.9006 12.8459 15 12.5645 15H2.43529C2.15392 15 1.91476 14.9006 1.7178 14.7017C1.52084 14.5028 1.42236 14.2614 1.42236 13.9773V7.84091C1.42236 7.55682 1.52084 7.31534 1.7178 7.11648C1.91476 6.91761 2.15392 6.81818 2.43529 6.81818H2.77293V4.77273C2.77293 3.46591 3.23719 2.34375 4.1657 1.40625C5.09422 0.46875 6.20562 0 7.49992 0C8.79421 0 9.90561 0.46875 10.8341 1.40625C11.7626 2.34375 12.2269 3.46591 12.2269 4.77273V6.81818H12.5645C12.8459 6.81818 13.0851 6.91761 13.282 7.11648C13.479 7.31534 13.5775 7.55682 13.5775 7.84091Z" fill="#24CC35"/>
</svg>
