<svg width="16" height="14" viewBox="0 0 16 14" fill="none" xmlns="http://www.w3.org/2000/svg">
<path fill-rule="evenodd" clip-rule="evenodd" d="M3.12872 1.90012C2.90113 1.90012 2.67501 1.99527 2.50239 2.17759C2.32861 2.36114 2.22507 2.61747 2.22507 2.89185V7.30662C2.22507 7.58099 2.32861 7.83732 2.50239 8.02087C2.67501 8.20319 2.90113 8.29835 3.12872 8.29835H3.84725C4.21386 8.29835 4.51106 8.59554 4.51106 8.96215V9.6276L6.29285 8.41358C6.40304 8.3385 6.53328 8.29835 6.66662 8.29835H9.39855C9.62615 8.29835 9.85227 8.20319 10.0249 8.02087C10.1987 7.83732 10.3022 7.58099 10.3022 7.30662V2.89185C10.3022 2.61747 10.1987 2.36114 10.0249 2.17759C9.85227 1.99527 9.62614 1.90012 9.39855 1.90012H3.12872ZM1.53834 1.26483C1.95363 0.826199 2.52488 0.57251 3.12872 0.57251H9.39855C10.0024 0.57251 10.5737 0.826199 10.9889 1.26483C11.4031 1.70222 11.6298 2.28808 11.6298 2.89185V3.78086H13.8111C14.3765 3.78086 14.9109 4.01842 15.299 4.42835C15.686 4.83704 15.8975 5.38397 15.8975 5.94715V9.95378C15.8975 10.517 15.686 11.0639 15.299 11.4726C14.9136 11.8797 14.3839 12.1168 13.8228 12.12V13.1997C13.8228 13.4457 13.6868 13.6715 13.4693 13.7865C13.2518 13.9015 12.9885 13.8867 12.7852 13.7482L10.3956 12.1201H8.12091C7.55551 12.1201 7.02111 11.8825 6.63299 11.4726C6.29991 11.1208 6.09685 10.6666 6.04676 10.1877L4.22102 11.4317C4.01772 11.5702 3.75447 11.5849 3.53699 11.47C3.3195 11.355 3.18345 11.1291 3.18345 10.8831V9.62596H3.12872C2.52488 9.62596 1.95363 9.37227 1.53834 8.93364C1.12421 8.49624 0.897461 7.91039 0.897461 7.30662V2.89185C0.897461 2.28808 1.12421 1.70222 1.53834 1.26483ZM7.36217 9.62596H9.39855C10.0024 9.62596 10.5736 9.37227 10.9889 8.93364C11.4031 8.49624 11.6298 7.91039 11.6298 7.30662V5.10847H13.8111C14.0003 5.10847 14.1895 5.1875 14.335 5.34111C14.4816 5.49596 14.5699 5.71336 14.5699 5.94715V9.95378C14.5699 10.1876 14.4816 10.405 14.335 10.5598C14.1895 10.7134 14.0003 10.7925 13.8111 10.7925H13.159C12.7924 10.7925 12.4952 11.0897 12.4952 11.4563V11.9441L10.9741 10.9077C10.8639 10.8326 10.7336 10.7925 10.6003 10.7925H8.12091C7.93176 10.7925 7.74249 10.7134 7.59705 10.5598C7.45044 10.405 7.36217 10.1876 7.36217 9.95378V9.62596ZM3.50989 3.99554C3.50989 3.62893 3.80709 3.33174 4.1737 3.33174H8.35358C8.72019 3.33174 9.01739 3.62893 9.01739 3.99554C9.01739 4.36215 8.72019 4.65935 8.35358 4.65935H4.1737C3.80709 4.65935 3.50989 4.36215 3.50989 3.99554ZM3.50989 6.20292C3.50989 5.83632 3.80709 5.53912 4.1737 5.53912H7.30861C7.67522 5.53912 7.97241 5.83632 7.97241 6.20292C7.97241 6.56953 7.67522 6.86673 7.30861 6.86673H4.1737C3.80709 6.86673 3.50989 6.56953 3.50989 6.20292Z" fill="white"/>
</svg>
