<svg width="10" height="10" viewBox="0 0 10 10" fill="none" xmlns="http://www.w3.org/2000/svg">
<path d="M3.19672 9.76243L2.51756 8.56572L1.22951 8.27265C1.11241 8.24822 1.01874 8.18505 0.948478 8.08313C0.87822 7.9812 0.850898 7.86935 0.866511 7.74756L0.995316 6.36767L0.117096 5.3175C0.039032 5.22795 0 5.12211 0 5C0 4.87789 0.039032 4.77205 0.117096 4.6825L0.995316 3.63233L0.866511 2.25244C0.850898 2.13033 0.87822 2.01831 0.948478 1.91639C1.01874 1.81446 1.11241 1.75145 1.22951 1.72735L2.51756 1.43428L3.19672 0.237568C3.25917 0.131737 3.34504 0.0604222 3.45433 0.0236253C3.56362 -0.0131716 3.67291 -0.00698453 3.7822 0.0421866L5 0.579487L6.2178 0.0421866C6.32709 -0.0066589 6.43638 -0.012846 6.54567 0.0236253C6.65496 0.0600966 6.74083 0.131411 6.80328 0.237568L7.48244 1.43428L8.77049 1.72735C8.88759 1.75178 8.98127 1.81495 9.05152 1.91688C9.12178 2.0188 9.1491 2.13066 9.13349 2.25244L9.00468 3.63233L9.8829 4.6825C9.96097 4.77205 10 4.87789 10 5C10 5.12211 9.96097 5.22795 9.8829 5.3175L9.00468 6.36767L9.13349 7.74756C9.1491 7.86967 9.12178 7.98169 9.05152 8.08361C8.98127 8.18554 8.88759 8.24855 8.77049 8.27265L7.48244 8.56572L6.80328 9.76243C6.74083 9.86826 6.65496 9.93958 6.54567 9.97638C6.43638 10.0132 6.32709 10.007 6.2178 9.95781L5 9.42051L3.7822 9.95781C3.67291 10.0067 3.56362 10.0128 3.45433 9.97638C3.34504 9.9399 3.25917 9.86859 3.19672 9.76243ZM4.5082 5.34192L3.82904 4.64587C3.74317 4.55632 3.63575 4.51155 3.50679 4.51155C3.37783 4.51155 3.26667 4.56039 3.1733 4.65808C3.08743 4.74763 3.0445 4.8616 3.0445 5C3.0445 5.1384 3.08743 5.25237 3.1733 5.34192L4.18033 6.3921C4.274 6.48979 4.38329 6.53863 4.5082 6.53863C4.6331 6.53863 4.74239 6.48979 4.83607 6.3921L6.8267 4.31616C6.92038 4.21847 6.96518 4.1045 6.96112 3.97425C6.95707 3.84399 6.91226 3.73002 6.8267 3.63233C6.73302 3.53464 6.6217 3.48384 6.49274 3.47993C6.36378 3.47602 6.25262 3.52275 6.15925 3.62012L4.5082 5.34192Z" fill="white"/>
</svg>
