<svg width="21" height="21" viewBox="0 0 21 21" fill="none" xmlns="http://www.w3.org/2000/svg">
<path d="M14.3357 6.43992C15.4315 6.43992 16.3198 5.5516 16.3198 4.4558C16.3198 3.36 15.4315 2.47168 14.3357 2.47168C13.2399 2.47168 12.3516 3.36 12.3516 4.4558C12.3516 5.5516 13.2399 6.43992 14.3357 6.43992Z" fill="#048DFF" stroke="#048DFF" stroke-linecap="round" stroke-linejoin="round"/>
<path d="M2.16602 4.45557H12.4993M16.6722 4.45557H18.8327" stroke="#048DFF" stroke-width="2" stroke-linecap="square" stroke-linejoin="round"/>
<path d="M6.66431 12.6125C5.56851 12.6125 4.68018 11.7242 4.68018 10.6284C4.68018 9.53261 5.56851 8.64429 6.66431 8.64429C7.76011 8.64429 8.64844 9.53261 8.64844 10.6284C8.64844 11.7242 7.76011 12.6125 6.66431 12.6125Z" fill="#048DFF" stroke="#048DFF" stroke-linecap="round" stroke-linejoin="round"/>
<path d="M18.5234 10.6284L9.17617 10.6284M4.54654 10.6284L2.16541 10.6284" stroke="#048DFF" stroke-width="2" stroke-linecap="square" stroke-linejoin="round"/>
<path d="M14.3357 18.4326C15.4315 18.4326 16.3198 17.5443 16.3198 16.4485C16.3198 15.3527 15.4315 14.4644 14.3357 14.4644C13.2399 14.4644 12.3516 15.3527 12.3516 16.4485C12.3516 17.5443 13.2399 18.4326 14.3357 18.4326Z" fill="#048DFF" stroke="#048DFF" stroke-linecap="round" stroke-linejoin="round"/>
<path d="M2.16602 16.4485H12.8327M16.3635 16.4485H18.8327" stroke="#048DFF" stroke-width="2" stroke-linecap="square" stroke-linejoin="round"/>
</svg>
