<svg width="26" height="27" viewBox="0 0 26 27" fill="none" xmlns="http://www.w3.org/2000/svg">
<path fill-rule="evenodd" clip-rule="evenodd" d="M8.68719 6.22766C9.01294 4.38759 10.6073 2.99082 12.525 2.99082C18.1933 2.99082 22.814 7.71889 22.814 13.4654C22.814 19.3183 18.1078 24.1342 12.3341 24.1342H4.337C2.84258 24.1342 1.4298 23.4524 0.5 22.2824C0.5 24.8016 2.54217 26.8438 5.06131 26.8438H12.3341C19.6195 26.8438 25.5 20.7861 25.5 13.4654C25.5 6.25108 19.705 0.28125 12.525 0.28125C8.88838 0.28125 5.94028 3.25518 5.94028 6.9237V18.3073H4.38769C3.72403 18.3073 3.18604 17.7646 3.18604 17.0952V6.31409V6.15541C3.18604 3.85317 4.37008 1.71276 6.32039 0.489403C3.10588 0.489403 0.5 3.09958 0.5 6.31409V17.0952C0.5 19.2611 2.24058 21.0169 4.38769 21.0169H12.8393C16.8878 21.0169 20.1697 17.7062 20.1697 13.6223C20.1697 9.53835 16.8878 6.22766 12.8393 6.22766H8.68719ZM12.7845 18.2475H8.57156V8.87741H12.7845C15.3495 8.87741 17.4289 10.975 17.4289 13.5625C17.4289 16.15 15.3495 18.2475 12.7845 18.2475Z" fill="white" fill-opacity="0.1"/>
</svg>
