<svg width="31" height="31" viewBox="0 0 31 31" fill="none" xmlns="http://www.w3.org/2000/svg">
<path d="M17.3763 0.501846C18.4708 0.497645 19.5654 0.508646 20.6597 0.534845L20.9507 0.545344C21.2867 0.557344 21.6181 0.572343 22.0186 0.590343C23.6146 0.66534 24.7035 0.917332 25.659 1.28782C26.649 1.66881 27.4829 2.18479 28.3169 3.01876C29.0795 3.76814 29.6696 4.67462 30.0464 5.67517C30.4168 6.63064 30.6688 7.7211 30.7438 9.31705C30.7618 9.71603 30.7768 10.049 30.7888 10.385L30.7978 10.676C30.8245 11.7698 30.836 12.8638 30.8323 13.9579L30.8338 15.0769V17.0418C30.8375 18.1364 30.826 19.2309 30.7993 20.3252L30.7903 20.6162C30.7783 20.9522 30.7633 21.2836 30.7453 21.6841C30.6703 23.2801 30.4153 24.369 30.0464 25.3245C29.6708 26.3261 29.0805 27.2333 28.3169 27.9824C27.5669 28.7449 26.6599 29.335 25.659 29.7119C24.7035 30.0823 23.6146 30.3343 22.0186 30.4093C21.6181 30.4273 21.2867 30.4423 20.9507 30.4543L20.6597 30.4633C19.5654 30.49 18.4709 30.5015 17.3763 30.4978L16.2573 30.4993H14.2939C13.1993 30.503 12.1048 30.4915 11.0105 30.4648L10.7195 30.4558C10.3634 30.4429 10.0074 30.4279 9.65155 30.4108C8.0556 30.3358 6.96664 30.0808 6.00967 29.7119C5.00873 29.3359 4.1021 28.7456 3.35326 27.9824C2.58986 27.2329 1.99915 26.3258 1.62232 25.3245C1.25184 24.369 0.999844 23.2801 0.924847 21.6841C0.908142 21.3282 0.893142 20.9722 0.879848 20.6162L0.872349 20.3252C0.844695 19.2309 0.832194 18.1364 0.83485 17.0418V13.9579C0.830664 12.8638 0.841664 11.7698 0.867849 10.676L0.878348 10.385C0.890348 10.049 0.905347 9.71603 0.923347 9.31705C0.998344 7.7196 1.25034 6.63214 1.62082 5.67517C1.99787 4.67413 2.58974 3.7679 3.35476 3.02026C4.10308 2.25641 5.00915 1.66517 6.00967 1.28782C6.96664 0.917332 8.0541 0.66534 9.65155 0.590343L10.7195 0.545344L11.0105 0.537845C12.1042 0.510205 13.1983 0.497704 14.2924 0.500346L17.3763 0.501846ZM15.8343 8.00159C14.8406 7.98754 13.854 8.17112 12.9319 8.54167C12.0098 8.91223 11.1705 9.46236 10.4628 10.1601C9.75511 10.8578 9.19317 11.6893 8.80961 12.6061C8.42605 13.5229 8.22854 14.5068 8.22854 15.5006C8.22854 16.4944 8.42605 17.4783 8.80961 18.3951C9.19317 19.3119 9.75511 20.1433 10.4628 20.8411C11.1705 21.5388 12.0098 22.0889 12.9319 22.4595C13.854 22.8301 14.8406 23.0136 15.8343 22.9996C17.8234 22.9996 19.731 22.2094 21.1375 20.803C22.5439 19.3965 23.3341 17.4889 23.3341 15.4998C23.3341 13.5108 22.5439 11.6032 21.1375 10.1967C19.731 8.79024 17.8234 8.00159 15.8343 8.00159ZM15.8343 11.0015C16.4321 10.9905 17.026 11.0987 17.5815 11.3198C18.1369 11.5409 18.6427 11.8705 19.0694 12.2893C19.496 12.7081 19.835 13.2077 20.0664 13.7589C20.2978 14.3102 20.417 14.902 20.4171 15.4998C20.4172 16.0977 20.2982 16.6895 20.0669 17.2409C19.8357 17.7922 19.497 18.2919 19.0705 18.7108C18.644 19.1298 18.1382 19.4595 17.5829 19.6808C17.0275 19.9021 16.4336 20.0105 15.8358 19.9997C14.6424 19.9997 13.4979 19.5256 12.654 18.6817C11.8101 17.8378 11.336 16.6933 11.336 15.4998C11.336 14.3064 11.8101 13.1618 12.654 12.318C13.4979 11.4741 14.6424 11 15.8358 11L15.8343 11.0015ZM23.7091 5.75167C23.2252 5.77103 22.7675 5.97689 22.432 6.3261C22.0965 6.67532 21.9091 7.14082 21.9091 7.6251C21.9091 8.10939 22.0965 8.57488 22.432 8.9241C22.7675 9.27332 23.2252 9.47917 23.7091 9.49854C24.2063 9.49854 24.6832 9.301 25.0349 8.94938C25.3865 8.59776 25.584 8.12087 25.584 7.6236C25.584 7.12634 25.3865 6.64944 25.0349 6.29782C24.6832 5.9462 24.2063 5.74867 23.7091 5.74867V5.75167Z" fill="white"/>
</svg>
