<svg width="31" height="31" viewBox="0 0 31 31" fill="none" xmlns="http://www.w3.org/2000/svg">
<path d="M30.2148 6.76992C29.0917 7.24522 27.9007 7.55745 26.6812 7.6963C27.9661 6.96018 28.9275 5.80234 29.3863 4.43848C28.1794 5.12552 26.8563 5.60702 25.4788 5.86747C24.5525 4.91938 23.3247 4.2906 21.9863 4.07889C20.6479 3.86718 19.2738 4.08439 18.0778 4.69676C16.8817 5.30913 15.9307 6.28235 15.3725 7.46512C14.8143 8.64789 14.6802 9.97393 14.9911 11.2371C12.5435 11.12 10.1491 10.5117 7.96319 9.45173C5.77731 8.39179 3.84893 6.90391 2.30325 5.0847C1.75619 5.98355 1.4687 7.00536 1.47024 8.04545C1.47024 10.0869 2.55786 11.8904 4.20768 12.9463C3.23047 12.9168 2.27476 12.6643 1.4202 12.2099V12.2817C1.42016 13.6416 1.91181 14.9596 2.81178 16.0122C3.71175 17.0647 4.96462 17.7872 6.3579 18.0568C5.45078 18.2923 4.49952 18.3269 3.5763 18.1582C3.96914 19.3287 4.73488 20.3523 5.76625 21.0857C6.79763 21.8191 8.04298 22.2256 9.32787 22.2481C8.05093 23.2075 6.58879 23.9167 5.0251 24.3351C3.46141 24.7535 1.82683 24.8729 0.214844 24.6865C3.02841 26.4173 6.3036 27.3362 9.64871 27.3333C20.9723 27.3333 27.1625 18.3609 27.1625 10.5796C27.1625 10.3262 27.1566 10.07 27.1448 9.81797C28.3493 8.98501 29.3889 7.95192 30.2148 6.76992Z" fill="white"/>
</svg>
