<svg width="31" height="31" viewBox="0 0 31 31" fill="none" xmlns="http://www.w3.org/2000/svg">
<path d="M12.002 20.2857L19.787 16L12.002 11.7143V20.2857ZM29.342 9.1C29.537 9.77143 29.672 10.6714 29.762 11.8143C29.867 12.9571 29.912 13.9429 29.912 14.8L30.002 16C30.002 19.1286 29.762 21.4286 29.342 22.9C28.967 24.1857 28.097 25.0143 26.747 25.3714C26.042 25.5571 24.752 25.6857 22.772 25.7714C20.822 25.8714 19.037 25.9143 17.387 25.9143L15.002 26C8.71695 26 4.80195 25.7714 3.25695 25.3714C1.90695 25.0143 1.03695 24.1857 0.661953 22.9C0.466953 22.2286 0.331953 21.3286 0.241953 20.1857C0.136953 19.0429 0.091953 18.0571 0.091953 17.2L0.00195312 16C0.00195312 12.8714 0.241953 10.5714 0.661953 9.1C1.03695 7.81429 1.90695 6.98571 3.25695 6.62857C3.96195 6.44286 5.25195 6.31429 7.23195 6.22857C9.18195 6.12857 10.967 6.08571 12.617 6.08571L15.002 6C21.287 6 25.202 6.22857 26.747 6.62857C28.097 6.98571 28.967 7.81429 29.342 9.1Z" fill="white"/>
</svg>
