<svg width="20" height="15" viewBox="0 0 20 15" fill="none" xmlns="http://www.w3.org/2000/svg">
<path d="M12.7273 9.09091C10.3 9.09091 5.45455 10.3 5.45455 12.7273V14.5455H20V12.7273C20 10.3 15.1545 9.09091 12.7273 9.09091ZM4.54545 5.45455V2.72727H2.72727V5.45455H0V7.27273H2.72727V10H4.54545V7.27273H7.27273V5.45455M12.7273 7.27273C13.6917 7.27273 14.6166 6.88961 15.2986 6.20766C15.9805 5.52571 16.3636 4.60079 16.3636 3.63636C16.3636 2.67194 15.9805 1.74702 15.2986 1.06507C14.6166 0.383116 13.6917 0 12.7273 0C11.7628 0 10.8379 0.383116 10.156 1.06507C9.47403 1.74702 9.09091 2.67194 9.09091 3.63636C9.09091 4.60079 9.47403 5.52571 10.156 6.20766C10.8379 6.88961 11.7628 7.27273 12.7273 7.27273Z" fill="url(#paint0_linear_338_8594)"/>
<defs>
<linearGradient id="paint0_linear_338_8594" x1="-1.21202e-06" y1="14.5455" x2="14.5514" y2="-4.22412" gradientUnits="userSpaceOnUse">
<stop stop-color="#FF59D9"/>
<stop offset="1" stop-color="#4DB4F5"/>
</linearGradient>
</defs>
</svg>
