<svg width="95" height="72" viewBox="0 0 95 72" fill="none" xmlns="http://www.w3.org/2000/svg">
<g clip-path="url(#clip0_423_38)">
<rect x="0.5" width="93.75" height="71.25" rx="5" fill="#F7F7FA"/>
<path d="M0.5 3C0.5 1.34315 1.84315 0 3.5 0H91.0078C93.7692 0 96.0078 2.23858 96.0078 5V9.74933H0.5V3Z" fill="#F9E7FF"/>
<path d="M25.5 62.1484H95.0078V71.2511H25.5V62.1484Z" fill="#F9E7FF"/>
<rect x="86.0625" y="63.8008" width="4.42203" height="4.42203" rx="1.14043" fill="#DD57AF"/>
<rect x="29.2344" y="2.78906" width="5.06189" height="5.06189" rx="1.30545" fill="#FFC3EB"/>
<path d="M36.1641 5.32031H41.2225H46.281" stroke="#FEA7E0" stroke-linecap="round"/>
<rect x="5.05469" y="3.42969" width="18.0469" height="3.7804" rx="1" fill="#FFC3EB"/>
<path d="M25.5 8.71875V72.54" stroke="#F9E7FF" stroke-width="0.8"/>
<rect x="5.05469" y="14.7852" width="5.06189" height="5.06189" rx="1.30545" fill="#FFC4EB"/>
<path d="M12.9844 17.3164H17.1277H21.2711" stroke="#FEA7E0" stroke-linecap="round"/>
<rect x="5.05469" y="22.8516" width="5.06189" height="5.06189" rx="1.30545" fill="#DD57AF"/>
<path d="M12.9844 25.3828H16.332H19.6796" stroke="#DD57AF" stroke-linecap="round"/>
<rect x="5.05469" y="30.9141" width="5.06189" height="5.06189" rx="1.30545" fill="#FFC4EB"/>
<path d="M12.9844 33.4453H17.1277H21.2711" stroke="#FEA7E0" stroke-linecap="round"/>
<rect x="5.05469" y="38.9766" width="5.06189" height="5.06189" rx="1.30545" fill="#FFC4EB"/>
<path d="M12.9844 41.5078H17.7443H22.5042" stroke="#FEA7E0" stroke-linecap="round"/>
<path d="M53.6484 12.1875L61.7217 12.1875" stroke="#FEA7E0" stroke-linecap="round"/>
<path d="M83.7891 21.2922C83.7891 20.0219 82.7593 18.9922 81.4891 18.9922H64.12C62.8497 18.9922 61.82 20.0219 61.82 21.2922V22.0815C61.82 23.3517 62.8497 24.3815 64.12 24.3815H83.7891V21.2922Z" fill="#C85CFB"/>
<rect width="4.42203" height="4.42203" rx="1.14043" transform="matrix(-1 0 0 1 90.4844 19.9609)" fill="#C85CFB"/>
<path d="M35.9297 29.6828C35.9297 28.4126 36.9594 27.3828 38.2297 27.3828H68.7215C69.9918 27.3828 71.0215 28.4126 71.0215 29.6828V30.4721C71.0215 31.7423 69.9918 32.7721 68.7215 32.7721H35.9297V29.6828Z" fill="#FEA7E0"/>
<rect x="29.2344" y="28.3516" width="4.42203" height="4.42203" rx="1.14043" fill="#FFC4EB"/>
<path d="M35.9297 50.6008C35.9297 49.3305 36.9594 48.3008 38.2297 48.3008H77.2246C78.4948 48.3008 79.5246 49.3305 79.5246 50.6008V51.3901C79.5246 52.6603 78.4948 53.6901 77.2246 53.6901H35.9297V50.6008Z" fill="#FEA7E0"/>
<rect x="29.2344" y="49.2695" width="4.42203" height="4.42203" rx="1.14043" fill="#FFC4EB"/>
<rect width="4.42203" height="4.42203" rx="1.14043" transform="matrix(-1 0 0 1 90.4844 40.8789)" fill="#C85CFB"/>
<path d="M83.7891 38.0695C83.7891 36.7993 82.7593 35.7695 81.4891 35.7695H56.12C54.8497 35.7695 53.82 36.7993 53.82 38.0695V43.001C53.82 44.2713 54.8497 45.301 56.12 45.301H83.7891V38.0695Z" fill="#C85CFB"/>
</g>
<defs>
<clipPath id="clip0_423_38">
<rect x="0.5" width="93.75" height="71.25" rx="5" fill="white"/>
</clipPath>
</defs>
</svg>
