<svg width="94" height="72" viewBox="0 0 94 72" fill="none" xmlns="http://www.w3.org/2000/svg">
<g clip-path="url(#clip0_422_291)">
<rect width="93.75" height="71.25" rx="5" fill="#17181C"/>
<path d="M0 3C0 1.34315 1.34315 0 3 0H90.5078C93.2692 0 95.5078 2.23858 95.5078 5V9.74933H0V3Z" fill="#202226"/>
<path d="M25 62.1484H94.5078V71.2511H25V62.1484Z" fill="#202226"/>
<rect x="85.5625" y="63.8008" width="4.42203" height="4.42203" rx="1.14043" fill="#048DFF"/>
<rect x="28.7344" y="2.78906" width="5.06189" height="5.06189" rx="1.30545" fill="#30333A"/>
<path d="M35.6641 5.32031H40.7225H45.781" stroke="#454A57" stroke-linecap="round"/>
<rect x="4.55469" y="3.42969" width="18.0469" height="3.7804" rx="1" fill="#30333A"/>
<path d="M25 8.71875V72.54" stroke="#202226" stroke-width="0.8"/>
<rect x="4.55469" y="14.7852" width="5.06189" height="5.06189" rx="1.30545" fill="#30333A"/>
<path d="M12.4844 17.3164H16.6277H20.7711" stroke="#454A57" stroke-linecap="round"/>
<rect x="4.55469" y="22.8516" width="5.06189" height="5.06189" rx="1.30545" fill="#048DFF"/>
<path d="M12.4844 25.3828H15.832H19.1796" stroke="#048DFF" stroke-linecap="round"/>
<rect x="4.55469" y="30.9141" width="5.06189" height="5.06189" rx="1.30545" fill="#30333A"/>
<path d="M12.4844 33.4453H16.6277H20.7711" stroke="#454A57" stroke-linecap="round"/>
<rect x="4.55469" y="38.9766" width="5.06189" height="5.06189" rx="1.30545" fill="#30333A"/>
<path d="M12.4844 41.5078H17.2443H22.0042" stroke="#454A57" stroke-linecap="round"/>
<path d="M53.1484 12.1875L61.2217 12.1875" stroke="#454A57" stroke-linecap="round"/>
<path d="M83.2891 21.2922C83.2891 20.0219 82.2593 18.9922 80.9891 18.9922H63.62C62.3497 18.9922 61.32 20.0219 61.32 21.2922V22.0815C61.32 23.3517 62.3497 24.3815 63.62 24.3815H83.2891V21.2922Z" fill="#048DFF"/>
<rect width="4.42203" height="4.42203" rx="1.14043" transform="matrix(-1 0 0 1 89.9844 19.9609)" fill="#048DFF"/>
<path d="M35.4297 29.6828C35.4297 28.4126 36.4594 27.3828 37.7297 27.3828H68.2215C69.4918 27.3828 70.5215 28.4126 70.5215 29.6828V30.4721C70.5215 31.7423 69.4918 32.7721 68.2215 32.7721H35.4297V29.6828Z" fill="#454A57"/>
<rect x="28.7344" y="28.3516" width="4.42203" height="4.42203" rx="1.14043" fill="#30333A"/>
<path d="M35.4297 50.6008C35.4297 49.3305 36.4594 48.3008 37.7297 48.3008H76.7246C77.9948 48.3008 79.0246 49.3305 79.0246 50.6008V51.3901C79.0246 52.6603 77.9948 53.6901 76.7246 53.6901H35.4297V50.6008Z" fill="#454A57"/>
<rect x="28.7344" y="49.2695" width="4.42203" height="4.42203" rx="1.14043" fill="#30333A"/>
<rect width="4.42203" height="4.42203" rx="1.14043" transform="matrix(-1 0 0 1 89.9844 40.8789)" fill="#048DFF"/>
<path d="M83.2891 38.0695C83.2891 36.7993 82.2593 35.7695 80.9891 35.7695H55.62C54.3497 35.7695 53.32 36.7993 53.32 38.0695V43.001C53.32 44.2713 54.3497 45.301 55.62 45.301H83.2891V38.0695Z" fill="#048DFF"/>
</g>
<defs>
<clipPath id="clip0_422_291">
<rect width="93.75" height="71.25" rx="5" fill="white"/>
</clipPath>
</defs>
</svg>
