<svg width="47" height="95" viewBox="0 0 47 95" fill="none" xmlns="http://www.w3.org/2000/svg">
<g clip-path="url(#clip0_428_82)">
<rect width="47" height="95" rx="5" fill="url(#paint0_linear_428_82)"/>
<circle cx="41.349" cy="69.2056" r="0.713458" transform="rotate(90 41.349 69.2056)" fill="#B398C1"/>
<circle cx="5.81779" cy="83.0533" r="0.713458" transform="rotate(90 5.81779 83.0533)" fill="#B398C1"/>
<circle cx="7.73702" cy="64.7005" r="0.356729" transform="rotate(90 7.73702 64.7005)" fill="#B398C1"/>
<circle cx="13.5651" cy="59.2864" r="0.356729" transform="rotate(90 13.5651 59.2864)" fill="#B398C1"/>
<circle cx="24.0105" cy="77.1224" r="0.356729" transform="rotate(90 24.0105 77.1224)" fill="#B398C1"/>
<circle cx="27.7303" cy="60.1526" r="0.511932" transform="rotate(90 27.7303 60.1526)" fill="#B398C1"/>
<circle cx="41.1355" cy="49.7239" r="0.356729" transform="rotate(90 41.1355 49.7239)" fill="#B398C1"/>
<circle cx="6.53264" cy="22.8775" r="0.431073" transform="rotate(-90 6.53264 22.8775)" fill="#B398C1"/>
<circle cx="40.0672" cy="18.8547" r="0.535968" transform="rotate(-90 40.0672 18.8547)" fill="#B398C1"/>
<circle cx="40.138" cy="24.3816" r="0.356729" transform="rotate(-90 40.138 24.3816)" fill="#B398C1"/>
<circle cx="31.5025" cy="41.8608" r="0.713458" transform="rotate(-90 31.5025 41.8608)" fill="#B398C1"/>
<circle cx="21.8724" cy="17.9597" r="0.356729" transform="rotate(-90 21.8724 17.9597)" fill="#B398C1"/>
<circle cx="35.1641" cy="37.7265" r="0.500018" transform="rotate(-90 35.1641 37.7265)" fill="#B398C1"/>
<circle cx="8.73954" cy="46.3581" r="0.356729" transform="rotate(-90 8.73954 46.3581)" fill="#B398C1"/>
<rect width="47" height="12.0064" fill="#110618"/>
<path d="M19.4609 15.3242L27.5342 15.3242" stroke="#40388E" stroke-linecap="round"/>
<path d="M36.2969 26.0773C36.2969 24.8071 35.2671 23.7773 33.9969 23.7773H12.6584C11.3881 23.7773 10.3584 24.8071 10.3584 26.0773V31.4162C10.3584 32.6865 11.3881 33.7162 12.6584 33.7162H36.2969V26.0773Z" fill="#9D74F3"/>
<rect width="4.42203" height="4.42203" rx="1.14043" transform="matrix(-1 0 0 1 42.9922 29.293)" fill="#9D74F3"/>
<path d="M10.7031 39.0188C10.7031 37.7485 11.7329 36.7188 13.0031 36.7188H31.2244C32.4947 36.7188 33.5244 37.7485 33.5244 39.0188V42.2262C33.5244 43.4965 32.4947 44.5262 31.2244 44.5262H10.7031V39.0188Z" fill="#4339A3"/>
<path d="M10.7031 49.4094C10.7031 48.1391 11.7329 47.1094 13.0031 47.1094H28.4963C29.7665 47.1094 30.7963 48.1391 30.7963 49.4094V50.0908C30.7963 51.3611 29.7665 52.3908 28.4963 52.3908H10.7031V49.4094Z" fill="#4339A3"/>
<rect x="4.00781" y="47.9688" width="4.42203" height="4.42203" rx="1.14043" fill="#4339A3"/>
<path d="M10.7031 70.0656C10.7031 68.7954 11.7329 67.7656 13.0031 67.7656H33.9502C35.2204 67.7656 36.2502 68.7954 36.2502 70.0656V70.8549C36.2502 72.1252 35.2204 73.1549 33.9502 73.1549H10.7031V70.0656Z" fill="#4339A3"/>
<rect x="4.00781" y="68.7344" width="4.42203" height="4.42203" rx="1.14043" fill="#4339A3"/>
<path d="M36.2969 78.3C36.2969 77.0297 35.2671 76 33.9969 76H21.2372C19.9669 76 18.9372 77.0297 18.9372 78.3V79.0893C18.9372 80.3595 19.9669 81.3893 21.2372 81.3893H36.2969V78.3Z" fill="#9D74F3"/>
<rect width="4.42203" height="4.42203" rx="1.14043" transform="matrix(-1 0 0 1 42.9922 76.9688)" fill="#9D74F3"/>
<rect width="4.42203" height="4.42203" rx="1.14043" transform="matrix(-1 0 0 1 42.9922 60.5)" fill="#9D74F3"/>
<path d="M36.2969 57.6906C36.2969 56.4204 35.2671 55.3906 33.9969 55.3906H18.6806C17.4103 55.3906 16.3806 56.4204 16.3806 57.6906V62.6221C16.3806 63.8924 17.4103 64.9221 18.6806 64.9221H36.2969V57.6906Z" fill="#9D74F3"/>
<rect x="4.00781" y="4.04297" width="5.06189" height="5.06189" rx="1.30545" fill="#40388E"/>
<path d="M10.9375 6.57422H15.996H21.0544" stroke="#40388E" stroke-linecap="round"/>
<rect y="85.1055" width="47" height="9.89514" fill="#110618"/>
<rect x="38.5703" y="87.2969" width="4.42203" height="4.42203" rx="1.14043" fill="#291DA1"/>
</g>
<defs>
<linearGradient id="paint0_linear_428_82" x1="34.2775" y1="-12.4748" x2="-27.4724" y2="21.9609" gradientUnits="userSpaceOnUse">
<stop stop-color="#1C1020"/>
<stop offset="1" stop-color="#36124F"/>
</linearGradient>
<clipPath id="clip0_428_82">
<rect width="47" height="95" rx="5" fill="white"/>
</clipPath>
</defs>
</svg>
