<svg width="94" height="72" viewBox="0 0 94 72" fill="none" xmlns="http://www.w3.org/2000/svg">
<g clip-path="url(#clip0_423_73)">
<rect x="0.25" width="93.75" height="71.25" rx="5" fill="url(#paint0_linear_423_73)"/>
<path d="M0.25 3C0.25 1.34315 1.59315 0 3.25 0H90.7578C93.5192 0 95.7578 2.23858 95.7578 5V9.74933H0.25V3Z" fill="#110618"/>
<path d="M25.25 62.1484H94.7578V71.2511H25.25V62.1484Z" fill="#110618"/>
<rect x="85.8125" y="63.8008" width="4.42203" height="4.42203" rx="1.14043" fill="#291DA2"/>
<rect x="28.9844" y="2.78906" width="5.06189" height="5.06189" rx="1.30545" fill="#40388E"/>
<path d="M35.9141 5.32031H40.9725H46.031" stroke="#40388E" stroke-linecap="round"/>
<rect x="4.80469" y="3.42969" width="18.0469" height="3.7804" rx="1" fill="#282263"/>
<path d="M25.2528 72.54V8.71875H-1.0625V72.54H25.2528Z" fill="#1E0A2B"/>
<rect x="4.80469" y="14.7852" width="5.06189" height="5.06189" rx="1.30545" fill="#40388E"/>
<path d="M12.7344 17.3164H16.8777H21.0211" stroke="#40388E" stroke-linecap="round"/>
<rect x="4.80469" y="22.8516" width="5.06189" height="5.06189" rx="1.30545" fill="#9D74F3"/>
<path d="M12.7344 25.3828H16.082H19.4296" stroke="#9D74F3" stroke-linecap="round"/>
<rect x="4.80469" y="30.9141" width="5.06189" height="5.06189" rx="1.30545" fill="#40388E"/>
<path d="M12.7344 33.4453H16.8777H21.0211" stroke="#40388E" stroke-linecap="round"/>
<rect x="4.80469" y="38.9766" width="5.06189" height="5.06189" rx="1.30545" fill="#40388E"/>
<path d="M12.7344 41.5078H17.4943H22.2542" stroke="#40388E" stroke-linecap="round"/>
<path d="M53.3984 12.1875L61.4717 12.1875" stroke="#40388E" stroke-linecap="round"/>
<circle cx="78.7447" cy="14.8463" r="0.713458" fill="#B398C1"/>
<circle cx="86.5963" cy="48.3775" r="0.713458" fill="#B398C1"/>
<circle cx="72.3242" cy="58.7382" r="0.535114" fill="#B398C1"/>
<circle cx="81.2474" cy="44.4544" r="0.356729" fill="#B398C1"/>
<circle cx="50.1458" cy="59.6302" r="0.356729" fill="#B398C1"/>
<circle cx="31.1614" cy="57.8489" r="0.356729" fill="#B398C1"/>
<circle cx="69.8255" cy="41.6302" r="0.356729" fill="#B398C1"/>
<circle cx="63.7603" cy="39.8189" r="0.713458" fill="#B398C1"/>
<circle cx="87.6614" cy="30.1849" r="0.356729" fill="#B398C1"/>
<circle cx="70.6994" cy="26.4651" r="0.511932" fill="#B398C1"/>
<circle cx="61.2708" cy="18.0559" r="0.356729" fill="#B398C1"/>
<circle cx="37.4127" cy="47.6666" r="0.431073" transform="rotate(-180 37.4127 47.6666)" fill="#B398C1"/>
<circle cx="29.3859" cy="14.1359" r="0.535968" transform="rotate(-180 29.3859 14.1359)" fill="#B398C1"/>
<circle cx="34.9167" cy="18.0573" r="0.356729" transform="rotate(-180 34.9167 18.0573)" fill="#B398C1"/>
<circle cx="52.3959" cy="22.6967" r="0.713458" transform="rotate(-180 52.3959 22.6967)" fill="#B398C1"/>
<circle cx="28.4948" cy="32.3269" r="0.356729" transform="rotate(-180 28.4948 32.3269)" fill="#B398C1"/>
<circle cx="45.2578" cy="36.039" r="0.500018" transform="rotate(-180 45.2578 36.039)" fill="#B398C1"/>
<circle cx="54.8933" cy="44.4558" r="0.356729" transform="rotate(-180 54.8933 44.4558)" fill="#B398C1"/>
<path d="M83.5391 21.2922C83.5391 20.0219 82.5093 18.9922 81.2391 18.9922H63.87C62.5997 18.9922 61.57 20.0219 61.57 21.2922V22.0815C61.57 23.3517 62.5997 24.3815 63.87 24.3815H83.5391V21.2922Z" fill="#9D74F3"/>
<rect width="4.42203" height="4.42203" rx="1.14043" transform="matrix(-1 0 0 1 90.2344 19.9609)" fill="#9D74F3"/>
<path d="M35.6797 29.6828C35.6797 28.4126 36.7094 27.3828 37.9797 27.3828H68.4715C69.7418 27.3828 70.7715 28.4126 70.7715 29.6828V30.4721C70.7715 31.7423 69.7418 32.7721 68.4715 32.7721H35.6797V29.6828Z" fill="#4339A3"/>
<rect x="28.9844" y="28.3516" width="4.42203" height="4.42203" rx="1.14043" fill="#4339A3"/>
<path d="M35.6797 50.6008C35.6797 49.3305 36.7094 48.3008 37.9797 48.3008H76.9746C78.2448 48.3008 79.2746 49.3305 79.2746 50.6008V51.3901C79.2746 52.6603 78.2448 53.6901 76.9746 53.6901H35.6797V50.6008Z" fill="#4339A3"/>
<rect x="28.9844" y="49.2695" width="4.42203" height="4.42203" rx="1.14043" fill="#4339A3"/>
<rect width="4.42203" height="4.42203" rx="1.14043" transform="matrix(-1 0 0 1 90.2344 40.8789)" fill="#9D74F3"/>
<path d="M83.5391 38.0695C83.5391 36.7993 82.5093 35.7695 81.2391 35.7695H55.87C54.5997 35.7695 53.57 36.7993 53.57 38.0695V43.001C53.57 44.2713 54.5997 45.301 55.87 45.301H83.5391V38.0695Z" fill="#9D74F3"/>
</g>
<defs>
<linearGradient id="paint0_linear_423_73" x1="68.6227" y1="-9.35607" x2="18.157" y2="65.4919" gradientUnits="userSpaceOnUse">
<stop stop-color="#1C1020"/>
<stop offset="1" stop-color="#36124F"/>
</linearGradient>
<clipPath id="clip0_423_73">
<rect x="0.25" width="93.75" height="71.25" rx="5" fill="white"/>
</clipPath>
</defs>
</svg>
