<svg width="47" height="95" viewBox="0 0 47 95" fill="none" xmlns="http://www.w3.org/2000/svg">
<g clip-path="url(#clip0_428_31)">
<rect width="47" height="95" rx="5" fill="#F7F7FA"/>
<rect width="47" height="12.0064" fill="#E7F2FF"/>
<path d="M19.4609 15.3242L27.5342 15.3242" stroke="#BED1EA" stroke-linecap="round"/>
<path d="M36.2969 26.0773C36.2969 24.8071 35.2671 23.7773 33.9969 23.7773H12.6584C11.3881 23.7773 10.3584 24.8071 10.3584 26.0773V31.4162C10.3584 32.6865 11.3881 33.7162 12.6584 33.7162H36.2969V26.0773Z" fill="#048DFF"/>
<rect width="4.42203" height="4.42203" rx="1.14043" transform="matrix(-1 0 0 1 42.9922 29.293)" fill="#048DFF"/>
<path d="M10.7031 39.0188C10.7031 37.7485 11.7329 36.7188 13.0031 36.7188H31.2244C32.4947 36.7188 33.5244 37.7485 33.5244 39.0188V42.2262C33.5244 43.4965 32.4947 44.5262 31.2244 44.5262H10.7031V39.0188Z" fill="#BED1EA"/>
<path d="M10.7031 49.4094C10.7031 48.1391 11.7329 47.1094 13.0031 47.1094H28.4963C29.7665 47.1094 30.7963 48.1391 30.7963 49.4094V50.0908C30.7963 51.3611 29.7665 52.3908 28.4963 52.3908H10.7031V49.4094Z" fill="#BED1EA"/>
<rect x="4.00781" y="47.9688" width="4.42203" height="4.42203" rx="1.14043" fill="#CDDBEB"/>
<path d="M10.7031 70.0656C10.7031 68.7954 11.7329 67.7656 13.0031 67.7656H33.9502C35.2204 67.7656 36.2502 68.7954 36.2502 70.0656V70.8549C36.2502 72.1252 35.2204 73.1549 33.9502 73.1549H10.7031V70.0656Z" fill="#BED1EA"/>
<rect x="4.00781" y="68.7344" width="4.42203" height="4.42203" rx="1.14043" fill="#CDDBEB"/>
<path d="M36.2969 78.3C36.2969 77.0297 35.2671 76 33.9969 76H21.2372C19.9669 76 18.9372 77.0297 18.9372 78.3V79.0893C18.9372 80.3595 19.9669 81.3893 21.2372 81.3893H36.2969V78.3Z" fill="#048DFF"/>
<rect width="4.42203" height="4.42203" rx="1.14043" transform="matrix(-1 0 0 1 42.9922 76.9688)" fill="#048DFF"/>
<rect width="4.42203" height="4.42203" rx="1.14043" transform="matrix(-1 0 0 1 42.9922 60.5)" fill="#048DFF"/>
<path d="M36.2969 57.6906C36.2969 56.4204 35.2671 55.3906 33.9969 55.3906H18.6806C17.4103 55.3906 16.3806 56.4204 16.3806 57.6906V62.6221C16.3806 63.8924 17.4103 64.9221 18.6806 64.9221H36.2969V57.6906Z" fill="#048DFF"/>
<rect x="4.00781" y="4.04297" width="5.06189" height="5.06189" rx="1.30545" fill="#CDDBEB"/>
<path d="M10.9375 6.57422H15.996H21.0544" stroke="#BED1EA" stroke-linecap="round"/>
<rect y="85.1055" width="47" height="9.89514" fill="#E7F2FF"/>
<rect x="38.5703" y="87.2969" width="4.42203" height="4.42203" rx="1.14043" fill="#048DFF"/>
</g>
<defs>
<clipPath id="clip0_428_31">
<rect width="47" height="95" rx="5" fill="white"/>
</clipPath>
</defs>
</svg>
