<svg width="174" height="25" viewBox="0 0 174 25" fill="none" xmlns="http://www.w3.org/2000/svg">
<path d="M118.762 2.00357C118.543 2.05058 118.348 2.17365 118.21 2.35099C118.073 2.52833 118.003 2.74851 118.012 2.97257V21.9726C117.99 22.1085 117.998 22.2477 118.035 22.3804C118.072 22.5131 118.137 22.6362 118.226 22.7412C118.315 22.8462 118.426 22.9305 118.551 22.9884C118.676 23.0462 118.812 23.0762 118.95 23.0762C119.088 23.0762 119.224 23.0462 119.349 22.9884C119.474 22.9305 119.585 22.8462 119.674 22.7412C119.763 22.6362 119.828 22.5131 119.865 22.3804C119.902 22.2477 119.91 22.1085 119.887 21.9726V2.97257C119.891 2.83901 119.866 2.70629 119.814 2.58307C119.762 2.45984 119.685 2.34889 119.588 2.25744C119.491 2.166 119.375 2.09612 119.249 2.05238C119.123 2.00863 118.989 1.992 118.855 2.00357C118.825 2.00205 118.793 2.00205 118.762 2.00357ZM106.763 3.00357C106.543 3.05058 106.348 3.17365 106.21 3.35099C106.073 3.52833 106.003 3.74851 106.013 3.97257V20.9726C105.99 21.1085 105.998 21.2477 106.035 21.3804C106.072 21.5131 106.137 21.6362 106.226 21.7412C106.315 21.8462 106.426 21.9305 106.551 21.9884C106.676 22.0462 106.812 22.0762 106.95 22.0762C107.088 22.0762 107.224 22.0462 107.349 21.9884C107.474 21.9305 107.585 21.8462 107.674 21.7412C107.763 21.6362 107.828 21.5131 107.865 21.3804C107.902 21.2477 107.91 21.1085 107.888 20.9726V3.97257C107.891 3.83901 107.866 3.70629 107.814 3.58307C107.762 3.45984 107.685 3.34889 107.588 3.25744C107.491 3.166 107.375 3.09612 107.249 3.05238C107.123 3.00863 106.989 2.992 106.856 3.00357C106.825 3.00205 106.793 3.00205 106.763 3.00357ZM115.762 6.00357C115.543 6.05058 115.348 6.17365 115.21 6.35099C115.073 6.52833 115.003 6.74851 115.012 6.97257V17.9726C114.99 18.1087 114.997 18.2481 115.034 18.3812C115.07 18.5143 115.135 18.6378 115.224 18.7431C115.314 18.8484 115.425 18.933 115.55 18.9911C115.675 19.0491 115.811 19.0792 115.95 19.0792C116.088 19.0792 116.224 19.0491 116.349 18.9911C116.474 18.933 116.585 18.8484 116.675 18.7431C116.764 18.6378 116.829 18.5143 116.865 18.3812C116.902 18.2481 116.909 18.1087 116.886 17.9726V6.97257C116.89 6.8392 116.865 6.70666 116.813 6.58358C116.762 6.46051 116.685 6.34966 116.588 6.25824C116.491 6.16683 116.375 6.09691 116.249 6.05303C116.123 6.00915 115.989 5.9923 115.856 6.00357C115.825 6.00198 115.794 6.00198 115.762 6.00357ZM103.763 7.00357C103.543 7.05058 103.348 7.17365 103.21 7.35099C103.073 7.52833 103.003 7.74851 103.013 7.97257V16.9726C102.99 17.1087 102.997 17.2481 103.034 17.3812C103.07 17.5143 103.135 17.6378 103.224 17.7431C103.314 17.8484 103.425 17.933 103.55 17.9911C103.675 18.0491 103.811 18.0792 103.95 18.0792C104.088 18.0792 104.224 18.0491 104.349 17.9911C104.474 17.933 104.585 17.8484 104.675 17.7431C104.764 17.6378 104.829 17.5143 104.865 17.3812C104.902 17.2481 104.909 17.1087 104.886 16.9726V7.97257C104.89 7.8392 104.865 7.70666 104.813 7.58358C104.762 7.46051 104.685 7.34966 104.588 7.25824C104.491 7.16683 104.375 7.09691 104.249 7.05303C104.123 7.00915 103.989 6.9923 103.857 7.00357C103.825 7.00198 103.794 7.00198 103.763 7.00357ZM109.762 8.00357C109.543 8.05058 109.348 8.17365 109.21 8.35099C109.073 8.52833 109.003 8.74851 109.012 8.97257V15.9726C108.99 16.1087 108.997 16.2481 109.034 16.3812C109.07 16.5143 109.135 16.6378 109.224 16.7431C109.314 16.8484 109.425 16.933 109.55 16.9911C109.675 17.0491 109.811 17.0792 109.95 17.0792C110.088 17.0792 110.224 17.0491 110.349 16.9911C110.474 16.933 110.585 16.8484 110.675 16.7431C110.764 16.6378 110.829 16.5143 110.865 16.3812C110.902 16.2481 110.909 16.1087 110.887 15.9726V8.97257C110.89 8.8392 110.865 8.70666 110.813 8.58359C110.762 8.46051 110.685 8.34966 110.588 8.25824C110.491 8.16683 110.375 8.09691 110.249 8.05303C110.123 8.00915 109.989 7.9923 109.856 8.00357C109.825 8.00198 109.794 8.00198 109.762 8.00357ZM121.762 8.00357C121.543 8.05058 121.348 8.17365 121.21 8.35099C121.073 8.52833 121.003 8.74851 121.012 8.97257V15.9726C120.99 16.1085 120.998 16.2477 121.035 16.3804C121.072 16.5131 121.137 16.6362 121.226 16.7412C121.315 16.8462 121.426 16.9305 121.551 16.9884C121.676 17.0462 121.812 17.0762 121.95 17.0762C122.088 17.0762 122.224 17.0462 122.349 16.9884C122.474 16.9305 122.585 16.8462 122.674 16.7412C122.763 16.6362 122.828 16.5131 122.865 16.3804C122.902 16.2477 122.91 16.1085 122.887 15.9726V8.97257C122.891 8.83901 122.866 8.70629 122.814 8.58307C122.762 8.45984 122.685 8.34889 122.588 8.25744C122.491 8.166 122.375 8.09612 122.249 8.05238C122.123 8.00863 121.989 7.992 121.855 8.00357C121.825 8.00205 121.793 8.00205 121.762 8.00357ZM100.763 10.0036C100.543 10.0506 100.348 10.1736 100.21 10.351C100.073 10.5283 100.003 10.7485 100.013 10.9726V13.9726C99.9902 14.1085 99.9978 14.2477 100.035 14.3804C100.072 14.5131 100.137 14.6362 100.226 14.7412C100.315 14.8462 100.426 14.9305 100.551 14.9884C100.676 15.0462 100.812 15.0762 100.95 15.0762C101.088 15.0762 101.224 15.0462 101.349 14.9884C101.474 14.9305 101.585 14.8462 101.674 14.7412C101.763 14.6362 101.828 14.5131 101.865 14.3804C101.902 14.2477 101.91 14.1085 101.888 13.9726V10.9726C101.891 10.839 101.866 10.7063 101.814 10.5831C101.762 10.4598 101.685 10.3489 101.588 10.2574C101.491 10.166 101.375 10.0961 101.249 10.0524C101.123 10.0086 100.989 9.992 100.856 10.0036C100.824 10.002 100.793 10.002 100.762 10.0036H100.763ZM112.762 10.0036C112.543 10.0506 112.348 10.1736 112.21 10.351C112.073 10.5283 112.003 10.7485 112.012 10.9726V13.9726C111.99 14.1087 111.997 14.2481 112.034 14.3812C112.07 14.5143 112.135 14.6378 112.224 14.7431C112.314 14.8484 112.425 14.933 112.55 14.9911C112.675 15.0491 112.811 15.0792 112.95 15.0792C113.088 15.0792 113.224 15.0491 113.349 14.9911C113.474 14.933 113.585 14.8484 113.675 14.7431C113.764 14.6378 113.829 14.5143 113.865 14.3812C113.902 14.2481 113.909 14.1087 113.887 13.9726V10.9726C113.89 10.8392 113.865 10.7067 113.813 10.5836C113.762 10.4605 113.685 10.3497 113.588 10.2582C113.491 10.1668 113.375 10.0969 113.249 10.053C113.123 10.0092 112.989 9.9923 112.856 10.0036C112.825 10.002 112.794 10.002 112.762 10.0036ZM124.762 10.0036C124.543 10.0506 124.348 10.1736 124.21 10.351C124.073 10.5283 124.003 10.7485 124.012 10.9726V13.9726C123.99 14.1085 123.998 14.2477 124.035 14.3804C124.072 14.5131 124.137 14.6362 124.226 14.7412C124.315 14.8462 124.426 14.9305 124.551 14.9884C124.676 15.0462 124.812 15.0762 124.95 15.0762C125.088 15.0762 125.224 15.0462 125.349 14.9884C125.474 14.9305 125.585 14.8462 125.674 14.7412C125.763 14.6362 125.828 14.5131 125.865 14.3804C125.902 14.2477 125.91 14.1085 125.887 13.9726V10.9726C125.891 10.839 125.866 10.7063 125.814 10.5831C125.762 10.4598 125.685 10.3489 125.588 10.2574C125.491 10.166 125.375 10.0961 125.249 10.0524C125.123 10.0086 124.989 9.992 124.855 10.0036C124.825 10.0021 124.793 10.0021 124.762 10.0036Z" fill="#8A939D"/>
<path d="M142.762 2.00357C142.543 2.05058 142.348 2.17365 142.21 2.35099C142.073 2.52833 142.003 2.74851 142.012 2.97257V21.9726C141.99 22.1085 141.998 22.2477 142.035 22.3804C142.072 22.5131 142.137 22.6362 142.226 22.7412C142.315 22.8462 142.426 22.9305 142.551 22.9884C142.676 23.0462 142.812 23.0762 142.95 23.0762C143.088 23.0762 143.224 23.0462 143.349 22.9884C143.474 22.9305 143.585 22.8462 143.674 22.7412C143.763 22.6362 143.828 22.5131 143.865 22.3804C143.902 22.2477 143.91 22.1085 143.887 21.9726V2.97257C143.891 2.83901 143.866 2.70629 143.814 2.58307C143.762 2.45984 143.685 2.34889 143.588 2.25744C143.491 2.166 143.375 2.09612 143.249 2.05238C143.123 2.00863 142.989 1.992 142.855 2.00357C142.825 2.00205 142.793 2.00205 142.762 2.00357ZM130.763 3.00357C130.543 3.05058 130.348 3.17365 130.21 3.35099C130.073 3.52833 130.003 3.74851 130.013 3.97257V20.9726C129.99 21.1085 129.998 21.2477 130.035 21.3804C130.072 21.5131 130.137 21.6362 130.226 21.7412C130.315 21.8462 130.426 21.9305 130.551 21.9884C130.676 22.0462 130.812 22.0762 130.95 22.0762C131.088 22.0762 131.224 22.0462 131.349 21.9884C131.474 21.9305 131.585 21.8462 131.674 21.7412C131.763 21.6362 131.828 21.5131 131.865 21.3804C131.902 21.2477 131.91 21.1085 131.888 20.9726V3.97257C131.891 3.83901 131.866 3.70629 131.814 3.58307C131.762 3.45984 131.685 3.34889 131.588 3.25744C131.491 3.166 131.375 3.09612 131.249 3.05238C131.123 3.00863 130.989 2.992 130.856 3.00357C130.825 3.00205 130.793 3.00205 130.763 3.00357ZM139.762 6.00357C139.543 6.05058 139.348 6.17365 139.21 6.35099C139.073 6.52833 139.003 6.74851 139.012 6.97257V17.9726C138.99 18.1087 138.997 18.2481 139.034 18.3812C139.07 18.5143 139.135 18.6378 139.224 18.7431C139.314 18.8484 139.425 18.933 139.55 18.9911C139.675 19.0491 139.811 19.0792 139.95 19.0792C140.088 19.0792 140.224 19.0491 140.349 18.9911C140.474 18.933 140.585 18.8484 140.675 18.7431C140.764 18.6378 140.829 18.5143 140.865 18.3812C140.902 18.2481 140.909 18.1087 140.886 17.9726V6.97257C140.89 6.8392 140.865 6.70666 140.813 6.58358C140.762 6.46051 140.685 6.34966 140.588 6.25824C140.491 6.16683 140.375 6.09691 140.249 6.05303C140.123 6.00915 139.989 5.9923 139.856 6.00357C139.825 6.00198 139.794 6.00198 139.762 6.00357ZM127.763 7.00357C127.543 7.05058 127.348 7.17365 127.21 7.35099C127.073 7.52833 127.003 7.74851 127.013 7.97257V16.9726C126.99 17.1087 126.997 17.2481 127.034 17.3812C127.07 17.5143 127.135 17.6378 127.224 17.7431C127.314 17.8484 127.425 17.933 127.55 17.9911C127.675 18.0491 127.811 18.0792 127.95 18.0792C128.088 18.0792 128.224 18.0491 128.349 17.9911C128.474 17.933 128.585 17.8484 128.675 17.7431C128.764 17.6378 128.829 17.5143 128.865 17.3812C128.902 17.2481 128.909 17.1087 128.886 16.9726V7.97257C128.89 7.8392 128.865 7.70666 128.813 7.58358C128.762 7.46051 128.685 7.34966 128.588 7.25824C128.491 7.16683 128.375 7.09691 128.249 7.05303C128.123 7.00915 127.989 6.9923 127.857 7.00357C127.825 7.00198 127.794 7.00198 127.763 7.00357ZM133.762 8.00357C133.543 8.05058 133.348 8.17365 133.21 8.35099C133.073 8.52833 133.003 8.74851 133.012 8.97257V15.9726C132.99 16.1087 132.997 16.2481 133.034 16.3812C133.07 16.5143 133.135 16.6378 133.224 16.7431C133.314 16.8484 133.425 16.933 133.55 16.9911C133.675 17.0491 133.811 17.0792 133.95 17.0792C134.088 17.0792 134.224 17.0491 134.349 16.9911C134.474 16.933 134.585 16.8484 134.675 16.7431C134.764 16.6378 134.829 16.5143 134.865 16.3812C134.902 16.2481 134.909 16.1087 134.887 15.9726V8.97257C134.89 8.8392 134.865 8.70666 134.813 8.58359C134.762 8.46051 134.685 8.34966 134.588 8.25824C134.491 8.16683 134.375 8.09691 134.249 8.05303C134.123 8.00915 133.989 7.9923 133.856 8.00357C133.825 8.00198 133.794 8.00198 133.762 8.00357ZM145.762 8.00357C145.543 8.05058 145.348 8.17365 145.21 8.35099C145.073 8.52833 145.003 8.74851 145.012 8.97257V15.9726C144.99 16.1085 144.998 16.2477 145.035 16.3804C145.072 16.5131 145.137 16.6362 145.226 16.7412C145.315 16.8462 145.426 16.9305 145.551 16.9884C145.676 17.0462 145.812 17.0762 145.95 17.0762C146.088 17.0762 146.224 17.0462 146.349 16.9884C146.474 16.9305 146.585 16.8462 146.674 16.7412C146.763 16.6362 146.828 16.5131 146.865 16.3804C146.902 16.2477 146.91 16.1085 146.887 15.9726V8.97257C146.891 8.83901 146.866 8.70629 146.814 8.58307C146.762 8.45984 146.685 8.34889 146.588 8.25744C146.491 8.166 146.375 8.09612 146.249 8.05238C146.123 8.00863 145.989 7.992 145.855 8.00357C145.825 8.00205 145.793 8.00205 145.762 8.00357ZM124.763 10.0036C124.543 10.0506 124.348 10.1736 124.21 10.351C124.073 10.5283 124.003 10.7485 124.013 10.9726V13.9726C123.99 14.1085 123.998 14.2477 124.035 14.3804C124.072 14.5131 124.137 14.6362 124.226 14.7412C124.315 14.8462 124.426 14.9305 124.551 14.9884C124.676 15.0462 124.812 15.0762 124.95 15.0762C125.088 15.0762 125.224 15.0462 125.349 14.9884C125.474 14.9305 125.585 14.8462 125.674 14.7412C125.763 14.6362 125.828 14.5131 125.865 14.3804C125.902 14.2477 125.91 14.1085 125.888 13.9726V10.9726C125.891 10.839 125.866 10.7063 125.814 10.5831C125.762 10.4598 125.685 10.3489 125.588 10.2574C125.491 10.166 125.375 10.0961 125.249 10.0524C125.123 10.0086 124.989 9.992 124.856 10.0036C124.824 10.002 124.793 10.002 124.762 10.0036H124.763ZM136.762 10.0036C136.543 10.0506 136.348 10.1736 136.21 10.351C136.073 10.5283 136.003 10.7485 136.012 10.9726V13.9726C135.99 14.1087 135.997 14.2481 136.034 14.3812C136.07 14.5143 136.135 14.6378 136.224 14.7431C136.314 14.8484 136.425 14.933 136.55 14.9911C136.675 15.0491 136.811 15.0792 136.95 15.0792C137.088 15.0792 137.224 15.0491 137.349 14.9911C137.474 14.933 137.585 14.8484 137.675 14.7431C137.764 14.6378 137.829 14.5143 137.865 14.3812C137.902 14.2481 137.909 14.1087 137.887 13.9726V10.9726C137.89 10.8392 137.865 10.7067 137.813 10.5836C137.762 10.4605 137.685 10.3497 137.588 10.2582C137.491 10.1668 137.375 10.0969 137.249 10.053C137.123 10.0092 136.989 9.9923 136.856 10.0036C136.825 10.002 136.794 10.002 136.762 10.0036ZM148.762 10.0036C148.543 10.0506 148.348 10.1736 148.21 10.351C148.073 10.5283 148.003 10.7485 148.012 10.9726V13.9726C147.99 14.1085 147.998 14.2477 148.035 14.3804C148.072 14.5131 148.137 14.6362 148.226 14.7412C148.315 14.8462 148.426 14.9305 148.551 14.9884C148.676 15.0462 148.812 15.0762 148.95 15.0762C149.088 15.0762 149.224 15.0462 149.349 14.9884C149.474 14.9305 149.585 14.8462 149.674 14.7412C149.763 14.6362 149.828 14.5131 149.865 14.3804C149.902 14.2477 149.91 14.1085 149.887 13.9726V10.9726C149.891 10.839 149.866 10.7063 149.814 10.5831C149.762 10.4598 149.685 10.3489 149.588 10.2574C149.491 10.166 149.375 10.0961 149.249 10.0524C149.123 10.0086 148.989 9.992 148.855 10.0036C148.825 10.0021 148.793 10.0021 148.762 10.0036Z" fill="#8A939D"/>
<path d="M166.762 2.00357C166.543 2.05058 166.348 2.17365 166.21 2.35099C166.073 2.52833 166.003 2.74851 166.012 2.97257V21.9726C165.99 22.1085 165.998 22.2477 166.035 22.3804C166.072 22.5131 166.137 22.6362 166.226 22.7412C166.315 22.8462 166.426 22.9305 166.551 22.9884C166.676 23.0462 166.812 23.0762 166.95 23.0762C167.088 23.0762 167.224 23.0462 167.349 22.9884C167.474 22.9305 167.585 22.8462 167.674 22.7412C167.763 22.6362 167.828 22.5131 167.865 22.3804C167.902 22.2477 167.91 22.1085 167.887 21.9726V2.97257C167.891 2.83901 167.866 2.70629 167.814 2.58307C167.762 2.45984 167.685 2.34889 167.588 2.25744C167.491 2.166 167.375 2.09612 167.249 2.05238C167.123 2.00863 166.989 1.992 166.855 2.00357C166.825 2.00205 166.793 2.00205 166.762 2.00357ZM154.763 3.00357C154.543 3.05058 154.348 3.17365 154.21 3.35099C154.073 3.52833 154.003 3.74851 154.013 3.97257V20.9726C153.99 21.1085 153.998 21.2477 154.035 21.3804C154.072 21.5131 154.137 21.6362 154.226 21.7412C154.315 21.8462 154.426 21.9305 154.551 21.9884C154.676 22.0462 154.812 22.0762 154.95 22.0762C155.088 22.0762 155.224 22.0462 155.349 21.9884C155.474 21.9305 155.585 21.8462 155.674 21.7412C155.763 21.6362 155.828 21.5131 155.865 21.3804C155.902 21.2477 155.91 21.1085 155.888 20.9726V3.97257C155.891 3.83901 155.866 3.70629 155.814 3.58307C155.762 3.45984 155.685 3.34889 155.588 3.25744C155.491 3.166 155.375 3.09612 155.249 3.05238C155.123 3.00863 154.989 2.992 154.856 3.00357C154.825 3.00205 154.793 3.00205 154.763 3.00357ZM163.762 6.00357C163.543 6.05058 163.348 6.17365 163.21 6.35099C163.073 6.52833 163.003 6.74851 163.012 6.97257V17.9726C162.99 18.1087 162.997 18.2481 163.034 18.3812C163.07 18.5143 163.135 18.6378 163.224 18.7431C163.314 18.8484 163.425 18.933 163.55 18.9911C163.675 19.0491 163.811 19.0792 163.95 19.0792C164.088 19.0792 164.224 19.0491 164.349 18.9911C164.474 18.933 164.585 18.8484 164.675 18.7431C164.764 18.6378 164.829 18.5143 164.865 18.3812C164.902 18.2481 164.909 18.1087 164.886 17.9726V6.97257C164.89 6.8392 164.865 6.70666 164.813 6.58358C164.762 6.46051 164.685 6.34966 164.588 6.25824C164.491 6.16683 164.375 6.09691 164.249 6.05303C164.123 6.00915 163.989 5.9923 163.856 6.00357C163.825 6.00198 163.794 6.00198 163.762 6.00357ZM151.763 7.00357C151.543 7.05058 151.348 7.17365 151.21 7.35099C151.073 7.52833 151.003 7.74851 151.013 7.97257V16.9726C150.99 17.1087 150.997 17.2481 151.034 17.3812C151.07 17.5143 151.135 17.6378 151.224 17.7431C151.314 17.8484 151.425 17.933 151.55 17.9911C151.675 18.0491 151.811 18.0792 151.95 18.0792C152.088 18.0792 152.224 18.0491 152.349 17.9911C152.474 17.933 152.585 17.8484 152.675 17.7431C152.764 17.6378 152.829 17.5143 152.865 17.3812C152.902 17.2481 152.909 17.1087 152.886 16.9726V7.97257C152.89 7.8392 152.865 7.70666 152.813 7.58358C152.762 7.46051 152.685 7.34966 152.588 7.25824C152.491 7.16683 152.375 7.09691 152.249 7.05303C152.123 7.00915 151.989 6.9923 151.857 7.00357C151.825 7.00198 151.794 7.00198 151.763 7.00357ZM157.762 8.00357C157.543 8.05058 157.348 8.17365 157.21 8.35099C157.073 8.52833 157.003 8.74851 157.012 8.97257V15.9726C156.99 16.1087 156.997 16.2481 157.034 16.3812C157.07 16.5143 157.135 16.6378 157.224 16.7431C157.314 16.8484 157.425 16.933 157.55 16.9911C157.675 17.0491 157.811 17.0792 157.95 17.0792C158.088 17.0792 158.224 17.0491 158.349 16.9911C158.474 16.933 158.585 16.8484 158.675 16.7431C158.764 16.6378 158.829 16.5143 158.865 16.3812C158.902 16.2481 158.909 16.1087 158.887 15.9726V8.97257C158.89 8.8392 158.865 8.70666 158.813 8.58359C158.762 8.46051 158.685 8.34966 158.588 8.25824C158.491 8.16683 158.375 8.09691 158.249 8.05303C158.123 8.00915 157.989 7.9923 157.856 8.00357C157.825 8.00198 157.794 8.00198 157.762 8.00357ZM169.762 8.00357C169.543 8.05058 169.348 8.17365 169.21 8.35099C169.073 8.52833 169.003 8.74851 169.012 8.97257V15.9726C168.99 16.1085 168.998 16.2477 169.035 16.3804C169.072 16.5131 169.137 16.6362 169.226 16.7412C169.315 16.8462 169.426 16.9305 169.551 16.9884C169.676 17.0462 169.812 17.0762 169.95 17.0762C170.088 17.0762 170.224 17.0462 170.349 16.9884C170.474 16.9305 170.585 16.8462 170.674 16.7412C170.763 16.6362 170.828 16.5131 170.865 16.3804C170.902 16.2477 170.91 16.1085 170.887 15.9726V8.97257C170.891 8.83901 170.866 8.70629 170.814 8.58307C170.762 8.45984 170.685 8.34889 170.588 8.25744C170.491 8.166 170.375 8.09612 170.249 8.05238C170.123 8.00863 169.989 7.992 169.855 8.00357C169.825 8.00205 169.793 8.00205 169.762 8.00357ZM148.763 10.0036C148.543 10.0506 148.348 10.1736 148.21 10.351C148.073 10.5283 148.003 10.7485 148.013 10.9726V13.9726C147.99 14.1085 147.998 14.2477 148.035 14.3804C148.072 14.5131 148.137 14.6362 148.226 14.7412C148.315 14.8462 148.426 14.9305 148.551 14.9884C148.676 15.0462 148.812 15.0762 148.95 15.0762C149.088 15.0762 149.224 15.0462 149.349 14.9884C149.474 14.9305 149.585 14.8462 149.674 14.7412C149.763 14.6362 149.828 14.5131 149.865 14.3804C149.902 14.2477 149.91 14.1085 149.888 13.9726V10.9726C149.891 10.839 149.866 10.7063 149.814 10.5831C149.762 10.4598 149.685 10.3489 149.588 10.2574C149.491 10.166 149.375 10.0961 149.249 10.0524C149.123 10.0086 148.989 9.992 148.856 10.0036C148.824 10.002 148.793 10.002 148.762 10.0036H148.763ZM160.762 10.0036C160.543 10.0506 160.348 10.1736 160.21 10.351C160.073 10.5283 160.003 10.7485 160.012 10.9726V13.9726C159.99 14.1087 159.997 14.2481 160.034 14.3812C160.07 14.5143 160.135 14.6378 160.224 14.7431C160.314 14.8484 160.425 14.933 160.55 14.9911C160.675 15.0491 160.811 15.0792 160.95 15.0792C161.088 15.0792 161.224 15.0491 161.349 14.9911C161.474 14.933 161.585 14.8484 161.675 14.7431C161.764 14.6378 161.829 14.5143 161.865 14.3812C161.902 14.2481 161.909 14.1087 161.887 13.9726V10.9726C161.89 10.8392 161.865 10.7067 161.813 10.5836C161.762 10.4605 161.685 10.3497 161.588 10.2582C161.491 10.1668 161.375 10.0969 161.249 10.053C161.123 10.0092 160.989 9.9923 160.856 10.0036C160.825 10.002 160.794 10.002 160.762 10.0036ZM172.762 10.0036C172.543 10.0506 172.348 10.1736 172.21 10.351C172.073 10.5283 172.003 10.7485 172.012 10.9726V13.9726C171.99 14.1085 171.998 14.2477 172.035 14.3804C172.072 14.5131 172.137 14.6362 172.226 14.7412C172.315 14.8462 172.426 14.9305 172.551 14.9884C172.676 15.0462 172.812 15.0762 172.95 15.0762C173.088 15.0762 173.224 15.0462 173.349 14.9884C173.474 14.9305 173.585 14.8462 173.674 14.7412C173.763 14.6362 173.828 14.5131 173.865 14.3804C173.902 14.2477 173.91 14.1085 173.887 13.9726V10.9726C173.891 10.839 173.866 10.7063 173.814 10.5831C173.762 10.4598 173.685 10.3489 173.588 10.2574C173.491 10.166 173.375 10.0961 173.249 10.0524C173.123 10.0086 172.989 9.992 172.855 10.0036C172.825 10.0021 172.793 10.0021 172.762 10.0036Z" fill="#8A939D"/>
<path d="M94.8349 0.00423335C94.6148 0.0599976 94.4185 0.205976 94.2807 0.416334C94.1429 0.626692 94.0725 0.887866 94.082 1.15364V23.6909C94.0597 23.8522 94.0673 24.0172 94.1043 24.1747C94.1413 24.3321 94.2068 24.4782 94.2963 24.6027C94.3859 24.7272 94.4972 24.8273 94.6228 24.8959C94.7483 24.9645 94.8849 25 95.0232 25C95.1614 25 95.2981 24.9645 95.4236 24.8959C95.5491 24.8273 95.6605 24.7272 95.75 24.6027C95.8395 24.4782 95.9051 24.3321 95.9421 24.1747C95.9791 24.0172 95.9866 23.8522 95.9643 23.6909V1.15364C95.9675 0.995217 95.9423 0.837786 95.8905 0.69162C95.8387 0.545454 95.7614 0.41384 95.6637 0.305371C95.5659 0.196902 95.4499 0.114018 95.3232 0.062128C95.1965 0.0102384 95.0619 -0.00948925 94.9283 0.00423335C94.8972 0.00243241 94.866 0.00243241 94.8349 0.00423335ZM82.7886 1.19041C82.5685 1.24617 82.3722 1.39215 82.2344 1.60251C82.0966 1.81287 82.0262 2.07404 82.0357 2.33981V22.5048C82.0134 22.666 82.0209 22.8311 82.0579 22.9885C82.095 23.1459 82.1605 23.292 82.25 23.4165C82.3395 23.541 82.4509 23.6411 82.5764 23.7097C82.7019 23.7783 82.8386 23.8138 82.9768 23.8138C83.1151 23.8138 83.2517 23.7783 83.3772 23.7097C83.5028 23.6411 83.6141 23.541 83.7037 23.4165C83.7932 23.292 83.8587 23.1459 83.8957 22.9885C83.9327 22.8311 83.9403 22.666 83.918 22.5048V2.33981C83.9211 2.18139 83.896 2.02396 83.8442 1.87779C83.7924 1.73163 83.7151 1.60001 83.6173 1.49154C83.5196 1.38308 83.4036 1.30019 83.2768 1.2483C83.1501 1.19641 83.0156 1.17668 82.882 1.19041C82.8509 1.18861 82.8197 1.18861 82.7886 1.19041ZM91.8234 4.74893C91.6032 4.80469 91.4069 4.95067 91.2691 5.16103C91.1313 5.37139 91.061 5.63256 91.0705 5.89833V18.9462C91.0476 19.1077 91.0548 19.2731 91.0916 19.4309C91.1283 19.5888 91.1937 19.7353 91.2833 19.8602C91.3728 19.9851 91.4843 20.0855 91.61 20.1544C91.7357 20.2232 91.8725 20.2589 92.0111 20.2589C92.1496 20.2589 92.2865 20.2232 92.4122 20.1544C92.5379 20.0855 92.6494 19.9851 92.7389 19.8602C92.8284 19.7353 92.8938 19.5888 92.9306 19.4309C92.9673 19.2731 92.9745 19.1077 92.9517 18.9462V5.89833C92.9549 5.74013 92.9298 5.58292 92.8781 5.43693C92.8264 5.29094 92.7493 5.15945 92.6518 5.05102C92.5542 4.94259 92.4384 4.85965 92.312 4.8076C92.1855 4.75555 92.0512 4.73556 91.9177 4.74893C91.886 4.74705 91.8551 4.74705 91.8234 4.74893ZM79.777 5.9351C79.5569 5.99087 79.3606 6.13684 79.2228 6.3472C79.085 6.55756 79.0146 6.81873 79.0241 7.0845V17.7601C79.0013 17.9215 79.0085 18.0869 79.0452 18.2448C79.082 18.4026 79.1474 18.5491 79.2369 18.674C79.3265 18.799 79.4379 18.8993 79.5636 18.9682C79.6893 19.037 79.8262 19.0727 79.9647 19.0727C80.1033 19.0727 80.2402 19.037 80.3659 18.9682C80.4916 18.8993 80.603 18.799 80.6926 18.674C80.7821 18.5491 80.8475 18.4026 80.8843 18.2448C80.921 18.0869 80.9282 17.9215 80.9054 17.7601V7.0845C80.9085 6.9263 80.8834 6.76909 80.8318 6.6231C80.7801 6.47711 80.703 6.34562 80.6054 6.23719C80.5079 6.12876 80.3921 6.04582 80.2656 5.99377C80.1392 5.94172 80.0048 5.92173 79.8714 5.9351C79.8396 5.93322 79.8088 5.93322 79.777 5.9351ZM85.8002 7.12128C85.5801 7.17704 85.3837 7.32302 85.246 7.53338C85.1082 7.74373 85.0378 8.00491 85.0473 8.27068V16.5739C85.0245 16.7354 85.0317 16.9008 85.0684 17.0586C85.1052 17.2164 85.1706 17.3629 85.2601 17.4879C85.3496 17.6128 85.4611 17.7132 85.5868 17.782C85.7125 17.8509 85.8494 17.8865 85.9879 17.8865C86.1265 17.8865 86.2633 17.8509 86.389 17.782C86.5147 17.7132 86.6262 17.6128 86.7157 17.4879C86.8053 17.3629 86.8707 17.2164 86.9074 17.0586C86.9442 16.9008 86.9514 16.7354 86.9285 16.5739V8.27068C86.9317 8.11248 86.9066 7.95526 86.8549 7.80928C86.8033 7.66329 86.7261 7.5318 86.6286 7.42336C86.5311 7.31493 86.4153 7.23199 86.2888 7.17994C86.1623 7.1279 86.028 7.10791 85.8946 7.12128C85.8628 7.1194 85.832 7.1194 85.8002 7.12128ZM97.8465 7.12128C97.6264 7.17704 97.4301 7.32302 97.2923 7.53338C97.1545 7.74373 97.0841 8.00491 97.0936 8.27068V16.5739C97.0713 16.7351 97.0789 16.9002 97.1159 17.0576C97.1529 17.2151 97.2184 17.3611 97.3079 17.4857C97.3975 17.6102 97.5088 17.7102 97.6343 17.7788C97.7598 17.8474 97.8965 17.883 98.0347 17.883C98.173 17.883 98.3097 17.8474 98.4352 17.7788C98.5607 17.7102 98.672 17.6102 98.7616 17.4857C98.8511 17.3611 98.9166 17.2151 98.9536 17.0576C98.9906 16.9002 98.9982 16.7351 98.9759 16.5739V8.27068C98.9791 8.11226 98.9539 7.95483 98.9021 7.80866C98.8503 7.6625 98.773 7.53088 98.6753 7.42241C98.5775 7.31394 98.4615 7.23106 98.3348 7.17917C98.208 7.12728 98.0735 7.10755 97.9399 7.12128C97.9088 7.11947 97.8776 7.11947 97.8465 7.12128ZM76.7654 9.49362C76.5453 9.54939 76.349 9.69537 76.2112 9.90572C76.0734 10.1161 76.003 10.3773 76.0125 10.643V14.2015C75.9902 14.3628 75.9978 14.5279 76.0348 14.6853C76.0718 14.8427 76.1373 14.9888 76.2268 15.1133C76.3164 15.2378 76.4278 15.3379 76.5533 15.4065C76.6788 15.4751 76.8154 15.5106 76.9537 15.5106C77.092 15.5106 77.2286 15.4751 77.3541 15.4065C77.4796 15.3379 77.591 15.2378 77.6805 15.1133C77.77 14.9888 77.8356 14.8427 77.8726 14.6853C77.9096 14.5279 77.9171 14.3628 77.8948 14.2015V10.643C77.898 10.4846 77.8728 10.3272 77.821 10.181C77.7693 10.0348 77.6919 9.90323 77.5942 9.79476C77.4964 9.68629 77.3804 9.60341 77.2537 9.55152C77.127 9.49963 76.9924 9.4799 76.8588 9.49362C76.8274 9.49178 76.7959 9.49178 76.7644 9.49362H76.7654ZM88.8118 9.49362C88.5917 9.54939 88.3953 9.69537 88.2575 9.90572C88.1197 10.1161 88.0494 10.3773 88.0589 10.643V14.2015C88.036 14.363 88.0432 14.5284 88.08 14.6863C88.1167 14.8441 88.1822 14.9906 88.2717 15.1155C88.3612 15.2404 88.4727 15.3408 88.5984 15.4097C88.7241 15.4785 88.861 15.5142 88.9995 15.5142C89.138 15.5142 89.2749 15.4785 89.4006 15.4097C89.5263 15.3408 89.6378 15.2404 89.7273 15.1155C89.8168 14.9906 89.8823 14.8441 89.919 14.6863C89.9558 14.5284 89.963 14.363 89.9401 14.2015V10.643C89.9433 10.4848 89.9182 10.3276 89.8665 10.1816C89.8148 10.0356 89.7377 9.90414 89.6402 9.79571C89.5426 9.68728 89.4269 9.60434 89.3004 9.55229C89.1739 9.50024 89.0396 9.48025 88.9061 9.49362C88.8744 9.49174 88.8435 9.49174 88.8118 9.49362ZM100.858 9.49362C100.638 9.54939 100.442 9.69537 100.304 9.90572C100.166 10.1161 100.096 10.3773 100.105 10.643V14.2015C100.083 14.3628 100.09 14.5279 100.127 14.6853C100.164 14.8427 100.23 14.9888 100.32 15.1133C100.409 15.2378 100.52 15.3379 100.646 15.4065C100.771 15.4751 100.908 15.5106 101.046 15.5106C101.185 15.5106 101.321 15.4751 101.447 15.4065C101.572 15.3379 101.684 15.2378 101.773 15.1133C101.863 14.9888 101.928 14.8427 101.965 14.6853C102.002 14.5279 102.01 14.3628 101.987 14.2015V10.643C101.991 10.4846 101.966 10.3272 101.914 10.181C101.862 10.0348 101.785 9.90323 101.687 9.79476C101.589 9.68629 101.473 9.60341 101.346 9.55152C101.22 9.49963 101.085 9.4799 100.951 9.49362C100.92 9.49182 100.889 9.49182 100.858 9.49362Z" fill="#8A939D"/>
<path d="M28.7625 2.00357C28.5432 2.05058 28.3477 2.17365 28.2104 2.35099C28.0731 2.52833 28.003 2.74851 28.0125 2.97257V21.9726C27.9902 22.1085 27.9978 22.2477 28.0346 22.3804C28.0715 22.5131 28.1368 22.6362 28.226 22.7412C28.3152 22.8462 28.4261 22.9305 28.5511 22.9884C28.6761 23.0462 28.8122 23.0762 28.95 23.0762C29.0877 23.0762 29.2239 23.0462 29.3489 22.9884C29.4739 22.9305 29.5848 22.8462 29.674 22.7412C29.7632 22.6362 29.8285 22.5131 29.8654 22.3804C29.9022 22.2477 29.9098 22.1085 29.8875 21.9726V2.97257C29.8907 2.83901 29.8656 2.70629 29.814 2.58307C29.7624 2.45984 29.6854 2.34889 29.588 2.25744C29.4907 2.166 29.3751 2.09612 29.2488 2.05238C29.1226 2.00863 28.9886 1.992 28.8555 2.00357C28.8245 2.00205 28.7935 2.00205 28.7625 2.00357ZM16.7625 3.00357C16.5432 3.05058 16.3477 3.17365 16.2104 3.35099C16.0731 3.52833 16.003 3.74851 16.0125 3.97257V20.9726C15.9902 21.1085 15.9978 21.2477 16.0346 21.3804C16.0715 21.5131 16.1368 21.6362 16.226 21.7412C16.3152 21.8462 16.4261 21.9305 16.5511 21.9884C16.6761 22.0462 16.8122 22.0762 16.95 22.0762C17.0878 22.0762 17.2239 22.0462 17.3489 21.9884C17.4739 21.9305 17.5848 21.8462 17.674 21.7412C17.7632 21.6362 17.8285 21.5131 17.8654 21.3804C17.9022 21.2477 17.9098 21.1085 17.8875 20.9726V3.97257C17.8907 3.83901 17.8656 3.70629 17.814 3.58307C17.7624 3.45984 17.6854 3.34889 17.588 3.25744C17.4907 3.166 17.3751 3.09612 17.2489 3.05238C17.1226 3.00863 16.9886 2.992 16.8555 3.00357C16.8245 3.00205 16.7935 3.00205 16.7625 3.00357ZM25.7625 6.00357C25.5432 6.05058 25.3477 6.17365 25.2104 6.35099C25.0731 6.52833 25.003 6.74851 25.0125 6.97257V17.9726C24.9897 18.1087 24.9969 18.2481 25.0335 18.3812C25.0701 18.5143 25.1353 18.6378 25.2245 18.7431C25.3137 18.8484 25.4247 18.933 25.5499 18.9911C25.6751 19.0491 25.8115 19.0792 25.9495 19.0792C26.0875 19.0792 26.2239 19.0491 26.3491 18.9911C26.4743 18.933 26.5853 18.8484 26.6745 18.7431C26.7637 18.6378 26.8289 18.5143 26.8655 18.3812C26.9021 18.2481 26.9093 18.1087 26.8865 17.9726V6.97257C26.8896 6.8392 26.8647 6.70666 26.8132 6.58358C26.7617 6.46051 26.6849 6.34966 26.5877 6.25824C26.4905 6.16683 26.3752 6.09691 26.2492 6.05303C26.1232 6.00915 25.9894 5.9923 25.8565 6.00357C25.8249 6.00198 25.7941 6.00198 25.7625 6.00357ZM13.7625 7.00357C13.5432 7.05058 13.3477 7.17365 13.2104 7.35099C13.0731 7.52833 13.003 7.74851 13.0125 7.97257V16.9726C12.9897 17.1087 12.9969 17.2481 13.0335 17.3812C13.0701 17.5143 13.1353 17.6378 13.2245 17.7431C13.3137 17.8484 13.4247 17.933 13.5499 17.9911C13.6751 18.0491 13.8115 18.0792 13.9495 18.0792C14.0875 18.0792 14.2239 18.0491 14.3491 17.9911C14.4743 17.933 14.5853 17.8484 14.6745 17.7431C14.7637 17.6378 14.8289 17.5143 14.8655 17.3812C14.9021 17.2481 14.9093 17.1087 14.8865 16.9726V7.97257C14.8896 7.8392 14.8647 7.70666 14.8132 7.58358C14.7617 7.46051 14.6849 7.34966 14.5877 7.25824C14.4905 7.16683 14.3752 7.09691 14.2492 7.05303C14.1232 7.00915 13.9894 6.9923 13.8565 7.00357C13.8249 7.00198 13.7941 7.00198 13.7625 7.00357ZM19.7625 8.00357C19.5432 8.05058 19.3477 8.17365 19.2104 8.35099C19.0731 8.52833 19.003 8.74851 19.0125 8.97257V15.9726C18.9897 16.1087 18.9969 16.2481 19.0335 16.3812C19.0701 16.5143 19.1353 16.6378 19.2245 16.7431C19.3137 16.8484 19.4247 16.933 19.5499 16.9911C19.6751 17.0491 19.8115 17.0792 19.9495 17.0792C20.0875 17.0792 20.2239 17.0491 20.3491 16.9911C20.4743 16.933 20.5853 16.8484 20.6745 16.7431C20.7637 16.6378 20.8289 16.5143 20.8655 16.3812C20.9021 16.2481 20.9093 16.1087 20.8865 15.9726V8.97257C20.8896 8.8392 20.8647 8.70666 20.8132 8.58359C20.7617 8.46051 20.6849 8.34966 20.5877 8.25824C20.4905 8.16683 20.3752 8.09691 20.2492 8.05303C20.1232 8.00915 19.9894 7.9923 19.8565 8.00357C19.8249 8.00198 19.7941 8.00198 19.7625 8.00357ZM31.7625 8.00357C31.5432 8.05058 31.3477 8.17365 31.2104 8.35099C31.0731 8.52833 31.003 8.74851 31.0125 8.97257V15.9726C30.9902 16.1085 30.9978 16.2477 31.0346 16.3804C31.0715 16.5131 31.1368 16.6362 31.226 16.7412C31.3152 16.8462 31.4261 16.9305 31.5511 16.9884C31.6761 17.0462 31.8122 17.0762 31.95 17.0762C32.0877 17.0762 32.2239 17.0462 32.3489 16.9884C32.4739 16.9305 32.5848 16.8462 32.674 16.7412C32.7632 16.6362 32.8285 16.5131 32.8654 16.3804C32.9022 16.2477 32.9098 16.1085 32.8875 15.9726V8.97257C32.8907 8.83901 32.8656 8.70629 32.814 8.58307C32.7624 8.45984 32.6854 8.34889 32.588 8.25744C32.4907 8.166 32.3751 8.09612 32.2488 8.05238C32.1226 8.00863 31.9886 7.992 31.8555 8.00357C31.8245 8.00205 31.7935 8.00205 31.7625 8.00357ZM10.7625 10.0036C10.5432 10.0506 10.3477 10.1736 10.2104 10.351C10.0731 10.5283 10.003 10.7485 10.0125 10.9726V13.9726C9.99023 14.1085 9.99778 14.2477 10.0346 14.3804C10.0715 14.5131 10.1368 14.6362 10.226 14.7412C10.3152 14.8462 10.4261 14.9305 10.5511 14.9884C10.6761 15.0462 10.8122 15.0762 10.95 15.0762C11.0878 15.0762 11.2239 15.0462 11.3489 14.9884C11.4739 14.9305 11.5848 14.8462 11.674 14.7412C11.7632 14.6362 11.8285 14.5131 11.8654 14.3804C11.9022 14.2477 11.9098 14.1085 11.8875 13.9726V10.9726C11.8907 10.839 11.8656 10.7063 11.814 10.5831C11.7624 10.4598 11.6854 10.3489 11.588 10.2574C11.4907 10.166 11.3751 10.0961 11.2489 10.0524C11.1226 10.0086 10.9886 9.992 10.8555 10.0036C10.8242 10.002 10.7928 10.002 10.7615 10.0036H10.7625ZM22.7625 10.0036C22.5432 10.0506 22.3477 10.1736 22.2104 10.351C22.0731 10.5283 22.003 10.7485 22.0125 10.9726V13.9726C21.9897 14.1087 21.9969 14.2481 22.0335 14.3812C22.0701 14.5143 22.1353 14.6378 22.2245 14.7431C22.3137 14.8484 22.4247 14.933 22.5499 14.9911C22.6751 15.0491 22.8115 15.0792 22.9495 15.0792C23.0875 15.0792 23.2239 15.0491 23.3491 14.9911C23.4743 14.933 23.5853 14.8484 23.6745 14.7431C23.7637 14.6378 23.8289 14.5143 23.8655 14.3812C23.9021 14.2481 23.9093 14.1087 23.8865 13.9726V10.9726C23.8896 10.8392 23.8647 10.7067 23.8132 10.5836C23.7617 10.4605 23.6849 10.3497 23.5877 10.2582C23.4905 10.1668 23.3752 10.0969 23.2492 10.053C23.1232 10.0092 22.9894 9.9923 22.8565 10.0036C22.8249 10.002 22.7941 10.002 22.7625 10.0036ZM34.7625 10.0036C34.5432 10.0506 34.3477 10.1736 34.2104 10.351C34.0731 10.5283 34.003 10.7485 34.0125 10.9726V13.9726C33.9902 14.1085 33.9978 14.2477 34.0346 14.3804C34.0715 14.5131 34.1368 14.6362 34.226 14.7412C34.3152 14.8462 34.4261 14.9305 34.5511 14.9884C34.6761 15.0462 34.8122 15.0762 34.95 15.0762C35.0877 15.0762 35.2239 15.0462 35.3489 14.9884C35.4739 14.9305 35.5848 14.8462 35.674 14.7412C35.7632 14.6362 35.8285 14.5131 35.8654 14.3804C35.9022 14.2477 35.9098 14.1085 35.8875 13.9726V10.9726C35.8907 10.839 35.8656 10.7063 35.814 10.5831C35.7624 10.4598 35.6854 10.3489 35.588 10.2574C35.4907 10.166 35.3751 10.0961 35.2488 10.0524C35.1226 10.0086 34.9886 9.992 34.8555 10.0036C34.8245 10.0021 34.7935 10.0021 34.7625 10.0036Z" fill="#8A939D"/>
<path d="M22.7625 2.00357C22.5432 2.05058 22.3477 2.17365 22.2104 2.35099C22.0731 2.52833 22.003 2.74851 22.0125 2.97257V21.9726C21.9902 22.1085 21.9978 22.2477 22.0346 22.3804C22.0715 22.5131 22.1368 22.6362 22.226 22.7412C22.3152 22.8462 22.4261 22.9305 22.5511 22.9884C22.6761 23.0462 22.8122 23.0762 22.95 23.0762C23.0877 23.0762 23.2239 23.0462 23.3489 22.9884C23.4739 22.9305 23.5848 22.8462 23.674 22.7412C23.7632 22.6362 23.8285 22.5131 23.8654 22.3804C23.9022 22.2477 23.9098 22.1085 23.8875 21.9726V2.97257C23.8907 2.83901 23.8656 2.70629 23.814 2.58307C23.7624 2.45984 23.6854 2.34889 23.588 2.25744C23.4907 2.166 23.3751 2.09612 23.2488 2.05238C23.1226 2.00863 22.9886 1.992 22.8555 2.00357C22.8245 2.00205 22.7935 2.00205 22.7625 2.00357ZM10.7625 3.00357C10.5432 3.05058 10.3477 3.17365 10.2104 3.35099C10.0731 3.52833 10.003 3.74851 10.0125 3.97257V20.9726C9.99023 21.1085 9.99778 21.2477 10.0346 21.3804C10.0715 21.5131 10.1368 21.6362 10.226 21.7412C10.3152 21.8462 10.4261 21.9305 10.5511 21.9884C10.6761 22.0462 10.8122 22.0762 10.95 22.0762C11.0878 22.0762 11.2239 22.0462 11.3489 21.9884C11.4739 21.9305 11.5848 21.8462 11.674 21.7412C11.7632 21.6362 11.8285 21.5131 11.8654 21.3804C11.9022 21.2477 11.9098 21.1085 11.8875 20.9726V3.97257C11.8907 3.83901 11.8656 3.70629 11.814 3.58307C11.7624 3.45984 11.6854 3.34889 11.588 3.25744C11.4907 3.166 11.3751 3.09612 11.2489 3.05238C11.1226 3.00863 10.9886 2.992 10.8555 3.00357C10.8245 3.00205 10.7935 3.00205 10.7625 3.00357ZM19.7625 6.00357C19.5432 6.05058 19.3477 6.17365 19.2104 6.35099C19.0731 6.52833 19.003 6.74851 19.0125 6.97257V17.9726C18.9897 18.1087 18.9969 18.2481 19.0335 18.3812C19.0701 18.5143 19.1353 18.6378 19.2245 18.7431C19.3137 18.8484 19.4247 18.933 19.5499 18.9911C19.6751 19.0491 19.8115 19.0792 19.9495 19.0792C20.0875 19.0792 20.2239 19.0491 20.3491 18.9911C20.4743 18.933 20.5853 18.8484 20.6745 18.7431C20.7637 18.6378 20.8289 18.5143 20.8655 18.3812C20.9021 18.2481 20.9093 18.1087 20.8865 17.9726V6.97257C20.8896 6.8392 20.8647 6.70666 20.8132 6.58358C20.7617 6.46051 20.6849 6.34966 20.5877 6.25824C20.4905 6.16683 20.3752 6.09691 20.2492 6.05303C20.1232 6.00915 19.9894 5.9923 19.8565 6.00357C19.8249 6.00198 19.7941 6.00198 19.7625 6.00357ZM7.7625 7.00357C7.54323 7.05058 7.34765 7.17365 7.21039 7.35099C7.07313 7.52833 7.00303 7.74851 7.0125 7.97257V16.9726C6.98975 17.1087 6.99692 17.2481 7.03353 17.3812C7.07014 17.5143 7.1353 17.6378 7.22449 17.7431C7.31367 17.8484 7.42472 17.933 7.54993 17.9911C7.67514 18.0491 7.81149 18.0792 7.9495 18.0792C8.08751 18.0792 8.22386 18.0491 8.34907 17.9911C8.47428 17.933 8.58533 17.8484 8.67451 17.7431C8.7637 17.6378 8.82886 17.5143 8.86547 17.3812C8.90208 17.2481 8.90925 17.1087 8.8865 16.9726V7.97257C8.88965 7.8392 8.86467 7.70666 8.81319 7.58358C8.76171 7.46051 8.68488 7.34966 8.58771 7.25824C8.49055 7.16683 8.37522 7.09691 8.24923 7.05303C8.12325 7.00915 7.98943 6.9923 7.8565 7.00357C7.82485 7.00198 7.79415 7.00198 7.7625 7.00357ZM13.7625 8.00357C13.5432 8.05058 13.3477 8.17365 13.2104 8.35099C13.0731 8.52833 13.003 8.74851 13.0125 8.97257V15.9726C12.9897 16.1087 12.9969 16.2481 13.0335 16.3812C13.0701 16.5143 13.1353 16.6378 13.2245 16.7431C13.3137 16.8484 13.4247 16.933 13.5499 16.9911C13.6751 17.0491 13.8115 17.0792 13.9495 17.0792C14.0875 17.0792 14.2239 17.0491 14.3491 16.9911C14.4743 16.933 14.5853 16.8484 14.6745 16.7431C14.7637 16.6378 14.8289 16.5143 14.8655 16.3812C14.9021 16.2481 14.9093 16.1087 14.8865 15.9726V8.97257C14.8896 8.8392 14.8647 8.70666 14.8132 8.58359C14.7617 8.46051 14.6849 8.34966 14.5877 8.25824C14.4905 8.16683 14.3752 8.09691 14.2492 8.05303C14.1232 8.00915 13.9894 7.9923 13.8565 8.00357C13.8249 8.00198 13.7941 8.00198 13.7625 8.00357ZM25.7625 8.00357C25.5432 8.05058 25.3477 8.17365 25.2104 8.35099C25.0731 8.52833 25.003 8.74851 25.0125 8.97257V15.9726C24.9902 16.1085 24.9978 16.2477 25.0346 16.3804C25.0715 16.5131 25.1368 16.6362 25.226 16.7412C25.3152 16.8462 25.4261 16.9305 25.5511 16.9884C25.6761 17.0462 25.8122 17.0762 25.95 17.0762C26.0877 17.0762 26.2239 17.0462 26.3489 16.9884C26.4739 16.9305 26.5848 16.8462 26.674 16.7412C26.7632 16.6362 26.8285 16.5131 26.8654 16.3804C26.9022 16.2477 26.9098 16.1085 26.8875 15.9726V8.97257C26.8907 8.83901 26.8656 8.70629 26.814 8.58307C26.7624 8.45984 26.6854 8.34889 26.588 8.25744C26.4907 8.166 26.3751 8.09612 26.2488 8.05238C26.1226 8.00863 25.9886 7.992 25.8555 8.00357C25.8245 8.00205 25.7935 8.00205 25.7625 8.00357ZM4.7625 10.0036C4.54323 10.0506 4.34765 10.1736 4.21039 10.351C4.07313 10.5283 4.00303 10.7485 4.0125 10.9726V13.9726C3.99023 14.1085 3.99778 14.2477 4.03465 14.3804C4.07151 14.5131 4.13679 14.6362 4.22598 14.7412C4.31516 14.8462 4.42611 14.9305 4.55113 14.9884C4.67615 15.0462 4.81225 15.0762 4.95 15.0762C5.08775 15.0762 5.22385 15.0462 5.34887 14.9884C5.47389 14.9305 5.58484 14.8462 5.67402 14.7412C5.76321 14.6362 5.82849 14.5131 5.86535 14.3804C5.90222 14.2477 5.90977 14.1085 5.8875 13.9726V10.9726C5.89067 10.839 5.86564 10.7063 5.81404 10.5831C5.76245 10.4598 5.68544 10.3489 5.58805 10.2574C5.49066 10.166 5.37508 10.0961 5.24885 10.0524C5.12262 10.0086 4.98859 9.992 4.8555 10.0036C4.82419 10.002 4.79281 10.002 4.7615 10.0036H4.7625ZM16.7625 10.0036C16.5432 10.0506 16.3477 10.1736 16.2104 10.351C16.0731 10.5283 16.003 10.7485 16.0125 10.9726V13.9726C15.9897 14.1087 15.9969 14.2481 16.0335 14.3812C16.0701 14.5143 16.1353 14.6378 16.2245 14.7431C16.3137 14.8484 16.4247 14.933 16.5499 14.9911C16.6751 15.0491 16.8115 15.0792 16.9495 15.0792C17.0875 15.0792 17.2239 15.0491 17.3491 14.9911C17.4743 14.933 17.5853 14.8484 17.6745 14.7431C17.7637 14.6378 17.8289 14.5143 17.8655 14.3812C17.9021 14.2481 17.9093 14.1087 17.8865 13.9726V10.9726C17.8896 10.8392 17.8647 10.7067 17.8132 10.5836C17.7617 10.4605 17.6849 10.3497 17.5877 10.2582C17.4905 10.1668 17.3752 10.0969 17.2492 10.053C17.1232 10.0092 16.9894 9.9923 16.8565 10.0036C16.8249 10.002 16.7941 10.002 16.7625 10.0036ZM28.7625 10.0036C28.5432 10.0506 28.3477 10.1736 28.2104 10.351C28.0731 10.5283 28.003 10.7485 28.0125 10.9726V13.9726C27.9902 14.1085 27.9978 14.2477 28.0346 14.3804C28.0715 14.5131 28.1368 14.6362 28.226 14.7412C28.3152 14.8462 28.4261 14.9305 28.5511 14.9884C28.6761 15.0462 28.8122 15.0762 28.95 15.0762C29.0877 15.0762 29.2239 15.0462 29.3489 14.9884C29.4739 14.9305 29.5848 14.8462 29.674 14.7412C29.7632 14.6362 29.8285 14.5131 29.8654 14.3804C29.9022 14.2477 29.9098 14.1085 29.8875 13.9726V10.9726C29.8907 10.839 29.8656 10.7063 29.814 10.5831C29.7624 10.4598 29.6854 10.3489 29.588 10.2574C29.4907 10.166 29.3751 10.0961 29.2488 10.0524C29.1226 10.0086 28.9886 9.992 28.8555 10.0036C28.8245 10.0021 28.7935 10.0021 28.7625 10.0036Z" fill="#8A939D"/>
<path d="M46.7625 2.00357C46.5432 2.05058 46.3477 2.17365 46.2104 2.35099C46.0731 2.52833 46.003 2.74851 46.0125 2.97257V21.9726C45.9902 22.1085 45.9978 22.2477 46.0346 22.3804C46.0715 22.5131 46.1368 22.6362 46.226 22.7412C46.3152 22.8462 46.4261 22.9305 46.5511 22.9884C46.6761 23.0462 46.8122 23.0762 46.95 23.0762C47.0877 23.0762 47.2239 23.0462 47.3489 22.9884C47.4739 22.9305 47.5848 22.8462 47.674 22.7412C47.7632 22.6362 47.8285 22.5131 47.8654 22.3804C47.9022 22.2477 47.9098 22.1085 47.8875 21.9726V2.97257C47.8907 2.83901 47.8656 2.70629 47.814 2.58307C47.7624 2.45984 47.6854 2.34889 47.588 2.25744C47.4907 2.166 47.3751 2.09612 47.2488 2.05238C47.1226 2.00863 46.9886 1.992 46.8555 2.00357C46.8245 2.00205 46.7935 2.00205 46.7625 2.00357ZM34.7625 3.00357C34.5432 3.05058 34.3477 3.17365 34.2104 3.35099C34.0731 3.52833 34.003 3.74851 34.0125 3.97257V20.9726C33.9902 21.1085 33.9978 21.2477 34.0346 21.3804C34.0715 21.5131 34.1368 21.6362 34.226 21.7412C34.3152 21.8462 34.4261 21.9305 34.5511 21.9884C34.6761 22.0462 34.8122 22.0762 34.95 22.0762C35.0878 22.0762 35.2239 22.0462 35.3489 21.9884C35.4739 21.9305 35.5848 21.8462 35.674 21.7412C35.7632 21.6362 35.8285 21.5131 35.8654 21.3804C35.9022 21.2477 35.9098 21.1085 35.8875 20.9726V3.97257C35.8907 3.83901 35.8656 3.70629 35.814 3.58307C35.7624 3.45984 35.6854 3.34889 35.588 3.25744C35.4907 3.166 35.3751 3.09612 35.2489 3.05238C35.1226 3.00863 34.9886 2.992 34.8555 3.00357C34.8245 3.00205 34.7935 3.00205 34.7625 3.00357ZM43.7625 6.00357C43.5432 6.05058 43.3477 6.17365 43.2104 6.35099C43.0731 6.52833 43.003 6.74851 43.0125 6.97257V17.9726C42.9897 18.1087 42.9969 18.2481 43.0335 18.3812C43.0701 18.5143 43.1353 18.6378 43.2245 18.7431C43.3137 18.8484 43.4247 18.933 43.5499 18.9911C43.6751 19.0491 43.8115 19.0792 43.9495 19.0792C44.0875 19.0792 44.2239 19.0491 44.3491 18.9911C44.4743 18.933 44.5853 18.8484 44.6745 18.7431C44.7637 18.6378 44.8289 18.5143 44.8655 18.3812C44.9021 18.2481 44.9093 18.1087 44.8865 17.9726V6.97257C44.8896 6.8392 44.8647 6.70666 44.8132 6.58358C44.7617 6.46051 44.6849 6.34966 44.5877 6.25824C44.4905 6.16683 44.3752 6.09691 44.2492 6.05303C44.1232 6.00915 43.9894 5.9923 43.8565 6.00357C43.8249 6.00198 43.7941 6.00198 43.7625 6.00357ZM31.7625 7.00357C31.5432 7.05058 31.3477 7.17365 31.2104 7.35099C31.0731 7.52833 31.003 7.74851 31.0125 7.97257V16.9726C30.9897 17.1087 30.9969 17.2481 31.0335 17.3812C31.0701 17.5143 31.1353 17.6378 31.2245 17.7431C31.3137 17.8484 31.4247 17.933 31.5499 17.9911C31.6751 18.0491 31.8115 18.0792 31.9495 18.0792C32.0875 18.0792 32.2239 18.0491 32.3491 17.9911C32.4743 17.933 32.5853 17.8484 32.6745 17.7431C32.7637 17.6378 32.8289 17.5143 32.8655 17.3812C32.9021 17.2481 32.9093 17.1087 32.8865 16.9726V7.97257C32.8896 7.8392 32.8647 7.70666 32.8132 7.58358C32.7617 7.46051 32.6849 7.34966 32.5877 7.25824C32.4905 7.16683 32.3752 7.09691 32.2492 7.05303C32.1232 7.00915 31.9894 6.9923 31.8565 7.00357C31.8249 7.00198 31.7941 7.00198 31.7625 7.00357ZM37.7625 8.00357C37.5432 8.05058 37.3477 8.17365 37.2104 8.35099C37.0731 8.52833 37.003 8.74851 37.0125 8.97257V15.9726C36.9897 16.1087 36.9969 16.2481 37.0335 16.3812C37.0701 16.5143 37.1353 16.6378 37.2245 16.7431C37.3137 16.8484 37.4247 16.933 37.5499 16.9911C37.6751 17.0491 37.8115 17.0792 37.9495 17.0792C38.0875 17.0792 38.2239 17.0491 38.3491 16.9911C38.4743 16.933 38.5853 16.8484 38.6745 16.7431C38.7637 16.6378 38.8289 16.5143 38.8655 16.3812C38.9021 16.2481 38.9093 16.1087 38.8865 15.9726V8.97257C38.8896 8.8392 38.8647 8.70666 38.8132 8.58359C38.7617 8.46051 38.6849 8.34966 38.5877 8.25824C38.4905 8.16683 38.3752 8.09691 38.2492 8.05303C38.1232 8.00915 37.9894 7.9923 37.8565 8.00357C37.8249 8.00198 37.7941 8.00198 37.7625 8.00357ZM49.7625 8.00357C49.5432 8.05058 49.3477 8.17365 49.2104 8.35099C49.0731 8.52833 49.003 8.74851 49.0125 8.97257V15.9726C48.9902 16.1085 48.9978 16.2477 49.0346 16.3804C49.0715 16.5131 49.1368 16.6362 49.226 16.7412C49.3152 16.8462 49.4261 16.9305 49.5511 16.9884C49.6761 17.0462 49.8122 17.0762 49.95 17.0762C50.0877 17.0762 50.2239 17.0462 50.3489 16.9884C50.4739 16.9305 50.5848 16.8462 50.674 16.7412C50.7632 16.6362 50.8285 16.5131 50.8654 16.3804C50.9022 16.2477 50.9098 16.1085 50.8875 15.9726V8.97257C50.8907 8.83901 50.8656 8.70629 50.814 8.58307C50.7624 8.45984 50.6854 8.34889 50.588 8.25744C50.4907 8.166 50.3751 8.09612 50.2488 8.05238C50.1226 8.00863 49.9886 7.992 49.8555 8.00357C49.8245 8.00205 49.7935 8.00205 49.7625 8.00357ZM28.7625 10.0036C28.5432 10.0506 28.3477 10.1736 28.2104 10.351C28.0731 10.5283 28.003 10.7485 28.0125 10.9726V13.9726C27.9902 14.1085 27.9978 14.2477 28.0346 14.3804C28.0715 14.5131 28.1368 14.6362 28.226 14.7412C28.3152 14.8462 28.4261 14.9305 28.5511 14.9884C28.6761 15.0462 28.8122 15.0762 28.95 15.0762C29.0878 15.0762 29.2239 15.0462 29.3489 14.9884C29.4739 14.9305 29.5848 14.8462 29.674 14.7412C29.7632 14.6362 29.8285 14.5131 29.8654 14.3804C29.9022 14.2477 29.9098 14.1085 29.8875 13.9726V10.9726C29.8907 10.839 29.8656 10.7063 29.814 10.5831C29.7624 10.4598 29.6854 10.3489 29.588 10.2574C29.4907 10.166 29.3751 10.0961 29.2489 10.0524C29.1226 10.0086 28.9886 9.992 28.8555 10.0036C28.8242 10.002 28.7928 10.002 28.7615 10.0036H28.7625ZM40.7625 10.0036C40.5432 10.0506 40.3477 10.1736 40.2104 10.351C40.0731 10.5283 40.003 10.7485 40.0125 10.9726V13.9726C39.9897 14.1087 39.9969 14.2481 40.0335 14.3812C40.0701 14.5143 40.1353 14.6378 40.2245 14.7431C40.3137 14.8484 40.4247 14.933 40.5499 14.9911C40.6751 15.0491 40.8115 15.0792 40.9495 15.0792C41.0875 15.0792 41.2239 15.0491 41.3491 14.9911C41.4743 14.933 41.5853 14.8484 41.6745 14.7431C41.7637 14.6378 41.8289 14.5143 41.8655 14.3812C41.9021 14.2481 41.9093 14.1087 41.8865 13.9726V10.9726C41.8896 10.8392 41.8647 10.7067 41.8132 10.5836C41.7617 10.4605 41.6849 10.3497 41.5877 10.2582C41.4905 10.1668 41.3752 10.0969 41.2492 10.053C41.1232 10.0092 40.9894 9.9923 40.8565 10.0036C40.8249 10.002 40.7941 10.002 40.7625 10.0036ZM52.7625 10.0036C52.5432 10.0506 52.3477 10.1736 52.2104 10.351C52.0731 10.5283 52.003 10.7485 52.0125 10.9726V13.9726C51.9902 14.1085 51.9978 14.2477 52.0346 14.3804C52.0715 14.5131 52.1368 14.6362 52.226 14.7412C52.3152 14.8462 52.4261 14.9305 52.5511 14.9884C52.6761 15.0462 52.8122 15.0762 52.95 15.0762C53.0877 15.0762 53.2239 15.0462 53.3489 14.9884C53.4739 14.9305 53.5848 14.8462 53.674 14.7412C53.7632 14.6362 53.8285 14.5131 53.8654 14.3804C53.9022 14.2477 53.9098 14.1085 53.8875 13.9726V10.9726C53.8907 10.839 53.8656 10.7063 53.814 10.5831C53.7624 10.4598 53.6854 10.3489 53.588 10.2574C53.4907 10.166 53.3751 10.0961 53.2488 10.0524C53.1226 10.0086 52.9886 9.992 52.8555 10.0036C52.8245 10.0021 52.7935 10.0021 52.7625 10.0036Z" fill="#8A939D"/>
<path d="M70.8349 7.00186C70.6148 7.0264 70.4185 7.09063 70.2807 7.18319C70.1429 7.27574 70.0725 7.39066 70.082 7.5076V17.424C70.0597 17.495 70.0673 17.5676 70.1043 17.6369C70.1413 17.7061 70.2068 17.7704 70.2963 17.8252C70.3859 17.88 70.4972 17.924 70.6228 17.9542C70.7483 17.9844 70.8849 18 71.0232 18C71.1614 18 71.2981 17.9844 71.4236 17.9542C71.5491 17.924 71.6605 17.88 71.75 17.8252C71.8395 17.7704 71.9051 17.7061 71.9421 17.6369C71.9791 17.5676 71.9866 17.495 71.9643 17.424V7.5076C71.9675 7.4379 71.9423 7.36863 71.8905 7.30431C71.8387 7.24 71.7614 7.18209 71.6637 7.13436C71.5659 7.08664 71.4499 7.05017 71.3232 7.02734C71.1965 7.0045 71.0619 6.99582 70.9283 7.00186C70.8972 7.00107 70.866 7.00107 70.8349 7.00186ZM58.7886 7.52378C58.5685 7.54832 58.3722 7.61255 58.2344 7.7051C58.0966 7.79766 58.0262 7.91258 58.0357 8.02952V16.9021C58.0134 16.973 58.0209 17.0457 58.0579 17.1149C58.095 17.1842 58.1605 17.2485 58.25 17.3033C58.3395 17.3581 58.4509 17.4021 58.5764 17.4323C58.7019 17.4624 58.8386 17.4781 58.9768 17.4781C59.1151 17.4781 59.2517 17.4624 59.3772 17.4323C59.5028 17.4021 59.6141 17.3581 59.7037 17.3033C59.7932 17.2485 59.8587 17.1842 59.8957 17.1149C59.9327 17.0457 59.9403 16.973 59.918 16.9021V8.02952C59.9211 7.95981 59.896 7.89054 59.8442 7.82623C59.7924 7.76192 59.7151 7.70401 59.6173 7.65628C59.5196 7.60855 59.4036 7.57208 59.2768 7.54925C59.1501 7.52642 59.0156 7.51774 58.882 7.52378C58.8509 7.52299 58.8197 7.52299 58.7886 7.52378ZM67.8234 9.08953C67.6032 9.11406 67.4069 9.17829 67.2691 9.27085C67.1313 9.36341 67.061 9.47833 67.0705 9.59527V15.3363C67.0476 15.4074 67.0548 15.4802 67.0916 15.5496C67.1283 15.6191 67.1937 15.6835 67.2833 15.7385C67.3728 15.7935 67.4843 15.8376 67.61 15.8679C67.7357 15.8982 67.8725 15.9139 68.0111 15.9139C68.1496 15.9139 68.2865 15.8982 68.4122 15.8679C68.5379 15.8376 68.6494 15.7935 68.7389 15.7385C68.8284 15.6835 68.8938 15.6191 68.9306 15.5496C68.9673 15.4802 68.9745 15.4074 68.9517 15.3363V9.59527C68.9549 9.52566 68.9298 9.45648 68.8781 9.39225C68.8264 9.32801 68.7493 9.27016 68.6518 9.22245C68.5542 9.17474 68.4384 9.13824 68.312 9.11534C68.1855 9.09244 68.0512 9.08365 67.9177 9.08953C67.886 9.0887 67.8551 9.0887 67.8234 9.08953ZM55.777 9.61144C55.5569 9.63598 55.3606 9.70021 55.2228 9.79277C55.085 9.88533 55.0146 10.0002 55.0241 10.1172V14.8144C55.0013 14.8855 55.0085 14.9583 55.0452 15.0277C55.082 15.0971 55.1474 15.1616 55.2369 15.2166C55.3265 15.2715 55.4379 15.3157 55.5636 15.346C55.6893 15.3763 55.8262 15.392 55.9647 15.392C56.1033 15.392 56.2402 15.3763 56.3659 15.346C56.4916 15.3157 56.603 15.2715 56.6926 15.2166C56.7821 15.1616 56.8475 15.0971 56.8843 15.0277C56.921 14.9583 56.9282 14.8855 56.9054 14.8144V10.1172C56.9085 10.0476 56.8834 9.9784 56.8318 9.91416C56.7801 9.84993 56.703 9.79207 56.6054 9.74436C56.5079 9.69665 56.3921 9.66016 56.2656 9.63726C56.1392 9.61436 56.0048 9.60556 55.8714 9.61144C55.8396 9.61062 55.8088 9.61062 55.777 9.61144ZM61.8002 10.1334C61.5801 10.1579 61.3837 10.2221 61.246 10.3147C61.1082 10.4072 61.0378 10.5222 61.0473 10.6391V14.2925C61.0245 14.3636 61.0317 14.4363 61.0684 14.5058C61.1052 14.5752 61.1706 14.6397 61.2601 14.6947C61.3496 14.7496 61.4611 14.7938 61.5868 14.8241C61.7125 14.8544 61.8494 14.8701 61.9879 14.8701C62.1265 14.8701 62.2633 14.8544 62.389 14.8241C62.5147 14.7938 62.6262 14.7496 62.7157 14.6947C62.8053 14.6397 62.8707 14.5752 62.9074 14.5058C62.9442 14.4363 62.9514 14.3636 62.9285 14.2925V10.6391C62.9317 10.5695 62.9066 10.5003 62.8549 10.4361C62.8033 10.3718 62.7261 10.314 62.6286 10.2663C62.5311 10.2186 62.4153 10.1821 62.2888 10.1592C62.1623 10.1363 62.028 10.1275 61.8946 10.1334C61.8628 10.1325 61.832 10.1325 61.8002 10.1334ZM73.8465 10.1334C73.6264 10.1579 73.4301 10.2221 73.2923 10.3147C73.1545 10.4072 73.0841 10.5222 73.0936 10.6391V14.2925C73.0713 14.3635 73.0789 14.4361 73.1159 14.5054C73.1529 14.5746 73.2184 14.6389 73.3079 14.6937C73.3975 14.7485 73.5088 14.7925 73.6343 14.8227C73.7598 14.8529 73.8965 14.8685 74.0347 14.8685C74.173 14.8685 74.3097 14.8529 74.4352 14.8227C74.5607 14.7925 74.672 14.7485 74.7616 14.6937C74.8511 14.6389 74.9166 14.5746 74.9536 14.5054C74.9906 14.4361 74.9982 14.3635 74.9759 14.2925V10.6391C74.9791 10.5694 74.9539 10.5001 74.9021 10.4358C74.8503 10.3715 74.773 10.3136 74.6753 10.2659C74.5775 10.2181 74.4615 10.1817 74.3348 10.1588C74.208 10.136 74.0735 10.1273 73.9399 10.1334C73.9088 10.1326 73.8776 10.1326 73.8465 10.1334ZM52.7654 11.1772C52.5453 11.2017 52.349 11.266 52.2112 11.3585C52.0734 11.4511 52.003 11.566 52.0125 11.6829V13.2487C51.9902 13.3196 51.9978 13.3923 52.0348 13.4615C52.0718 13.5308 52.1373 13.5951 52.2268 13.6499C52.3164 13.7046 52.4278 13.7487 52.5533 13.7788C52.6788 13.809 52.8154 13.8247 52.9537 13.8247C53.092 13.8247 53.2286 13.809 53.3541 13.7788C53.4796 13.7487 53.591 13.7046 53.6805 13.6499C53.77 13.5951 53.8356 13.5308 53.8726 13.4615C53.9096 13.3923 53.9171 13.3196 53.8948 13.2487V11.6829C53.898 11.6132 53.8728 11.544 53.821 11.4796C53.7693 11.4153 53.6919 11.3574 53.5942 11.3097C53.4964 11.262 53.3804 11.2255 53.2537 11.2027C53.127 11.1798 52.9924 11.1712 52.8588 11.1772C52.8274 11.1764 52.7959 11.1764 52.7644 11.1772H52.7654ZM64.8118 11.1772C64.5917 11.2017 64.3953 11.266 64.2575 11.3585C64.1197 11.4511 64.0494 11.566 64.0589 11.6829V13.2487C64.036 13.3197 64.0432 13.3925 64.08 13.462C64.1167 13.5314 64.1822 13.5959 64.2717 13.6508C64.3612 13.7058 64.4727 13.75 64.5984 13.7803C64.7241 13.8106 64.861 13.8262 64.9995 13.8262C65.138 13.8262 65.2749 13.8106 65.4006 13.7803C65.5263 13.75 65.6378 13.7058 65.7273 13.6508C65.8168 13.5959 65.8823 13.5314 65.919 13.462C65.9558 13.3925 65.963 13.3197 65.9401 13.2487V11.6829C65.9433 11.6133 65.9182 11.5441 65.8665 11.4799C65.8148 11.4157 65.7377 11.3578 65.6402 11.3101C65.5426 11.2624 65.4269 11.2259 65.3004 11.203C65.1739 11.1801 65.0396 11.1713 64.9061 11.1772C64.8744 11.1764 64.8435 11.1764 64.8118 11.1772ZM76.8581 11.1772C76.638 11.2017 76.4417 11.266 76.3039 11.3585C76.1661 11.4511 76.0957 11.566 76.1052 11.6829V13.2487C76.0829 13.3196 76.0904 13.3923 76.1274 13.4615C76.1644 13.5308 76.23 13.5951 76.3195 13.6499C76.409 13.7046 76.5204 13.7487 76.6459 13.7788C76.7714 13.809 76.9081 13.8247 77.0463 13.8247C77.1846 13.8247 77.3212 13.809 77.4467 13.7788C77.5723 13.7487 77.6836 13.7046 77.7732 13.6499C77.8627 13.5951 77.9282 13.5308 77.9652 13.4615C78.0022 13.3923 78.0098 13.3196 77.9875 13.2487V11.6829C77.9906 11.6132 77.9655 11.544 77.9137 11.4796C77.8619 11.4153 77.7846 11.3574 77.6868 11.3097C77.5891 11.262 77.4731 11.2255 77.3463 11.2027C77.2196 11.1798 77.0851 11.1712 76.9515 11.1772C76.9204 11.1764 76.8892 11.1764 76.8581 11.1772Z" fill="#8A939D"/>
<g filter="url(#filter0_d_3101_11049)">
<path d="M14 12C14 14.7614 11.7614 17 9 17C6.23858 17 4 14.7614 4 12C4 9.23858 6.23858 7 9 7C11.7614 7 14 9.23858 14 12Z" fill="white"/>
</g>
<defs>
<filter id="filter0_d_3101_11049" x="0" y="3" width="18" height="18" filterUnits="userSpaceOnUse" color-interpolation-filters="sRGB">
<feFlood flood-opacity="0" result="BackgroundImageFix"/>
<feColorMatrix in="SourceAlpha" type="matrix" values="0 0 0 0 0 0 0 0 0 0 0 0 0 0 0 0 0 0 127 0" result="hardAlpha"/>
<feOffset/>
<feGaussianBlur stdDeviation="2"/>
<feComposite in2="hardAlpha" operator="out"/>
<feColorMatrix type="matrix" values="0 0 0 0 0 0 0 0 0 0 0 0 0 0 0 0 0 0 0.5 0"/>
<feBlend mode="normal" in2="BackgroundImageFix" result="effect1_dropShadow_3101_11049"/>
<feBlend mode="normal" in="SourceGraphic" in2="effect1_dropShadow_3101_11049" result="shape"/>
</filter>
</defs>
</svg>
