<svg width="110" height="76" viewBox="0 0 110 76" fill="none" xmlns="http://www.w3.org/2000/svg">
<rect y="0.25" width="110" height="75" rx="5" fill="#191A1E"/>
<g clip-path="url(#clip0_423_130)">
<mask id="mask0_423_130" style="mask-type:alpha" maskUnits="userSpaceOnUse" x="80" y="15" width="20" height="21">
<rect x="80" y="15.25" width="20" height="20" fill="#F3B286"/>
</mask>
<g mask="url(#mask0_423_130)">
<rect x="80" y="15.25" width="20" height="20" fill="url(#paint0_linear_423_130)"/>
<path d="M83.6797 25.721L99.4525 24.674C98.8385 24.5055 96.5625 24.3487 91.7222 24.674C86.3676 25.0339 84.8838 25.4802 83.6797 25.721Z" fill="#A71216"/>
<ellipse cx="1.89527" cy="1.25588" rx="1.89527" ry="1.25588" transform="matrix(0.949615 0.313418 -0.31342 0.949615 83.0703 16.2539)" fill="#AB090D"/>
<ellipse cx="1.121" cy="0.91853" rx="1.121" ry="0.91853" transform="matrix(0.949615 0.313418 -0.31342 0.949615 87.6172 19.0039)" fill="#AB090D"/>
<ellipse cx="1.06117" cy="0.869508" rx="1.06117" ry="0.869508" transform="matrix(0.748807 0.662788 -0.66279 0.748805 94.0781 17.9141)" fill="#AB090D"/>
<ellipse cx="0.729066" cy="0.59739" rx="0.729066" ry="0.59739" transform="matrix(0.568425 0.822735 -0.822737 0.568423 92.0938 15.5742)" fill="#AB090D"/>
<path d="M89.2258 18.0937C88.3635 18.3804 87.675 17.6118 87.5297 16.968C87.4874 16.7806 87.5607 16.5919 87.6833 16.444C88.1551 15.875 88.7682 15.4046 89.3283 15.1025C89.5554 14.98 89.8215 15.1297 89.8496 15.3861C89.9667 16.4558 89.9345 17.858 89.2258 18.0937Z" fill="#F1BB42"/>
<path fill-rule="evenodd" clip-rule="evenodd" d="M87.8701 17.6511C88.1327 17.6609 88.4202 17.6281 88.7275 17.5393C89.3906 17.3477 89.7356 16.7646 89.895 16.096C89.9191 16.998 89.7811 17.91 89.222 18.0959C88.6661 18.2807 88.1825 18.0271 87.8701 17.6511Z" fill="url(#paint1_linear_423_130)"/>
<path d="M91.814 21.0635C90.9107 21.1636 90.3982 20.2679 90.3907 19.608C90.3885 19.4159 90.4997 19.2467 90.6505 19.1277C91.2309 18.6699 91.9288 18.3381 92.5397 18.1599C92.7874 18.0876 93.0163 18.2896 92.9901 18.5462C92.881 19.6168 92.5562 20.9812 91.814 21.0635Z" fill="#F1BB42"/>
<path fill-rule="evenodd" clip-rule="evenodd" d="M90.5859 20.3478C90.8407 20.4123 91.1286 20.4403 91.4476 20.4178C92.1364 20.3691 92.5957 19.8707 92.8914 19.25C92.7264 20.1373 92.4006 21.0006 91.8149 21.0655C91.2327 21.13 90.8129 20.7809 90.5859 20.3478Z" fill="url(#paint2_linear_423_130)"/>
<path d="M90.1779 25.3001L83.7969 25.6875C84.1818 27.4348 85.3735 28.8437 87.6831 28.5536C89.5308 28.3216 90.2505 26.4969 90.1779 25.3001Z" fill="#AB090D"/>
<mask id="mask1_423_130" style="mask-type:alpha" maskUnits="userSpaceOnUse" x="83" y="25" width="8" height="4">
<path d="M90.1779 25.3001L83.7969 25.6875C84.1671 27.1926 85.3465 28.3988 87.6574 28.1292C89.506 27.9135 90.2406 26.3325 90.1779 25.3001Z" fill="white"/>
</mask>
<g mask="url(#mask1_423_130)">
<path d="M90.1779 25.3001L83.7969 25.6875C84.1671 27.1926 85.3465 28.3988 87.6574 28.1292C89.506 27.9135 90.2406 26.3325 90.1779 25.3001Z" fill="white"/>
</g>
<path d="M99.0832 24.6054L93.8828 24.9609C94.1936 26.5097 95.1383 27.6145 97.0208 27.3529C98.5268 27.1436 99.1405 25.6665 99.0832 24.6054Z" fill="#AB090D"/>
<mask id="mask2_423_130" style="mask-type:alpha" maskUnits="userSpaceOnUse" x="93" y="24" width="7" height="4">
<path d="M99.0832 24.6054L93.8828 24.9609C94.1846 26.3422 95.1225 27.3223 97.0058 27.0749C98.5125 26.877 99.1343 25.5529 99.0832 24.6054Z" fill="white"/>
</mask>
<g mask="url(#mask2_423_130)">
<path d="M99.0832 24.6054L93.8828 24.9609C94.1846 26.3422 95.1225 27.3223 97.0058 27.0749C98.5125 26.877 99.1343 25.5529 99.0832 24.6054Z" fill="white"/>
</g>
<path d="M86.9881 33.9515L86.1484 32.293H87.9253L87.3606 33.9262C87.3021 34.0954 87.069 34.1112 86.9881 33.9515Z" fill="white"/>
<path d="M97.8345 30.6172C93.0688 31.8086 87.1414 32.0884 84.7734 32.0794C84.7734 32.6278 86.8222 32.6532 90.1412 32.2422C93.4601 31.8313 96.8739 31.2624 97.3797 31.0727C97.7843 30.921 97.8515 30.7058 97.8345 30.6172Z" fill="black"/>
<ellipse cx="0.735113" cy="0.448965" rx="0.735113" ry="0.448965" transform="matrix(0.855845 0.517232 -0.517234 0.855844 91.1406 28.3633)" fill="#570D11"/>
<ellipse cx="0.593915" cy="0.362729" rx="0.593915" ry="0.362729" transform="matrix(-0.519866 0.854248 -0.854249 -0.519864 94.4766 28.625)" fill="#570D11"/>
</g>
</g>
<g clip-path="url(#clip1_423_130)">
<mask id="mask3_423_130" style="mask-type:alpha" maskUnits="userSpaceOnUse" x="10" y="45" width="20" height="21">
<rect x="10" y="45.25" width="20" height="20" fill="#F3B286"/>
</mask>
<g mask="url(#mask3_423_130)">
<rect x="10" y="45.25" width="20" height="20" fill="#FFDFBA"/>
<path fill-rule="evenodd" clip-rule="evenodd" d="M9.39062 55.7031C10.1374 55.863 11.9766 56.6624 13.3589 58.5811C13.6243 58.3609 14.317 57.9274 14.9643 57.9542C14.887 58.0886 14.7141 58.5051 14.6413 59.0962C15.8745 57.9563 16.7613 57.9269 17.8619 57.8904C18.7363 57.8614 19.7457 57.8279 21.1711 57.2296L21.1711 57.2296C21.1711 57.2296 21.1711 57.2296 21.1711 57.2296C21.1712 57.2296 21.1712 57.2296 21.1712 57.2296L21.1712 57.2296C22.636 57.8279 23.6476 57.8614 24.524 57.8904C25.627 57.9269 26.5157 57.9563 27.8242 59.0962C27.7124 58.5051 27.512 58.0886 27.4258 57.9542C28.0714 57.9274 28.7927 58.3609 29.0726 58.5811C30.3282 56.6624 32.1147 55.863 32.8509 55.7031L33.1699 65.3692H21.4398H21.4397H9.70959L9.39062 55.7031Z" fill="url(#paint3_linear_423_130)"/>
<path d="M19.7165 61.2061C18.9196 61.5359 17.8922 61.3996 17.3398 61.257C17.2422 61.2318 17.1427 61.2866 17.1193 61.3829C17.0979 61.471 17.1467 61.5675 17.2328 61.6015C17.5097 61.7107 18.1308 61.9106 19.0555 61.8315C20.2415 61.73 20.5752 61.2952 21.2487 61.0487C21.9223 60.8023 22.0464 61.0487 23.0011 61.4111C23.9558 61.7735 24.7677 61.3242 24.9118 61.2952C25.0558 61.2662 25.5042 60.7878 24.3525 61.0487C23.2008 61.3097 21.9254 60.0195 21.4468 60.0195C20.9682 60.0195 20.8326 60.7443 19.7165 61.2061Z" fill="#371F09"/>
<path d="M21.3492 58.3495C20.157 58.3495 19.368 57.8265 19.1226 57.565L21.1407 57.1641L23.3506 57.4122C23.1802 57.7246 22.5415 58.3495 21.3492 58.3495Z" fill="#FFDFBA"/>
<path d="M32.2502 41.0273H8.69531L8.94335 48.5438L20.7737 45.8492L32.4982 48.5438L32.2502 41.0273Z" fill="#504AAE"/>
<path d="M21.3852 48.6645C16.5868 48.5125 11.7379 49.5537 9.91328 50.0934L9.9093 47.062C11.6811 46.3423 15.343 44.9066 21.3805 45.0979C26.3052 45.254 30.1956 47.1292 31.5252 48.0473L31.5288 50.7783C30.1469 50.137 26.1835 48.8166 21.3852 48.6645Z" fill="url(#paint4_linear_423_130)"/>
<path fill-rule="evenodd" clip-rule="evenodd" d="M32.0074 46.168C28.6645 48.0419 19.2586 51.7046 8.67519 51.1885L8.61826 52.356C10.0747 52.427 11.509 52.4211 12.9095 52.3528C13.1191 55.7659 15.3443 56.5004 18.0315 55.9269C20.1154 55.4822 20.4738 52.9907 20.2081 51.4369C25.9051 50.2946 30.4167 48.3997 32.5789 47.1876L32.0074 46.168Z" fill="url(#paint5_linear_423_130)"/>
<path d="M21.4006 48.1509C16.5998 48.1509 11.7884 49.4068 9.98274 50.0348L9.8776 46.8488C11.6244 46.0333 15.2363 44.4023 21.2769 44.4023C26.2041 44.4023 30.1549 46.2437 31.5144 47.1645L31.6091 50.0348C30.2066 49.4068 26.2013 48.1509 21.4006 48.1509Z" fill="url(#paint6_linear_423_130)"/>
<path opacity="0.5" d="M23.1565 46.0583C17.8832 45.3409 11.7987 47.0984 9.41556 48.0669L9.44584 48.9845C10.5591 48.4769 11.7549 48.0508 12.9671 47.6948C16.9847 46.5152 21.183 46.1066 23.1565 46.0583Z" fill="#CC1B26"/>
<path d="M22.4893 53.0252C21.7666 52.8033 21.9429 52.0595 22.1213 51.7154C23.664 51.7154 23.5784 50.9912 25.7719 50.6522C27.5267 50.381 28.2645 51.5922 28.5834 52.2239C26.4121 50.8988 23.3926 53.3025 22.4893 53.0252Z" fill="#603813"/>
<path d="M28.037 53.3885C26.5117 51.8523 23.4077 52.9839 22.7689 53.6669C23.1492 54.2628 24.2973 55.396 25.847 55.1622C27.3966 54.9283 27.9527 53.8823 28.037 53.3885Z" fill="black"/>
<mask id="mask4_423_130" style="mask-type:alpha" maskUnits="userSpaceOnUse" x="22" y="52" width="7" height="4">
<path d="M28.0361 53.3915C26.1489 52.3588 23.7377 53.1468 22.768 53.6699C23.1484 54.2657 24.2965 55.399 25.8461 55.1651C27.3957 54.9313 27.9518 53.8853 28.0361 53.3915Z" fill="white"/>
</mask>
<g mask="url(#mask4_423_130)">
<path d="M28.0361 53.3915C26.1489 52.3588 23.7377 53.1468 22.768 53.6699C23.1484 54.2657 24.2965 55.399 25.8461 55.1651C27.3957 54.9313 27.9518 53.8853 28.0361 53.3915Z" fill="white"/>
<circle cx="1.09897" cy="1.09897" r="1.09897" transform="matrix(1 0 0.0329807 0.999456 24.2656 52.4297)" fill="black"/>
</g>
</g>
</g>
<path d="M75 17.25C75 13.384 71.866 10.25 68 10.25H17C13.134 10.25 10 13.384 10 17.25V28.25C10 32.116 13.134 35.25 17 35.25H75V17.25Z" fill="#048DFF"/>
<g opacity="0.8">
<path d="M22.1406 19.0898H52.1741" stroke="white" stroke-width="2" stroke-linecap="round"/>
<path d="M22.1406 26.4102H62.867" stroke="white" stroke-width="2" stroke-linecap="round"/>
</g>
<path d="M100 47.25C100 43.384 96.866 40.25 93 40.25H42C38.134 40.25 35 43.384 35 47.25V65.25H93C96.866 65.25 100 62.116 100 58.25V47.25Z" fill="#454A57"/>
<g opacity="0.8">
<path d="M47.1406 49.0898H87.867" stroke="white" stroke-width="2" stroke-linecap="round"/>
<path d="M47.1406 56.4102H71.5502" stroke="white" stroke-width="2" stroke-linecap="round"/>
</g>
<defs>
<linearGradient id="paint0_linear_423_130" x1="90" y1="15.25" x2="90" y2="35.25" gradientUnits="userSpaceOnUse">
<stop stop-color="#DA1818"/>
<stop offset="1" stop-color="#F23F4F"/>
</linearGradient>
<linearGradient id="paint1_linear_423_130" x1="88.7678" y1="16.3371" x2="89.2446" y2="18.5664" gradientUnits="userSpaceOnUse">
<stop stop-color="#D69C1C"/>
<stop offset="1" stop-color="#D69C1C" stop-opacity="0"/>
</linearGradient>
<linearGradient id="paint2_linear_423_130" x1="91.7386" y1="19.25" x2="91.7387" y2="21.5305" gradientUnits="userSpaceOnUse">
<stop stop-color="#D69C1C"/>
<stop offset="1" stop-color="#D69C1C" stop-opacity="0"/>
</linearGradient>
<linearGradient id="paint3_linear_423_130" x1="21.1208" y1="55.7031" x2="21.1208" y2="65.3692" gradientUnits="userSpaceOnUse">
<stop stop-color="#603813"/>
<stop offset="1" stop-color="#76471C"/>
</linearGradient>
<linearGradient id="paint4_linear_423_130" x1="20.714" y1="45.0768" x2="22.143" y2="53.9233" gradientUnits="userSpaceOnUse">
<stop stop-color="#FBC689"/>
<stop offset="1" stop-color="#FBC689" stop-opacity="0"/>
</linearGradient>
<linearGradient id="paint5_linear_423_130" x1="16.8481" y1="48.0013" x2="16.31" y2="57.2166" gradientUnits="userSpaceOnUse">
<stop/>
<stop offset="1" stop-color="#393939"/>
</linearGradient>
<linearGradient id="paint6_linear_423_130" x1="20.6101" y1="44.4023" x2="20.6101" y2="50.0348" gradientUnits="userSpaceOnUse">
<stop stop-color="#EA313C"/>
<stop offset="1" stop-color="#EA3C47"/>
</linearGradient>
<clipPath id="clip0_423_130">
<rect x="80" y="15.25" width="20" height="20" rx="3.33334" fill="white"/>
</clipPath>
<clipPath id="clip1_423_130">
<rect x="10" y="45.25" width="20" height="20" rx="3.33334" fill="white"/>
</clipPath>
</defs>
</svg>
