<svg width="111" height="75" viewBox="0 0 111 75" fill="none" xmlns="http://www.w3.org/2000/svg">
<rect x="0.5" width="110" height="75" rx="5" fill="url(#paint0_linear_429_3)"/>
<circle cx="90.451" cy="4.2987" r="1.09948" fill="#B398C1"/>
<circle cx="102.545" cy="55.9745" r="1.09948" fill="#B398C1"/>
<circle cx="80.559" cy="71.9418" r="0.824639" fill="#B398C1"/>
<circle cx="94.2997" cy="49.9286" r="0.549739" fill="#B398C1"/>
<circle cx="46.3701" cy="73.3154" r="0.549739" fill="#B398C1"/>
<circle cx="17.1201" cy="70.5654" r="0.549739" fill="#B398C1"/>
<circle cx="76.706" cy="45.5771" r="0.549739" fill="#B398C1"/>
<circle cx="67.3651" cy="42.7792" r="1.09948" fill="#B398C1"/>
<circle cx="104.198" cy="27.9365" r="0.549739" fill="#B398C1"/>
<circle cx="78.0467" cy="22.1991" r="0.788915" fill="#B398C1"/>
<circle cx="63.5107" cy="9.24505" r="0.549739" fill="#B398C1"/>
<circle cx="26.7654" cy="54.8748" r="0.664307" transform="rotate(-180 26.7654 54.8748)" fill="#B398C1"/>
<circle cx="14.3928" cy="3.20139" r="0.825955" transform="rotate(-180 14.3928 3.20139)" fill="#B398C1"/>
<circle cx="22.9112" cy="9.24714" r="0.549739" transform="rotate(-180 22.9112 9.24714)" fill="#B398C1"/>
<circle cx="49.8536" cy="16.3927" r="1.09948" transform="rotate(-180 49.8536 16.3927)" fill="#B398C1"/>
<circle cx="13.0206" cy="31.2354" r="0.549739" transform="rotate(-180 13.0206 31.2354)" fill="#B398C1"/>
<circle cx="38.8544" cy="36.956" r="0.770555" transform="rotate(-180 38.8544 36.956)" fill="#B398C1"/>
<circle cx="53.7003" cy="49.9268" r="0.549739" transform="rotate(-180 53.7003 49.9268)" fill="#B398C1"/>
<g clip-path="url(#clip0_429_3)">
<mask id="mask0_429_3" style="mask-type:alpha" maskUnits="userSpaceOnUse" x="10" y="15" width="21" height="20">
<rect x="10.5" y="15" width="20" height="20" fill="#F3B286"/>
</mask>
<g mask="url(#mask0_429_3)">
<rect x="10.5" y="15" width="20" height="20" fill="url(#paint1_linear_429_3)"/>
<path d="M14.1797 25.471L29.9525 24.424C29.3385 24.2555 27.0625 24.0987 22.2222 24.424C16.8676 24.7839 15.3838 25.2302 14.1797 25.471Z" fill="#A71216"/>
<ellipse cx="1.89527" cy="1.25588" rx="1.89527" ry="1.25588" transform="matrix(0.949615 0.313418 -0.31342 0.949615 13.5703 16.0039)" fill="#AB090D"/>
<ellipse cx="1.121" cy="0.91853" rx="1.121" ry="0.91853" transform="matrix(0.949615 0.313418 -0.31342 0.949615 18.1172 18.7539)" fill="#AB090D"/>
<ellipse cx="1.06117" cy="0.869508" rx="1.06117" ry="0.869508" transform="matrix(0.748807 0.662788 -0.66279 0.748805 24.5781 17.6641)" fill="#AB090D"/>
<ellipse cx="0.729066" cy="0.59739" rx="0.729066" ry="0.59739" transform="matrix(0.568425 0.822735 -0.822737 0.568423 22.5938 15.3242)" fill="#AB090D"/>
<path d="M19.7258 17.8437C18.8635 18.1304 18.175 17.3618 18.0297 16.718C17.9874 16.5306 18.0607 16.3419 18.1833 16.194C18.6551 15.625 19.2682 15.1546 19.8283 14.8525C20.0554 14.73 20.3215 14.8797 20.3496 15.1361C20.4667 16.2058 20.4345 17.608 19.7258 17.8437Z" fill="#F1BB42"/>
<path fill-rule="evenodd" clip-rule="evenodd" d="M18.3701 17.4011C18.6327 17.4109 18.9202 17.3781 19.2275 17.2893C19.8906 17.0977 20.2356 16.5146 20.395 15.846C20.4191 16.748 20.2811 17.66 19.722 17.8459C19.1661 18.0307 18.6825 17.7771 18.3701 17.4011Z" fill="url(#paint2_linear_429_3)"/>
<path d="M22.314 20.8135C21.4107 20.9136 20.8982 20.0179 20.8907 19.358C20.8885 19.1659 20.9997 18.9967 21.1505 18.8777C21.7309 18.4199 22.4288 18.0881 23.0397 17.9099C23.2874 17.8376 23.5163 18.0396 23.4901 18.2962C23.381 19.3668 23.0562 20.7312 22.314 20.8135Z" fill="#F1BB42"/>
<path fill-rule="evenodd" clip-rule="evenodd" d="M21.0859 20.0978C21.3407 20.1623 21.6286 20.1903 21.9476 20.1678C22.6364 20.1191 23.0957 19.6207 23.3914 19C23.2264 19.8873 22.9006 20.7506 22.3149 20.8155C21.7327 20.88 21.3129 20.5309 21.0859 20.0978Z" fill="url(#paint3_linear_429_3)"/>
<path d="M20.6779 25.0501L14.2969 25.4375C14.6818 27.1848 15.8735 28.5937 18.1831 28.3036C20.0308 28.0716 20.7505 26.2469 20.6779 25.0501Z" fill="#AB090D"/>
<mask id="mask1_429_3" style="mask-type:alpha" maskUnits="userSpaceOnUse" x="14" y="25" width="7" height="3">
<path d="M20.6779 25.0501L14.2969 25.4375C14.6671 26.9426 15.8465 28.1488 18.1574 27.8792C20.006 27.6635 20.7406 26.0825 20.6779 25.0501Z" fill="white"/>
</mask>
<g mask="url(#mask1_429_3)">
<path d="M20.6779 25.0501L14.2969 25.4375C14.6671 26.9426 15.8465 28.1488 18.1574 27.8792C20.006 27.6635 20.7406 26.0825 20.6779 25.0501Z" fill="white"/>
</g>
<path d="M29.5832 24.3554L24.3828 24.7109C24.6936 26.2597 25.6383 27.3645 27.5208 27.1029C29.0268 26.8936 29.6405 25.4165 29.5832 24.3554Z" fill="#AB090D"/>
<mask id="mask2_429_3" style="mask-type:alpha" maskUnits="userSpaceOnUse" x="24" y="24" width="6" height="3">
<path d="M29.5832 24.3554L24.3828 24.7109C24.6846 26.0922 25.6225 27.0723 27.5058 26.8249C29.0125 26.627 29.6343 25.3029 29.5832 24.3554Z" fill="white"/>
</mask>
<g mask="url(#mask2_429_3)">
<path d="M29.5832 24.3554L24.3828 24.7109C24.6846 26.0922 25.6225 27.0723 27.5058 26.8249C29.0125 26.627 29.6343 25.3029 29.5832 24.3554Z" fill="white"/>
</g>
<path d="M17.4881 33.7015L16.6484 32.043H18.4253L17.8606 33.6762C17.8021 33.8454 17.569 33.8612 17.4881 33.7015Z" fill="white"/>
<path d="M28.3345 30.3672C23.5688 31.5586 17.6414 31.8384 15.2734 31.8294C15.2734 32.3778 17.3222 32.4032 20.6412 31.9922C23.9601 31.5813 27.3739 31.0124 27.8797 30.8227C28.2843 30.671 28.3515 30.4558 28.3345 30.3672Z" fill="black"/>
<ellipse cx="0.735113" cy="0.448965" rx="0.735113" ry="0.448965" transform="matrix(0.855845 0.517232 -0.517234 0.855844 21.6406 28.1133)" fill="#570D11"/>
<ellipse cx="0.593915" cy="0.362729" rx="0.593915" ry="0.362729" transform="matrix(-0.519866 0.854248 -0.854249 -0.519864 24.9766 28.375)" fill="#570D11"/>
</g>
<mask id="mask3_429_3" style="mask-type:alpha" maskUnits="userSpaceOnUse" x="10" y="15" width="21" height="20">
<rect x="10.5" y="15" width="20" height="20" fill="#F3B286"/>
</mask>
<g mask="url(#mask3_429_3)">
<rect x="10.5" y="15" width="20" height="20" fill="url(#paint4_linear_429_3)"/>
<ellipse cx="11.2887" cy="21.2639" rx="2.27068" ry="1.00841" transform="rotate(-5.09106 11.2887 21.2639)" fill="#67585D"/>
<ellipse cx="2.27068" cy="1.00841" rx="2.27068" ry="1.00841" transform="matrix(-0.996055 -0.0887389 -0.0887393 0.996055 33.7812 20.5742)" fill="#67585D"/>
<ellipse cx="11.2918" cy="18.9713" rx="1.06246" ry="0.60705" transform="rotate(-5.09106 11.2918 18.9713)" fill="#67585D"/>
<ellipse cx="1.06246" cy="0.60705" rx="1.06246" ry="0.60705" transform="matrix(-0.996055 -0.0887389 -0.0887393 0.996055 30.5 18.4609)" fill="#67585D"/>
<path fill-rule="evenodd" clip-rule="evenodd" d="M21.8369 14.6672C21.9913 14.671 22.0971 14.8452 22.0305 14.9786C21.5575 15.9262 20.9699 17.7891 21.3752 19.7401C21.4079 19.8973 21.6073 19.9577 21.7165 19.8521C21.9432 19.6328 22.2575 19.368 22.592 19.1761C22.7306 19.0966 22.8929 19.2407 22.8587 19.3994C22.5739 20.7216 22.421 23.3517 23.6002 25.865C24.6666 28.1375 26.4906 28.9568 27.725 29.5112C28.3904 29.8101 28.8845 30.032 28.9962 30.3631C29.1891 30.9348 28.8036 31.5726 28.4266 31.9974C28.3136 32.1248 28.4068 32.3343 28.5813 32.3138C28.8552 32.2815 29.1996 32.2114 29.5674 32.0765C29.7109 32.0239 29.8724 32.1478 29.836 32.297C29.7228 32.7622 29.4641 33.4063 28.976 33.8874C28.8564 34.0052 28.9241 34.2258 29.0995 34.2337C29.7063 34.2609 30.6319 34.1751 31.5685 33.74C31.6986 33.6796 31.8638 33.778 31.8724 33.926L32.0495 36.9688C32.0557 37.0762 31.9736 37.1611 31.866 37.1585L21.5365 36.9043C21.5364 36.9043 21.5364 36.9043 21.5364 36.9044V36.9044C21.5364 36.9045 21.5363 36.9045 21.5362 36.9045L10.1863 36.6252C10.0788 36.6226 9.98651 36.5334 9.98026 36.426L9.8032 33.3832C9.79459 33.2352 9.94888 33.1439 10.0874 33.2084C11.1698 33.7122 12.4629 33.8442 13.2042 33.841C13.379 33.8403 13.4213 33.6256 13.2877 33.5015C12.7421 32.9951 12.4076 32.3364 12.2398 31.8642C12.186 31.7128 12.3335 31.5965 12.4835 31.6563C12.8681 31.8098 13.2216 31.897 13.5001 31.9429C13.6775 31.9721 13.7465 31.7665 13.6183 31.6333C13.1908 31.1887 12.7298 30.53 12.8567 29.9662C12.9301 29.6396 13.3998 29.4414 14.0322 29.1745C15.2056 28.6793 16.9393 27.9476 17.7439 25.7211C18.6336 23.2588 18.1737 20.6136 17.734 19.2736C17.6812 19.1127 17.8271 18.9762 17.9754 19.0628C18.3333 19.2717 18.6793 19.5528 18.9322 19.7838C19.0541 19.8952 19.247 19.8444 19.2615 19.6884C19.4406 17.7518 18.6341 15.8545 18.0493 14.8808C17.9671 14.7439 18.0528 14.5743 18.2072 14.5781L19.8039 14.6174C19.8039 14.6174 19.804 14.6173 19.804 14.6173V14.6173C19.804 14.6172 19.804 14.6171 19.8041 14.6171L21.8369 14.6672Z" fill="url(#paint5_linear_429_3)"/>
<ellipse cx="20.5936" cy="28.1482" rx="3.82794" ry="2.79668" fill="url(#paint6_linear_429_3)"/>
<path d="M20.8692 26.0867L20.9906 28.5627M20.9906 28.5627C20.6314 29.5883 17.6834 29.9577 16.9795 28.0228M20.9906 28.5627C21.1131 28.9424 21.6772 29.5153 22.6963 29.3526C23.6002 29.2083 24.0539 28.5197 24.0182 28.068" stroke="#070002" stroke-width="0.292218" stroke-linecap="round"/>
<path d="M20.9065 27.0337L20.9065 27.0338C20.9043 27.0339 20.9019 27.0341 20.8995 27.0342C20.8971 27.0343 20.8948 27.0344 20.8926 27.0345L20.8925 27.0343C20.7927 27.0362 20.5972 26.9983 20.4344 26.7616C20.2132 26.4398 20.0368 26.3652 19.5813 26.208C19.2292 26.0865 19.1966 25.4608 20.8114 25.3781C20.8137 25.378 20.816 25.3778 20.8184 25.3777C20.8207 25.3776 20.823 25.3775 20.8253 25.3774C22.4405 25.3018 22.4692 25.9277 22.1307 26.083C21.6927 26.284 21.5244 26.3755 21.3358 26.7174C21.197 26.969 21.006 27.0257 20.9065 27.0337Z" fill="#98473C"/>
<path fill-rule="evenodd" clip-rule="evenodd" d="M22.1576 26.068C22.1478 26.0737 22.1376 26.079 22.1271 26.0838C21.6972 26.2811 21.5271 26.3729 21.3425 26.6996C21.324 26.5488 21.3313 26.3097 21.4671 26.187C21.6217 26.0473 21.9824 26.0487 22.1576 26.068ZM20.4268 26.7565C20.2075 26.4396 20.0304 26.365 19.5776 26.2087C19.5674 26.2052 19.5575 26.2013 19.5479 26.1969C19.7177 26.1602 20.0834 26.1211 20.2531 26.2465C20.4042 26.3583 20.4324 26.6054 20.4268 26.7565Z" fill="#4F201C"/>
<path d="M15.3256 21.7634C13.9903 21.8866 12.9825 23.2329 11.9766 23.9802C12.6651 24.0589 13.2353 24.1458 14.217 24.5554C15.2092 24.9693 16.0627 25.2985 16.8316 24.9338C17.3317 24.6966 17.8575 24.3417 18.0605 24.0756C18.0605 22.9415 17.0856 21.6011 15.3256 21.7634Z" fill="#513939"/>
<mask id="mask4_429_3" style="mask-type:alpha" maskUnits="userSpaceOnUse" x="12" y="22" width="7" height="4">
<path d="M15.537 22.0647C14.301 22.1137 13.1796 23.4332 12.7734 24.0868C13.3705 24.2464 13.5831 24.5286 14.4888 24.9022C15.404 25.2798 16.217 25.2892 16.9263 24.9566C17.3876 24.7402 17.8741 24.3295 18.0613 24.0868C17.9525 23.2493 17.082 22.0034 15.537 22.0647Z" fill="white"/>
</mask>
<g mask="url(#mask4_429_3)">
<path d="M15.537 22.0647C14.301 22.1137 13.1796 23.4332 12.7734 24.0868C13.3705 24.2464 13.5831 24.5286 14.4888 24.9022C15.404 25.2798 16.217 25.2892 16.9263 24.9566C17.3876 24.7402 17.8741 24.3295 18.0613 24.0868C17.9525 23.2493 17.082 22.0034 15.537 22.0647Z" fill="#EDD67C"/>
<path d="M15.5605 25.4637C15.7227 25.6558 16.0126 25.6558 16.1749 25.4637C16.4864 25.0948 16.6806 24.5737 16.6806 23.9961C16.6806 23.4185 16.4864 22.8974 16.1749 22.5285C16.0126 22.3364 15.7227 22.3364 15.5605 22.5285C15.2489 22.8974 15.0547 23.4185 15.0547 23.9961C15.0547 24.5737 15.2489 25.0948 15.5605 25.4637Z" fill="#070002"/>
</g>
<path d="M26.1686 21.6074C27.525 21.7325 28.5485 23.1 29.5703 23.859C28.871 23.9389 28.2918 24.0272 27.2946 24.4433C26.2868 24.8637 25.4199 25.198 24.6389 24.8276C24.1309 24.5867 23.5969 24.2262 23.3907 23.9559C23.3907 22.8039 24.3809 21.4425 26.1686 21.6074Z" fill="#513939"/>
<mask id="mask5_429_3" style="mask-type:alpha" maskUnits="userSpaceOnUse" x="23" y="21" width="6" height="5">
<path d="M25.9508 21.9124C27.2062 21.9622 28.3452 23.3024 28.7578 23.9662C28.1514 24.1284 27.9354 24.415 27.0155 24.7945C26.0859 25.178 25.2601 25.1876 24.5397 24.8498C24.0711 24.63 23.577 24.2128 23.3868 23.9662C23.4973 23.1157 24.3814 21.8501 25.9508 21.9124Z" fill="white"/>
</mask>
<g mask="url(#mask5_429_3)">
<path d="M25.9508 21.9124C27.2062 21.9622 28.3452 23.3024 28.7578 23.9662C28.1514 24.1284 27.9354 24.415 27.0155 24.7945C26.0859 25.178 25.2601 25.1876 24.5397 24.8498C24.0711 24.63 23.577 24.2128 23.3868 23.9662C23.4973 23.1157 24.3814 21.8501 25.9508 21.9124Z" fill="#EDD67C"/>
<path d="M25.9365 25.4125C25.7763 25.6063 25.4857 25.6063 25.3255 25.4125C25.0358 25.0616 24.8558 24.571 24.8558 24.028C24.8558 23.4849 25.0358 22.9943 25.3255 22.6435C25.4857 22.4496 25.7763 22.4496 25.9365 22.6435C26.2262 22.9943 26.4062 23.4849 26.4062 24.028C26.4062 24.571 26.2262 25.0616 25.9365 25.4125Z" fill="#070002"/>
</g>
</g>
</g>
<g clip-path="url(#clip1_429_3)">
<mask id="mask6_429_3" style="mask-type:alpha" maskUnits="userSpaceOnUse" x="10" y="45" width="21" height="20">
<rect x="10.5" y="45" width="19.9999" height="19.9999" fill="#F3B286"/>
</mask>
<g mask="url(#mask6_429_3)">
<rect x="10.5" y="45" width="19.9999" height="19.9999" fill="url(#paint7_linear_429_3)"/>
<path d="M13.7088 53.9105C10.9816 53.9105 9.35258 54.2381 8.86719 54.6021V65.8542H32.1288V53.9105C30.1631 53.2188 27.8795 53.9105 25.1758 53.6192C22.2791 53.3072 22.3068 50.0391 20.2839 50.0391C17.6928 50.0391 18.7143 53.9105 13.7088 53.9105Z" fill="url(#paint8_linear_429_3)"/>
<ellipse cx="15.5073" cy="50.8652" rx="1.26516" ry="1.69722" fill="#CF8533"/>
<ellipse cx="15.5073" cy="50.6473" rx="1.26516" ry="1.47932" fill="black"/>
<ellipse cx="16.0367" cy="50.6477" rx="0.396118" ry="0.53053" fill="#F3F3F3"/>
<ellipse cx="24.5698" cy="50.8652" rx="1.26516" ry="1.69722" fill="#CF8533"/>
<ellipse cx="24.5698" cy="50.6473" rx="1.26516" ry="1.47932" fill="black"/>
<ellipse cx="24.2245" cy="50.6477" rx="0.404202" ry="0.53053" fill="#F3F3F3"/>
<ellipse cx="15.2982" cy="47.3045" rx="2.06463" ry="1.00365" transform="rotate(7.52549 15.2982 47.3045)" fill="white"/>
<ellipse cx="2.06463" cy="1.00365" rx="2.06463" ry="1.00365" transform="matrix(-0.991387 0.130967 0.130968 0.991387 26.8828 46.0391)" fill="white"/>
<path d="M20.3359 54.8359V57.8371" stroke="#581E0F" stroke-width="0.194811"/>
<path d="M20.3646 55.2562L20.3646 55.2565C20.3612 55.2565 20.3576 55.2565 20.354 55.2565C20.3504 55.2565 20.3469 55.2565 20.3435 55.2565L20.3435 55.2563C20.193 55.2518 19.901 55.1809 19.6728 54.8124C19.3626 54.3118 19.4649 54.1868 18.7898 53.9173C18.2681 53.709 17.901 52.764 20.3398 52.755C20.3434 52.755 20.3469 52.755 20.3504 52.755C20.3539 52.755 20.3574 52.755 20.3609 52.755C22.7998 52.7568 22.4354 53.7019 21.9144 53.9117C21.2401 54.1831 21.3427 54.3089 21.034 54.8105C20.8068 55.1796 20.5151 55.2514 20.3646 55.2562Z" fill="url(#paint9_linear_429_3)"/>
<path fill-rule="evenodd" clip-rule="evenodd" d="M21.9743 53.8855C21.9554 53.8953 21.9362 53.9041 21.9168 53.9119C21.4335 54.1065 21.3493 54.2262 21.2267 54.4632C21.2088 54.2582 21.2161 53.8846 21.3743 53.7974C21.523 53.7153 21.8081 53.8095 21.9743 53.8855ZM19.4472 54.3976C19.3394 54.2048 19.2272 54.0912 18.7922 53.9175C18.7646 53.9065 18.7373 53.8934 18.7109 53.8784C18.8789 53.8039 19.1511 53.7179 19.2952 53.7974C19.4377 53.876 19.4578 54.1869 19.4472 54.3976Z" fill="#210A04"/>
<path d="M22.0307 56.0307C20.6822 56.3498 19.4633 55.9496 18.7673 55.7405C18.6718 55.7119 18.5781 55.7868 18.5781 55.8901V58.3015C18.5781 59.2735 19.336 60.0614 20.271 60.0614C21.1225 60.0614 21.8414 59.4039 21.95 58.5259L22.2353 56.2183C22.2499 56.0998 22.1427 56.0042 22.0307 56.0307Z" fill="url(#paint10_linear_429_3)"/>
<path d="M21.6786 59.2787C21.3129 58.8717 20.6802 58.5243 19.9235 58.3619C19.4421 58.2587 18.9783 58.2449 18.5781 58.306C18.5808 59.2756 19.3377 60.0607 20.271 60.0607C20.853 60.0607 21.3731 59.7535 21.6786 59.2787Z" fill="#FFA0A3"/>
<ellipse cx="23.5912" cy="54.4388" rx="0.309942" ry="0.309941" fill="#CC9D61"/>
<ellipse cx="25.2865" cy="54.6224" rx="0.309942" ry="0.309941" fill="#CC9D61"/>
<ellipse cx="24.1983" cy="55.9327" rx="0.401414" ry="0.401414" fill="#CC9D61"/>
<ellipse cx="15.4875" cy="54.6943" rx="0.309942" ry="0.309941" transform="rotate(-2.55154 15.4875 54.6943)" fill="#CC9D61"/>
<ellipse cx="17.1906" cy="54.5849" rx="0.309942" ry="0.309941" transform="rotate(-2.55154 17.1906 54.5849)" fill="#CC9D61"/>
<ellipse cx="16.1611" cy="55.9417" rx="0.401414" ry="0.401414" transform="rotate(-2.55154 16.1611 55.9417)" fill="#CC9D61"/>
</g>
</g>
<path d="M35.5 17C35.5 13.134 38.634 10 42.5 10H93.5C97.366 10 100.5 13.134 100.5 17V28C100.5 31.866 97.366 35 93.5 35H35.5V17Z" fill="#9D74F3"/>
<g opacity="0.8">
<path d="M88.3594 18.8398H58.3259" stroke="white" stroke-width="2" stroke-linecap="round"/>
<path d="M88.3594 26.1602H47.633" stroke="white" stroke-width="2" stroke-linecap="round"/>
</g>
<path d="M100.5 47C100.5 43.134 97.366 40 93.5 40H42.5C38.634 40 35.5 43.134 35.5 47V65H93.5C97.366 65 100.5 61.866 100.5 58V47Z" fill="#4339A3"/>
<g opacity="0.8">
<path d="M48 49H88.7264" stroke="white" stroke-width="2" stroke-linecap="round"/>
<path d="M47.6406 56.1602H72.0502" stroke="white" stroke-width="2" stroke-linecap="round"/>
</g>
<defs>
<linearGradient id="paint0_linear_429_3" x1="80.724" y1="-9.8485" x2="29.9714" y2="74.0564" gradientUnits="userSpaceOnUse">
<stop stop-color="#1C1020"/>
<stop offset="1" stop-color="#36124F"/>
</linearGradient>
<linearGradient id="paint1_linear_429_3" x1="20.5" y1="15" x2="20.5" y2="35" gradientUnits="userSpaceOnUse">
<stop stop-color="#DA1818"/>
<stop offset="1" stop-color="#F23F4F"/>
</linearGradient>
<linearGradient id="paint2_linear_429_3" x1="19.2678" y1="16.0871" x2="19.7446" y2="18.3164" gradientUnits="userSpaceOnUse">
<stop stop-color="#D69C1C"/>
<stop offset="1" stop-color="#D69C1C" stop-opacity="0"/>
</linearGradient>
<linearGradient id="paint3_linear_429_3" x1="22.2386" y1="19" x2="22.2387" y2="21.2805" gradientUnits="userSpaceOnUse">
<stop stop-color="#D69C1C"/>
<stop offset="1" stop-color="#D69C1C" stop-opacity="0"/>
</linearGradient>
<linearGradient id="paint4_linear_429_3" x1="20.5" y1="15" x2="20.5" y2="35" gradientUnits="userSpaceOnUse">
<stop stop-color="#7B7174"/>
<stop offset="1" stop-color="#9A8F92"/>
</linearGradient>
<linearGradient id="paint5_linear_429_3" x1="19.7299" y1="14.6153" x2="19.1828" y2="36.8466" gradientUnits="userSpaceOnUse">
<stop stop-color="#DCD1CB"/>
<stop offset="1" stop-color="#FFF9F5"/>
</linearGradient>
<linearGradient id="paint6_linear_429_3" x1="20.5936" y1="25.3516" x2="20.5936" y2="30.2513" gradientUnits="userSpaceOnUse">
<stop stop-color="#BFB9B6"/>
<stop offset="1" stop-color="#E7D3B2" stop-opacity="0"/>
</linearGradient>
<linearGradient id="paint7_linear_429_3" x1="20.5" y1="45" x2="20.5" y2="64.9999" gradientUnits="userSpaceOnUse">
<stop stop-color="#FC9D36"/>
<stop offset="0.515625" stop-color="#FBBA73"/>
</linearGradient>
<linearGradient id="paint8_linear_429_3" x1="20.498" y1="51.5807" x2="20.498" y2="65.512" gradientUnits="userSpaceOnUse">
<stop stop-color="#FFE4C2"/>
<stop offset="1" stop-color="#FFFAF3"/>
</linearGradient>
<linearGradient id="paint9_linear_429_3" x1="20.3504" y1="52.755" x2="20.354" y2="55.2565" gradientUnits="userSpaceOnUse">
<stop stop-color="#884332"/>
<stop offset="1" stop-color="#662616"/>
</linearGradient>
<linearGradient id="paint10_linear_429_3" x1="20.4222" y1="55.6855" x2="20.4222" y2="60.0614" gradientUnits="userSpaceOnUse">
<stop stop-color="#E2252B"/>
<stop offset="1" stop-color="#DD353B"/>
</linearGradient>
<clipPath id="clip0_429_3">
<rect x="10.5" y="15" width="20" height="20" rx="3.33334" fill="white"/>
</clipPath>
<clipPath id="clip1_429_3">
<rect x="10.5" y="45" width="20" height="20" rx="3.33334" fill="white"/>
</clipPath>
</defs>
</svg>
