<svg width="110" height="76" viewBox="0 0 110 76" fill="none" xmlns="http://www.w3.org/2000/svg">
<rect y="0.25" width="110" height="75" rx="5" fill="#F7F7FA"/>
<g clip-path="url(#clip0_425_283)">
<mask id="mask0_425_283" style="mask-type:alpha" maskUnits="userSpaceOnUse" x="10" y="15" width="20" height="21">
<rect x="10" y="15.25" width="20" height="20" fill="#F3B286"/>
</mask>
<g mask="url(#mask0_425_283)">
<rect x="10" y="15.25" width="20" height="20" fill="url(#paint0_linear_425_283)"/>
<path d="M13.6797 25.721L29.4525 24.674C28.8385 24.5055 26.5625 24.3487 21.7222 24.674C16.3676 25.0339 14.8838 25.4802 13.6797 25.721Z" fill="#A71216"/>
<ellipse cx="1.89527" cy="1.25588" rx="1.89527" ry="1.25588" transform="matrix(0.949615 0.313418 -0.31342 0.949615 13.0703 16.2539)" fill="#AB090D"/>
<ellipse cx="1.121" cy="0.91853" rx="1.121" ry="0.91853" transform="matrix(0.949615 0.313418 -0.31342 0.949615 17.6172 19.0039)" fill="#AB090D"/>
<ellipse cx="1.06117" cy="0.869508" rx="1.06117" ry="0.869508" transform="matrix(0.748807 0.662788 -0.66279 0.748805 24.0781 17.9141)" fill="#AB090D"/>
<ellipse cx="0.729066" cy="0.59739" rx="0.729066" ry="0.59739" transform="matrix(0.568425 0.822735 -0.822737 0.568423 22.0938 15.5742)" fill="#AB090D"/>
<path d="M19.2258 18.0937C18.3635 18.3804 17.675 17.6118 17.5297 16.968C17.4874 16.7806 17.5607 16.5919 17.6833 16.444C18.1551 15.875 18.7682 15.4046 19.3283 15.1025C19.5554 14.98 19.8215 15.1297 19.8496 15.3861C19.9667 16.4558 19.9345 17.858 19.2258 18.0937Z" fill="#F1BB42"/>
<path fill-rule="evenodd" clip-rule="evenodd" d="M17.8701 17.6511C18.1327 17.6609 18.4202 17.6281 18.7275 17.5393C19.3906 17.3477 19.7356 16.7646 19.895 16.096C19.9191 16.998 19.7811 17.91 19.222 18.0959C18.6661 18.2807 18.1825 18.0271 17.8701 17.6511Z" fill="url(#paint1_linear_425_283)"/>
<path d="M21.814 21.0635C20.9107 21.1636 20.3982 20.2679 20.3907 19.608C20.3885 19.4159 20.4997 19.2467 20.6505 19.1277C21.2309 18.6699 21.9288 18.3381 22.5397 18.1599C22.7874 18.0876 23.0163 18.2896 22.9901 18.5462C22.881 19.6168 22.5562 20.9812 21.814 21.0635Z" fill="#F1BB42"/>
<path fill-rule="evenodd" clip-rule="evenodd" d="M20.5859 20.3478C20.8407 20.4123 21.1286 20.4403 21.4476 20.4178C22.1364 20.3691 22.5957 19.8707 22.8914 19.25C22.7264 20.1373 22.4006 21.0006 21.8149 21.0655C21.2327 21.13 20.8129 20.7809 20.5859 20.3478Z" fill="url(#paint2_linear_425_283)"/>
<path d="M20.1779 25.3001L13.7969 25.6875C14.1818 27.4348 15.3735 28.8437 17.6831 28.5536C19.5308 28.3216 20.2505 26.4969 20.1779 25.3001Z" fill="#AB090D"/>
<mask id="mask1_425_283" style="mask-type:alpha" maskUnits="userSpaceOnUse" x="13" y="25" width="8" height="4">
<path d="M20.1779 25.3001L13.7969 25.6875C14.1671 27.1926 15.3465 28.3988 17.6574 28.1292C19.506 27.9135 20.2406 26.3325 20.1779 25.3001Z" fill="white"/>
</mask>
<g mask="url(#mask1_425_283)">
<path d="M20.1779 25.3001L13.7969 25.6875C14.1671 27.1926 15.3465 28.3988 17.6574 28.1292C19.506 27.9135 20.2406 26.3325 20.1779 25.3001Z" fill="white"/>
</g>
<path d="M29.0832 24.6054L23.8828 24.9609C24.1936 26.5097 25.1383 27.6145 27.0208 27.3529C28.5268 27.1436 29.1405 25.6665 29.0832 24.6054Z" fill="#AB090D"/>
<mask id="mask2_425_283" style="mask-type:alpha" maskUnits="userSpaceOnUse" x="23" y="24" width="7" height="4">
<path d="M29.0832 24.6054L23.8828 24.9609C24.1846 26.3422 25.1225 27.3223 27.0058 27.0749C28.5125 26.877 29.1343 25.5529 29.0832 24.6054Z" fill="white"/>
</mask>
<g mask="url(#mask2_425_283)">
<path d="M29.0832 24.6054L23.8828 24.9609C24.1846 26.3422 25.1225 27.3223 27.0058 27.0749C28.5125 26.877 29.1343 25.5529 29.0832 24.6054Z" fill="white"/>
</g>
<path d="M16.9881 33.9515L16.1484 32.293H17.9253L17.3606 33.9262C17.3021 34.0954 17.069 34.1112 16.9881 33.9515Z" fill="white"/>
<path d="M27.8345 30.6172C23.0688 31.8086 17.1414 32.0884 14.7734 32.0794C14.7734 32.6278 16.8222 32.6532 20.1412 32.2422C23.4601 31.8313 26.8739 31.2624 27.3797 31.0727C27.7843 30.921 27.8515 30.7058 27.8345 30.6172Z" fill="black"/>
<ellipse cx="0.735113" cy="0.448965" rx="0.735113" ry="0.448965" transform="matrix(0.855845 0.517232 -0.517234 0.855844 21.1406 28.3633)" fill="#570D11"/>
<ellipse cx="0.593915" cy="0.362729" rx="0.593915" ry="0.362729" transform="matrix(-0.519866 0.854248 -0.854249 -0.519864 24.4766 28.625)" fill="#570D11"/>
</g>
<mask id="mask3_425_283" style="mask-type:alpha" maskUnits="userSpaceOnUse" x="10" y="15" width="20" height="21">
<rect x="10" y="15.25" width="20" height="20" fill="#F3B286"/>
</mask>
<g mask="url(#mask3_425_283)">
<rect x="10" y="15.25" width="20" height="20" fill="url(#paint3_linear_425_283)"/>
<ellipse cx="10.7887" cy="21.5139" rx="2.27068" ry="1.00841" transform="rotate(-5.09106 10.7887 21.5139)" fill="#67585D"/>
<ellipse cx="2.27068" cy="1.00841" rx="2.27068" ry="1.00841" transform="matrix(-0.996055 -0.0887389 -0.0887393 0.996055 33.2812 20.8242)" fill="#67585D"/>
<ellipse cx="10.7918" cy="19.2213" rx="1.06246" ry="0.60705" transform="rotate(-5.09106 10.7918 19.2213)" fill="#67585D"/>
<ellipse cx="1.06246" cy="0.60705" rx="1.06246" ry="0.60705" transform="matrix(-0.996055 -0.0887389 -0.0887393 0.996055 30 18.7109)" fill="#67585D"/>
<path fill-rule="evenodd" clip-rule="evenodd" d="M21.3369 14.9172C21.4913 14.921 21.5971 15.0952 21.5305 15.2286C21.0575 16.1762 20.4699 18.0391 20.8752 19.9901C20.9079 20.1473 21.1073 20.2077 21.2165 20.1021C21.4432 19.8828 21.7575 19.618 22.092 19.4261C22.2306 19.3466 22.3929 19.4907 22.3587 19.6494C22.0739 20.9716 21.921 23.6017 23.1002 26.115C24.1666 28.3875 25.9906 29.2068 27.225 29.7612C27.8904 30.0601 28.3845 30.282 28.4962 30.6131C28.6891 31.1848 28.3036 31.8226 27.9266 32.2474C27.8136 32.3748 27.9068 32.5843 28.0813 32.5638C28.3552 32.5315 28.6996 32.4614 29.0674 32.3265C29.2109 32.2739 29.3724 32.3978 29.336 32.547C29.2228 33.0122 28.9641 33.6563 28.476 34.1374C28.3564 34.2552 28.4241 34.4758 28.5995 34.4837C29.2063 34.5109 30.1319 34.4251 31.0685 33.99C31.1986 33.9296 31.3638 34.028 31.3724 34.176L31.5495 37.2188C31.5557 37.3262 31.4736 37.4111 31.366 37.4085L21.0365 37.1543C21.0364 37.1543 21.0364 37.1543 21.0364 37.1544V37.1544C21.0364 37.1545 21.0363 37.1545 21.0362 37.1545L9.68633 36.8752C9.57877 36.8726 9.48651 36.7834 9.48026 36.676L9.3032 33.6332C9.29459 33.4852 9.44888 33.3939 9.5874 33.4584C10.6698 33.9622 11.9629 34.0942 12.7042 34.091C12.879 34.0903 12.9213 33.8756 12.7877 33.7515C12.2421 33.2451 11.9076 32.5864 11.7398 32.1142C11.686 31.9628 11.8335 31.8465 11.9835 31.9063C12.3681 32.0598 12.7216 32.147 13.0001 32.1929C13.1775 32.2221 13.2465 32.0165 13.1183 31.8833C12.6908 31.4387 12.2298 30.78 12.3567 30.2162C12.4301 29.8896 12.8998 29.6914 13.5322 29.4245C14.7056 28.9293 16.4393 28.1976 17.2439 25.9711C18.1336 23.5088 17.6737 20.8636 17.234 19.5236C17.1812 19.3627 17.3271 19.2262 17.4754 19.3128C17.8333 19.5217 18.1793 19.8028 18.4322 20.0338C18.5541 20.1452 18.747 20.0944 18.7615 19.9384C18.9406 18.0018 18.1341 16.1045 17.5493 15.1308C17.4671 14.9939 17.5528 14.8243 17.7072 14.8281L19.3039 14.8674C19.3039 14.8674 19.304 14.8673 19.304 14.8673V14.8673C19.304 14.8672 19.304 14.8671 19.3041 14.8671L21.3369 14.9172Z" fill="url(#paint4_linear_425_283)"/>
<ellipse cx="20.0936" cy="28.3982" rx="3.82794" ry="2.79668" fill="url(#paint5_linear_425_283)"/>
<path d="M20.3692 26.3367L20.4906 28.8127M20.4906 28.8127C20.1314 29.8383 17.1834 30.2077 16.4795 28.2728M20.4906 28.8127C20.6131 29.1924 21.1772 29.7653 22.1963 29.6026C23.1002 29.4583 23.5539 28.7697 23.5182 28.318" stroke="#070002" stroke-width="0.292218" stroke-linecap="round"/>
<path d="M20.4065 27.2837L20.4065 27.2838C20.4043 27.2839 20.4019 27.2841 20.3995 27.2842C20.3971 27.2843 20.3948 27.2844 20.3926 27.2845L20.3925 27.2843C20.2927 27.2862 20.0972 27.2483 19.9344 27.0116C19.7132 26.6898 19.5368 26.6152 19.0813 26.458C18.7292 26.3365 18.6966 25.7108 20.3114 25.6281C20.3137 25.628 20.316 25.6278 20.3184 25.6277C20.3207 25.6276 20.323 25.6275 20.3253 25.6274C21.9405 25.5518 21.9692 26.1777 21.6307 26.333C21.1927 26.534 21.0244 26.6255 20.8358 26.9674C20.697 27.219 20.506 27.2757 20.4065 27.2837Z" fill="#98473C"/>
<path fill-rule="evenodd" clip-rule="evenodd" d="M21.6576 26.318C21.6478 26.3237 21.6376 26.329 21.6271 26.3338C21.1972 26.5311 21.0271 26.6229 20.8425 26.9496C20.824 26.7988 20.8313 26.5597 20.9671 26.437C21.1217 26.2973 21.4824 26.2987 21.6576 26.318ZM19.9268 27.0065C19.7075 26.6896 19.5304 26.615 19.0776 26.4587C19.0674 26.4552 19.0575 26.4513 19.0479 26.4469C19.2177 26.4102 19.5834 26.3711 19.7531 26.4965C19.9042 26.6083 19.9324 26.8554 19.9268 27.0065Z" fill="#4F201C"/>
<path d="M14.8256 22.0134C13.4903 22.1366 12.4825 23.4829 11.4766 24.2302C12.1651 24.3089 12.7353 24.3958 13.717 24.8054C14.7092 25.2193 15.5627 25.5485 16.3316 25.1838C16.8317 24.9466 17.3575 24.5917 17.5605 24.3256C17.5605 23.1915 16.5856 21.8511 14.8256 22.0134Z" fill="#513939"/>
<mask id="mask4_425_283" style="mask-type:alpha" maskUnits="userSpaceOnUse" x="12" y="22" width="6" height="4">
<path d="M15.037 22.3147C13.801 22.3637 12.6796 23.6832 12.2734 24.3368C12.8705 24.4964 13.0831 24.7786 13.9888 25.1522C14.904 25.5298 15.717 25.5392 16.4263 25.2066C16.8876 24.9902 17.3741 24.5795 17.5613 24.3368C17.4525 23.4993 16.582 22.2534 15.037 22.3147Z" fill="white"/>
</mask>
<g mask="url(#mask4_425_283)">
<path d="M15.037 22.3147C13.801 22.3637 12.6796 23.6832 12.2734 24.3368C12.8705 24.4964 13.0831 24.7786 13.9888 25.1522C14.904 25.5298 15.717 25.5392 16.4263 25.2066C16.8876 24.9902 17.3741 24.5795 17.5613 24.3368C17.4525 23.4993 16.582 22.2534 15.037 22.3147Z" fill="#EDD67C"/>
<path d="M15.0605 25.7137C15.2227 25.9058 15.5126 25.9058 15.6749 25.7137C15.9864 25.3448 16.1806 24.8237 16.1806 24.2461C16.1806 23.6685 15.9864 23.1474 15.6749 22.7785C15.5126 22.5864 15.2227 22.5864 15.0605 22.7785C14.7489 23.1474 14.5547 23.6685 14.5547 24.2461C14.5547 24.8237 14.7489 25.3448 15.0605 25.7137Z" fill="#070002"/>
</g>
<path d="M25.6686 21.8574C27.025 21.9825 28.0485 23.35 29.0703 24.109C28.371 24.1889 27.7918 24.2772 26.7946 24.6933C25.7868 25.1137 24.9199 25.448 24.1389 25.0776C23.6309 24.8367 23.0969 24.4762 22.8907 24.2059C22.8907 23.0539 23.8809 21.6925 25.6686 21.8574Z" fill="#513939"/>
<mask id="mask5_425_283" style="mask-type:alpha" maskUnits="userSpaceOnUse" x="22" y="22" width="7" height="4">
<path d="M25.4508 22.1624C26.7062 22.2122 27.8452 23.5524 28.2578 24.2162C27.6514 24.3784 27.4354 24.665 26.5155 25.0445C25.5859 25.428 24.7601 25.4376 24.0397 25.0998C23.5711 24.88 23.077 24.4628 22.8868 24.2162C22.9973 23.3657 23.8814 22.1001 25.4508 22.1624Z" fill="white"/>
</mask>
<g mask="url(#mask5_425_283)">
<path d="M25.4508 22.1624C26.7062 22.2122 27.8452 23.5524 28.2578 24.2162C27.6514 24.3784 27.4354 24.665 26.5155 25.0445C25.5859 25.428 24.7601 25.4376 24.0397 25.0998C23.5711 24.88 23.077 24.4628 22.8868 24.2162C22.9973 23.3657 23.8814 22.1001 25.4508 22.1624Z" fill="#EDD67C"/>
<path d="M25.4365 25.6625C25.2763 25.8563 24.9857 25.8563 24.8255 25.6625C24.5358 25.3116 24.3558 24.821 24.3558 24.278C24.3558 23.7349 24.5358 23.2443 24.8255 22.8935C24.9857 22.6996 25.2763 22.6996 25.4365 22.8935C25.7262 23.2443 25.9062 23.7349 25.9062 24.278C25.9062 24.821 25.7262 25.3116 25.4365 25.6625Z" fill="#070002"/>
</g>
</g>
</g>
<g clip-path="url(#clip1_425_283)">
<mask id="mask6_425_283" style="mask-type:alpha" maskUnits="userSpaceOnUse" x="10" y="45" width="20" height="21">
<rect x="10" y="45.25" width="19.9999" height="19.9999" fill="#F3B286"/>
</mask>
<g mask="url(#mask6_425_283)">
<rect x="10" y="45.25" width="19.9999" height="19.9999" fill="url(#paint6_linear_425_283)"/>
<path d="M13.2088 54.1605C10.4816 54.1605 8.85258 54.4881 8.36719 54.8521V66.1042H31.6288V54.1605C29.6631 53.4688 27.3795 54.1605 24.6758 53.8692C21.7791 53.5572 21.8068 50.2891 19.7839 50.2891C17.1928 50.2891 18.2143 54.1605 13.2088 54.1605Z" fill="url(#paint7_linear_425_283)"/>
<ellipse cx="15.0073" cy="51.1152" rx="1.26516" ry="1.69722" fill="#CF8533"/>
<ellipse cx="15.0073" cy="50.8973" rx="1.26516" ry="1.47932" fill="black"/>
<ellipse cx="15.5367" cy="50.8977" rx="0.396118" ry="0.53053" fill="#F3F3F3"/>
<ellipse cx="24.0698" cy="51.1152" rx="1.26516" ry="1.69722" fill="#CF8533"/>
<ellipse cx="24.0698" cy="50.8973" rx="1.26516" ry="1.47932" fill="black"/>
<ellipse cx="23.7245" cy="50.8977" rx="0.404202" ry="0.53053" fill="#F3F3F3"/>
<ellipse cx="14.7982" cy="47.5545" rx="2.06463" ry="1.00365" transform="rotate(7.52549 14.7982 47.5545)" fill="white"/>
<ellipse cx="2.06463" cy="1.00365" rx="2.06463" ry="1.00365" transform="matrix(-0.991387 0.130967 0.130968 0.991387 26.3828 46.2891)" fill="white"/>
<path d="M19.8359 55.0859V58.0871" stroke="#581E0F" stroke-width="0.194811"/>
<path d="M19.8646 55.5062L19.8646 55.5065C19.8612 55.5065 19.8576 55.5065 19.854 55.5065C19.8504 55.5065 19.8469 55.5065 19.8435 55.5065L19.8435 55.5063C19.693 55.5018 19.401 55.4309 19.1728 55.0624C18.8626 54.5618 18.9649 54.4368 18.2898 54.1673C17.7681 53.959 17.401 53.014 19.8398 53.005C19.8434 53.005 19.8469 53.005 19.8504 53.005C19.8539 53.005 19.8574 53.005 19.8609 53.005C22.2998 53.0068 21.9354 53.9519 21.4144 54.1617C20.7401 54.4331 20.8427 54.5589 20.534 55.0605C20.3068 55.4296 20.0151 55.5014 19.8646 55.5062Z" fill="url(#paint8_linear_425_283)"/>
<path fill-rule="evenodd" clip-rule="evenodd" d="M21.4743 54.1355C21.4554 54.1453 21.4362 54.1541 21.4168 54.1619C20.9335 54.3565 20.8493 54.4762 20.7267 54.7132C20.7088 54.5082 20.7161 54.1346 20.8743 54.0474C21.023 53.9653 21.3081 54.0595 21.4743 54.1355ZM18.9472 54.6476C18.8394 54.4548 18.7272 54.3412 18.2922 54.1675C18.2646 54.1565 18.2373 54.1434 18.2109 54.1284C18.3789 54.0539 18.6511 53.9679 18.7952 54.0474C18.9377 54.126 18.9578 54.4369 18.9472 54.6476Z" fill="#210A04"/>
<path d="M21.5307 56.2807C20.1822 56.5998 18.9633 56.1996 18.2673 55.9905C18.1718 55.9619 18.0781 56.0368 18.0781 56.1401V58.5515C18.0781 59.5235 18.836 60.3114 19.771 60.3114C20.6225 60.3114 21.3414 59.6539 21.45 58.7759L21.7353 56.4683C21.7499 56.3498 21.6427 56.2542 21.5307 56.2807Z" fill="url(#paint9_linear_425_283)"/>
<path d="M21.1786 59.5287C20.8129 59.1217 20.1802 58.7743 19.4235 58.6119C18.9421 58.5087 18.4783 58.4949 18.0781 58.556C18.0808 59.5256 18.8377 60.3107 19.771 60.3107C20.353 60.3107 20.8731 60.0035 21.1786 59.5287Z" fill="#FFA0A3"/>
<ellipse cx="23.0912" cy="54.6888" rx="0.309942" ry="0.309941" fill="#CC9D61"/>
<ellipse cx="24.7865" cy="54.8724" rx="0.309942" ry="0.309941" fill="#CC9D61"/>
<ellipse cx="23.6983" cy="56.1827" rx="0.401414" ry="0.401414" fill="#CC9D61"/>
<ellipse cx="14.9875" cy="54.9443" rx="0.309942" ry="0.309941" transform="rotate(-2.55154 14.9875 54.9443)" fill="#CC9D61"/>
<ellipse cx="16.6906" cy="54.8349" rx="0.309942" ry="0.309941" transform="rotate(-2.55154 16.6906 54.8349)" fill="#CC9D61"/>
<ellipse cx="15.6611" cy="56.1917" rx="0.401414" ry="0.401414" transform="rotate(-2.55154 15.6611 56.1917)" fill="#CC9D61"/>
</g>
</g>
<path d="M35 17.25C35 13.384 38.134 10.25 42 10.25H93C96.866 10.25 100 13.384 100 17.25V28.25C100 32.116 96.866 35.25 93 35.25H35V17.25Z" fill="#048DFF"/>
<g opacity="0.8">
<path d="M87.8594 19.0898H57.8259" stroke="white" stroke-width="2" stroke-linecap="round"/>
<path d="M87.8594 26.4102H47.133" stroke="white" stroke-width="2" stroke-linecap="round"/>
</g>
<path d="M100 47.25C100 43.384 96.866 40.25 93 40.25H42C38.134 40.25 35 43.384 35 47.25V65.25H93C96.866 65.25 100 62.116 100 58.25V47.25Z" fill="#AFCAEE"/>
<g opacity="0.8">
<path d="M47.1406 49.0898H87.867" stroke="white" stroke-width="2" stroke-linecap="round"/>
<path d="M47.1406 56.4102H71.5502" stroke="white" stroke-width="2" stroke-linecap="round"/>
</g>
<defs>
<linearGradient id="paint0_linear_425_283" x1="20" y1="15.25" x2="20" y2="35.25" gradientUnits="userSpaceOnUse">
<stop stop-color="#DA1818"/>
<stop offset="1" stop-color="#F23F4F"/>
</linearGradient>
<linearGradient id="paint1_linear_425_283" x1="18.7678" y1="16.3371" x2="19.2446" y2="18.5664" gradientUnits="userSpaceOnUse">
<stop stop-color="#D69C1C"/>
<stop offset="1" stop-color="#D69C1C" stop-opacity="0"/>
</linearGradient>
<linearGradient id="paint2_linear_425_283" x1="21.7386" y1="19.25" x2="21.7387" y2="21.5305" gradientUnits="userSpaceOnUse">
<stop stop-color="#D69C1C"/>
<stop offset="1" stop-color="#D69C1C" stop-opacity="0"/>
</linearGradient>
<linearGradient id="paint3_linear_425_283" x1="20" y1="15.25" x2="20" y2="35.25" gradientUnits="userSpaceOnUse">
<stop stop-color="#7B7174"/>
<stop offset="1" stop-color="#9A8F92"/>
</linearGradient>
<linearGradient id="paint4_linear_425_283" x1="19.2299" y1="14.8653" x2="18.6828" y2="37.0966" gradientUnits="userSpaceOnUse">
<stop stop-color="#DCD1CB"/>
<stop offset="1" stop-color="#FFF9F5"/>
</linearGradient>
<linearGradient id="paint5_linear_425_283" x1="20.0936" y1="25.6016" x2="20.0936" y2="30.5013" gradientUnits="userSpaceOnUse">
<stop stop-color="#BFB9B6"/>
<stop offset="1" stop-color="#E7D3B2" stop-opacity="0"/>
</linearGradient>
<linearGradient id="paint6_linear_425_283" x1="20" y1="45.25" x2="20" y2="65.2499" gradientUnits="userSpaceOnUse">
<stop stop-color="#FC9D36"/>
<stop offset="0.515625" stop-color="#FBBA73"/>
</linearGradient>
<linearGradient id="paint7_linear_425_283" x1="19.998" y1="51.8307" x2="19.998" y2="65.762" gradientUnits="userSpaceOnUse">
<stop stop-color="#FFE4C2"/>
<stop offset="1" stop-color="#FFFAF3"/>
</linearGradient>
<linearGradient id="paint8_linear_425_283" x1="19.8504" y1="53.005" x2="19.854" y2="55.5065" gradientUnits="userSpaceOnUse">
<stop stop-color="#884332"/>
<stop offset="1" stop-color="#662616"/>
</linearGradient>
<linearGradient id="paint9_linear_425_283" x1="19.9222" y1="55.9355" x2="19.9222" y2="60.3114" gradientUnits="userSpaceOnUse">
<stop stop-color="#E2252B"/>
<stop offset="1" stop-color="#DD353B"/>
</linearGradient>
<clipPath id="clip0_425_283">
<rect x="10" y="15.25" width="20" height="20" rx="3.33334" fill="white"/>
</clipPath>
<clipPath id="clip1_425_283">
<rect x="10" y="45.25" width="20" height="20" rx="3.33334" fill="white"/>
</clipPath>
</defs>
</svg>
