<svg width="111" height="75" viewBox="0 0 111 75" fill="none" xmlns="http://www.w3.org/2000/svg">
<rect x="0.5" width="110" height="75" rx="5" fill="url(#paint0_linear_429_315)"/>
<circle cx="90.4979" cy="4.2987" r="1.09948" fill="#B398C1"/>
<circle cx="102.592" cy="55.9745" r="1.09948" fill="#B398C1"/>
<circle cx="80.6059" cy="71.9418" r="0.824639" fill="#B398C1"/>
<circle cx="94.3466" cy="49.9286" r="0.549739" fill="#B398C1"/>
<circle cx="46.4169" cy="73.3154" r="0.549739" fill="#B398C1"/>
<circle cx="17.1669" cy="70.5654" r="0.549739" fill="#B398C1"/>
<circle cx="76.7529" cy="45.5771" r="0.549739" fill="#B398C1"/>
<circle cx="67.412" cy="42.7792" r="1.09948" fill="#B398C1"/>
<circle cx="104.245" cy="27.9365" r="0.549739" fill="#B398C1"/>
<circle cx="78.0936" cy="22.1991" r="0.788915" fill="#B398C1"/>
<circle cx="63.5576" cy="9.24505" r="0.549739" fill="#B398C1"/>
<circle cx="26.8123" cy="54.8748" r="0.664307" transform="rotate(-180 26.8123 54.8748)" fill="#B398C1"/>
<circle cx="14.4397" cy="3.20139" r="0.825955" transform="rotate(-180 14.4397 3.20139)" fill="#B398C1"/>
<circle cx="22.9581" cy="9.24714" r="0.549739" transform="rotate(-180 22.9581 9.24714)" fill="#B398C1"/>
<circle cx="49.9005" cy="16.3927" r="1.09948" transform="rotate(-180 49.9005 16.3927)" fill="#B398C1"/>
<circle cx="13.0674" cy="31.2354" r="0.549739" transform="rotate(-180 13.0674 31.2354)" fill="#B398C1"/>
<circle cx="38.9013" cy="36.956" r="0.770555" transform="rotate(-180 38.9013 36.956)" fill="#B398C1"/>
<circle cx="53.7471" cy="49.9268" r="0.549739" transform="rotate(-180 53.7471 49.9268)" fill="#B398C1"/>
<g clip-path="url(#clip0_429_315)">
<mask id="mask0_429_315" style="mask-type:alpha" maskUnits="userSpaceOnUse" x="80" y="15" width="21" height="20">
<rect x="80.5" y="15" width="20" height="20" fill="#F3B286"/>
</mask>
<g mask="url(#mask0_429_315)">
<rect x="80.5" y="15" width="20" height="20" fill="url(#paint1_linear_429_315)"/>
<path d="M84.1797 25.471L99.9525 24.424C99.3385 24.2555 97.0625 24.0987 92.2222 24.424C86.8676 24.7839 85.3838 25.2302 84.1797 25.471Z" fill="#A71216"/>
<ellipse cx="1.89527" cy="1.25588" rx="1.89527" ry="1.25588" transform="matrix(0.949615 0.313418 -0.31342 0.949615 83.5703 16.0039)" fill="#AB090D"/>
<ellipse cx="1.121" cy="0.91853" rx="1.121" ry="0.91853" transform="matrix(0.949615 0.313418 -0.31342 0.949615 88.1172 18.7539)" fill="#AB090D"/>
<ellipse cx="1.06117" cy="0.869508" rx="1.06117" ry="0.869508" transform="matrix(0.748807 0.662788 -0.66279 0.748805 94.5781 17.6641)" fill="#AB090D"/>
<ellipse cx="0.729066" cy="0.59739" rx="0.729066" ry="0.59739" transform="matrix(0.568425 0.822735 -0.822737 0.568423 92.5938 15.3242)" fill="#AB090D"/>
<path d="M89.7258 17.8437C88.8635 18.1304 88.175 17.3618 88.0297 16.718C87.9874 16.5306 88.0607 16.3419 88.1833 16.194C88.6551 15.625 89.2682 15.1546 89.8283 14.8525C90.0554 14.73 90.3215 14.8797 90.3496 15.1361C90.4667 16.2058 90.4345 17.608 89.7258 17.8437Z" fill="#F1BB42"/>
<path fill-rule="evenodd" clip-rule="evenodd" d="M88.3701 17.4011C88.6327 17.4109 88.9202 17.3781 89.2275 17.2893C89.8906 17.0977 90.2356 16.5146 90.395 15.846C90.4191 16.748 90.2811 17.66 89.722 17.8459C89.1661 18.0307 88.6825 17.7771 88.3701 17.4011Z" fill="url(#paint2_linear_429_315)"/>
<path d="M92.314 20.8135C91.4107 20.9136 90.8982 20.0179 90.8907 19.358C90.8885 19.1659 90.9997 18.9967 91.1505 18.8777C91.7309 18.4199 92.4288 18.0881 93.0397 17.9099C93.2874 17.8376 93.5163 18.0396 93.4901 18.2962C93.381 19.3668 93.0562 20.7312 92.314 20.8135Z" fill="#F1BB42"/>
<path fill-rule="evenodd" clip-rule="evenodd" d="M91.0859 20.0978C91.3407 20.1623 91.6286 20.1903 91.9476 20.1678C92.6364 20.1191 93.0957 19.6207 93.3914 19C93.2264 19.8873 92.9006 20.7506 92.3149 20.8155C91.7327 20.88 91.3129 20.5309 91.0859 20.0978Z" fill="url(#paint3_linear_429_315)"/>
<path d="M90.6779 25.0501L84.2969 25.4375C84.6818 27.1848 85.8735 28.5937 88.1831 28.3036C90.0308 28.0716 90.7505 26.2469 90.6779 25.0501Z" fill="#AB090D"/>
<mask id="mask1_429_315" style="mask-type:alpha" maskUnits="userSpaceOnUse" x="84" y="25" width="7" height="3">
<path d="M90.6779 25.0501L84.2969 25.4375C84.6671 26.9426 85.8465 28.1488 88.1574 27.8792C90.006 27.6635 90.7406 26.0825 90.6779 25.0501Z" fill="white"/>
</mask>
<g mask="url(#mask1_429_315)">
<path d="M90.6779 25.0501L84.2969 25.4375C84.6671 26.9426 85.8465 28.1488 88.1574 27.8792C90.006 27.6635 90.7406 26.0825 90.6779 25.0501Z" fill="white"/>
</g>
<path d="M99.5832 24.3554L94.3828 24.7109C94.6936 26.2597 95.6383 27.3645 97.5208 27.1029C99.0268 26.8936 99.6405 25.4165 99.5832 24.3554Z" fill="#AB090D"/>
<mask id="mask2_429_315" style="mask-type:alpha" maskUnits="userSpaceOnUse" x="94" y="24" width="6" height="3">
<path d="M99.5832 24.3554L94.3828 24.7109C94.6846 26.0922 95.6225 27.0723 97.5058 26.8249C99.0125 26.627 99.6343 25.3029 99.5832 24.3554Z" fill="white"/>
</mask>
<g mask="url(#mask2_429_315)">
<path d="M99.5832 24.3554L94.3828 24.7109C94.6846 26.0922 95.6225 27.0723 97.5058 26.8249C99.0125 26.627 99.6343 25.3029 99.5832 24.3554Z" fill="white"/>
</g>
<path d="M87.4881 33.7015L86.6484 32.043H88.4253L87.8606 33.6762C87.8021 33.8454 87.569 33.8612 87.4881 33.7015Z" fill="white"/>
<path d="M98.3345 30.3672C93.5688 31.5586 87.6414 31.8384 85.2734 31.8294C85.2734 32.3778 87.3222 32.4032 90.6412 31.9922C93.9601 31.5813 97.3739 31.0124 97.8797 30.8227C98.2843 30.671 98.3515 30.4558 98.3345 30.3672Z" fill="black"/>
<ellipse cx="0.735113" cy="0.448965" rx="0.735113" ry="0.448965" transform="matrix(0.855845 0.517232 -0.517234 0.855844 91.6406 28.1133)" fill="#570D11"/>
<ellipse cx="0.593915" cy="0.362729" rx="0.593915" ry="0.362729" transform="matrix(-0.519866 0.854248 -0.854249 -0.519864 94.9766 28.375)" fill="#570D11"/>
</g>
</g>
<g clip-path="url(#clip1_429_315)">
<mask id="mask3_429_315" style="mask-type:alpha" maskUnits="userSpaceOnUse" x="10" y="45" width="21" height="20">
<rect x="10.5" y="45" width="20" height="20" fill="#F3B286"/>
</mask>
<g mask="url(#mask3_429_315)">
<rect x="10.5" y="45" width="20" height="20" fill="#FFDFBA"/>
<path fill-rule="evenodd" clip-rule="evenodd" d="M9.89062 55.4531C10.6374 55.613 12.4766 56.4124 13.8589 58.3311C14.1243 58.1109 14.817 57.6774 15.4643 57.7042C15.387 57.8386 15.2141 58.2551 15.1413 58.8462C16.3745 57.7063 17.2613 57.6769 18.3619 57.6404C19.2363 57.6114 20.2457 57.5779 21.6711 56.9796L21.6711 56.9796C21.6711 56.9796 21.6711 56.9796 21.6711 56.9796C21.6712 56.9796 21.6712 56.9796 21.6712 56.9796L21.6712 56.9796C23.136 57.5779 24.1476 57.6114 25.024 57.6404C26.127 57.6769 27.0157 57.7063 28.3242 58.8462C28.2124 58.2551 28.012 57.8386 27.9258 57.7042C28.5714 57.6774 29.2927 58.1109 29.5726 58.3311C30.8282 56.4124 32.6147 55.613 33.3509 55.4531L33.6699 65.1192H21.9398H21.9397H10.2096L9.89062 55.4531Z" fill="url(#paint4_linear_429_315)"/>
<path d="M20.2165 60.9561C19.4196 61.2859 18.3922 61.1496 17.8398 61.007C17.7422 60.9818 17.6427 61.0366 17.6193 61.1329C17.5979 61.221 17.6467 61.3175 17.7328 61.3515C18.0097 61.4607 18.6308 61.6606 19.5555 61.5815C20.7415 61.48 21.0752 61.0452 21.7487 60.7987C22.4223 60.5523 22.5464 60.7987 23.5011 61.1611C24.4558 61.5235 25.2677 61.0742 25.4118 61.0452C25.5558 61.0162 26.0042 60.5378 24.8525 60.7987C23.7008 61.0597 22.4254 59.7695 21.9468 59.7695C21.4682 59.7695 21.3326 60.4943 20.2165 60.9561Z" fill="#371F09"/>
<path d="M21.8492 58.0995C20.657 58.0995 19.868 57.5765 19.6226 57.315L21.6407 56.9141L23.8506 57.1622C23.6802 57.4746 23.0415 58.0995 21.8492 58.0995Z" fill="#FFDFBA"/>
<path d="M32.7502 40.7773H9.19531L9.44335 48.2938L21.2737 45.5992L32.9982 48.2938L32.7502 40.7773Z" fill="#504AAE"/>
<path d="M21.8852 48.4145C17.0868 48.2625 12.2379 49.3037 10.4133 49.8434L10.4093 46.812C12.1811 46.0923 15.843 44.6566 21.8805 44.8479C26.8052 45.004 30.6956 46.8792 32.0252 47.7973L32.0288 50.5283C30.6469 49.887 26.6835 48.5666 21.8852 48.4145Z" fill="url(#paint5_linear_429_315)"/>
<path fill-rule="evenodd" clip-rule="evenodd" d="M32.5074 45.918C29.1645 47.7919 19.7586 51.4546 9.17519 50.9385L9.11826 52.106C10.5747 52.177 12.009 52.1711 13.4095 52.1028C13.6191 55.5159 15.8443 56.2504 18.5315 55.6769C20.6154 55.2322 20.9738 52.7407 20.7081 51.1869C26.4051 50.0446 30.9167 48.1497 33.0789 46.9376L32.5074 45.918Z" fill="url(#paint6_linear_429_315)"/>
<path d="M21.9006 47.9009C17.0998 47.9009 12.2884 49.1568 10.4827 49.7848L10.3776 46.5988C12.1244 45.7833 15.7363 44.1523 21.7769 44.1523C26.7041 44.1523 30.6549 45.9937 32.0144 46.9145L32.1091 49.7848C30.7066 49.1568 26.7013 47.9009 21.9006 47.9009Z" fill="url(#paint7_linear_429_315)"/>
<path opacity="0.5" d="M23.6565 45.8083C18.3832 45.0909 12.2987 46.8484 9.91556 47.8169L9.94584 48.7345C11.0591 48.2269 12.2549 47.8008 13.4671 47.4448C17.4847 46.2652 21.683 45.8566 23.6565 45.8083Z" fill="#CC1B26"/>
<path d="M22.9893 52.7752C22.2666 52.5533 22.4429 51.8095 22.6213 51.4654C24.164 51.4654 24.0784 50.7412 26.2719 50.4022C28.0267 50.131 28.7645 51.3422 29.0834 51.9739C26.9121 50.6488 23.8926 53.0525 22.9893 52.7752Z" fill="#603813"/>
<path d="M28.537 53.1385C27.0117 51.6023 23.9077 52.7339 23.2689 53.4169C23.6492 54.0128 24.7973 55.146 26.347 54.9122C27.8966 54.6783 28.4527 53.6323 28.537 53.1385Z" fill="black"/>
<mask id="mask4_429_315" style="mask-type:alpha" maskUnits="userSpaceOnUse" x="23" y="52" width="6" height="3">
<path d="M28.5361 53.1415C26.6489 52.1088 24.2377 52.8968 23.268 53.4199C23.6484 54.0157 24.7965 55.149 26.3461 54.9151C27.8957 54.6813 28.4518 53.6353 28.5361 53.1415Z" fill="white"/>
</mask>
<g mask="url(#mask4_429_315)">
<path d="M28.5361 53.1415C26.6489 52.1088 24.2377 52.8968 23.268 53.4199C23.6484 54.0157 24.7965 55.149 26.3461 54.9151C27.8957 54.6813 28.4518 53.6353 28.5361 53.1415Z" fill="white"/>
<circle cx="1.09897" cy="1.09897" r="1.09897" transform="matrix(1 0 0.0329807 0.999456 24.7656 52.1797)" fill="black"/>
</g>
</g>
</g>
<path d="M75.5 17C75.5 13.134 72.366 10 68.5 10H17.5C13.634 10 10.5 13.134 10.5 17V28C10.5 31.866 13.634 35 17.5 35H75.5V17Z" fill="#9D74F3"/>
<g opacity="0.8">
<path d="M22.6406 18.8398H52.6741" stroke="white" stroke-width="2" stroke-linecap="round"/>
<path d="M22.6406 26.1602H63.367" stroke="white" stroke-width="2" stroke-linecap="round"/>
</g>
<path d="M100.5 47C100.5 43.134 97.366 40 93.5 40H42.5C38.634 40 35.5 43.134 35.5 47V65H93.5C97.366 65 100.5 61.866 100.5 58V47Z" fill="#4339A3"/>
<g opacity="0.8">
<path d="M47.6406 48.8398H88.367" stroke="white" stroke-width="2" stroke-linecap="round"/>
<path d="M47.6406 56.1602H72.0502" stroke="white" stroke-width="2" stroke-linecap="round"/>
</g>
<defs>
<linearGradient id="paint0_linear_429_315" x1="80.724" y1="-9.8485" x2="29.9714" y2="74.0564" gradientUnits="userSpaceOnUse">
<stop stop-color="#1C1020"/>
<stop offset="1" stop-color="#36124F"/>
</linearGradient>
<linearGradient id="paint1_linear_429_315" x1="90.5" y1="15" x2="90.5" y2="35" gradientUnits="userSpaceOnUse">
<stop stop-color="#DA1818"/>
<stop offset="1" stop-color="#F23F4F"/>
</linearGradient>
<linearGradient id="paint2_linear_429_315" x1="89.2678" y1="16.0871" x2="89.7446" y2="18.3164" gradientUnits="userSpaceOnUse">
<stop stop-color="#D69C1C"/>
<stop offset="1" stop-color="#D69C1C" stop-opacity="0"/>
</linearGradient>
<linearGradient id="paint3_linear_429_315" x1="92.2386" y1="19" x2="92.2387" y2="21.2805" gradientUnits="userSpaceOnUse">
<stop stop-color="#D69C1C"/>
<stop offset="1" stop-color="#D69C1C" stop-opacity="0"/>
</linearGradient>
<linearGradient id="paint4_linear_429_315" x1="21.6208" y1="55.4531" x2="21.6208" y2="65.1192" gradientUnits="userSpaceOnUse">
<stop stop-color="#603813"/>
<stop offset="1" stop-color="#76471C"/>
</linearGradient>
<linearGradient id="paint5_linear_429_315" x1="21.214" y1="44.8268" x2="22.643" y2="53.6733" gradientUnits="userSpaceOnUse">
<stop stop-color="#FBC689"/>
<stop offset="1" stop-color="#FBC689" stop-opacity="0"/>
</linearGradient>
<linearGradient id="paint6_linear_429_315" x1="17.3481" y1="47.7513" x2="16.81" y2="56.9666" gradientUnits="userSpaceOnUse">
<stop/>
<stop offset="1" stop-color="#393939"/>
</linearGradient>
<linearGradient id="paint7_linear_429_315" x1="21.1101" y1="44.1523" x2="21.1101" y2="49.7848" gradientUnits="userSpaceOnUse">
<stop stop-color="#EA313C"/>
<stop offset="1" stop-color="#EA3C47"/>
</linearGradient>
<clipPath id="clip0_429_315">
<rect x="80.5" y="15" width="20" height="20" rx="3.33334" fill="white"/>
</clipPath>
<clipPath id="clip1_429_315">
<rect x="10.5" y="45" width="20" height="20" rx="3.33334" fill="white"/>
</clipPath>
</defs>
</svg>
